<svg xmlns="http://www.w3.org/2000/svg" xmlns:xlink="http://www.w3.org/1999/xlink" width="108" height="108" viewBox="0 0 108 108">
  <defs>
    <filter id="Fondo" x="0" y="0" width="108" height="108" filterUnits="userSpaceOnUse">
      <feOffset dy="3" input="SourceAlpha"/>
      <feGaussianBlur stdDeviation="3" result="blur"/>
      <feFlood flood-opacity="0.161"/>
      <feComposite operator="in" in2="blur"/>
      <feComposite in="SourceGraphic"/>
    </filter>
  </defs>
  <g id="Grupo_1143981" data-name="Grupo 1143981" transform="translate(-326 -2033)">
    <g id="Icono" transform="translate(335 1344)">
      <g transform="matrix(1, 0, 0, 1, -9, 689)" filter="url(#Fondo)">
        <g id="Fondo-2" data-name="Fondo" transform="translate(9 6)" fill="#fffbe7" stroke="#8b791c" stroke-width="3">
          <circle cx="45" cy="45" r="45" stroke="none"/>
          <circle cx="45" cy="45" r="43.5" fill="none"/>
        </g>
      </g>
    </g>
    <g id="XMLID_2182_" transform="translate(351.459 2055.458)">
      <g id="Grupo_1143980" data-name="Grupo 1143980" transform="translate(1.037 1.038)">
        <path id="XMLID_2244_" d="M121.847,24.034V15.221a7.37,7.37,0,0,0-2.163-5.216l0,0a7.37,7.37,0,0,0-2.187,5.24v8.792Z" transform="translate(-106.349 -10.001)" fill="#fff"/>
        <path id="XMLID_2243_" d="M141.673,146.6l7.632,4.406a7.37,7.37,0,0,1,3.435,4.481l0,.006a7.371,7.371,0,0,1-5.632-.726l-7.614-4.4Z" transform="translate(-126.07 -132.441)" fill="#fff"/>
        <path id="XMLID_2245_" d="M21.071,146.6l-7.632,4.406A7.37,7.37,0,0,0,10,155.491l0,.006a7.371,7.371,0,0,0,5.632-.726l7.614-4.4Z" transform="translate(-10.002 -132.441)" fill="#fff"/>
      </g>
      <circle id="XMLID_2262_" cx="2.531" cy="2.531" r="2.531" transform="translate(11.828 13.883)" fill="#e1e3e9"/>
      <path id="XMLID_2246_" d="M118.491,182.976h4.147v33.111h-4.147Z" transform="translate(-106.206 -164.005)" fill="#b5bcc9"/>
      <circle id="XMLID_1850_" cx="5.104" cy="5.104" r="5.104" transform="translate(35.124 7.754)" fill="#ffcb7c"/>
      <g id="XMLID_1943_" transform="translate(16.432 29.653)">
        <path id="XMLID_1894_" d="M298.266,454h5.806v4.977h-5.806Z" transform="translate(-283.774 -436.583)" fill="#e1e3e9"/>
        <path id="XMLID_1893_" d="M187.915,286H163.883a1.451,1.451,0,0,0-1.4,1.071l-3.939,14.515a1.451,1.451,0,0,0,1.4,1.832h31.911a1.451,1.451,0,0,0,1.4-1.832l-3.939-14.515A1.451,1.451,0,0,0,187.915,286Z" transform="translate(-158.491 -286.001)" fill="#cff1fb"/>
      </g>
      <g id="XMLID_603_" transform="translate(0 0.001)">
        <path id="XMLID_604_" d="M442.13,37.281a1.034,1.034,0,0,0,.733-.3l1.816-1.816a1.037,1.037,0,0,0-1.466-1.466L441.4,35.511a1.037,1.037,0,0,0,.733,1.77Z" transform="translate(-395.362 -29.929)"/>
        <path id="XMLID_707_" d="M299.512,36.978a1.037,1.037,0,0,0,1.466-1.466L299.162,33.7a1.037,1.037,0,0,0-1.466,1.466Z" transform="translate(-266.559 -29.93)"/>
        <path id="XMLID_710_" d="M334.918,77.056a6.14,6.14,0,1,0-6.14-6.14A6.147,6.147,0,0,0,334.918,77.056Zm0-10.207a4.067,4.067,0,1,1-4.067,4.067A4.071,4.071,0,0,1,334.918,66.849Z" transform="translate(-294.691 -58.059)"/>
        <path id="XMLID_711_" d="M442.864,177.4a1.037,1.037,0,0,0-1.466,1.466l1.816,1.816a1.037,1.037,0,1,0,1.466-1.466Z" transform="translate(-395.363 -158.733)"/>
        <path id="XMLID_712_" d="M299.512,177.4l-1.816,1.816a1.037,1.037,0,1,0,1.466,1.466l1.816-1.816a1.037,1.037,0,0,0-1.466-1.466Z" transform="translate(-266.559 -158.733)"/>
        <path id="XMLID_713_" d="M467.228,115.038a1.037,1.037,0,0,0,1.037,1.037h2.569a1.037,1.037,0,1,0,0-2.074h-2.569A1.037,1.037,0,0,0,467.228,115.038Z" transform="translate(-418.787 -102.182)"/>
        <path id="XMLID_714_" d="M379.04,4.643a1.037,1.037,0,0,0,1.037-1.037V1.038a1.037,1.037,0,0,0-2.074,0V3.606A1.037,1.037,0,0,0,379.04,4.643Z" transform="translate(-338.812 -0.001)"/>
        <path id="XMLID_715_" d="M378,204.263v2.569a1.037,1.037,0,0,0,2.074,0v-2.569a1.037,1.037,0,0,0-2.074,0Z" transform="translate(-338.812 -182.156)"/>
        <path id="XMLID_716_" d="M265.04,116.075h2.569a1.037,1.037,0,1,0,0-2.074H265.04a1.037,1.037,0,1,0,0,2.074Z" transform="translate(-236.632 -102.182)"/>
        <path id="XMLID_719_" d="M52.047,51.011H37.766v-2.9H49.8a2.488,2.488,0,0,0,2.4-3.14L48.257,30.453a2.493,2.493,0,0,0-2.4-1.837H21.824a2.493,2.493,0,0,0-2.4,1.837l-1.953,7.2V21.9l4.09,2.361a8.453,8.453,0,0,0,4.217,1.123,8.357,8.357,0,0,0,2.207-.3,1.042,1.042,0,0,0,.726-1.273,8.352,8.352,0,0,0-3.919-5.111l-7.218-4.167V6.258A8.355,8.355,0,0,0,15.1.3,1.037,1.037,0,0,0,13.64.3a8.461,8.461,0,0,0-2.5,5.977v8.28L3.956,18.709a8.354,8.354,0,0,0-3.92,5.116,1.037,1.037,0,0,0,.728,1.268,8.356,8.356,0,0,0,2.207.3,8.456,8.456,0,0,0,4.217-1.123l4.061-2.344v9.546a1.037,1.037,0,1,0,2.074,0V20.724l1.051-.607,1.022.59v30.3H13.322V40.8a1.037,1.037,0,1,0-2.074,0V51.011H1.037a1.037,1.037,0,1,0,0,2.074H52.047a1.037,1.037,0,0,0,0-2.074Zm-36.194-34.6a1.494,1.494,0,1,1-1.494-1.494A1.5,1.5,0,0,1,15.853,16.414Zm10.466,6.878A6.381,6.381,0,0,1,22.6,22.47l-5.87-3.389A3.567,3.567,0,0,0,17.859,17.1l5.894,3.4A6.284,6.284,0,0,1,26.319,23.292ZM14.368,2.642A6.288,6.288,0,0,1,15.5,6.258v6.777a3.554,3.554,0,0,0-2.281,0V6.278A6.38,6.38,0,0,1,14.368,2.642ZM6.151,22.47a6.375,6.375,0,0,1-3.724.822A6.286,6.286,0,0,1,4.993,20.5l5.868-3.388A3.568,3.568,0,0,0,12,19.091ZM26.084,46.034,26.59,42.3h6.2v3.732Zm-8.2,0a.415.415,0,0,1-.4-.523l.871-3.209H24.5l-.506,3.732ZM19.931,36.5h5.354l-.506,3.732H18.918ZM32.794,30.69v3.732H27.659l.506-3.732Zm6.7,0L40,34.422H34.867V30.69Zm9.266,9.538H42.883L42.376,36.5h5.373Zm-7.972,0H34.867V36.5h5.416Zm-8-3.732v3.732H26.871l.506-3.732ZM34.867,42.3h6.2l.506,3.732h-6.71Zm15.257,3.57a.407.407,0,0,1-.329.163H43.67L43.164,42.3h6.161l.871,3.209A.408.408,0,0,1,50.125,45.871ZM46.256,31l.93,3.426H42.095l-.506-3.732h4.268a.415.415,0,0,1,.4.306ZM21.824,30.69h4.249l-.506,3.732H20.494L21.424,31A.416.416,0,0,1,21.824,30.69ZM17.469,48.073a2.53,2.53,0,0,0,.416.035h12v2.9H17.469ZM31.96,51.011v-2.9h3.732v2.9Z" transform="translate(0 -0.001)"/>
        <path id="XMLID_737_" d="M109.529,340.573a1.037,1.037,0,1,0-.733-.3A1.04,1.04,0,0,0,109.529,340.573Z" transform="translate(-97.244 -303.404)"/>
      </g>
    </g>
  </g>
</svg>
