<svg xmlns="http://www.w3.org/2000/svg" xmlns:xlink="http://www.w3.org/1999/xlink" width="108" height="108" viewBox="0 0 108 108">
  <defs>
    <filter id="Fondo" x="0" y="0" width="108" height="108" filterUnits="userSpaceOnUse">
      <feOffset dy="3" input="SourceAlpha"/>
      <feGaussianBlur stdDeviation="3" result="blur"/>
      <feFlood flood-opacity="0.161"/>
      <feComposite operator="in" in2="blur"/>
      <feComposite in="SourceGraphic"/>
    </filter>
  </defs>
  <g id="Grupo_1143995" data-name="Grupo 1143995" transform="translate(-745.999 -2033)">
    <g id="Icono" transform="translate(420.279 1344)">
      <g transform="matrix(1, 0, 0, 1, 325.72, 689)" filter="url(#Fondo)">
        <g id="Fondo-2" data-name="Fondo" transform="translate(9 6)" fill="#fffbe7" stroke="#8b791c" stroke-width="3">
          <circle cx="45" cy="45" r="45" stroke="none"/>
          <circle cx="45" cy="45" r="43.5" fill="none"/>
        </g>
      </g>
    </g>
    <g id="Grupo_1143994" data-name="Grupo 1143994" transform="translate(774.921 2058.772)">
      <g id="Grupo_1143984" data-name="Grupo 1143984" transform="translate(6.993 19.588)">
        <path id="Trazado_978775" data-name="Trazado 978775" d="M268.551,198.431h-4.679a2.084,2.084,0,0,0-2.084,2.105h0V221.57A2.183,2.183,0,0,0,263.915,224h.011c.031,0,3.117-.017,4.838-.047a9.878,9.878,0,0,0,7.8-3.966,14.446,14.446,0,0,0,2.715-8.772C279.277,203.569,274.967,198.431,268.551,198.431Zm.141,21.356c-.758.013-1.789.024-2.7.032-.029-8.794-.013-6.189-.032-17.221h2.592c4.836,0,6.56,4.452,6.56,8.618C275.11,215.554,272.975,219.712,268.692,219.787Z" transform="translate(-243.135 -198.431)" fill="#eab14d"/>
        <g id="Grupo_1143982" data-name="Grupo 1143982" transform="translate(20.126)">
          <path id="Trazado_978776" data-name="Trazado 978776" d="M282.119,198.431H277.44a2.084,2.084,0,0,0-.51.063,9.774,9.774,0,0,1,7.279,4.427c3.254,1.1,4.47,4.8,4.47,8.294,0,3.663-1.523,7.2-4.576,8.254q-.18.265-.373.517a9.872,9.872,0,0,1-6.9,3.911,2.125,2.125,0,0,0,.653.1h.011c.031,0,3.117-.017,4.838-.047a9.877,9.877,0,0,0,7.8-3.966,14.446,14.446,0,0,0,2.715-8.772C292.846,203.569,288.535,198.431,282.119,198.431Z" transform="translate(-276.83 -198.431)" fill="#e49542"/>
        </g>
        <path id="Trazado_978777" data-name="Trazado 978777" d="M86.25,205.865a7.435,7.435,0,0,0-14.729-1.439,2.084,2.084,0,0,0,4.089.8,3.268,3.268,0,1,1,3.255,3.9,2.126,2.126,0,0,0-2.116,1.812,2.084,2.084,0,0,0,2.066,2.356,3.267,3.267,0,1,1-3.267,3.264,2.027,2.027,0,0,0-1.218-1.906,2.1,2.1,0,0,0-2.95,1.909A7.434,7.434,0,1,0,84.5,211.786a.882.882,0,0,1,0-1.14,7.4,7.4,0,0,0,1.748-4.781Z" transform="translate(-71.382 -198.431)" fill="#eab14d"/>
        <g id="Grupo_1143983" data-name="Grupo 1143983" transform="translate(4.188)">
          <path id="Trazado_978778" data-name="Trazado 978778" d="M123.063,210.646a7.428,7.428,0,0,0-8.933-11.465,7.483,7.483,0,0,1,3.427,3.422c.105.006.211.016.318.033a3.267,3.267,0,0,1-.319,6.491l-.012.025a4.639,4.639,0,0,0,0,4.13l.012.024a3.267,3.267,0,0,1,.324,6.49c-.108.017-.215.027-.322.033a7.483,7.483,0,0,1-3.424,3.421,7.426,7.426,0,0,0,8.93-11.463.882.882,0,0,1,0-1.14Z" transform="translate(-114.13 -198.431)" fill="#e49542"/>
        </g>
      </g>
      <g id="Grupo_1143992" data-name="Grupo 1143992" transform="translate(0.735 4.277)">
        <g id="Grupo_1143991" data-name="Grupo 1143991">
          <g id="Grupo_1143990" data-name="Grupo 1143990">
            <g id="Grupo_1143987" data-name="Grupo 1143987" transform="translate(0 1.475)">
              <g id="Grupo_1143986" data-name="Grupo 1143986">
                <g id="Grupo_1143985" data-name="Grupo 1143985">
                  <path id="Trazado_978779" data-name="Trazado 978779" d="M54.174,61.212H9.513a2.013,2.013,0,0,1,0-4.026H54.174a2.013,2.013,0,1,1,0,4.026Z" transform="translate(-7.5 -57.186)" fill="#81a7c6"/>
                </g>
              </g>
            </g>
            <g id="Grupo_1143989" data-name="Grupo 1143989" transform="translate(0)">
              <path id="Trazado_978780" data-name="Trazado 978780" d="M53.81,460.556H9.877a2.377,2.377,0,0,1,0-4.754H53.81a2.377,2.377,0,0,1,0,4.754Z" transform="translate(-7.5 -415.278)" fill="#81a7c6"/>
              <path id="Trazado_978781" data-name="Trazado 978781" d="M425.02,57.186h-6.4a2.013,2.013,0,0,1,2.013,2.013v2.013h4.387a2.013,2.013,0,0,0,0-4.026Z" transform="translate(-378.346 -55.711)" fill="#5c90b9"/>
              <path id="Trazado_978782" data-name="Trazado 978782" d="M421.3,460.556h-6.4a2.377,2.377,0,0,0,2.377-2.377V455.8H421.3a2.377,2.377,0,0,1,0,4.754Z" transform="translate(-374.991 -415.278)" fill="#5c90b9"/>
              <g id="Grupo_1143988" data-name="Grupo 1143988" transform="translate(20.05)">
                <path id="Trazado_978783" data-name="Trazado 978783" d="M221.14,104.762l1.564,3.892a.57.57,0,0,0,.529.358h2.644a.57.57,0,0,0,.529-.358l1.564-3.892Z" transform="translate(-220.262 -98.626)" fill="#365e7d"/>
                <path id="Trazado_978784" data-name="Trazado 978784" d="M212.888,49.1h7.162a.712.712,0,0,0,.712-.712V42.84a.712.712,0,0,0-.712-.712h-7.162a.712.712,0,0,0-.712.712v5.551A.712.712,0,0,0,212.888,49.1Z" transform="translate(-212.176 -42.128)" fill="#407093"/>
              </g>
            </g>
          </g>
        </g>
      </g>
      <g id="Grupo_1143993" data-name="Grupo 1143993" transform="translate(0 0.166)">
        <path id="Trazado_978785" data-name="Trazado 978785" d="M47.045,216.144H38.382c3.777-2.53,5.488-7.158,5.488-11.693,0-7.49-4.168-13.52-11.461-13.52H27.729a2.817,2.817,0,0,0-2.818,2.833v21.041a3.743,3.743,0,0,0,.234,1.339H19.578a8.161,8.161,0,0,0,1.1-11.6.148.148,0,0,1,0-.193,8.166,8.166,0,0,0,1.781-3.746.735.735,0,0,0-1.444-.271,6.694,6.694,0,0,1-1.46,3.07,1.616,1.616,0,0,0,0,2.087,6.69,6.69,0,0,1-2.972,10.65H12.286A6.689,6.689,0,0,1,7.727,209.8a1.362,1.362,0,0,1,1.938-1.228,1.289,1.289,0,0,1,.76,1.225,4,4,0,1,0,4-4,1.349,1.349,0,0,1-1.337-1.529,1.4,1.4,0,0,1,1.4-1.17,4,4,0,1,0-3.987-4.779,1.349,1.349,0,1,1-2.647-.52,6.7,6.7,0,0,1,13.007-.576.735.735,0,1,0,1.411-.411,8.17,8.17,0,0,0-15.86.7,2.818,2.818,0,0,0,5.531,1.086,2.533,2.533,0,1,1,2.523,3.026,2.874,2.874,0,0,0-2.834,2.454,2.82,2.82,0,0,0,2.8,3.182,2.534,2.534,0,0,1,2.532,2.594,2.532,2.532,0,0,1-5.064-.063,2.75,2.75,0,0,0-1.675-2.587A2.831,2.831,0,0,0,6.258,209.8a8.137,8.137,0,0,0,3.027,6.342H3.112a3.112,3.112,0,0,0,0,6.224H47.045a3.112,3.112,0,0,0,0-6.224ZM26.38,193.78v-.01a1.349,1.349,0,0,1,1.349-1.369h4.679c6.478,0,9.992,5.409,9.992,12.05,0,5.243-2.5,10.36-7.542,11.693h-8a1.817,1.817,0,0,1-.478-1.339V193.78ZM47.045,220.9H3.112a1.642,1.642,0,0,1,0-3.285H47.045a1.642,1.642,0,0,1,0,3.285Z" transform="translate(0 -172.244)"/>
        <path id="Trazado_978786" data-name="Trazado 978786" d="M2.748,10.512h.617v.947a3,3,0,1,0,5.991,0v-.947h10.7v.028A1.449,1.449,0,0,0,21.5,11.987H21.5l1.041,2.591a1.3,1.3,0,0,0,1.211.818h.587v1.341a.735.735,0,0,0,1.469,0V15.4H26.4a1.3,1.3,0,0,0,1.211-.818l1.041-2.591h.007a1.449,1.449,0,0,0,1.447-1.447v-.028h17.3a2.748,2.748,0,0,0,0-5.5h-17.3V4.989a1.449,1.449,0,0,0-1.447-1.447H25.813V3.266a3.1,3.1,0,0,0-3.1-3.1H10.986a3.1,3.1,0,0,0-3.1,3.1V9.043H2.748a1.278,1.278,0,0,1,0-2.556H5.186a.735.735,0,0,0,0-1.469H2.748a2.748,2.748,0,0,0,0,5.5ZM30.106,6.487h17.3a1.278,1.278,0,0,1,0,2.556h-17.3Zm-3.817,7.441H23.867l-.78-1.94h3.981Zm2.347-8.916v5.506H21.52V5.753h0V5.011h7.117ZM9.355,3.266a1.632,1.632,0,0,1,1.63-1.63H22.713a1.632,1.632,0,0,1,1.63,1.63v.276H21.5a1.449,1.449,0,0,0-1.447,1.447v.028H12.056a.735.735,0,0,0,0,1.469h7.995V9.043H9.355ZM4.834,10.512H7.886v.947a1.526,1.526,0,1,1-3.052,0Z" transform="translate(0 -0.166)"/>
        <path id="Trazado_978787" data-name="Trazado 978787" d="M297.609,241.832h0a.735.735,0,0,0,.734-.736c0-1.411,0-3.289-.009-6.157h1.856c4.125,0,5.825,3.73,5.825,7.883,0,3.888-1.827,7.769-5.7,7.836-.575.01-1.3.018-1.955.025-.01-3.179-.014-4.734-.016-6.153a.735.735,0,0,0-.735-.734h0a.735.735,0,0,0-.734.736c0,1.524.007,3.208.019,6.894a.735.735,0,0,0,.735.732h.006c.787-.007,1.9-.018,2.707-.032,4.735-.083,7.14-4.586,7.14-9.306,0-5-2.3-9.353-7.294-9.353H297.6a.735.735,0,0,0-.735.736c.006,3.288.008,5.364.01,6.892A.735.735,0,0,0,297.609,241.832Z" transform="translate(-267.783 -210.615)"/>
      </g>
    </g>
  </g>
</svg>
