<svg xmlns="http://www.w3.org/2000/svg" xmlns:xlink="http://www.w3.org/1999/xlink" width="108" height="108" viewBox="0 0 108 108">
  <defs>
    <filter id="Fondo" x="0" y="0" width="108" height="108" filterUnits="userSpaceOnUse">
      <feOffset dy="3" input="SourceAlpha"/>
      <feGaussianBlur stdDeviation="3" result="blur"/>
      <feFlood flood-opacity="0.161"/>
      <feComposite operator="in" in2="blur"/>
      <feComposite in="SourceGraphic"/>
    </filter>
  </defs>
  <g id="Grupo_1144000" data-name="Grupo 1144000" transform="translate(-1165.999 -2033)">
    <g id="Icono" transform="translate(840.279 1344)">
      <g transform="matrix(1, 0, 0, 1, 325.72, 689)" filter="url(#Fondo)">
        <g id="Fondo-2" data-name="Fondo" transform="translate(9 6)" fill="#fffbe7" stroke="#8b791c" stroke-width="3">
          <circle cx="45" cy="45" r="45" stroke="none"/>
          <circle cx="45" cy="45" r="43.5" fill="none"/>
        </g>
      </g>
    </g>
    <g id="Grupo_1143999" data-name="Grupo 1143999" transform="translate(1108.653 2054.768)">
      <path id="Trazado_978788" data-name="Trazado 978788" d="M184.228,445.912H162.942l1.774-3.548h17.738Z" transform="translate(-62.223 -391.85)" fill="#365e7d"/>
      <path id="Trazado_978789" data-name="Trazado 978789" d="M111.449,411.3H107.9l-7.1,10.643h5.321Z" transform="translate(-7.183 -364.33)" fill="#5882a1"/>
      <path id="Trazado_978790" data-name="Trazado 978790" d="M318.279,411.3h3.548l7.1,10.643H323.6Z" transform="translate(-199.822 -364.33)" fill="#5882a1"/>
      <path id="Trazado_978791" data-name="Trazado 978791" d="M104.346,53.537h28.4A3.541,3.541,0,0,0,136.282,50V14.576a5.136,5.136,0,0,0-3.567-4.894,45.476,45.476,0,0,0-28.343,0,5.136,5.136,0,0,0-3.567,4.894V50A3.541,3.541,0,0,0,104.346,53.537Z" transform="translate(-7.182 -6.571)" fill="#bbec6c"/>
      <path id="Trazado_978792" data-name="Trazado 978792" d="M256.575,50V14.576a5.136,5.136,0,0,0-3.567-4.894,46.719,46.719,0,0,0-12.4-2.229,46,46,0,0,1,15.945,2.229,5.136,5.136,0,0,1,3.567,4.894V50a3.541,3.541,0,0,1-3.541,3.541h-3.548A3.541,3.541,0,0,0,256.575,50Z" transform="translate(-131.022 -6.571)" fill="#78c2a4"/>
      <path id="Trazado_978793" data-name="Trazado 978793" d="M220.185,356.256H209.542l1.449-5.8a1.713,1.713,0,0,1,1.662-1.3h4.42a1.713,1.713,0,0,1,1.662,1.3Z" transform="translate(-103.502 -309.29)" fill="#d3effb"/>
      <path id="Trazado_978794" data-name="Trazado 978794" d="M328.922,307.937h-8.717a1.926,1.926,0,0,1-.326-3.825l9.043-1.552v5.377Z" transform="translate(-199.822 -268.011)" fill="#ffe75d"/>
      <path id="Trazado_978795" data-name="Trazado 978795" d="M383.962,302.56v5.377h-3.548v-4.768Z" transform="translate(-254.861 -268.011)" fill="#ffd064"/>
      <path id="Trazado_978796" data-name="Trazado 978796" d="M100.805,307.937h8.717a1.926,1.926,0,0,0,.326-3.825l-9.043-1.552v5.377Z" transform="translate(-7.182 -268.011)" fill="#ffe75d"/>
      <path id="Trazado_978797" data-name="Trazado 978797" d="M158.541,106.372H133.586a1.713,1.713,0,0,1-1.713-1.713V86.8a1.713,1.713,0,0,1,1.713-1.713h24.955a1.713,1.713,0,0,1,1.713,1.713v17.86A1.713,1.713,0,0,1,158.541,106.372Z" transform="translate(-34.702 -75.371)" fill="#ecf4ff"/>
      <path id="Trazado_978798" data-name="Trazado 978798" d="M214.864,116.154l-5.322,8.869h5.322v5.321l5.321-8.869h-5.321Z" transform="translate(-103.502 -102.891)" fill="#ffe75d"/>
      <g id="Grupo_1143998" data-name="Grupo 1143998" transform="translate(92.698 -0.001)">
        <g id="Grupo_1143996" data-name="Grupo 1143996" transform="translate(0)">
          <path id="Trazado_978799" data-name="Trazado 978799" d="M129.957,43.425V25.773a.857.857,0,1,0-1.713,0v8.054l-8.331,1.43a2.784,2.784,0,0,0,.471,5.526h7.86v2.643a2.687,2.687,0,0,1-2.684,2.684h-8.207l-1.287-5.149a2.566,2.566,0,0,0-2.493-1.947h-4.42a2.566,2.566,0,0,0-2.493,1.947l-1.287,5.149H97.164a2.687,2.687,0,0,1-2.684-2.684V40.783h7.86a2.784,2.784,0,0,0,.471-5.526l-8.331-1.43V8a4.264,4.264,0,0,1,2.971-4.078,44.832,44.832,0,0,1,27.821,0A4.264,4.264,0,0,1,128.243,8V22.039a.857.857,0,1,0,1.713,0V8a5.971,5.971,0,0,0-4.163-5.71,46.512,46.512,0,0,0-28.864,0A5.971,5.971,0,0,0,92.767,8V43.425a4.4,4.4,0,0,0,4.4,4.4h1.954l-6.208,9.311c-.486.7-.094,1.332.713,1.332h5.321a.857.857,0,0,0,.766-.474l1.537-3.074H109.5a.857.857,0,0,0,0-1.713H102.1l.918-1.835H119.7l.918,1.835h-7.391a.857.857,0,1,0,0,1.713h8.248l1.537,3.074a.857.857,0,0,0,.766.474H129.1a.814.814,0,0,0,.713-1.332l-6.208-9.311h1.954a4.4,4.4,0,0,0,4.4-4.4Zm-9.573-4.356a1.07,1.07,0,0,1-.181-2.124l8.041-1.38v3.5Zm-17.862-2.124a1.07,1.07,0,0,1-.181,2.124H94.48v-3.5Zm5.8,4.431a.855.855,0,0,1,.831-.649h4.42a.856.856,0,0,1,.831.649l1.183,4.733h-8.449ZM98.416,56.753H95.224l5.953-8.93h1.7Zm25.893,0-4.465-8.93h1.7l5.953,8.93Zm-5.463-7.1H103.878l.917-1.835h13.132Z" transform="translate(-92.698 0.001)"/>
          <path id="Trazado_978800" data-name="Trazado 978800" d="M126.94,79.3h5.289a.857.857,0,0,0,0-1.713H126.94a2.573,2.573,0,0,0-2.57,2.57V98.016a2.573,2.573,0,0,0,2.57,2.57H151.9a2.573,2.573,0,0,0,2.57-2.57V80.157a2.573,2.573,0,0,0-2.57-2.57H135.963a.857.857,0,0,0,0,1.713H151.9a.858.858,0,0,1,.857.857V98.016a.858.858,0,0,1-.857.857H126.94a.858.858,0,0,1-.857-.857V80.157A.858.858,0,0,1,126.94,79.3Z" transform="translate(-120.753 -68.727)"/>
          <path id="Trazado_978801" data-name="Trazado 978801" d="M214.446,47.375a.857.857,0,0,0-.857-.857H202.946a.857.857,0,0,0,0,1.713h10.643A.857.857,0,0,0,214.446,47.375Z" transform="translate(-189.603 -41.206)"/>
          <path id="Trazado_978802" data-name="Trazado 978802" d="M207.351,108.572l-5.322,8.869c-.344.683-.03,1.292.735,1.3h4.465V123.2a.857.857,0,0,0,1.591.441l5.322-8.869a.836.836,0,0,0-.735-1.3h-4.465v-4.465A.838.838,0,0,0,207.351,108.572Zm4.543,6.619-2.952,4.92v-2.229a.857.857,0,0,0-.857-.857h-3.809l2.952-4.92v2.229a.857.857,0,0,0,.857.857Z" transform="translate(-189.422 -95.749)"/>
        </g>
        <g id="Grupo_1143997" data-name="Grupo 1143997" transform="translate(8.945 5.312)">
          <path id="Trazado_978803" data-name="Trazado 978803" d="M171.879,48.23a.857.857,0,0,1,0-1.713A.857.857,0,0,1,171.879,48.23Z" transform="translate(-171.028 -46.517)"/>
          <path id="Trazado_978804" data-name="Trazado 978804" d="M327.216,48.23a.857.857,0,0,1,0-1.713A.857.857,0,0,1,327.216,48.23Z" transform="translate(-308.627 -46.517)"/>
        </g>
      </g>
    </g>
  </g>
</svg>
