<svg xmlns="http://www.w3.org/2000/svg" xmlns:xlink="http://www.w3.org/1999/xlink" width="108" height="108" viewBox="0 0 108 108">
  <defs>
    <filter id="Trazado_904820" x="0" y="0" width="108" height="108" filterUnits="userSpaceOnUse">
      <feOffset dy="3" input="SourceAlpha"/>
      <feGaussianBlur stdDeviation="3" result="blur"/>
      <feFlood flood-opacity="0.161"/>
      <feComposite operator="in" in2="blur"/>
      <feComposite in="SourceGraphic"/>
    </filter>
  </defs>
  <g id="Grupo_1144022" data-name="Grupo 1144022" transform="translate(-201 -4056)">
    <g transform="matrix(1, 0, 0, 1, 201, 4056)" filter="url(#Trazado_904820)">
      <g id="Trazado_904820-2" data-name="Trazado 904820" transform="translate(9 6)" fill="#ecf4fa">
        <path d="M 45 88.5 C 39.12687683105469 88.5 33.43022537231445 87.35007476806641 28.06830024719238 85.08217620849609 C 22.88852500915527 82.89131164550781 18.23629951477051 79.75458526611328 14.2408504486084 75.75914764404297 C 10.24541282653809 71.76370239257812 7.108687400817871 67.11147308349609 4.917825222015381 61.93170166015625 C 2.649924993515015 56.56977462768555 1.5 50.87312316894531 1.5 45 C 1.5 39.12687683105469 2.649924993515015 33.43022537231445 4.917825222015381 28.06830024719238 C 7.108687400817871 22.88852500915527 10.24541282653809 18.23629951477051 14.2408504486084 14.2408504486084 C 18.23629951477051 10.24541282653809 22.88852500915527 7.108687400817871 28.06830024719238 4.917825222015381 C 33.43022537231445 2.649924993515015 39.12687683105469 1.5 45 1.5 C 50.87312316894531 1.5 56.56977462768555 2.649924993515015 61.93170166015625 4.917825222015381 C 67.11147308349609 7.108687400817871 71.76370239257812 10.24541282653809 75.75914764404297 14.2408504486084 C 79.75458526611328 18.23629951477051 82.89131164550781 22.88852500915527 85.08217620849609 28.06830024719238 C 87.35007476806641 33.43022537231445 88.5 39.12687683105469 88.5 45 C 88.5 50.87312316894531 87.35007476806641 56.56977462768555 85.08217620849609 61.93170166015625 C 82.89131164550781 67.11147308349609 79.75458526611328 71.76370239257812 75.75914764404297 75.75914764404297 C 71.76370239257812 79.75458526611328 67.11147308349609 82.89131164550781 61.93170166015625 85.08217620849609 C 56.56977462768555 87.35007476806641 50.87312316894531 88.5 45 88.5 Z" stroke="none"/>
        <path d="M 45 3 C 39.32871246337891 3 33.82865524291992 4.110054016113281 28.65262985229492 6.299339294433594 C 23.65165710449219 8.414573669433594 19.15968322753906 11.44334411621094 15.301513671875 15.301513671875 C 11.44334411621094 19.15968322753906 8.414573669433594 23.65165710449219 6.299339294433594 28.65262985229492 C 4.110054016113281 33.82865524291992 3 39.32871246337891 3 45 C 3 50.67128753662109 4.110054016113281 56.17134475708008 6.299339294433594 61.34737396240234 C 8.414573669433594 66.34834289550781 11.44334411621094 70.84031677246094 15.301513671875 74.698486328125 C 19.15968322753906 78.55665588378906 23.65165710449219 81.58542633056641 28.65262985229492 83.70066070556641 C 33.82865524291992 85.88994598388672 39.32871246337891 87 45 87 C 50.67128753662109 87 56.17134475708008 85.88994598388672 61.34737396240234 83.70066070556641 C 66.34834289550781 81.58542633056641 70.84031677246094 78.55665588378906 74.698486328125 74.698486328125 C 78.55665588378906 70.84031677246094 81.58542633056641 66.34834289550781 83.70066070556641 61.34737396240234 C 85.88994598388672 56.17134475708008 87 50.67128753662109 87 45 C 87 39.32871246337891 85.88994598388672 33.82865524291992 83.70066070556641 28.65262985229492 C 81.58542633056641 23.65165710449219 78.55665588378906 19.15968322753906 74.698486328125 15.301513671875 C 70.84031677246094 11.44334411621094 66.34834289550781 8.414573669433594 61.34737396240234 6.299339294433594 C 56.17134475708008 4.110054016113281 50.67128753662109 3 45 3 M 45 0 C 69.85281372070312 0 90 20.14718627929688 90 45 C 90 69.85281372070312 69.85281372070312 90 45 90 C 20.14718627929688 90 0 69.85281372070312 0 45 C 0 20.14718627929688 20.14718627929688 0 45 0 Z" stroke="none" fill="#2a5673"/>
      </g>
    </g>
    <g id="Grupo_1144021" data-name="Grupo 1144021" transform="translate(230.04 4082.091)">
      <g id="Grupo_1144010" data-name="Grupo 1144010" transform="translate(0.786 0.73)">
        <g id="Grupo_1144001" data-name="Grupo 1144001" transform="translate(6.388 11.382)">
          <path id="Trazado_978805" data-name="Trazado 978805" d="M100.7,161.467c0-3.866,8.262-11.533,8.262-20.578,0-8.3-7.131-16.389-15.928-16.389S77.1,131.231,77.1,139.535l-3.876,9.48,4.385,1.914.516,5.884a5.1,5.1,0,0,0,5.08,4.654Z" transform="translate(-73.226 -124.5)" fill="#ffdaaa"/>
        </g>
        <g id="Grupo_1144002" data-name="Grupo 1144002" transform="translate(16.859 23.275)">
          <path id="Trazado_978806" data-name="Trazado 978806" d="M180.858,246.751h16.3v16.3h-16.3Z" transform="translate(-180.858 -246.751)" fill="#71e4bf"/>
        </g>
        <g id="Grupo_1144003" data-name="Grupo 1144003">
          <path id="Trazado_978807" data-name="Trazado 978807" d="M7.556,7.5h3.891v3.891H7.556Z" transform="translate(-7.556 -7.5)" fill="#71e4bf"/>
        </g>
        <g id="Grupo_1144004" data-name="Grupo 1144004" transform="translate(11.114)">
          <path id="Trazado_978808" data-name="Trazado 978808" d="M121.806,7.5H125.7v3.891h-3.891Z" transform="translate(-121.806 -7.5)" fill="#fde31d"/>
        </g>
        <g id="Grupo_1144005" data-name="Grupo 1144005" transform="translate(22.229)">
          <path id="Trazado_978809" data-name="Trazado 978809" d="M236.056,7.5h3.891v3.891h-3.891Z" transform="translate(-236.056 -7.5)" fill="#8ad8f6"/>
        </g>
        <g id="Grupo_1144006" data-name="Grupo 1144006" transform="translate(33.343)">
          <path id="Trazado_978810" data-name="Trazado 978810" d="M350.306,7.5H354.2v3.891h-3.891Z" transform="translate(-350.306 -7.5)" fill="#fff"/>
        </g>
        <g id="Grupo_1144007" data-name="Grupo 1144007" transform="translate(44.457)">
          <path id="Trazado_978811" data-name="Trazado 978811" d="M464.556,7.5h3.891v3.891h-3.891Z" transform="translate(-464.556 -7.5)" fill="#ff905b"/>
        </g>
        <g id="Grupo_1144008" data-name="Grupo 1144008" transform="translate(16.859 23.275)">
          <path id="Trazado_978812" data-name="Trazado 978812" d="M180.858,246.751h2.432v16.3h-2.432Z" transform="translate(-180.858 -246.751)" fill="#00dba8"/>
        </g>
        <g id="Grupo_1144009" data-name="Grupo 1144009" transform="translate(6.388 11.382)">
          <path id="Trazado_978813" data-name="Trazado 978813" d="M80.559,156.813l-.516-7.829-3.413-1.525,2.9-7.924c0-7.9,6.454-14.375,14.656-14.987-.383-.031-.77-.048-1.16-.048-8.8,0-15.929,6.731-15.929,15.035l-3.876,9.48,4.385,1.914.516,5.884a5.1,5.1,0,0,0,5.08,4.654h2.432A5.1,5.1,0,0,1,80.559,156.813Z" transform="translate(-73.226 -124.5)" fill="#ffb680"/>
        </g>
      </g>
      <g id="Grupo_1144013" data-name="Grupo 1144013" transform="translate(23.608 35.999)">
        <g id="Grupo_1144011" data-name="Grupo 1144011">
          <path id="Trazado_978814" data-name="Trazado 978814" d="M242.159,370.053h1.459v1.459h-1.459Z" transform="translate(-242.159 -370.053)" fill="#fff"/>
        </g>
        <g id="Grupo_1144012" data-name="Grupo 1144012" transform="translate(2.918)">
          <path id="Trazado_978815" data-name="Trazado 978815" d="M272.159,370.053h1.459v1.459h-1.459Z" transform="translate(-272.159 -370.053)" fill="#fff"/>
        </g>
      </g>
      <g id="Grupo_1144020" data-name="Grupo 1144020" transform="translate(0.056 0)">
        <g id="Grupo_1144014" data-name="Grupo 1144014" transform="translate(26.642 27.356)">
          <path id="Trazado_978816" data-name="Trazado 978816" d="M273.924,282.665h1.245v3.691h-1.245v1.459h3.948v-1.459h-1.245v-3.691h1.245v-1.459h-3.948Z" transform="translate(-273.924 -281.206)"/>
        </g>
        <g id="Grupo_1144015" data-name="Grupo 1144015" transform="translate(20.161 27.356)">
          <path id="Trazado_978817" data-name="Trazado 978817" d="M209.752,281.206a2.449,2.449,0,0,0-2.446,2.446v4.12h1.459v-1.159h1.974v1.159H212.2v-4.12A2.449,2.449,0,0,0,209.752,281.206Zm-.987,3.948v-1.5a.987.987,0,0,1,1.974,0v1.5Z" transform="translate(-207.306 -281.206)"/>
        </g>
        <g id="Grupo_1144016" data-name="Grupo 1144016" transform="translate(13.094 19.525)">
          <path id="Trazado_978818" data-name="Trazado 978818" d="M144.842,222.219V226H146.3v-3.78h2.01V226h1.459v-3.78h6.418v-6.4h3.765v-1.459h-3.765v-2.01h3.765v-1.459h-3.765v-6.433h-6.418v-3.75h-1.459v3.75H146.3v-3.75h-1.459v3.75h-6.418v6.433H134.66v1.459h3.765v2.01H134.66v1.459h3.765v6.4Zm-4.959-16.3h14.845V220.76H139.884Z" transform="translate(-134.66 -200.706)"/>
        </g>
        <g id="Grupo_1144017" data-name="Grupo 1144017" transform="translate(44.457 0)">
          <path id="Trazado_978819" data-name="Trazado 978819" d="M462.406,0h-5.35V5.35H459V8.409h1.459V5.35h1.946Zm-1.459,3.891h-2.432V1.459h2.432Z" transform="translate(-457.056)"/>
        </g>
        <g id="Grupo_1144018" data-name="Grupo 1144018" transform="translate(0 0)">
          <path id="Trazado_978820" data-name="Trazado 978820" d="M2,8.409H3.461V5.35H5.406V0H.056V5.35H2Zm-.486-6.95H3.947V3.891H1.515Z" transform="translate(-0.056)"/>
        </g>
        <g id="Grupo_1144019" data-name="Grupo 1144019" transform="translate(1.946 0)">
          <path id="Trazado_978821" data-name="Trazado 978821" d="M64.513,14.118l-4.581,7.051A18.233,18.233,0,0,0,52.7,13.434l2.157-2.513V5.35H56.8V0h-5.35V5.35H53.4v5.03l-2.036,2.373a15.5,15.5,0,0,0-7.619-1.324V5.35h1.946V0h-5.35V5.35h1.946V11.6a17.136,17.136,0,0,0-6,2.137l-3.658-3.4V5.35h1.946V0h-5.35V5.35H31.17v5.618l3.854,3.585a16.229,16.229,0,0,0-4.281,4.5l-9.228-5.147V9.868H20.056V19.951L28.629,24.4a14.966,14.966,0,0,0-.254,2.6L24.283,37.01l4.641,2.026.478,5.452a5.817,5.817,0,0,0,1.869,3.788c1.931,1.747,3.737,1.538,6.129,1.531V48.348H35.209a4.347,4.347,0,0,1-4.353-3.988L30.3,38.045l-4.129-1.8,3.66-8.953c-.083-7.947,6.766-14.45,15.2-14.448,8.1,0,15.2,7.317,15.2,15.659,0,5.265-2.94,10.1-5.3,13.981-1.428,2.348-2.6,4.27-2.889,5.867H38.86v1.459H53.428v-.73c0-1.324,1.273-3.416,2.746-5.838,2.642-4.288,6-9.994,5.465-15.976l4.333-5.587V9.868H64.513ZM52.913,1.459h2.432V3.891H52.913Zm-11.114,0H44.23V3.891H41.8Zm-11.114,0h2.432V3.891H30.684ZM28.979,22.936l-7.463-3.872V15.577l8.5,4.743A15.138,15.138,0,0,0,28.979,22.936Zm35.535-1.758-3.165,4.081a17.071,17.071,0,0,0-.722-2.48L64.513,16.8Z" transform="translate(-20.056 0)"/>
        </g>
      </g>
    </g>
  </g>
</svg>
