<svg xmlns="http://www.w3.org/2000/svg" xmlns:xlink="http://www.w3.org/1999/xlink" width="108" height="108" viewBox="0 0 108 108">
  <defs>
    <filter id="Fondo" x="0" y="0" width="108" height="108" filterUnits="userSpaceOnUse">
      <feOffset dy="3" input="SourceAlpha"/>
      <feGaussianBlur stdDeviation="3" result="blur"/>
      <feFlood flood-opacity="0.161"/>
      <feComposite operator="in" in2="blur"/>
      <feComposite in="SourceGraphic"/>
    </filter>
  </defs>
  <g id="Grupo_1143962" data-name="Grupo 1143962" transform="translate(-1218 -4029)">
    <g id="Icono" transform="translate(1227.499 3340)">
      <g transform="matrix(1, 0, 0, 1, -9.5, 689)" filter="url(#Fondo)">
        <g id="Fondo-2" data-name="Fondo" transform="translate(9 6)" fill="#fffbe7" stroke="#8b791c" stroke-width="3">
          <circle cx="45" cy="45" r="45" stroke="none"/>
          <circle cx="45" cy="45" r="43.5" fill="none"/>
        </g>
      </g>
    </g>
    <g id="Layer_x0020_1" transform="translate(1164.235 4048.939)">
      <path id="Trazado_978739" data-name="Trazado 978739" d="M101.982,16.984a7.577,7.577,0,0,1-7.533-8,.841.841,0,0,1,.785-.75,7.536,7.536,0,0,1,8,7.533,11.866,11.866,0,0,1,1.392,1.357,10.324,10.324,0,0,1,1.035-3.784A10.068,10.068,0,0,1,113.335.633a.825.825,0,0,1,.928.536,10.1,10.1,0,0,1-7.212,13c-.286.536-.964,2.213-.928,6A20.524,20.524,0,0,1,118.9,25.195V22.089a5.676,5.676,0,1,1,11.353,0V44.724c6.533,5.284,2.856,15.958-5.605,15.958a8.959,8.959,0,0,1-6.926-3.285,20.693,20.693,0,0,1-30.56-26.455,5.774,5.774,0,1,1,7.6-7.89,20.18,20.18,0,0,1,9.711-2.892c-.107-1.142-1.571-2.57-2.356-3.177ZM87.988,29.515a21.059,21.059,0,0,1,5.391-5.569,4.143,4.143,0,1,0-5.391,5.569ZM89.63,18.376a.8.8,0,0,1-.785-.821V15.127a.8.8,0,0,1,1.607,0v2.428A.808.808,0,0,1,89.63,18.376Zm5.748,2.392a.83.83,0,0,1-.571-1.392l1.749-1.749A.821.821,0,0,1,97.7,18.8l-1.714,1.714A.836.836,0,0,1,95.378,20.768ZM82.133,34.013a.826.826,0,0,1-.571-1.392l1.749-1.714a.808.808,0,0,1,1.142,1.142L82.7,33.763A.71.71,0,0,1,82.133,34.013Zm-.643-7.5H79.027a.8.8,0,0,1,0-1.607H81.49A.8.8,0,0,1,81.49,26.516Zm2.392-5.748a.71.71,0,0,1-.571-.25L81.561,18.8c-.714-.75.428-1.892,1.142-1.178l1.749,1.749A.83.83,0,0,1,83.882,20.768ZM95.413,53.756a4.077,4.077,0,0,1-2-.571c-2.749-1.428-5.427-5.605-4.962-11.424a2.492,2.492,0,0,0-.036-.857,4.233,4.233,0,0,0-2,2.463A19.107,19.107,0,0,0,105.338,59.9a18.177,18.177,0,0,0,5.355-.785,3.986,3.986,0,0,1,.393-4.677c-7.176-7.533.571-8.675.678-10.532l.286-4.713c.179-3.356,3.606-3.82,5.819-1.607a10.753,10.753,0,0,0,1.035.893v-9.6a4.648,4.648,0,0,1-2.713-.714,4.992,4.992,0,0,1-6.141.714,3.656,3.656,0,0,1-3.784,0c-2.035-1.428-2-5.248-1.856-7.1a19.621,19.621,0,0,0-7.1,1.749,5.038,5.038,0,0,1,2.178,4.534c7.1,1.535,4.57,9,.107,6.748-.75-.393-2.178-1.856-2.927-2-.607-.143-1.892.928-1.035,1.535.393.25.928.607,1.571,1,3.927,2.5,7.1,4.713,6.676,6.855-.357,1.607-2.606,2.106-4.213,2.321-1.678.25-2.321,1.178-1.785,3C98.983,51.471,97.805,53.756,95.413,53.756Zm-9.14-13.209c1.642-1.785,4.07-1.928,3.784,1.321-.393,5.105,1.821,8.711,4.106,9.889,2.606,1.392,2.892-1.142,2.142-3.784-.75-2.713.357-4.677,3.106-5.07,2.642-.357,2.856-1,2.856-1.071.321-1.464-5.819-4.962-7.569-6.176-2.321-1.642-.107-4.962,2.285-4.463,1.821.393,3.57,3.249,4.891,2.178,1.178-.964.179-3.356-3.427-3.856a.8.8,0,0,1-.678-.964,3.463,3.463,0,0,0-2.178-4.106A19,19,0,0,0,86.274,40.547Zm19.778-18.779c-.179,2.071-.036,4.962,1.142,5.784.536.393,1.428.286,2.57-.321a.812.812,0,0,1,.928.107c.214.214,2.178,1.856,4.891-.785.821-.821,1.392.714,3.142.714A18.753,18.753,0,0,0,106.052,21.768ZM116.8,56.041A9,9,0,0,1,118.9,44.866v-4.5c-1.714-.821-3-3.035-4.463-2.463a1.423,1.423,0,0,0-.785,1.392l-.286,4.677c-.214,3.713-7.819,2.713-.607,9.854a.917.917,0,0,1,0,1.178,2.512,2.512,0,0,0-.5,3.57A17.744,17.744,0,0,0,116.8,56.041Zm3.713-28.989v.928c-.071,3.963.071,7.926,0,11.853v5.427a.763.763,0,0,1-.321.643,7.343,7.343,0,1,0,8.783-.107.763.763,0,0,1-.321-.643V22.089a4.07,4.07,0,0,0-8.14,0Zm4.141,29.311a4.626,4.626,0,0,1-.821-9.175v-24.1a.822.822,0,0,1,1.642,0v24.1a4.626,4.626,0,0,1-.821,9.175Zm-.036-7.64a3,3,0,1,0,3.035,3A3.01,3.01,0,0,0,124.617,48.722ZM112.943,2.382a8.521,8.521,0,0,0-5.855,10.1A8.5,8.5,0,0,0,112.943,2.382ZM96.092,9.843a5.976,5.976,0,0,0,5.5,5.534A5.946,5.946,0,0,0,96.092,9.843Z" transform="translate(0 0)" fill="#000002" fill-rule="evenodd"/>
      <path id="Trazado_978740" data-name="Trazado 978740" d="M1296.963,1348a3,3,0,1,0,3.035,3A3.01,3.01,0,0,0,1296.963,1348Z" transform="translate(-1172.346 -1299.278)" fill="#fcbe37" fill-rule="evenodd"/>
      <path id="Trazado_978741" data-name="Trazado 978741" d="M1180.3,527.307a4.626,4.626,0,0,1-.821-9.175v-24.1a.822.822,0,0,1,1.642,0v24.1a4.626,4.626,0,0,1-.821,9.175Zm-4.463-10.461a7.343,7.343,0,1,0,8.782-.107.763.763,0,0,1-.321-.643V493.034a4.07,4.07,0,0,0-8.14,0v5.891c-.072,3.963.071,7.926,0,11.853V516.2A.763.763,0,0,1,1175.842,516.847Z" transform="translate(-1055.651 -470.945)" fill="#f05b47" fill-rule="evenodd"/>
      <path id="Trazado_978742" data-name="Trazado 978742" d="M965.32,1060.624a8.995,8.995,0,0,1,2.106-11.174v-4.5c-1.714-.821-3-3.035-4.463-2.464a1.423,1.423,0,0,0-.785,1.392l-.286,4.677c-.214,3.713-7.819,2.713-.607,9.854a.917.917,0,0,1,0,1.178,2.512,2.512,0,0,0-.5,3.57A17.743,17.743,0,0,0,965.32,1060.624Z" transform="translate(-848.521 -1004.583)" fill="#7ed63f" fill-rule="evenodd"/>
      <path id="Trazado_978743" data-name="Trazado 978743" d="M331.67,625.667c-7.176-7.533.571-8.675.678-10.532l.286-4.713c.179-3.356,3.606-3.82,5.819-1.607a10.761,10.761,0,0,0,1.035.893v-9.6a4.648,4.648,0,0,1-2.713-.714,4.992,4.992,0,0,1-6.141.714,3.657,3.657,0,0,1-3.784,0c-2.035-1.428-2-5.248-1.856-7.1a19.621,19.621,0,0,0-7.1,1.749,5.038,5.038,0,0,1,2.178,4.534c7.1,1.535,4.57,9,.107,6.747-.75-.393-2.178-1.856-2.927-2-.607-.143-1.892.928-1.035,1.535.393.25.928.607,1.571,1,3.927,2.5,7.1,4.713,6.676,6.855-.357,1.607-2.606,2.106-4.213,2.321-1.678.25-2.321,1.178-1.785,3,1.107,3.963-.071,6.248-2.463,6.248a4.077,4.077,0,0,1-2-.571c-2.749-1.428-5.427-5.605-4.962-11.424a2.492,2.492,0,0,0-.036-.857,4.233,4.233,0,0,0-2,2.463,19.107,19.107,0,0,0,18.922,16.53,18.178,18.178,0,0,0,5.355-.785A3.986,3.986,0,0,1,331.67,625.667Z" transform="translate(-220.583 -571.232)" fill="#2e9cf5" fill-rule="evenodd"/>
      <path id="Trazado_978744" data-name="Trazado 978744" d="M859,598.462a.812.812,0,0,1,.928.107c.214.214,2.178,1.857,4.891-.785.821-.821,1.392.714,3.142.714a18.753,18.753,0,0,0-12.674-5.5c-.178,2.071-.036,4.962,1.143,5.784C856.961,599.176,857.854,599.069,859,598.462Z" transform="translate(-749.231 -571.232)" fill="#7ed63f" fill-rule="evenodd"/>
      <path id="Trazado_978745" data-name="Trazado 978745" d="M314.5,672.106A3.463,3.463,0,0,0,312.318,668,19,19,0,0,0,303,684.1c1.642-1.785,4.07-1.928,3.784,1.321-.393,5.105,1.821,8.711,4.106,9.889,2.606,1.392,2.892-1.142,2.142-3.784-.75-2.713.357-4.677,3.106-5.07,2.642-.357,2.856-1,2.856-1.071.321-1.464-5.819-4.963-7.569-6.176-2.321-1.642-.107-4.962,2.285-4.463,1.821.393,3.57,3.249,4.891,2.178,1.178-.964.179-3.356-3.427-3.856A.8.8,0,0,1,314.5,672.106Z" transform="translate(-216.726 -643.555)" fill="#7ed63f" fill-rule="evenodd"/>
      <path id="Trazado_978746" data-name="Trazado 978746" d="M283.5,595.889a21.059,21.059,0,0,1,5.391-5.569,4.143,4.143,0,1,0-5.391,5.569Z" transform="translate(-195.512 -566.375)" fill="#fcbe37" fill-rule="evenodd"/>
      <g id="Grupo_1143961" data-name="Grupo 1143961" transform="translate(96.092 2.382)">
        <path id="Trazado_978747" data-name="Trazado 978747" d="M885.676,50a8.521,8.521,0,0,0-5.855,10.1A8.5,8.5,0,0,0,885.676,50Z" transform="translate(-868.825 -50)" fill="#378b4e" fill-rule="evenodd"/>
        <path id="Trazado_978748" data-name="Trazado 978748" d="M583.5,264.534A5.946,5.946,0,0,0,578,259,5.975,5.975,0,0,0,583.5,264.534Z" transform="translate(-578 -251.538)" fill="#378b4e" fill-rule="evenodd"/>
      </g>
    </g>
  </g>
</svg>
