<svg xmlns="http://www.w3.org/2000/svg" xmlns:xlink="http://www.w3.org/1999/xlink" width="108" height="108" viewBox="0 0 108 108">
  <defs>
    <filter id="Fondo" x="0" y="0" width="108" height="108" filterUnits="userSpaceOnUse">
      <feOffset dy="3" input="SourceAlpha"/>
      <feGaussianBlur stdDeviation="3" result="blur"/>
      <feFlood flood-opacity="0.161"/>
      <feComposite operator="in" in2="blur"/>
      <feComposite in="SourceGraphic"/>
    </filter>
  </defs>
  <g id="Grupo_1143960" data-name="Grupo 1143960" transform="translate(-273 -4029)">
    <g id="Icono" transform="translate(282.499 3340)">
      <g transform="matrix(1, 0, 0, 1, -9.5, 689)" filter="url(#Fondo)">
        <g id="Fondo-2" data-name="Fondo" transform="translate(9 6)" fill="#fffbe7" stroke="#8b791c" stroke-width="3">
          <circle cx="45" cy="45" r="45" stroke="none"/>
          <circle cx="45" cy="45" r="43.5" fill="none"/>
        </g>
      </g>
    </g>
    <g id="Grupo_1143959" data-name="Grupo 1143959" transform="translate(288.494 4042.92)">
      <g id="Grupo_1143958" data-name="Grupo 1143958" transform="translate(16.047 14.206)">
        <g id="Grupo_1143956" data-name="Grupo 1143956">
          <path id="Trazado_978716" data-name="Trazado 978716" d="M221.346,67.751h6.667a.989.989,0,0,1,.986.986V71.9a.989.989,0,0,1-.986.986h-6.667a.989.989,0,0,1-.986-.986V68.737A.989.989,0,0,1,221.346,67.751Z" transform="translate(-203.232 -67.751)" fill="#9facba" fill-rule="evenodd"/>
          <path id="Trazado_978717" data-name="Trazado 978717" d="M273.2,67.75h1.232a.989.989,0,0,1,.986.986V71.9a.989.989,0,0,1-.986.986H273.2a.989.989,0,0,0,.986-.986V68.736A.989.989,0,0,0,273.2,67.75Z" transform="translate(-249.651 -67.75)" fill="#8d9ca8" fill-rule="evenodd"/>
          <path id="Trazado_978718" data-name="Trazado 978718" d="M121.062,163.26q-34.5.009-40.432,0a1.235,1.235,0,0,1-1.231-1.232V134.125a1.235,1.235,0,0,1,1.232-1.232h40.431a1.235,1.235,0,0,1,1.232,1.232v27.9A1.234,1.234,0,0,1,121.062,163.26Z" transform="translate(-79.399 -124.977)" fill="#8d9ca8" fill-rule="evenodd"/>
          <path id="Trazado_978719" data-name="Trazado 978719" d="M202.156,163.263l-17.256,0V132.893h17.256Z" transform="translate(-172.081 -124.977)" fill="#8192a5" fill-rule="evenodd"/>
          <path id="Trazado_978720" data-name="Trazado 978720" d="M105.669,223.951h2.853a.423.423,0,0,1,.422.422v2.853a.423.423,0,0,1-.422.422h-2.853a.423.423,0,0,1-.422-.422v-2.853a.423.423,0,0,1,.422-.422Zm0,8.639h2.853a.423.423,0,0,1,.422.422v2.853a.423.423,0,0,1-.422.422h-2.853a.423.423,0,0,1-.422-.422v-2.853a.423.423,0,0,1,.422-.422Zm4.319,0h2.853a.423.423,0,0,1,.422.422v2.853a.423.423,0,0,1-.422.422h-2.853a.423.423,0,0,1-.422-.422v-2.853A.423.423,0,0,1,109.988,232.59Zm0-4.32h2.853a.423.423,0,0,1,.422.422v2.853a.423.423,0,0,1-.422.422h-2.853a.423.423,0,0,1-.422-.422v-2.853A.423.423,0,0,1,109.988,228.271Zm-4.319,0h2.853a.423.423,0,0,1,.422.422v2.853a.423.423,0,0,1-.422.422h-2.853a.423.423,0,0,1-.422-.422v-2.853a.423.423,0,0,1,.422-.422Zm4.319-4.32h2.853a.423.423,0,0,1,.422.422v2.853a.423.423,0,0,1-.422.422h-2.853a.423.423,0,0,1-.422-.422v-2.853A.423.423,0,0,1,109.988,223.951Z" transform="translate(-102.106 -204.971)" fill="#d8ecfe" fill-rule="evenodd"/>
          <path id="Trazado_978721" data-name="Trazado 978721" d="M126.89,223.951h.645a.424.424,0,0,1,.41.324.42.42,0,0,0-.012.1v2.853a.42.42,0,0,0,.012.1.424.424,0,0,1-.41.324h-.645a.423.423,0,0,0,.422-.422v-2.853A.423.423,0,0,0,126.89,223.951Zm0,8.639h.645a.424.424,0,0,1,.41.324.42.42,0,0,0-.012.1v2.853a.422.422,0,0,0,.012.1.424.424,0,0,1-.41.324h-.645a.423.423,0,0,0,.422-.422v-2.853A.423.423,0,0,0,126.89,232.59Zm4.32,0h.645a.423.423,0,0,1,.422.422v2.853a.423.423,0,0,1-.422.422h-.645a.423.423,0,0,0,.422-.422v-2.853A.423.423,0,0,0,131.21,232.59Zm0-4.32h.645a.423.423,0,0,1,.422.422v2.853a.423.423,0,0,1-.422.422h-.645a.423.423,0,0,0,.422-.422v-2.853A.423.423,0,0,0,131.21,228.271Zm-4.32,0h.645a.424.424,0,0,1,.41.324.42.42,0,0,0-.012.1v2.853a.421.421,0,0,0,.012.1.424.424,0,0,1-.41.324h-.645a.423.423,0,0,0,.422-.422v-2.853A.423.423,0,0,0,126.89,228.271Zm4.32-4.32h.645a.423.423,0,0,1,.422.422v2.853a.423.423,0,0,1-.422.422h-.645a.423.423,0,0,0,.422-.422v-2.853A.423.423,0,0,0,131.21,223.951Z" transform="translate(-121.119 -204.971)" fill="#c4e2ff" fill-rule="evenodd"/>
          <path id="Trazado_978722" data-name="Trazado 978722" d="M341.017,223.951h2.853a.423.423,0,0,1,.422.422v2.853a.423.423,0,0,1-.422.422h-2.853a.423.423,0,0,1-.422-.422v-2.853A.423.423,0,0,1,341.017,223.951Zm0,8.639h2.853a.423.423,0,0,1,.422.422v2.853a.423.423,0,0,1-.422.422h-2.853a.423.423,0,0,1-.422-.422v-2.853A.423.423,0,0,1,341.017,232.59Zm4.32,0h2.853a.423.423,0,0,1,.422.422v2.853a.423.423,0,0,1-.422.422h-2.853a.423.423,0,0,1-.422-.422v-2.853A.423.423,0,0,1,345.336,232.59Zm0-4.32h2.853a.423.423,0,0,1,.422.422v2.853a.423.423,0,0,1-.422.422h-2.853a.423.423,0,0,1-.422-.422v-2.853A.423.423,0,0,1,345.336,228.271Zm-4.32,0h2.853a.423.423,0,0,1,.422.422v2.853a.423.423,0,0,1-.422.422h-2.853a.423.423,0,0,1-.422-.422v-2.853A.423.423,0,0,1,341.017,228.271Zm4.32-4.32h2.853a.423.423,0,0,1,.422.422v2.853a.423.423,0,0,1-.422.422h-2.853a.423.423,0,0,1-.422-.422v-2.853A.423.423,0,0,1,345.336,223.951Z" transform="translate(-308.857 -204.971)" fill="#d8ecfe" fill-rule="evenodd"/>
          <path id="Trazado_978723" data-name="Trazado 978723" d="M362.238,223.951h.646a.424.424,0,0,1,.41.324.422.422,0,0,0-.012.1v2.853a.422.422,0,0,0,.012.1.424.424,0,0,1-.41.324h-.646a.423.423,0,0,0,.422-.422v-2.853A.423.423,0,0,0,362.238,223.951Zm0,8.639h.646a.424.424,0,0,1,.41.324.422.422,0,0,0-.012.1v2.853a.424.424,0,0,0,.012.1.424.424,0,0,1-.41.324h-.646a.423.423,0,0,0,.422-.422v-2.853A.423.423,0,0,0,362.238,232.59Zm4.319,0h.645a.423.423,0,0,1,.422.422v2.853a.423.423,0,0,1-.422.422h-.645a.423.423,0,0,0,.422-.422v-2.853A.423.423,0,0,0,366.557,232.59Zm0-4.32h.645a.423.423,0,0,1,.422.422v2.853a.423.423,0,0,1-.422.422h-.645a.423.423,0,0,0,.422-.422v-2.853A.423.423,0,0,0,366.557,228.271Zm-4.319,0h.646a.424.424,0,0,1,.41.324.422.422,0,0,0-.012.1v2.853a.423.423,0,0,0,.012.1.424.424,0,0,1-.41.324h-.646a.423.423,0,0,0,.422-.422v-2.853A.423.423,0,0,0,362.238,228.271Zm4.319-4.32h.645a.423.423,0,0,1,.422.422v2.853a.423.423,0,0,1-.422.422h-.645a.423.423,0,0,0,.422-.422v-2.853A.423.423,0,0,0,366.557,223.951Z" transform="translate(-327.87 -204.971)" fill="#c4e2ff" fill-rule="evenodd"/>
          <path id="Trazado_978724" data-name="Trazado 978724" d="M102.836,164.144h7.838a.437.437,0,0,1,.435.435v2.327a.437.437,0,0,1-.435.435h-7.838a.437.437,0,0,1-.435-.435v-2.327A.437.437,0,0,1,102.836,164.144Z" transform="translate(-99.606 -152.431)" fill="#d8ecfe" fill-rule="evenodd"/>
          <path id="Trazado_978725" data-name="Trazado 978725" d="M110.5,164.144h.18a.437.437,0,0,1,.435.435v2.326a.437.437,0,0,1-.435.435h-7.838a.437.437,0,0,1-.435-.435v-.129h7.658a.437.437,0,0,0,.435-.435v-2.2Z" transform="translate(-99.608 -152.431)" fill="#c4e2ff" fill-rule="evenodd"/>
          <path id="Trazado_978726" data-name="Trazado 978726" d="M338.184,164.144h7.838a.437.437,0,0,1,.436.435v2.327a.437.437,0,0,1-.436.435h-7.838a.437.437,0,0,1-.435-.435v-2.327A.437.437,0,0,1,338.184,164.144Z" transform="translate(-306.357 -152.431)" fill="#d8ecfe" fill-rule="evenodd"/>
          <path id="Trazado_978727" data-name="Trazado 978727" d="M345.843,164.144h.179a.437.437,0,0,1,.435.435v2.326a.437.437,0,0,1-.435.435h-7.838a.437.437,0,0,1-.435-.435v-.129h7.658a.437.437,0,0,0,.436-.435Z" transform="translate(-306.357 -152.431)" fill="#c4e2ff" fill-rule="evenodd"/>
          <path id="Trazado_978728" data-name="Trazado 978728" d="M197.072,128.572l14.3,0V94.633a1.235,1.235,0,0,0-1.232-1.232H198.3a1.235,1.235,0,0,0-1.232,1.232v33.939Z" transform="translate(-182.774 -90.284)" fill="#65788e" fill-rule="evenodd"/>
          <path id="Trazado_978729" data-name="Trazado 978729" d="M223.343,191.808H226.2a.423.423,0,0,1,.422.422v2.853a.423.423,0,0,1-.422.422h-2.853a.423.423,0,0,1-.422-.422V192.23A.423.423,0,0,1,223.343,191.808Zm4.319,0h2.853a.423.423,0,0,1,.422.422v2.853a.423.423,0,0,1-.422.422h-2.853a.423.423,0,0,1-.422-.422V192.23A.423.423,0,0,1,227.662,191.808Zm0-4.32h2.853a.423.423,0,0,1,.422.422v2.853a.423.423,0,0,1-.422.422h-2.853a.423.423,0,0,1-.422-.422V187.91A.423.423,0,0,1,227.662,187.488Zm-4.319,0H226.2a.423.423,0,0,1,.422.422v2.853a.423.423,0,0,1-.422.422h-2.853a.423.423,0,0,1-.422-.422V187.91A.423.423,0,0,1,223.343,187.488Z" transform="translate(-205.482 -172.939)" fill="#d8ecfe" fill-rule="evenodd"/>
          <path id="Trazado_978730" data-name="Trazado 978730" d="M244.564,191.808h.645a.424.424,0,0,1,.41.324.42.42,0,0,0-.012.1v2.853a.419.419,0,0,0,.012.1.424.424,0,0,1-.41.324h-.645a.423.423,0,0,0,.422-.422V192.23A.423.423,0,0,0,244.564,191.808Zm4.319,0h.645a.423.423,0,0,1,.422.422v2.853a.423.423,0,0,1-.422.422h-.645a.423.423,0,0,0,.422-.422V192.23A.423.423,0,0,0,248.883,191.808Zm0-4.32h.645a.423.423,0,0,1,.422.422v2.853a.423.423,0,0,1-.422.422h-.645a.423.423,0,0,0,.422-.422V187.91A.423.423,0,0,0,248.883,187.488Zm-4.319,0h.645a.424.424,0,0,1,.41.324.42.42,0,0,0-.012.1v2.853a.42.42,0,0,0,.012.1.424.424,0,0,1-.41.324h-.645a.423.423,0,0,0,.422-.422V187.91A.423.423,0,0,0,244.564,187.488Z" transform="translate(-224.495 -172.939)" fill="#c4e2ff" fill-rule="evenodd"/>
          <path id="Trazado_978731" data-name="Trazado 978731" d="M233.032,299.609h-7.343v-9.854a1.761,1.761,0,0,1,1.841-1.659h3.66a1.761,1.761,0,0,1,1.841,1.659v9.853Z" transform="translate(-207.913 -261.323)" fill="#eceff1" fill-rule="evenodd"/>
          <path id="Trazado_978732" data-name="Trazado 978732" d="M233.032,299.609h-7.343v-9.854a1.761,1.761,0,0,1,1.841-1.659h1.234a1.761,1.761,0,0,0-1.841,1.659v9.854h6.108Z" transform="translate(-207.913 -261.323)" fill="#d1d1d6" fill-rule="evenodd"/>
          <path id="Trazado_978733" data-name="Trazado 978733" d="M220.51,120.9h7.838a.437.437,0,0,1,.435.435v2.327a.437.437,0,0,1-.435.435H220.51a.437.437,0,0,1-.435-.435v-2.327A.437.437,0,0,1,220.51,120.9Z" transform="translate(-202.981 -114.444)" fill="#d8ecfe" fill-rule="evenodd"/>
          <path id="Trazado_978734" data-name="Trazado 978734" d="M228.168,120.9h.179a.437.437,0,0,1,.436.435v2.327a.437.437,0,0,1-.436.435H220.51a.437.437,0,0,1-.435-.435v-.129h7.658a.437.437,0,0,0,.435-.435Z" transform="translate(-202.981 -114.444)" fill="#c4e2ff" fill-rule="evenodd"/>
        </g>
        <g id="Grupo_1143957" data-name="Grupo 1143957" transform="translate(25.286 26.702)">
          <path id="Trazado_978735" data-name="Trazado 978735" d="M302.681,289.6a10.806,10.806,0,0,1,3.164,1.312L307.9,290l2.423,2.423-.913,2.055a10.8,10.8,0,0,1,1.312,3.165l2.1.807v3.427l-2.1.808a10.806,10.806,0,0,1-1.312,3.164l.913,2.056-2.423,2.423-2.055-.913a10.8,10.8,0,0,1-3.165,1.312l-.807,2.1h-3.427l-.808-2.1a10.806,10.806,0,0,1-3.164-1.312l-2.056.913L290,307.908l.913-2.055a10.808,10.808,0,0,1-1.312-3.165l-2.1-.807v-3.427l2.1-.808a10.8,10.8,0,0,1,1.312-3.164L290,292.425,292.419,290l2.056.913a10.807,10.807,0,0,1,3.164-1.312l.808-2.1h3.427Z" transform="translate(-287.499 -287.505)" fill="#ffe177" fill-rule="evenodd"/>
          <path id="Trazado_978736" data-name="Trazado 978736" d="M327.757,309.418l-2.056.913-.317-.317,1.928-.856Q327.531,309.293,327.757,309.418Zm8.206-19.815a10.807,10.807,0,0,1,3.164,1.312l-.584.26a14.254,14.254,0,0,0-3.609-1.571l-.808-2.1h1.029Zm3.165,19.815a10.8,10.8,0,0,1-3.165,1.312l-.807,2.1h-1.029l.807-2.1a14.243,14.243,0,0,0,3.61-1.572Zm-13.744-19.1L325.7,290l2.056.913q-.225.125-.445.26Zm15.086,0,.713-.317,2.423,2.423-.913,2.055a10.805,10.805,0,0,1,1.312,3.165l2.1.807v3.427l-2.1.808a10.809,10.809,0,0,1-1.312,3.164l.913,2.056-2.423,2.423-.713-.317,2.107-2.107-.913-2.056a10.811,10.811,0,0,0,1.312-3.164l2.1-.808v-3.427l-2.1-.807a10.807,10.807,0,0,0-1.312-3.165l.913-2.055Z" transform="translate(-320.781 -287.505)" fill="#ffd064" fill-rule="evenodd"/>
          <circle id="Elipse_11554" data-name="Elipse 11554" cx="6.86" cy="6.86" r="6.86" transform="matrix(0.493, -0.87, 0.87, 0.493, 3.315, 15.272)" fill="#eceff1"/>
          <path id="Trazado_978737" data-name="Trazado 978737" d="M342.1,335.246a6.86,6.86,0,1,0,0,13.721q.276,0,.546-.022a6.861,6.861,0,0,1,0-13.678Q342.375,335.246,342.1,335.246Z" transform="translate(-329.438 -329.445)" fill="#d1d1d6" fill-rule="evenodd"/>
        </g>
      </g>
      <path id="Trazado_978738" data-name="Trazado 978738" d="M53.993,59.458a5.888,5.888,0,1,1,5.889-5.888A5.9,5.9,0,0,1,53.993,59.458Zm0-13.721a7.832,7.832,0,1,0,7.833,7.833A7.841,7.841,0,0,0,53.993,45.737ZM11.04,46.8c-4.456-12.09-.5-24.86,10.084-32.533a27.378,27.378,0,0,1,31.794-.812l-.442-.048a.972.972,0,1,0-.209,1.932l3.959.428a.972.972,0,0,0,.994-1.359L55.61,10.77a.972.972,0,0,0-1.778.785l.108.245a29.059,29.059,0,0,0-16.575-5A30.249,30.249,0,0,0,19.983,12.7,31.127,31.127,0,0,0,8.856,27.54a29.347,29.347,0,0,0,.36,19.935A.972.972,0,1,0,11.04,46.8Zm54.654,5.718-1.477-.568a.974.974,0,0,1-.6-.682,9.825,9.825,0,0,0-1.2-2.883.971.971,0,0,1-.061-.9l.643-1.448-1.482-1.482-1.448.643a.972.972,0,0,1-.9-.061,9.826,9.826,0,0,0-2.882-1.2.971.971,0,0,1-.682-.6l-.341-.887a.873.873,0,0,1-.034-.089l-.193-.5h-2.1l-.569,1.477a.971.971,0,0,1-.682.6,9.826,9.826,0,0,0-2.882,1.2.973.973,0,0,1-.9.061l-.837-.372,0,0-.607-.27-1.482,1.482.643,1.448a.973.973,0,0,1-.061.9,9.82,9.82,0,0,0-1.195,2.883.972.972,0,0,1-.6.682l-1.477.569v2.1l1.477.568a.972.972,0,0,1,.6.682,9.829,9.829,0,0,0,1.2,2.883.972.972,0,0,1,.061.9L44.978,61.1l1.482,1.482,1.448-.643a.972.972,0,0,1,.9.061,9.831,9.831,0,0,0,2.882,1.2.97.97,0,0,1,.682.6l.569,1.478h2.1l.568-1.477a.971.971,0,0,1,.682-.6A9.823,9.823,0,0,0,59.175,62a.973.973,0,0,1,.9-.061l1.447.643L63.008,61.1l-.643-1.448a.972.972,0,0,1,.061-.9,9.827,9.827,0,0,0,1.2-2.883.973.973,0,0,1,.6-.682l1.477-.568v-2.1ZM17.028,23.107H29.383V51.535H17.028ZM40.2,51.535H34.8V42.662a.806.806,0,0,1,.869-.688h3.66a.805.805,0,0,1,.869.688v8.873Zm-7.11-33.222c.03,0,.061,0,.092,0s.061,0,.091,0h8.456c.03,0,.061,0,.092,0s.061,0,.092,0h1.766V44.584l-.55.55a.972.972,0,0,0-.2,1.082l.712,1.6a11.748,11.748,0,0,0-1.036,2.5l-.459.177V42.662a2.73,2.73,0,0,0-2.813-2.631h-3.66a2.73,2.73,0,0,0-2.813,2.631v8.873H31.327V18.313ZM34.156,15.2h6.695v1.168H34.156ZM48.42,43.038h.16l-.16.085Zm2.41-1.944H48.42v-2.41h2.41Zm0-4.354H48.42v-2.41h2.41Zm4.354,0h-2.41v-2.41h2.41Zm-2.41,3.185v-1.24h2.41v1.24Zm5.205-16.817V42.419q-.363-.13-.735-.237l-.116-.3V33.357a.972.972,0,0,0-.972-.972H47.448a.972.972,0,0,0-.972.972v9.1a.971.971,0,0,0-.851.2V23.107Zm7.812,3.578a.972.972,0,1,0-1.824.673,27.316,27.316,0,0,1,.691,17.58l-2.229-2.229a.972.972,0,0,0-1.082-.2l-1.423.632v-21a.972.972,0,0,0-.972-.972H45.625V17.341a.972.972,0,0,0-.972-.972H42.8v-2.14a.972.972,0,0,0-.972-.972H38.476V11.928a.972.972,0,1,0-1.944,0v1.329H33.184a.972.972,0,0,0-.972.972v2.14H30.354a.972.972,0,0,0-.972.972v3.822H16.056a.972.972,0,0,0-.972.972V52.507a.972.972,0,0,0,.972.972H40.348v1.806a.972.972,0,0,0,.623.907l1.635.63a11.779,11.779,0,0,0,1.037,2.5l-.711,1.6a.973.973,0,0,0,.2,1.083l2.181,2.181A27.084,27.084,0,0,1,22.083,60.7l.45.049a.972.972,0,0,0,.207-1.934l-3.959-.424a.972.972,0,0,0-.993,1.36L19.4,63.39a.972.972,0,0,0,1.778-.787l-.1-.233A29.025,29.025,0,0,0,34.64,67.242q1.29.119,2.588.118a29.831,29.831,0,0,0,12.442-2.766q.526.207,1.07.363l.63,1.635a.972.972,0,0,0,.907.623h3.43a.972.972,0,0,0,.907-.623l.629-1.635a11.771,11.771,0,0,0,2.5-1.036l1.6.711a.972.972,0,0,0,1.082-.2L64.854,62a.973.973,0,0,0,.2-1.082l-.712-1.6a11.711,11.711,0,0,0,1.036-2.5l1.635-.63a.972.972,0,0,0,.623-.907v-3.43a.974.974,0,0,0-.623-.908l-1.635-.629q-.142-.5-.325-.976A28.722,28.722,0,0,0,67.685,38.8a30.2,30.2,0,0,0-1.894-12.118Zm-29.26,2.295v2.41h-2.41v-2.41Zm4.354,2.41h-2.41v-2.41h2.41Zm-2.41,4.354v-2.41h2.41v2.41h-2.41Zm-4.354-2.41h2.41v2.41h-2.41Zm-.972,4.354a.972.972,0,0,1-.972-.972V28.007a.972.972,0,0,1,.972-.972h8.708a.972.972,0,0,1,.972.972v8.709a.972.972,0,0,1-.972.972Zm-8.972,7.761V43.038h2.41v2.411Zm-4.354-2.411h2.41v2.411h-2.41Zm2.41-8.708v2.41h-2.41v-2.41Zm4.354,2.41h-2.41v-2.41h2.41Zm-2.41,1.944h2.41v2.41h-2.41Zm-4.354,0h2.41v2.41h-2.41Zm7.736-6.3a.972.972,0,0,1,.972.972V46.42a.972.972,0,0,1-.972.972H18.851a.972.972,0,0,1-.972-.972V33.357a.972.972,0,0,1,.972-.972H27.56ZM34.122,21.65h6.764V22.9H34.122Zm-.972,3.2a.972.972,0,0,1-.972-.972v-3.2a.972.972,0,0,1,.972-.972h8.708a.972.972,0,0,1,.972.972v3.2a.972.972,0,0,1-.972.972Zm14.858,1.906H55.6v1.556H48.008Zm-.972,3.5a.972.972,0,0,1-.972-.972v-3.5a.972.972,0,0,1,.972-.972h9.533a.972.972,0,0,1,.972.972v3.5a.972.972,0,0,1-.972.972Zm-20.448-2.1H19.823V26.9h6.764Zm.972-3.2a.972.972,0,0,1,.972.972v3.2a.972.972,0,0,1-.972.972H18.851a.972.972,0,0,1-.972-.972v-3.2a.972.972,0,0,1,.972-.972Z" fill="#242222" fill-rule="evenodd"/>
    </g>
  </g>
</svg>
