<svg xmlns="http://www.w3.org/2000/svg" xmlns:xlink="http://www.w3.org/1999/xlink" width="108" height="108" viewBox="0 0 108 108">
  <defs>
    <filter id="Fondo" x="0" y="0" width="108" height="108" filterUnits="userSpaceOnUse">
      <feOffset dy="3" input="SourceAlpha"/>
      <feGaussianBlur stdDeviation="3" result="blur"/>
      <feFlood flood-opacity="0.161"/>
      <feComposite operator="in" in2="blur"/>
      <feComposite in="SourceGraphic"/>
    </filter>
  </defs>
  <g id="Grupo_1143955" data-name="Grupo 1143955" transform="translate(-903 -4029)">
    <g id="Icono" transform="translate(912.499 3340)">
      <g transform="matrix(1, 0, 0, 1, -9.5, 689)" filter="url(#Fondo)">
        <g id="Fondo-2" data-name="Fondo" transform="translate(9 6)" fill="#fffbe7" stroke="#8b791c" stroke-width="3">
          <circle cx="45" cy="45" r="45" stroke="none"/>
          <circle cx="45" cy="45" r="43.5" fill="none"/>
        </g>
      </g>
    </g>
    <g id="Grupo_1143954" data-name="Grupo 1143954" transform="translate(922.417 4045.418)">
      <g id="Grupo_1143953" data-name="Grupo 1143953" transform="translate(7.889 7.443)">
        <g id="Grupo_1143950" data-name="Grupo 1143950" transform="translate(12.681 0)">
          <path id="Trazado_978709" data-name="Trazado 978709" d="M153.412,14.367a17.349,17.349,0,0,1,5.087,2.108l3.306-1.466L165.7,18.9l-1.466,3.306a17.355,17.355,0,0,1,2.108,5.087l3.373,1.3V34.1l-3.373,1.3a17.369,17.369,0,0,1-2.108,5.084l1.466,3.306-3.895,3.9L158.5,46.22a17.358,17.358,0,0,1-5.087,2.111l-1.3,3.37H146.6l-1.3-3.373a17.363,17.363,0,0,1-5.085-2.108l-3.306,1.469-3.9-3.9,1.469-3.3a17.413,17.413,0,0,1-2.111-5.087l-3.37-1.3v-5.51l3.37-1.3a17.358,17.358,0,0,1,2.111-5.087L133.018,18.9l3.9-3.895,3.3,1.466a17.4,17.4,0,0,1,5.087-2.108l1.3-3.373h5.51Z" transform="translate(-129.006 -10.994)" fill="#a79ba7" fill-rule="evenodd"/>
          <path id="Trazado_978710" data-name="Trazado 978710" d="M219.958,15.5l1.111-.493,3.895,3.895L223.5,22.209a17.355,17.355,0,0,1,2.108,5.087l3.373,1.3V34.1l-3.373,1.3a17.368,17.368,0,0,1-2.108,5.084l1.466,3.306-3.895,3.9-1.111-.493,3.4-3.4-1.469-3.306A17.368,17.368,0,0,0,224,35.4l3.373-1.3v-5.51L224,27.3a17.355,17.355,0,0,0-2.108-5.087l1.469-3.306Zm-24.271,0,.493-.493,3.3,1.466c-.233.13-.464.264-.69.406Zm16.989-1.135a17.349,17.349,0,0,1,5.087,2.108l-.911.406a22.7,22.7,0,0,0-5.779-2.515l-1.3-3.373h1.6ZM199.485,46.22l-3.306,1.469-.493-.493,3.106-1.38Q199.132,46.025,199.485,46.22Zm18.278,0a17.358,17.358,0,0,1-5.087,2.111l-1.3,3.37h-1.6l1.3-3.37a22.752,22.752,0,0,0,5.782-2.515Z" transform="translate(-188.271 -10.994)" fill="#837683" fill-rule="evenodd"/>
        </g>
        <g id="Grupo_1143951" data-name="Grupo 1143951" transform="translate(21.111 8.431)">
          <path id="Trazado_978711" data-name="Trazado 978711" d="M216.729,86.793a11.923,11.923,0,1,1-11.923,11.923A11.923,11.923,0,0,1,216.729,86.793Z" transform="translate(-204.806 -86.793)" fill="#ffc338" fill-rule="evenodd"/>
          <path id="Trazado_978712" data-name="Trazado 978712" d="M303.847,86.793a11.923,11.923,0,1,1,0,23.846c-.344,0-.684-.015-1.021-.044a11.923,11.923,0,0,0,0-23.758C303.163,86.809,303.5,86.793,303.847,86.793Z" transform="translate(-291.924 -86.793)" fill="#f5b829" fill-rule="evenodd"/>
        </g>
        <g id="Grupo_1143952" data-name="Grupo 1143952" transform="translate(0 29.266)">
          <path id="Trazado_978713" data-name="Trazado 978713" d="M166.042,288.6c-3.559-13.284,9.026-14.39,13.138-14.475a.2.2,0,0,1,.124.36C174.5,278.082,176.592,288.44,166.042,288.6Z" transform="translate(-148.686 -274.122)" fill="#6cf5c2" fill-rule="evenodd"/>
          <path id="Trazado_978714" data-name="Trazado 978714" d="M31.584,344.119c-10.231,2.579-10.887-7.969-16.463-10.2a.2.2,0,0,1,.026-.38C19.141,332.556,31.584,330.367,31.584,344.119Z" transform="translate(-14.995 -326.261)" fill="#6cf5c2" fill-rule="evenodd"/>
        </g>
      </g>
      <path id="Trazado_978715" data-name="Trazado 978715" d="M23.478,56.133c-4.8.817-7.505-1.236-9.663-3.851-1.073-1.3-2-2.752-3.01-4.018a7.942,7.942,0,0,0-3.121-2.627,1.09,1.09,0,0,1,.143-2.07h0a23.09,23.09,0,0,1,8.291-.623,10.458,10.458,0,0,1,6.2,2.911,9.259,9.259,0,0,1,1.417,1.891,10.417,10.417,0,0,1,1.191-5.46l-.971-.971a.89.89,0,0,1-.184-.991l1.282-2.882a18.31,18.31,0,0,1-1.861-4.481l-2.942-1.132a.89.89,0,0,1-.57-.83V25.491a.89.89,0,0,1,.57-.83l2.942-1.132a18.334,18.334,0,0,1,1.862-4.486l-1.282-2.883a.89.89,0,0,1,.184-.991l3.893-3.893a.89.89,0,0,1,.991-.184l2.883,1.282a18.2,18.2,0,0,1,4.482-1.857l1.137-2.947A.89.89,0,0,1,38.173,7H43.68a.89.89,0,0,1,.831.571l1.132,2.946a18.2,18.2,0,0,1,4.481,1.857l2.883-1.282a.89.89,0,0,1,.991.184l3.893,3.893a.89.89,0,0,1,.184.99L56.8,19.041a18.17,18.17,0,0,1,1.858,4.488L61.6,24.66a.89.89,0,0,1,.57.83V31a.89.89,0,0,1-.57.83L58.655,32.96A18.353,18.353,0,0,1,56.8,37.441l1.278,2.885a.89.89,0,0,1-.184.99L54,45.208a.89.89,0,0,1-.99.184l-2.883-1.277a18.148,18.148,0,0,1-4.483,1.857L44.51,48.913a.89.89,0,0,1-.83.57H38.173a.89.89,0,0,1-.83-.57l-1.132-2.941q-.562-.149-1.111-.333-.126.3-.26.592c-1.457,3.193-3.631,5.954-8.858,6.261a16.677,16.677,0,0,0-.372,8.624.89.89,0,0,1-1.751.318,22.355,22.355,0,0,1-.38-5.3ZM23.439,52.6a9.374,9.374,0,0,0-2.393-5.5,8.7,8.7,0,0,0-5.171-2.391,19.224,19.224,0,0,0-5.892.22,21.806,21.806,0,0,1,4.01,4.66c1.325,1.825,2.728,3.648,4.893,4.48a7.789,7.789,0,0,0,3.855.376,24.018,24.018,0,0,0-5.929-4.524.89.89,0,1,1,.89-1.541A27.427,27.427,0,0,1,23.439,52.6Zm2.517-11.8A11.226,11.226,0,0,1,30.2,37.808a16.349,16.349,0,0,1,1.609-.579,12.765,12.765,0,1,1,5.409,3.276c-.181.342-.347.7-.507,1.066-.337.773-.64,1.59-.951,2.411q.653.215,1.325.374a.89.89,0,0,1,.625.546l1.078,2.8h4.285l1.078-2.8a.89.89,0,0,1,.625-.546,16.363,16.363,0,0,0,4.823-2,.89.89,0,0,1,.828-.057l2.747,1.217,3.03-3.03-1.217-2.747a.89.89,0,0,1,.055-.825,16.578,16.578,0,0,0,2-4.826.89.89,0,0,1,.546-.625l2.8-1.078V26.1l-2.8-1.078a.889.889,0,0,1-.546-.625,16.4,16.4,0,0,0-2-4.829.89.89,0,0,1-.056-.827L56.2,15.995l-3.029-3.029-2.747,1.221a.89.89,0,0,1-.828-.056,16.427,16.427,0,0,0-4.824-2,.89.89,0,0,1-.625-.547L43.069,8.779H38.783L37.7,11.587a.89.89,0,0,1-.624.545,16.428,16.428,0,0,0-4.824,2,.89.89,0,0,1-.828.056l-2.747-1.221-3.029,3.029,1.221,2.747a.89.89,0,0,1-.056.828A16.566,16.566,0,0,0,24.808,24.4a.889.889,0,0,1-.546.623l-2.8,1.078v4.285l2.8,1.078a.89.89,0,0,1,.545.622,16.531,16.531,0,0,0,2,4.826.89.89,0,0,1,.056.829l-1.221,2.747Zm7.923-4.076a27.105,27.105,0,0,1,4.488-.457h0a1.09,1.09,0,0,1,.674,1.962,5.247,5.247,0,0,0-.78.723,11.072,11.072,0,1,0-4.383-2.228Zm-7.1,13.908A7.789,7.789,0,0,0,30.4,49.268c1.876-1.364,2.759-3.488,3.567-5.594a21.8,21.8,0,0,1,2.668-5.539,19.221,19.221,0,0,0-5.748,1.313A8.7,8.7,0,0,0,26.513,43.1a9.374,9.374,0,0,0-.888,5.932,27.432,27.432,0,0,1,4.45-5.561.89.89,0,1,1,1.258,1.258A24.013,24.013,0,0,0,26.777,50.629Zm13.257-29.05V20.7a.89.89,0,0,1,1.78,0v.868a4.447,4.447,0,0,1,3.443,2.71.89.89,0,0,1-1.641.689,2.94,2.94,0,0,0-3.853-1.47,1.946,1.946,0,0,0-1.375,1.9v0a1.677,1.677,0,0,0,1.078,1.455,5.877,5.877,0,0,0,1.613.468h0c2.012.331,4.242,1.215,4.53,3.607s-1.754,3.718-3.8,4v.857a.89.89,0,0,1-1.78,0v-.87a4.449,4.449,0,0,1-3.8-3.252.89.89,0,1,1,1.727-.43,2.9,2.9,0,0,0,3.093,1.974h0a3.957,3.957,0,0,0,2.1-.6,1.485,1.485,0,0,0,.689-1.467h0a1.829,1.829,0,0,0-.944-1.394,6.02,6.02,0,0,0-2.107-.669c-1.959-.319-4.073-1.274-4.183-3.6a3.67,3.67,0,0,1,2.5-3.641,4.921,4.921,0,0,1,.922-.261Z" transform="translate(0)" fill-rule="evenodd"/>
    </g>
  </g>
</svg>
