<svg xmlns="http://www.w3.org/2000/svg" xmlns:xlink="http://www.w3.org/1999/xlink" width="108" height="108" viewBox="0 0 108 108">
  <defs>
    <filter id="Trazado_904820" x="0" y="0" width="108" height="108" filterUnits="userSpaceOnUse">
      <feOffset dy="3" input="SourceAlpha"/>
      <feGaussianBlur stdDeviation="3" result="blur"/>
      <feFlood flood-opacity="0.161"/>
      <feComposite operator="in" in2="blur"/>
      <feComposite in="SourceGraphic"/>
    </filter>
  </defs>
  <g id="Grupo_1143979" data-name="Grupo 1143979" transform="translate(-201 -4744)">
    <g transform="matrix(1, 0, 0, 1, 201, 4744)" filter="url(#Trazado_904820)">
      <g id="Trazado_904820-2" data-name="Trazado 904820" transform="translate(9 6)" fill="#ecf4fa">
        <path d="M 45 88.5 C 39.12687683105469 88.5 33.43022537231445 87.35007476806641 28.06830024719238 85.08217620849609 C 22.88852500915527 82.89131164550781 18.23629951477051 79.75458526611328 14.2408504486084 75.75914764404297 C 10.24541282653809 71.76370239257812 7.108687400817871 67.11147308349609 4.917825222015381 61.93170166015625 C 2.649924993515015 56.56977462768555 1.5 50.87312316894531 1.5 45 C 1.5 39.12687683105469 2.649924993515015 33.43022537231445 4.917825222015381 28.06830024719238 C 7.108687400817871 22.88852500915527 10.24541282653809 18.23629951477051 14.2408504486084 14.2408504486084 C 18.23629951477051 10.24541282653809 22.88852500915527 7.108687400817871 28.06830024719238 4.917825222015381 C 33.43022537231445 2.649924993515015 39.12687683105469 1.5 45 1.5 C 50.87312316894531 1.5 56.56977462768555 2.649924993515015 61.93170166015625 4.917825222015381 C 67.11147308349609 7.108687400817871 71.76370239257812 10.24541282653809 75.75914764404297 14.2408504486084 C 79.75458526611328 18.23629951477051 82.89131164550781 22.88852500915527 85.08217620849609 28.06830024719238 C 87.35007476806641 33.43022537231445 88.5 39.12687683105469 88.5 45 C 88.5 50.87312316894531 87.35007476806641 56.56977462768555 85.08217620849609 61.93170166015625 C 82.89131164550781 67.11147308349609 79.75458526611328 71.76370239257812 75.75914764404297 75.75914764404297 C 71.76370239257812 79.75458526611328 67.11147308349609 82.89131164550781 61.93170166015625 85.08217620849609 C 56.56977462768555 87.35007476806641 50.87312316894531 88.5 45 88.5 Z" stroke="none"/>
        <path d="M 45 3 C 39.32871246337891 3 33.82865524291992 4.110054016113281 28.65262985229492 6.299339294433594 C 23.65165710449219 8.414573669433594 19.15968322753906 11.44334411621094 15.301513671875 15.301513671875 C 11.44334411621094 19.15968322753906 8.414573669433594 23.65165710449219 6.299339294433594 28.65262985229492 C 4.110054016113281 33.82865524291992 3 39.32871246337891 3 45 C 3 50.67128753662109 4.110054016113281 56.17134475708008 6.299339294433594 61.34737396240234 C 8.414573669433594 66.34834289550781 11.44334411621094 70.84031677246094 15.301513671875 74.698486328125 C 19.15968322753906 78.55665588378906 23.65165710449219 81.58542633056641 28.65262985229492 83.70066070556641 C 33.82865524291992 85.88994598388672 39.32871246337891 87 45 87 C 50.67128753662109 87 56.17134475708008 85.88994598388672 61.34737396240234 83.70066070556641 C 66.34834289550781 81.58542633056641 70.84031677246094 78.55665588378906 74.698486328125 74.698486328125 C 78.55665588378906 70.84031677246094 81.58542633056641 66.34834289550781 83.70066070556641 61.34737396240234 C 85.88994598388672 56.17134475708008 87 50.67128753662109 87 45 C 87 39.32871246337891 85.88994598388672 33.82865524291992 83.70066070556641 28.65262985229492 C 81.58542633056641 23.65165710449219 78.55665588378906 19.15968322753906 74.698486328125 15.301513671875 C 70.84031677246094 11.44334411621094 66.34834289550781 8.414573669433594 61.34737396240234 6.299339294433594 C 56.17134475708008 4.110054016113281 50.67128753662109 3 45 3 M 45 0 C 69.85281372070312 0 90 20.14718627929688 90 45 C 90 69.85281372070312 69.85281372070312 90 45 90 C 20.14718627929688 90 0 69.85281372070312 0 45 C 0 20.14718627929688 20.14718627929688 0 45 0 Z" stroke="none" fill="#2a5673"/>
      </g>
    </g>
    <g id="Grupo_1143978" data-name="Grupo 1143978" transform="translate(225.76 4753.669)">
      <g id="Grupo_1143969" data-name="Grupo 1143969" transform="translate(11.834 45.297)">
        <g id="Grupo_1143964" data-name="Grupo 1143964" transform="translate(0 2.901)">
          <path id="Trazado_978749" data-name="Trazado 978749" d="M144.89,356.668a9.236,9.236,0,0,0,2.217,6.083H113.685a1.057,1.057,0,0,1-.863-.442,10.767,10.767,0,0,1,0-11.282,1.058,1.058,0,0,1,.863-.442h33.423A9.237,9.237,0,0,0,144.89,356.668Z" transform="translate(-111.226 -350.585)" fill="#fb3a82"/>
          <path id="Trazado_978750" data-name="Trazado 978750" d="M121.426,350.587,112,360.8a10.68,10.68,0,0,1-.771-4.126,9.653,9.653,0,0,1,1.6-5.641,1.056,1.056,0,0,1,.863-.442Z" transform="translate(-111.23 -350.587)" fill="#fb1466"/>
          <path id="Trazado_978751" data-name="Trazado 978751" d="M179.455,356.668a9.236,9.236,0,0,0,2.217,6.083H147.741s-1.95-1.975-1.95-6.083,1.95-6.083,1.95-6.083h33.931A9.237,9.237,0,0,0,179.455,356.668Z" transform="translate(-142.113 -350.585)" fill="#e0d3ce"/>
          <g id="Grupo_1143963" data-name="Grupo 1143963" transform="translate(3.678 0)">
            <path id="Trazado_978752" data-name="Trazado 978752" d="M152.309,350.587l-6.484,7.023c-.022-.3-.035-.614-.035-.941,0-4.108,1.95-6.083,1.95-6.083Z" transform="translate(-145.79 -350.587)" fill="#cdbfbb"/>
            <path id="Trazado_978753" data-name="Trazado 978753" d="M428.42,356.674a9.235,9.235,0,0,0,2.217,6.082h-4.021a9.45,9.45,0,0,1,0-12.165h4.021A9.233,9.233,0,0,0,428.42,356.674Z" transform="translate(-394.755 -350.591)" fill="#cdbfbb"/>
          </g>
        </g>
        <g id="Grupo_1143968" data-name="Grupo 1143968" transform="translate(4.579)">
          <g id="Grupo_1143966" data-name="Grupo 1143966" transform="translate(0)">
            <path id="Trazado_978754" data-name="Trazado 978754" d="M191.525,325.083a1.765,1.765,0,0,1-1.765,1.765H156.025a1.766,1.766,0,0,1,0-3.531H189.76a1.766,1.766,0,0,1,1.765,1.766Z" transform="translate(-154.26 -323.317)" fill="#fb3a82"/>
            <g id="Grupo_1143965" data-name="Grupo 1143965">
              <path id="Trazado_978755" data-name="Trazado 978755" d="M162.556,323.317l-3.259,3.531h-3.272a1.766,1.766,0,0,1,0-3.531Z" transform="translate(-154.26 -323.317)" fill="#fb1466"/>
              <path id="Trazado_978756" data-name="Trazado 978756" d="M460.9,325.086a1.767,1.767,0,0,1-1.767,1.767h-3.424a1.766,1.766,0,0,0,0-3.532h3.424A1.766,1.766,0,0,1,460.9,325.086Z" transform="translate(-423.638 -323.321)" fill="#fb1466"/>
            </g>
          </g>
          <g id="Grupo_1143967" data-name="Grupo 1143967" transform="translate(0 14.436)">
            <path id="Trazado_978757" data-name="Trazado 978757" d="M189.757,462.527H156.023a1.766,1.766,0,1,1,0-3.531h33.734a1.766,1.766,0,1,1,0,3.531Z" transform="translate(-154.257 -458.996)" fill="#fb3a82"/>
            <path id="Trazado_978758" data-name="Trazado 978758" d="M460.9,460.765a1.765,1.765,0,0,1-1.767,1.765h-3.424a1.765,1.765,0,1,0,0-3.53h3.424A1.766,1.766,0,0,1,460.9,460.765Z" transform="translate(-423.638 -459)" fill="#fb1466"/>
          </g>
        </g>
      </g>
      <g id="Grupo_1143977" data-name="Grupo 1143977" transform="translate(-0.001 12.193)">
        <g id="Grupo_1143972" data-name="Grupo 1143972" transform="translate(0.798 21.087)">
          <g id="Grupo_1143970" data-name="Grupo 1143970" transform="translate(0 6.754)">
            <path id="Trazado_978759" data-name="Trazado 978759" d="M30.743,276.707l-2.85-2.85-19.4,17.912a3.073,3.073,0,1,0,4.342,4.342Z" transform="translate(-7.5 -273.857)" fill="#873f30"/>
            <path id="Trazado_978760" data-name="Trazado 978760" d="M14.012,303.563a3.074,3.074,0,0,1-4.344,0,3.042,3.042,0,0,1-.749-1.224,3.068,3.068,0,0,0,3.118-.747c.029-.029.059-.061.087-.091l17.913-19.4,1.974,1.974L14.1,303.474C14.069,303.5,14.04,303.534,14.012,303.563Z" transform="translate(-8.767 -281.219)" fill="#6c3328"/>
          </g>
          <path id="Trazado_978761" data-name="Trazado 978761" d="M197.2,210.382l-6.564,7.829,2.681,2.681,7.829-6.564Z" transform="translate(-171.15 -210.382)" fill="#873f30"/>
          <path id="Trazado_978762" data-name="Trazado 978762" d="M206.069,210.382l-2.121,2.53.636.636a1.2,1.2,0,0,1,0,1.7l-4.023,4.023,1.625,1.625,7.829-6.564Z" transform="translate(-180.02 -210.382)" fill="#6c3328"/>
          <g id="Grupo_1143971" data-name="Grupo 1143971" transform="translate(17.314 6.226)">
            <path id="Trazado_978763" data-name="Trazado 978763" d="M173.389,274.791l-2.6-2.6a1.927,1.927,0,0,1,2.725-2.725l2.6,2.6a1.927,1.927,0,1,1-2.725,2.725Z" transform="translate(-170.222 -268.899)" fill="#ba5d4f"/>
            <path id="Trazado_978764" data-name="Trazado 978764" d="M186.139,284.821a1.927,1.927,0,0,1-2.725,0l-1.973-1.973a1.927,1.927,0,0,0,2.725-2.725l1.973,1.973A1.926,1.926,0,0,1,186.139,284.821Z" transform="translate(-180.247 -278.929)" fill="#a34f41"/>
          </g>
        </g>
        <g id="Grupo_1143973" data-name="Grupo 1143973" transform="translate(21.175 3.193)">
          <path id="Trazado_978765" data-name="Trazado 978765" d="M0,0H8.174V12.833H0Z" transform="translate(9.073 0) rotate(45)" fill="#ba5d4f"/>
          <path id="Trazado_978766" data-name="Trazado 978766" d="M0,0H8.174V12.833H0Z" transform="translate(18.438 27.519) rotate(-135)" fill="#a34f41"/>
        </g>
        <g id="Grupo_1143976" data-name="Grupo 1143976" transform="translate(0 0)">
          <path id="Trazado_978767" data-name="Trazado 978767" d="M177.252,33.153l-.2-.2a1.949,1.949,0,0,1,0-2.757l9.931-9.931a1.949,1.949,0,0,1,2.757,0l.2.2a1.949,1.949,0,0,1,0,2.757l-9.931,9.931a1.949,1.949,0,0,1-2.757,0Z" transform="translate(-157.702 -18.896)" fill="#873f30"/>
          <path id="Trazado_978768" data-name="Trazado 978768" d="M348.814,204.715l.2.2a1.949,1.949,0,0,0,2.757,0l9.931-9.931a1.949,1.949,0,0,0,0-2.757l-.2-.2a1.949,1.949,0,0,0-2.757,0l-9.931,9.931A1.949,1.949,0,0,0,348.814,204.715Z" transform="translate(-311.19 -172.383)" fill="#6c3328"/>
          <g id="Grupo_1143975" data-name="Grupo 1143975">
            <path id="Trazado_978769" data-name="Trazado 978769" d="M0,0H9.18V19.382H0Z" transform="translate(38.535 6.849) rotate(45)" fill="#fcc16d"/>
            <path id="Trazado_978770" data-name="Trazado 978770" d="M0,0H19.382V4.646H0Z" transform="translate(28.034 23.765) rotate(-45)" fill="#fca62f"/>
            <path id="Trazado_978771" data-name="Trazado 978771" d="M238.422,67.625l-1.59-.65a1.462,1.462,0,0,0-1.587.32L224.08,78.459a1.462,1.462,0,0,0-.32,1.587l.65,1.59a.975.975,0,0,0,1.591.32l12.741-12.741a.975.975,0,0,0-.32-1.591Z" transform="translate(-199.855 -61.049)" fill="#873f30"/>
            <path id="Trazado_978772" data-name="Trazado 978772" d="M303.038,132.241l.65,1.59a1.462,1.462,0,0,1-.32,1.587L292.2,146.583a1.462,1.462,0,0,1-1.587.32l-1.59-.65a.975.975,0,0,1-.32-1.591l12.741-12.741A.975.975,0,0,1,303.038,132.241Z" transform="translate(-257.732 -118.927)" fill="#6c3328"/>
            <g id="Grupo_1143974" data-name="Grupo 1143974">
              <path id="Trazado_978773" data-name="Trazado 978773" d="M51.912,58.935h-.594a8.253,8.253,0,0,1-.687-1.31.8.8,0,0,0-1.475.611c.1.238.209.471.325.7h-31.3a2.553,2.553,0,0,0-.7.1,9.277,9.277,0,0,1-1.173-4.751c0-.348.015-.691.045-1.027H31.644a.8.8,0,0,0,0-1.6H17.027L18.9,49.626H49.478a9.962,9.962,0,0,0-.768,2.031H38.22a.8.8,0,0,0,0,1.6H48.43c-.031.324-.049.652-.051.982a.8.8,0,0,0,.795.8h0a.8.8,0,0,0,.8-.795,8.539,8.539,0,0,1,1.342-4.616h.6a2.564,2.564,0,0,0,0-5.127H41.937l9.14-9.14a2.747,2.747,0,0,0,0-3.885l-.2-.2a2.746,2.746,0,0,0-3.744-.131L45.719,29.73l.481-.481a2.255,2.255,0,0,0,.494-2.453l-.65-1.59A1.769,1.769,0,0,0,44.76,24.14l-1.11-1.11a.8.8,0,1,0-1.129,1.128l.546.546L30.491,37.282l-3.7-3.7L39.369,21.007l.49.49a.8.8,0,1,0,1.128-1.128l-1.053-1.053a1.769,1.769,0,0,0-1.065-1.284h0l-1.59-.65a2.255,2.255,0,0,0-2.453.494l-.481.481-1.413-1.413A2.746,2.746,0,0,0,32.8,13.2l-.2-.2a2.747,2.747,0,0,0-3.885,0l-9.931,9.931a2.747,2.747,0,0,0,0,3.885l.2.2a2.746,2.746,0,0,0,3.744.131l1.413,1.413-.481.481a2.255,2.255,0,0,0-.494,2.453l.65,1.59a1.768,1.768,0,0,0,1.266,1.061l-4,4.773a2.726,2.726,0,0,0-3.6,3.457l-1.815,1.675a.8.8,0,0,0,1.083,1.173l1.677-1.548L20.4,45.65l-14.86,16.1a2.275,2.275,0,1,1-3.214-3.214l11.656-10.76A.8.8,0,1,0,12.9,46.6L1.245,57.36a3.871,3.871,0,0,0,2.623,6.715h.08A3.838,3.838,0,0,0,6.714,62.83L11.5,57.649a9.2,9.2,0,0,0,1.283,2.736,1.858,1.858,0,0,0,1.513.777h1.344a2.559,2.559,0,0,0,2.541,2.9H51.912a2.564,2.564,0,1,0,0-5.127Zm.968-11.872a.969.969,0,0,1-.968.968H20.376L21.7,46.594a2.727,2.727,0,0,0,2.722-.5H51.912a.969.969,0,0,1,.968.968Zm-24.074-9.21-4.621,3.874L22.348,39.89l3.874-4.621ZM25.324,44.5a2.74,2.74,0,0,0-.166-1.506l4.773-4a1.769,1.769,0,0,0,1.061,1.266l1.59.65a2.255,2.255,0,0,0,2.453-.494l.481-.481,1.413,1.413a2.752,2.752,0,0,0-.318,3.153H25.324ZM48.933,32.065a1.144,1.144,0,0,1,.814.337l.2.2a1.151,1.151,0,0,1,0,1.628l-9.931,9.931a1.151,1.151,0,0,1-1.628,0l-.2-.2a1.153,1.153,0,0,1,0-1.628L48.119,32.4a1.143,1.143,0,0,1,.814-.337Zm-2.935.2-7.946,7.946L36.645,38.8l7.946-7.946Zm-14.46,6.226L44.278,25.752A.168.168,0,0,1,44.4,25.7a.2.2,0,0,1,.038,0,.17.17,0,0,1,.129.106l.65,1.59a.662.662,0,0,1-.145.721L33.907,39.286a.662.662,0,0,1-.721.145l-1.59-.65a.177.177,0,0,1-.058-.288ZM20.927,26.224a1.143,1.143,0,0,1-.814-.337l-.2-.2a1.151,1.151,0,0,1,0-1.628l9.931-9.931a1.151,1.151,0,0,1,1.628,0l.2.2a1.151,1.151,0,0,1,0,1.628l-9.931,9.931a1.145,1.145,0,0,1-.814.337Zm2.935-.2,7.946-7.946,1.407,1.407L25.27,27.43Zm.926,4.145L35.954,19a.662.662,0,0,1,.721-.145l1.59.65a.177.177,0,0,1,.058.288L25.582,32.537a.176.176,0,0,1-.288-.058l-.65-1.59a.663.663,0,0,1,.145-.721ZM18.909,41.434a1.129,1.129,0,0,1,1.927-.8l2.6,2.6a1.129,1.129,0,0,1-1.6,1.6l-2.6-2.6a1.121,1.121,0,0,1-.331-.8ZM14.08,59.459A8.051,8.051,0,0,1,12.8,56.234l1.913-2.072c0,.039,0,.079,0,.118a11.072,11.072,0,0,0,1.238,5.285H14.293A.26.26,0,0,1,14.08,59.459Zm37.832,3.007H18.178a.968.968,0,1,1,0-1.935H51.912a.968.968,0,1,1,0,1.935Z" transform="translate(0.001 -12.193)"/>
              <path id="Trazado_978774" data-name="Trazado 978774" d="M203.125,417.166a.8.8,0,1,0,0,1.6h18.591a.8.8,0,0,0,0-1.6Z" transform="translate(-180.799 -374.077)"/>
            </g>
          </g>
        </g>
      </g>
    </g>
  </g>
</svg>
