<svg xmlns="http://www.w3.org/2000/svg" xmlns:xlink="http://www.w3.org/1999/xlink" width="798.856" height="528.275" viewBox="0 0 798.856 528.275">
  <defs>
    <clipPath id="clip-path">
      <rect id="Rectángulo_405253" data-name="Rectángulo 405253" width="610" height="528.275" fill="none"/>
    </clipPath>
    <clipPath id="clip-path-3">
      <rect id="Rectángulo_405242" data-name="Rectángulo 405242" width="532.955" height="242.927" fill="none"/>
    </clipPath>
    <clipPath id="clip-path-5">
      <rect id="Rectángulo_405244" data-name="Rectángulo 405244" width="245.833" height="273.54" fill="none"/>
    </clipPath>
    <clipPath id="clip-path-7">
      <rect id="Rectángulo_405246" data-name="Rectángulo 405246" width="385.884" height="230.772" fill="none"/>
    </clipPath>
    <clipPath id="clip-path-9">
      <rect id="Rectángulo_405248" data-name="Rectángulo 405248" width="305" height="121.639" fill="none"/>
    </clipPath>
    <clipPath id="clip-path-10">
      <rect id="Rectángulo_405249" data-name="Rectángulo 405249" width="227.955" height="109.482" fill="none"/>
    </clipPath>
    <clipPath id="clip-path-11">
      <rect id="Rectángulo_405250" data-name="Rectángulo 405250" width="157.929" height="109.482" fill="none"/>
    </clipPath>
    <clipPath id="clip-path-12">
      <rect id="Rectángulo_405251" data-name="Rectángulo 405251" width="87.904" height="152.252" fill="none"/>
    </clipPath>
  </defs>
  <g id="Grupo_1144152" data-name="Grupo 1144152" transform="translate(-354 -5648.862)">
    <g id="Grupo_1144151" data-name="Grupo 1144151">
      <g id="Grupo_1143941" data-name="Grupo 1143941" transform="translate(354 5648.862)">
        <g id="Grupo_1143940" data-name="Grupo 1143940" clip-path="url(#clip-path)">
          <path id="Trazado_978678" data-name="Trazado 978678" d="M70.228,264.209,0,385.849,532.955,252.4l-63.209-109.48Z" transform="translate(0 142.427)" fill="#00d2ca"/>
          <g id="Grupo_1143915" data-name="Grupo 1143915">
            <g id="Grupo_1143914" data-name="Grupo 1143914" clip-path="url(#clip-path)">
              <g id="Grupo_1143913" data-name="Grupo 1143913" transform="translate(0 285.348)" opacity="0.3">
                <g id="Grupo_1143912" data-name="Grupo 1143912">
                  <g id="Grupo_1143911" data-name="Grupo 1143911" clip-path="url(#clip-path-3)">
                    <path id="Trazado_978679" data-name="Trazado 978679" d="M469.746,142.921,70.228,264.211,0,385.848,532.957,252.4Z" transform="translate(0 -142.921)"/>
                  </g>
                </g>
              </g>
            </g>
          </g>
          <path id="Trazado_978680" data-name="Trazado 978680" d="M231.592,0l-94.72,164.06L73.663,273.542l245.83-121.29Z" transform="translate(73.409 0)" fill="#f9b248"/>
          <g id="Grupo_1143920" data-name="Grupo 1143920">
            <g id="Grupo_1143919" data-name="Grupo 1143919" clip-path="url(#clip-path)">
              <g id="Grupo_1143918" data-name="Grupo 1143918" transform="translate(147.071)" opacity="0.2">
                <g id="Grupo_1143917" data-name="Grupo 1143917">
                  <g id="Grupo_1143916" data-name="Grupo 1143916" clip-path="url(#clip-path-5)">
                    <path id="Trazado_978681" data-name="Trazado 978681" d="M319.5,152.252,73.663,273.54l63.211-109.48L231.593,0Z" transform="translate(-73.663 0)"/>
                  </g>
                </g>
              </g>
            </g>
          </g>
          <path id="Trazado_978682" data-name="Trazado 978682" d="M101.8,203.46,361.264,82.172l63.211,109.48L38.588,312.942Z" transform="translate(38.455 81.888)" fill="#fc3a52"/>
          <g id="Grupo_1143925" data-name="Grupo 1143925">
            <g id="Grupo_1143924" data-name="Grupo 1143924" clip-path="url(#clip-path)">
              <g id="Grupo_1143923" data-name="Grupo 1143923" transform="translate(77.045 164.058)" opacity="0.3">
                <g id="Grupo_1143922" data-name="Grupo 1143922">
                  <g id="Grupo_1143921" data-name="Grupo 1143921" clip-path="url(#clip-path-7)">
                    <path id="Trazado_978683" data-name="Trazado 978683" d="M101.8,203.46,361.264,82.172l63.211,109.48L38.588,312.942Z" transform="translate(-38.59 -82.17)"/>
                  </g>
                </g>
              </g>
            </g>
          </g>
          <path id="Trazado_978684" data-name="Trazado 978684" d="M136.873,82.171,73.662,191.654H389.521L326.311,82.171Z" transform="translate(73.408 81.887)" fill="#fc3a52"/>
          <path id="Trazado_978685" data-name="Trazado 978685" d="M196.64,0l-87.9,152.252H284.542Z" transform="translate(108.36 0)" fill="#f9b248"/>
          <path id="Trazado_978686" data-name="Trazado 978686" d="M494.5,252.4,431.289,142.921H101.8L38.589,252.4Z" transform="translate(38.456 142.427)" fill="#00d2ca"/>
          <path id="Trazado_978687" data-name="Trazado 978687" d="M70.228,203.67,0,325.31H610L539.773,203.67Z" transform="translate(0 202.966)" fill="#653c99"/>
          <g id="Grupo_1143939" data-name="Grupo 1143939">
            <g id="Grupo_1143938" data-name="Grupo 1143938" clip-path="url(#clip-path)">
              <g id="Grupo_1143928" data-name="Grupo 1143928" transform="translate(305 406.637)" opacity="0.2">
                <g id="Grupo_1143927" data-name="Grupo 1143927">
                  <g id="Grupo_1143926" data-name="Grupo 1143926" clip-path="url(#clip-path-9)">
                    <path id="Trazado_978688" data-name="Trazado 978688" d="M152.764,325.309h305L387.536,203.67H152.764Z" transform="translate(-152.764 -203.671)"/>
                  </g>
                </g>
              </g>
              <g id="Grupo_1143931" data-name="Grupo 1143931" transform="translate(305 285.348)" opacity="0.2">
                <g id="Grupo_1143930" data-name="Grupo 1143930">
                  <g id="Grupo_1143929" data-name="Grupo 1143929" clip-path="url(#clip-path-10)">
                    <path id="Trazado_978689" data-name="Trazado 978689" d="M152.764,252.4H380.719L317.509,142.921H152.764Z" transform="translate(-152.764 -142.921)"/>
                  </g>
                </g>
              </g>
              <g id="Grupo_1143934" data-name="Grupo 1143934" transform="translate(305 164.058)" opacity="0.2">
                <g id="Grupo_1143933" data-name="Grupo 1143933">
                  <g id="Grupo_1143932" data-name="Grupo 1143932" clip-path="url(#clip-path-11)">
                    <path id="Trazado_978690" data-name="Trazado 978690" d="M152.764,82.171V191.654H310.693L247.484,82.171Z" transform="translate(-152.764 -82.171)"/>
                  </g>
                </g>
              </g>
              <g id="Grupo_1143937" data-name="Grupo 1143937" transform="translate(305)" opacity="0.1">
                <g id="Grupo_1143936" data-name="Grupo 1143936">
                  <g id="Grupo_1143935" data-name="Grupo 1143935" clip-path="url(#clip-path-12)">
                    <path id="Trazado_978691" data-name="Trazado 978691" d="M240.666,152.252,152.765,0V152.252Z" transform="translate(-152.763 0)"/>
                  </g>
                </g>
              </g>
            </g>
          </g>
          <path id="Trazado_978960" data-name="Trazado 978960" d="M9.541.145c4.669,0,7.946-3.944,7.946-10.295s-3.277-10.3-7.946-10.3S1.6-16.5,1.6-10.15,4.872.145,9.541.145Zm0-1.363c-3.828,0-6.467-3.277-6.467-8.932s2.639-8.932,6.467-8.932,6.467,3.277,6.467,8.932S13.369-1.218,9.541-1.218ZM19.314-20.3v1.334h4.959V0h1.479V-20.3Z" transform="translate(286.074 114.795)" fill="#fff"/>
          <path id="Trazado_978961" data-name="Trazado 978961" d="M9.541.145c4.669,0,7.946-3.944,7.946-10.295s-3.277-10.3-7.946-10.3S1.6-16.5,1.6-10.15,4.872.145,9.541.145Zm0-1.363c-3.828,0-6.467-3.277-6.467-8.932s2.639-8.932,6.467-8.932,6.467,3.277,6.467,8.932S13.369-1.218,9.541-1.218Zm12.876-.116L29.9-8.787c2.668-2.639,3.306-4.35,3.306-6.293,0-3.306-2.552-5.365-6.525-5.365a8.939,8.939,0,0,0-6.989,2.784l1.044.928a7.22,7.22,0,0,1,5.829-2.349c3.364,0,5.133,1.6,5.133,4.147,0,1.537-.464,2.958-2.871,5.365L20.242-1.044V0H34.191V-1.334Z" transform="translate(282.968 236.078)" fill="#fff"/>
          <path id="Trazado_978962" data-name="Trazado 978962" d="M9.541.145c4.669,0,7.946-3.944,7.946-10.295s-3.277-10.3-7.946-10.3S1.6-16.5,1.6-10.15,4.872.145,9.541.145Zm0-1.363c-3.828,0-6.467-3.277-6.467-8.932s2.639-8.932,6.467-8.932,6.467,3.277,6.467,8.932S13.369-1.218,9.541-1.218ZM26.3-11.455l6.09-7.8V-20.3H19.662v1.334H30.479l-6,7.685v1.073h1.276c4.06,0,5.916,1.769,5.916,4.5,0,2.755-1.943,4.495-5.6,4.495a8.654,8.654,0,0,1-6.409-2.494l-.754,1.131A9.761,9.761,0,0,0,26.071.145c4.669,0,7.1-2.494,7.1-5.858C33.176-9.019,30.914-11.339,26.3-11.455Z" transform="translate(283.767 357.362)" fill="#fff"/>
          <path id="Trazado_978963" data-name="Trazado 978963" d="M9.212.14c4.508,0,7.672-3.808,7.672-9.94s-3.164-9.94-7.672-9.94S1.54-15.932,1.54-9.8,4.7.14,9.212.14Zm0-1.316c-3.7,0-6.244-3.164-6.244-8.624s2.548-8.624,6.244-8.624S15.456-15.26,15.456-9.8,12.908-1.176,9.212-1.176Zm27.1-5.516H32.2V-11.48H30.828v4.788H21.42L31.864-19.6h-1.6L19.628-6.468v1.036H30.8V0h1.4V-5.432h4.116Z" transform="translate(283.028 484.626)" fill="#fff"/>
        </g>
      </g>
      <path id="Trazado_978956" data-name="Trazado 978956" d="M1.872,0V-16.92H9.264a6.379,6.379,0,0,1,4.308,1.32A4.6,4.6,0,0,1,15.1-11.928a4.96,4.96,0,0,1-.684,2.664,4.411,4.411,0,0,1-1.956,1.692,7.092,7.092,0,0,1-3,.588l.336-.456h.816a3.171,3.171,0,0,1,1.8.528A3.8,3.8,0,0,1,13.7-5.3L16.176,0H12.768l-2.5-5.5a1.822,1.822,0,0,0-1.02-1.1,4.57,4.57,0,0,0-1.644-.264H4.968V0Zm3.1-9.144H8.76a3.894,3.894,0,0,0,2.484-.684,2.418,2.418,0,0,0,.852-2,2.383,2.383,0,0,0-.852-1.992A3.945,3.945,0,0,0,8.76-14.5H4.968ZM24.024.24a6.562,6.562,0,0,1-4.776-1.68A6.129,6.129,0,0,1,17.52-6.048a7.022,7.022,0,0,1,.744-3.312,5.473,5.473,0,0,1,2.076-2.208,5.966,5.966,0,0,1,3.108-.792,5.376,5.376,0,0,1,2.928.744,4.717,4.717,0,0,1,1.788,2.088,7.524,7.524,0,0,1,.612,3.144v.792H19.944V-7.176h6.7l-.408.336a4.041,4.041,0,0,0-.708-2.568,2.469,2.469,0,0,0-2.052-.888A2.71,2.71,0,0,0,21.18-9.24a4.779,4.779,0,0,0-.8,2.952v.312a4,4,0,0,0,.972,2.94,3.716,3.716,0,0,0,2.748.972,6.557,6.557,0,0,0,1.932-.276,5.448,5.448,0,0,0,1.716-.9l.888,2.016a6.325,6.325,0,0,1-2.064,1.08A8.3,8.3,0,0,1,24.024.24ZM35.64.24a10.458,10.458,0,0,1-2.868-.372,6.59,6.59,0,0,1-2.2-1.044l.84-2.016a7.319,7.319,0,0,0,2.016.96,7.627,7.627,0,0,0,2.232.336A3.159,3.159,0,0,0,37.452-2.3a1.277,1.277,0,0,0,.588-1.1,1.1,1.1,0,0,0-.372-.876,2.625,2.625,0,0,0-1.188-.492l-2.4-.456a4.574,4.574,0,0,1-2.34-1.152,2.912,2.912,0,0,1-.8-2.136,3.359,3.359,0,0,1,.612-1.992A4.045,4.045,0,0,1,33.3-11.868a6.713,6.713,0,0,1,2.676-.492,8.687,8.687,0,0,1,2.532.36,5.307,5.307,0,0,1,2,1.08l-.864,1.944a5.675,5.675,0,0,0-1.7-.936,5.649,5.649,0,0,0-1.872-.336,3,3,0,0,0-1.824.444,1.378,1.378,0,0,0-.576,1.14,1.188,1.188,0,0,0,.348.876,2.21,2.21,0,0,0,1.092.516l2.4.456a4.825,4.825,0,0,1,2.436,1.092A2.778,2.778,0,0,1,40.776-3.6a3.342,3.342,0,0,1-.648,2.064,4.046,4.046,0,0,1-1.8,1.32A7.276,7.276,0,0,1,35.64.24Zm7.7,4.944V-9.1q0-.744-.048-1.512t-.144-1.512h2.9l.264,2.544h-.264A3.5,3.5,0,0,1,47.58-11.6a4.846,4.846,0,0,1,2.7-.756,5.156,5.156,0,0,1,2.808.756,5.061,5.061,0,0,1,1.872,2.16,7.752,7.752,0,0,1,.672,3.372,7.832,7.832,0,0,1-.672,3.384A5.048,5.048,0,0,1,53.088-.516,5.156,5.156,0,0,1,50.28.24,4.8,4.8,0,0,1,47.616-.5,3.568,3.568,0,0,1,46.08-2.5h.264v7.68Zm6.1-7.248a2.9,2.9,0,0,0,2.3-1,4.5,4.5,0,0,0,.864-3.012,4.447,4.447,0,0,0-.864-3,2.914,2.914,0,0,0-2.3-.984,2.887,2.887,0,0,0-2.28.984,4.447,4.447,0,0,0-.864,3A4.5,4.5,0,0,0,47.16-3.06,2.871,2.871,0,0,0,49.44-2.064ZM63.7.24a6.514,6.514,0,0,1-3.24-.768,5.322,5.322,0,0,1-2.124-2.184,7.038,7.038,0,0,1-.756-3.36,6.967,6.967,0,0,1,.756-3.348,5.341,5.341,0,0,1,2.124-2.172,6.514,6.514,0,0,1,3.24-.768,6.582,6.582,0,0,1,3.252.768A5.32,5.32,0,0,1,69.084-9.42a6.967,6.967,0,0,1,.756,3.348,7.038,7.038,0,0,1-.756,3.36A5.3,5.3,0,0,1,66.948-.528,6.582,6.582,0,0,1,63.7.24Zm0-2.3a2.8,2.8,0,0,0,2.256-1,4.587,4.587,0,0,0,.84-3.012,4.536,4.536,0,0,0-.84-3,2.815,2.815,0,0,0-2.256-.984,2.815,2.815,0,0,0-2.256.984,4.536,4.536,0,0,0-.84,3,4.587,4.587,0,0,0,.84,3.012A2.8,2.8,0,0,0,63.7-2.064ZM72.432,0V-9.1q0-.744-.048-1.512T72.24-12.12h2.9l.24,2.4H75.1a4.292,4.292,0,0,1,1.7-1.956,4.945,4.945,0,0,1,2.616-.684,4.107,4.107,0,0,1,3.216,1.2,5.478,5.478,0,0,1,1.08,3.744V0h-3V-7.272a3.142,3.142,0,0,0-.564-2.1,2.144,2.144,0,0,0-1.692-.636,2.892,2.892,0,0,0-2.208.864,3.218,3.218,0,0,0-.816,2.3V0ZM91.224.24a10.458,10.458,0,0,1-2.868-.372,6.59,6.59,0,0,1-2.2-1.044L87-3.192a7.319,7.319,0,0,0,2.016.96,7.627,7.627,0,0,0,2.232.336A3.159,3.159,0,0,0,93.036-2.3a1.277,1.277,0,0,0,.588-1.1,1.1,1.1,0,0,0-.372-.876,2.625,2.625,0,0,0-1.188-.492l-2.4-.456a4.574,4.574,0,0,1-2.34-1.152,2.912,2.912,0,0,1-.8-2.136,3.359,3.359,0,0,1,.612-1.992,4.045,4.045,0,0,1,1.752-1.356,6.713,6.713,0,0,1,2.676-.492,8.687,8.687,0,0,1,2.532.36,5.307,5.307,0,0,1,2,1.08l-.864,1.944a5.675,5.675,0,0,0-1.7-.936,5.649,5.649,0,0,0-1.872-.336,3,3,0,0,0-1.824.444,1.378,1.378,0,0,0-.576,1.14,1.188,1.188,0,0,0,.348.876,2.21,2.21,0,0,0,1.092.516l2.4.456a4.825,4.825,0,0,1,2.436,1.092A2.778,2.778,0,0,1,96.36-3.6a3.342,3.342,0,0,1-.648,2.064,4.046,4.046,0,0,1-1.8,1.32A7.276,7.276,0,0,1,91.224.24Zm12.384,0a5.112,5.112,0,0,1-2.784-.756,5.048,5.048,0,0,1-1.872-2.172,7.832,7.832,0,0,1-.672-3.384,7.752,7.752,0,0,1,.672-3.372,5.061,5.061,0,0,1,1.872-2.16,5.112,5.112,0,0,1,2.784-.756,4.846,4.846,0,0,1,2.7.756,3.6,3.6,0,0,1,1.548,2.028h-.264l.264-2.544h2.88q-.072.744-.132,1.512t-.06,1.512V0h-2.976l-.024-2.5h.288A3.542,3.542,0,0,1,106.272-.5,4.877,4.877,0,0,1,103.608.24Zm.84-2.3a2.871,2.871,0,0,0,2.28-1,4.5,4.5,0,0,0,.864-3.012,4.447,4.447,0,0,0-.864-3,2.887,2.887,0,0,0-2.28-.984,2.887,2.887,0,0,0-2.28.984,4.447,4.447,0,0,0-.864,3,4.541,4.541,0,0,0,.852,3.012A2.862,2.862,0,0,0,104.448-2.064Zm16.3,2.3a4.787,4.787,0,0,1-2.688-.756,3.618,3.618,0,0,1-1.536-2.052h.264V0h-2.976V-17.664h3v8.016h-.288a3.628,3.628,0,0,1,1.56-1.98,4.86,4.86,0,0,1,2.664-.732,5.1,5.1,0,0,1,2.808.768,5.142,5.142,0,0,1,1.872,2.172,7.752,7.752,0,0,1,.672,3.372,7.752,7.752,0,0,1-.672,3.372,5.033,5.033,0,0,1-1.884,2.16A5.172,5.172,0,0,1,120.744.24Zm-.84-2.3a2.923,2.923,0,0,0,2.292-.984,4.405,4.405,0,0,0,.876-3A4.454,4.454,0,0,0,122.2-9.06a2.907,2.907,0,0,0-2.292-1,2.887,2.887,0,0,0-2.28.984,4.447,4.447,0,0,0-.864,3,4.5,4.5,0,0,0,.864,3.012A2.871,2.871,0,0,0,119.9-2.064ZM128.688,0V-12.12h3V0Zm-.168-14.4v-2.928h3.336V-14.4ZM134.952,0V-17.664h3V0Zm6.264,0V-12.12h3V0Zm-.168-14.4v-2.928h3.336V-14.4ZM152.184.24a5.172,5.172,0,0,1-2.8-.756A5.021,5.021,0,0,1,147.5-2.688a7.832,7.832,0,0,1-.672-3.384,7.752,7.752,0,0,1,.672-3.372,5.033,5.033,0,0,1,1.884-2.16,5.172,5.172,0,0,1,2.8-.756,4.92,4.92,0,0,1,2.676.732,3.5,3.5,0,0,1,1.548,1.98H156.1v-8.016h3V0h-2.952V-2.568h.288a3.6,3.6,0,0,1-1.548,2.052A4.846,4.846,0,0,1,152.184.24Zm.84-2.3a2.871,2.871,0,0,0,2.28-1,4.5,4.5,0,0,0,.864-3.012,4.447,4.447,0,0,0-.864-3,2.887,2.887,0,0,0-2.28-.984,2.923,2.923,0,0,0-2.292.984,4.405,4.405,0,0,0-.876,3,4.454,4.454,0,0,0,.876,3.012A2.907,2.907,0,0,0,153.024-2.064ZM167.04.24a5.112,5.112,0,0,1-2.784-.756,5.048,5.048,0,0,1-1.872-2.172,7.832,7.832,0,0,1-.672-3.384,7.752,7.752,0,0,1,.672-3.372,5.061,5.061,0,0,1,1.872-2.16,5.112,5.112,0,0,1,2.784-.756,4.846,4.846,0,0,1,2.7.756,3.6,3.6,0,0,1,1.548,2.028h-.264l.264-2.544h2.88q-.072.744-.132,1.512t-.06,1.512V0H171l-.024-2.5h.288A3.542,3.542,0,0,1,169.7-.5,4.877,4.877,0,0,1,167.04.24Zm.84-2.3a2.871,2.871,0,0,0,2.28-1,4.5,4.5,0,0,0,.864-3.012,4.447,4.447,0,0,0-.864-3,2.887,2.887,0,0,0-2.28-.984,2.887,2.887,0,0,0-2.28.984,4.447,4.447,0,0,0-.864,3,4.541,4.541,0,0,0,.852,3.012A2.862,2.862,0,0,0,167.88-2.064ZM181.944.24a5.172,5.172,0,0,1-2.8-.756,5.021,5.021,0,0,1-1.884-2.172,7.832,7.832,0,0,1-.672-3.384,7.752,7.752,0,0,1,.672-3.372,5.033,5.033,0,0,1,1.884-2.16,5.172,5.172,0,0,1,2.8-.756,4.92,4.92,0,0,1,2.676.732,3.5,3.5,0,0,1,1.548,1.98h-.312v-8.016h3V0H185.9V-2.568h.288a3.6,3.6,0,0,1-1.548,2.052A4.846,4.846,0,0,1,181.944.24Zm.84-2.3a2.871,2.871,0,0,0,2.28-1,4.5,4.5,0,0,0,.864-3.012,4.447,4.447,0,0,0-.864-3,2.887,2.887,0,0,0-2.28-.984,2.923,2.923,0,0,0-2.292.984,4.405,4.405,0,0,0-.876,3,4.454,4.454,0,0,0,.876,3.012A2.907,2.907,0,0,0,182.784-2.064ZM2.448,36V26.136H.12V23.88H3.288l-.84.768V22.8a4.652,4.652,0,0,1,1.14-3.408A4.475,4.475,0,0,1,6.912,18.24a9.2,9.2,0,0,1,1.116.072,3.583,3.583,0,0,1,1.02.264v2.352a3.853,3.853,0,0,0-.744-.192,5.107,5.107,0,0,0-.84-.072,2.036,2.036,0,0,0-1.488.54,2.353,2.353,0,0,0-.552,1.74v1.464l-.432-.528h8.424V36h-3V26.136H5.448V36Zm7.8-14.4V18.672h3.336V21.6ZM16.68,36V18.336h3V36Zm10.944.24a5.112,5.112,0,0,1-2.784-.756,5.048,5.048,0,0,1-1.872-2.172,7.832,7.832,0,0,1-.672-3.384,7.752,7.752,0,0,1,.672-3.372,4.926,4.926,0,0,1,4.656-2.916,4.846,4.846,0,0,1,2.7.756,3.6,3.6,0,0,1,1.548,2.028h-.264l.264-2.544h2.88q-.072.744-.132,1.512T34.56,26.9V36H31.584l-.024-2.5h.288a3.542,3.542,0,0,1-1.56,1.992A4.877,4.877,0,0,1,27.624,36.24Zm.84-2.3a2.871,2.871,0,0,0,2.28-1,4.5,4.5,0,0,0,.864-3.012,4.447,4.447,0,0,0-.864-3,3.133,3.133,0,0,0-4.56,0,4.447,4.447,0,0,0-.864,3,4.541,4.541,0,0,0,.852,3.012A2.862,2.862,0,0,0,28.464,33.936ZM37.824,36V26.9q0-.744-.048-1.512t-.144-1.512h2.9l.24,2.4h-.288a4.292,4.292,0,0,1,1.7-1.956,4.945,4.945,0,0,1,2.616-.684,4.107,4.107,0,0,1,3.216,1.2,5.478,5.478,0,0,1,1.08,3.744V36h-3V28.728a3.142,3.142,0,0,0-.564-2.1,2.144,2.144,0,0,0-1.692-.636,2.892,2.892,0,0,0-2.208.864,3.218,3.218,0,0,0-.816,2.3V36Zm19.656.24a4.37,4.37,0,0,1-3.264-1.128,4.658,4.658,0,0,1-1.1-3.384V26.136H50.784V23.88h2.328v-3.1l3-.768V23.88h3.24v2.256h-3.24v5.4a2.522,2.522,0,0,0,.48,1.752,1.736,1.736,0,0,0,1.32.5,3.647,3.647,0,0,0,.78-.072,4.472,4.472,0,0,0,.636-.192V35.9a4.227,4.227,0,0,1-.9.252A5.633,5.633,0,0,1,57.48,36.24ZM61.368,36V26.976q0-.768-.036-1.56T61.2,23.88h2.9l.336,3.312h-.48a5.13,5.13,0,0,1,.8-1.992,3.526,3.526,0,0,1,1.38-1.176,4.118,4.118,0,0,1,1.776-.384,5.37,5.37,0,0,1,.7.036,2.551,2.551,0,0,1,.528.132l-.024,2.64a3.347,3.347,0,0,0-.78-.24,5.626,5.626,0,0,0-.8-.048,3.283,3.283,0,0,0-1.74.432,2.657,2.657,0,0,0-1.056,1.2,4.2,4.2,0,0,0-.348,1.752V36Zm14.736.24a6.514,6.514,0,0,1-3.24-.768,5.322,5.322,0,0,1-2.124-2.184,7.038,7.038,0,0,1-.756-3.36,6.967,6.967,0,0,1,.756-3.348,5.341,5.341,0,0,1,2.124-2.172,6.514,6.514,0,0,1,3.24-.768,6.582,6.582,0,0,1,3.252.768,5.32,5.32,0,0,1,2.136,2.172,6.967,6.967,0,0,1,.756,3.348,7.038,7.038,0,0,1-.756,3.36,5.3,5.3,0,0,1-2.136,2.184A6.582,6.582,0,0,1,76.1,36.24Zm0-2.3a2.8,2.8,0,0,0,2.256-1,4.587,4.587,0,0,0,.84-3.012,4.536,4.536,0,0,0-.84-3,3.078,3.078,0,0,0-4.512,0,4.536,4.536,0,0,0-.84,3,4.587,4.587,0,0,0,.84,3.012A2.8,2.8,0,0,0,76.1,33.936ZM75.12,22.7l2.472-4.872h2.952L77.136,22.7Zm9.72,18.48V26.9q0-.744-.048-1.512t-.144-1.512h2.9l.264,2.544h-.264A3.5,3.5,0,0,1,89.076,24.4a4.846,4.846,0,0,1,2.7-.756,5.156,5.156,0,0,1,2.808.756,5.061,5.061,0,0,1,1.872,2.16,7.752,7.752,0,0,1,.672,3.372,7.832,7.832,0,0,1-.672,3.384,5.048,5.048,0,0,1-1.872,2.172,5.156,5.156,0,0,1-2.808.756,4.8,4.8,0,0,1-2.664-.744A3.568,3.568,0,0,1,87.576,33.5h.264v7.68Zm6.1-7.248a2.9,2.9,0,0,0,2.3-1,4.5,4.5,0,0,0,.864-3.012,4.447,4.447,0,0,0-.864-3,3.161,3.161,0,0,0-4.584,0,4.447,4.447,0,0,0-.864,3,4.5,4.5,0,0,0,.864,3.012A2.871,2.871,0,0,0,90.936,33.936ZM99.72,36V23.88h3V36Zm-.168-14.4V18.672h3.336V21.6Zm12,14.64a6.72,6.72,0,0,1-3.276-.768,5.32,5.32,0,0,1-2.172-2.2,7.072,7.072,0,0,1-.768-3.4,6.775,6.775,0,0,1,.78-3.36,5.318,5.318,0,0,1,2.172-2.136,6.825,6.825,0,0,1,3.264-.744,7.5,7.5,0,0,1,2.34.372,4.744,4.744,0,0,1,1.86,1.068l-.912,2.088a4.369,4.369,0,0,0-1.452-.9,4.48,4.48,0,0,0-1.572-.3,3.188,3.188,0,0,0-2.508,1.008,4.261,4.261,0,0,0-.9,2.928,4.357,4.357,0,0,0,.9,2.952,3.152,3.152,0,0,0,2.508,1.032,4.583,4.583,0,0,0,1.548-.288,4.464,4.464,0,0,0,1.476-.888l.912,2.064a5.092,5.092,0,0,1-1.884,1.08A7.211,7.211,0,0,1,111.552,36.24Zm11.136,0a5.112,5.112,0,0,1-2.784-.756,5.048,5.048,0,0,1-1.872-2.172,7.832,7.832,0,0,1-.672-3.384,7.752,7.752,0,0,1,.672-3.372,4.926,4.926,0,0,1,4.656-2.916,4.846,4.846,0,0,1,2.7.756,3.6,3.6,0,0,1,1.548,2.028h-.264l.264-2.544h2.88q-.072.744-.132,1.512t-.06,1.512V36h-2.976l-.024-2.5h.288a3.542,3.542,0,0,1-1.56,1.992A4.877,4.877,0,0,1,122.688,36.24Zm.84-2.3a2.871,2.871,0,0,0,2.28-1,4.5,4.5,0,0,0,.864-3.012,4.447,4.447,0,0,0-.864-3,3.133,3.133,0,0,0-4.56,0,4.447,4.447,0,0,0-.864,3,4.541,4.541,0,0,0,.852,3.012A2.862,2.862,0,0,0,123.528,33.936Z" transform="translate(754 5715)" fill="#212429"/>
      <path id="Trazado_978957" data-name="Trazado 978957" d="M1.872,0V-16.92H9.264a6.379,6.379,0,0,1,4.308,1.32A4.6,4.6,0,0,1,15.1-11.928a4.96,4.96,0,0,1-.684,2.664,4.411,4.411,0,0,1-1.956,1.692,7.092,7.092,0,0,1-3,.588l.336-.456h.816a3.171,3.171,0,0,1,1.8.528A3.8,3.8,0,0,1,13.7-5.3L16.176,0H12.768l-2.5-5.5a1.822,1.822,0,0,0-1.02-1.1,4.57,4.57,0,0,0-1.644-.264H4.968V0Zm3.1-9.144H8.76a3.894,3.894,0,0,0,2.484-.684,2.418,2.418,0,0,0,.852-2,2.383,2.383,0,0,0-.852-1.992A3.945,3.945,0,0,0,8.76-14.5H4.968ZM24.024.24a6.562,6.562,0,0,1-4.776-1.68A6.129,6.129,0,0,1,17.52-6.048a7.022,7.022,0,0,1,.744-3.312,5.473,5.473,0,0,1,2.076-2.208,5.966,5.966,0,0,1,3.108-.792,5.376,5.376,0,0,1,2.928.744,4.717,4.717,0,0,1,1.788,2.088,7.524,7.524,0,0,1,.612,3.144v.792H19.944V-7.176h6.7l-.408.336a4.041,4.041,0,0,0-.708-2.568,2.469,2.469,0,0,0-2.052-.888A2.71,2.71,0,0,0,21.18-9.24a4.779,4.779,0,0,0-.8,2.952v.312a4,4,0,0,0,.972,2.94,3.716,3.716,0,0,0,2.748.972,6.557,6.557,0,0,0,1.932-.276,5.448,5.448,0,0,0,1.716-.9l.888,2.016a6.325,6.325,0,0,1-2.064,1.08A8.3,8.3,0,0,1,24.024.24ZM35.64.24a10.458,10.458,0,0,1-2.868-.372,6.59,6.59,0,0,1-2.2-1.044l.84-2.016a7.319,7.319,0,0,0,2.016.96,7.627,7.627,0,0,0,2.232.336A3.159,3.159,0,0,0,37.452-2.3a1.277,1.277,0,0,0,.588-1.1,1.1,1.1,0,0,0-.372-.876,2.625,2.625,0,0,0-1.188-.492l-2.4-.456a4.574,4.574,0,0,1-2.34-1.152,2.912,2.912,0,0,1-.8-2.136,3.359,3.359,0,0,1,.612-1.992A4.045,4.045,0,0,1,33.3-11.868a6.713,6.713,0,0,1,2.676-.492,8.687,8.687,0,0,1,2.532.36,5.307,5.307,0,0,1,2,1.08l-.864,1.944a5.675,5.675,0,0,0-1.7-.936,5.649,5.649,0,0,0-1.872-.336,3,3,0,0,0-1.824.444,1.378,1.378,0,0,0-.576,1.14,1.188,1.188,0,0,0,.348.876,2.21,2.21,0,0,0,1.092.516l2.4.456a4.825,4.825,0,0,1,2.436,1.092A2.778,2.778,0,0,1,40.776-3.6a3.342,3.342,0,0,1-.648,2.064,4.046,4.046,0,0,1-1.8,1.32A7.276,7.276,0,0,1,35.64.24Zm7.7,4.944V-9.1q0-.744-.048-1.512t-.144-1.512h2.9l.264,2.544h-.264A3.5,3.5,0,0,1,47.58-11.6a4.846,4.846,0,0,1,2.7-.756,5.156,5.156,0,0,1,2.808.756,5.061,5.061,0,0,1,1.872,2.16,7.752,7.752,0,0,1,.672,3.372,7.832,7.832,0,0,1-.672,3.384A5.048,5.048,0,0,1,53.088-.516,5.156,5.156,0,0,1,50.28.24,4.8,4.8,0,0,1,47.616-.5,3.568,3.568,0,0,1,46.08-2.5h.264v7.68Zm6.1-7.248a2.9,2.9,0,0,0,2.3-1,4.5,4.5,0,0,0,.864-3.012,4.447,4.447,0,0,0-.864-3,2.914,2.914,0,0,0-2.3-.984,2.887,2.887,0,0,0-2.28.984,4.447,4.447,0,0,0-.864,3A4.5,4.5,0,0,0,47.16-3.06,2.871,2.871,0,0,0,49.44-2.064ZM63.7.24a6.514,6.514,0,0,1-3.24-.768,5.322,5.322,0,0,1-2.124-2.184,7.038,7.038,0,0,1-.756-3.36,6.967,6.967,0,0,1,.756-3.348,5.341,5.341,0,0,1,2.124-2.172,6.514,6.514,0,0,1,3.24-.768,6.582,6.582,0,0,1,3.252.768A5.32,5.32,0,0,1,69.084-9.42a6.967,6.967,0,0,1,.756,3.348,7.038,7.038,0,0,1-.756,3.36A5.3,5.3,0,0,1,66.948-.528,6.582,6.582,0,0,1,63.7.24Zm0-2.3a2.8,2.8,0,0,0,2.256-1,4.587,4.587,0,0,0,.84-3.012,4.536,4.536,0,0,0-.84-3,2.815,2.815,0,0,0-2.256-.984,2.815,2.815,0,0,0-2.256.984,4.536,4.536,0,0,0-.84,3,4.587,4.587,0,0,0,.84,3.012A2.8,2.8,0,0,0,63.7-2.064ZM72.432,0V-9.1q0-.744-.048-1.512T72.24-12.12h2.9l.24,2.4H75.1a4.292,4.292,0,0,1,1.7-1.956,4.945,4.945,0,0,1,2.616-.684,4.107,4.107,0,0,1,3.216,1.2,5.478,5.478,0,0,1,1.08,3.744V0h-3V-7.272a3.142,3.142,0,0,0-.564-2.1,2.144,2.144,0,0,0-1.692-.636,2.892,2.892,0,0,0-2.208.864,3.218,3.218,0,0,0-.816,2.3V0ZM91.224.24a10.458,10.458,0,0,1-2.868-.372,6.59,6.59,0,0,1-2.2-1.044L87-3.192a7.319,7.319,0,0,0,2.016.96,7.627,7.627,0,0,0,2.232.336A3.159,3.159,0,0,0,93.036-2.3a1.277,1.277,0,0,0,.588-1.1,1.1,1.1,0,0,0-.372-.876,2.625,2.625,0,0,0-1.188-.492l-2.4-.456a4.574,4.574,0,0,1-2.34-1.152,2.912,2.912,0,0,1-.8-2.136,3.359,3.359,0,0,1,.612-1.992,4.045,4.045,0,0,1,1.752-1.356,6.713,6.713,0,0,1,2.676-.492,8.687,8.687,0,0,1,2.532.36,5.307,5.307,0,0,1,2,1.08l-.864,1.944a5.675,5.675,0,0,0-1.7-.936,5.649,5.649,0,0,0-1.872-.336,3,3,0,0,0-1.824.444,1.378,1.378,0,0,0-.576,1.14,1.188,1.188,0,0,0,.348.876,2.21,2.21,0,0,0,1.092.516l2.4.456a4.825,4.825,0,0,1,2.436,1.092A2.778,2.778,0,0,1,96.36-3.6a3.342,3.342,0,0,1-.648,2.064,4.046,4.046,0,0,1-1.8,1.32A7.276,7.276,0,0,1,91.224.24Zm12.384,0a5.112,5.112,0,0,1-2.784-.756,5.048,5.048,0,0,1-1.872-2.172,7.832,7.832,0,0,1-.672-3.384,7.752,7.752,0,0,1,.672-3.372,5.061,5.061,0,0,1,1.872-2.16,5.112,5.112,0,0,1,2.784-.756,4.846,4.846,0,0,1,2.7.756,3.6,3.6,0,0,1,1.548,2.028h-.264l.264-2.544h2.88q-.072.744-.132,1.512t-.06,1.512V0h-2.976l-.024-2.5h.288A3.542,3.542,0,0,1,106.272-.5,4.877,4.877,0,0,1,103.608.24Zm.84-2.3a2.871,2.871,0,0,0,2.28-1,4.5,4.5,0,0,0,.864-3.012,4.447,4.447,0,0,0-.864-3,2.887,2.887,0,0,0-2.28-.984,2.887,2.887,0,0,0-2.28.984,4.447,4.447,0,0,0-.864,3,4.541,4.541,0,0,0,.852,3.012A2.862,2.862,0,0,0,104.448-2.064Zm16.3,2.3a4.787,4.787,0,0,1-2.688-.756,3.618,3.618,0,0,1-1.536-2.052h.264V0h-2.976V-17.664h3v8.016h-.288a3.628,3.628,0,0,1,1.56-1.98,4.86,4.86,0,0,1,2.664-.732,5.1,5.1,0,0,1,2.808.768,5.142,5.142,0,0,1,1.872,2.172,7.752,7.752,0,0,1,.672,3.372,7.752,7.752,0,0,1-.672,3.372,5.033,5.033,0,0,1-1.884,2.16A5.172,5.172,0,0,1,120.744.24Zm-.84-2.3a2.923,2.923,0,0,0,2.292-.984,4.405,4.405,0,0,0,.876-3A4.454,4.454,0,0,0,122.2-9.06a2.907,2.907,0,0,0-2.292-1,2.887,2.887,0,0,0-2.28.984,4.447,4.447,0,0,0-.864,3,4.5,4.5,0,0,0,.864,3.012A2.871,2.871,0,0,0,119.9-2.064ZM128.688,0V-12.12h3V0Zm-.168-14.4v-2.928h3.336V-14.4ZM134.952,0V-17.664h3V0Zm6.264,0V-12.12h3V0Zm-.168-14.4v-2.928h3.336V-14.4ZM152.184.24a5.172,5.172,0,0,1-2.8-.756A5.021,5.021,0,0,1,147.5-2.688a7.832,7.832,0,0,1-.672-3.384,7.752,7.752,0,0,1,.672-3.372,5.033,5.033,0,0,1,1.884-2.16,5.172,5.172,0,0,1,2.8-.756,4.92,4.92,0,0,1,2.676.732,3.5,3.5,0,0,1,1.548,1.98H156.1v-8.016h3V0h-2.952V-2.568h.288a3.6,3.6,0,0,1-1.548,2.052A4.846,4.846,0,0,1,152.184.24Zm.84-2.3a2.871,2.871,0,0,0,2.28-1,4.5,4.5,0,0,0,.864-3.012,4.447,4.447,0,0,0-.864-3,2.887,2.887,0,0,0-2.28-.984,2.923,2.923,0,0,0-2.292.984,4.405,4.405,0,0,0-.876,3,4.454,4.454,0,0,0,.876,3.012A2.907,2.907,0,0,0,153.024-2.064ZM167.04.24a5.112,5.112,0,0,1-2.784-.756,5.048,5.048,0,0,1-1.872-2.172,7.832,7.832,0,0,1-.672-3.384,7.752,7.752,0,0,1,.672-3.372,5.061,5.061,0,0,1,1.872-2.16,5.112,5.112,0,0,1,2.784-.756,4.846,4.846,0,0,1,2.7.756,3.6,3.6,0,0,1,1.548,2.028h-.264l.264-2.544h2.88q-.072.744-.132,1.512t-.06,1.512V0H171l-.024-2.5h.288A3.542,3.542,0,0,1,169.7-.5,4.877,4.877,0,0,1,167.04.24Zm.84-2.3a2.871,2.871,0,0,0,2.28-1,4.5,4.5,0,0,0,.864-3.012,4.447,4.447,0,0,0-.864-3,2.887,2.887,0,0,0-2.28-.984,2.887,2.887,0,0,0-2.28.984,4.447,4.447,0,0,0-.864,3,4.541,4.541,0,0,0,.852,3.012A2.862,2.862,0,0,0,167.88-2.064ZM181.944.24a5.172,5.172,0,0,1-2.8-.756,5.021,5.021,0,0,1-1.884-2.172,7.832,7.832,0,0,1-.672-3.384,7.752,7.752,0,0,1,.672-3.372,5.033,5.033,0,0,1,1.884-2.16,5.172,5.172,0,0,1,2.8-.756,4.92,4.92,0,0,1,2.676.732,3.5,3.5,0,0,1,1.548,1.98h-.312v-8.016h3V0H185.9V-2.568h.288a3.6,3.6,0,0,1-1.548,2.052A4.846,4.846,0,0,1,181.944.24Zm.84-2.3a2.871,2.871,0,0,0,2.28-1,4.5,4.5,0,0,0,.864-3.012,4.447,4.447,0,0,0-.864-3,2.887,2.887,0,0,0-2.28-.984,2.923,2.923,0,0,0-2.292.984,4.405,4.405,0,0,0-.876,3,4.454,4.454,0,0,0,.876,3.012A2.907,2.907,0,0,0,182.784-2.064ZM7.488,36.24a6.562,6.562,0,0,1-4.776-1.68A6.129,6.129,0,0,1,.984,29.952a7.022,7.022,0,0,1,.744-3.312A5.473,5.473,0,0,1,3.8,24.432a5.966,5.966,0,0,1,3.108-.792,5.376,5.376,0,0,1,2.928.744,4.717,4.717,0,0,1,1.788,2.088,7.524,7.524,0,0,1,.612,3.144v.792H3.408V28.824h6.7L9.7,29.16a4.041,4.041,0,0,0-.708-2.568A2.469,2.469,0,0,0,6.936,25.7,2.71,2.71,0,0,0,4.644,26.76a4.779,4.779,0,0,0-.8,2.952v.312a4,4,0,0,0,.972,2.94,3.716,3.716,0,0,0,2.748.972,6.557,6.557,0,0,0,1.932-.276,5.448,5.448,0,0,0,1.716-.9l.888,2.016a6.325,6.325,0,0,1-2.064,1.08A8.3,8.3,0,0,1,7.488,36.24ZM5.9,22.7l2.472-4.872h2.952L7.92,22.7ZM19.92,36.24a4.37,4.37,0,0,1-3.264-1.128,4.658,4.658,0,0,1-1.1-3.384V26.136H13.224V23.88h2.328v-3.1l3-.768V23.88h3.24v2.256h-3.24v5.4a2.522,2.522,0,0,0,.48,1.752,1.736,1.736,0,0,0,1.32.5,3.647,3.647,0,0,0,.78-.072,4.472,4.472,0,0,0,.636-.192V35.9a4.227,4.227,0,0,1-.9.252A5.633,5.633,0,0,1,19.92,36.24ZM23.832,36V23.88h3V36Zm-.168-14.4V18.672H27V21.6Zm12,14.64a6.72,6.72,0,0,1-3.276-.768,5.32,5.32,0,0,1-2.172-2.2,7.072,7.072,0,0,1-.768-3.4,6.775,6.775,0,0,1,.78-3.36A5.318,5.318,0,0,1,32.4,24.384a6.825,6.825,0,0,1,3.264-.744,7.5,7.5,0,0,1,2.34.372,4.744,4.744,0,0,1,1.86,1.068l-.912,2.088a4.369,4.369,0,0,0-1.452-.9,4.48,4.48,0,0,0-1.572-.3,3.188,3.188,0,0,0-2.508,1.008,4.261,4.261,0,0,0-.9,2.928,4.357,4.357,0,0,0,.9,2.952,3.152,3.152,0,0,0,2.508,1.032,4.583,4.583,0,0,0,1.548-.288,4.464,4.464,0,0,0,1.476-.888l.912,2.064a5.092,5.092,0,0,1-1.884,1.08A7.211,7.211,0,0,1,35.664,36.24Zm11.136,0a5.112,5.112,0,0,1-2.784-.756,5.048,5.048,0,0,1-1.872-2.172,7.832,7.832,0,0,1-.672-3.384,7.752,7.752,0,0,1,.672-3.372A4.926,4.926,0,0,1,46.8,23.64a4.846,4.846,0,0,1,2.7.756,3.6,3.6,0,0,1,1.548,2.028h-.264l.264-2.544h2.88q-.072.744-.132,1.512t-.06,1.512V36H50.76l-.024-2.5h.288a3.542,3.542,0,0,1-1.56,1.992A4.877,4.877,0,0,1,46.8,36.24Zm.84-2.3a2.871,2.871,0,0,0,2.28-1,4.5,4.5,0,0,0,.864-3.012,4.447,4.447,0,0,0-.864-3,3.133,3.133,0,0,0-4.56,0,4.447,4.447,0,0,0-.864,3,4.541,4.541,0,0,0,.852,3.012A2.862,2.862,0,0,0,47.64,33.936Z" transform="translate(823 5855)" fill="#212429"/>
      <path id="Trazado_978958" data-name="Trazado 978958" d="M1.872,0V-16.92H9.264a6.379,6.379,0,0,1,4.308,1.32A4.6,4.6,0,0,1,15.1-11.928a4.96,4.96,0,0,1-.684,2.664,4.411,4.411,0,0,1-1.956,1.692,7.092,7.092,0,0,1-3,.588l.336-.456h.816a3.171,3.171,0,0,1,1.8.528A3.8,3.8,0,0,1,13.7-5.3L16.176,0H12.768l-2.5-5.5a1.822,1.822,0,0,0-1.02-1.1,4.57,4.57,0,0,0-1.644-.264H4.968V0Zm3.1-9.144H8.76a3.894,3.894,0,0,0,2.484-.684,2.418,2.418,0,0,0,.852-2,2.383,2.383,0,0,0-.852-1.992A3.945,3.945,0,0,0,8.76-14.5H4.968ZM24.024.24a6.562,6.562,0,0,1-4.776-1.68A6.129,6.129,0,0,1,17.52-6.048a7.022,7.022,0,0,1,.744-3.312,5.473,5.473,0,0,1,2.076-2.208,5.966,5.966,0,0,1,3.108-.792,5.376,5.376,0,0,1,2.928.744,4.717,4.717,0,0,1,1.788,2.088,7.524,7.524,0,0,1,.612,3.144v.792H19.944V-7.176h6.7l-.408.336a4.041,4.041,0,0,0-.708-2.568,2.469,2.469,0,0,0-2.052-.888A2.71,2.71,0,0,0,21.18-9.24a4.779,4.779,0,0,0-.8,2.952v.312a4,4,0,0,0,.972,2.94,3.716,3.716,0,0,0,2.748.972,6.557,6.557,0,0,0,1.932-.276,5.448,5.448,0,0,0,1.716-.9l.888,2.016a6.325,6.325,0,0,1-2.064,1.08A8.3,8.3,0,0,1,24.024.24ZM35.64.24a10.458,10.458,0,0,1-2.868-.372,6.59,6.59,0,0,1-2.2-1.044l.84-2.016a7.319,7.319,0,0,0,2.016.96,7.627,7.627,0,0,0,2.232.336A3.159,3.159,0,0,0,37.452-2.3a1.277,1.277,0,0,0,.588-1.1,1.1,1.1,0,0,0-.372-.876,2.625,2.625,0,0,0-1.188-.492l-2.4-.456a4.574,4.574,0,0,1-2.34-1.152,2.912,2.912,0,0,1-.8-2.136,3.359,3.359,0,0,1,.612-1.992A4.045,4.045,0,0,1,33.3-11.868a6.713,6.713,0,0,1,2.676-.492,8.687,8.687,0,0,1,2.532.36,5.307,5.307,0,0,1,2,1.08l-.864,1.944a5.675,5.675,0,0,0-1.7-.936,5.649,5.649,0,0,0-1.872-.336,3,3,0,0,0-1.824.444,1.378,1.378,0,0,0-.576,1.14,1.188,1.188,0,0,0,.348.876,2.21,2.21,0,0,0,1.092.516l2.4.456a4.825,4.825,0,0,1,2.436,1.092A2.778,2.778,0,0,1,40.776-3.6a3.342,3.342,0,0,1-.648,2.064,4.046,4.046,0,0,1-1.8,1.32A7.276,7.276,0,0,1,35.64.24Zm7.7,4.944V-9.1q0-.744-.048-1.512t-.144-1.512h2.9l.264,2.544h-.264A3.5,3.5,0,0,1,47.58-11.6a4.846,4.846,0,0,1,2.7-.756,5.156,5.156,0,0,1,2.808.756,5.061,5.061,0,0,1,1.872,2.16,7.752,7.752,0,0,1,.672,3.372,7.832,7.832,0,0,1-.672,3.384A5.048,5.048,0,0,1,53.088-.516,5.156,5.156,0,0,1,50.28.24,4.8,4.8,0,0,1,47.616-.5,3.568,3.568,0,0,1,46.08-2.5h.264v7.68Zm6.1-7.248a2.9,2.9,0,0,0,2.3-1,4.5,4.5,0,0,0,.864-3.012,4.447,4.447,0,0,0-.864-3,2.914,2.914,0,0,0-2.3-.984,2.887,2.887,0,0,0-2.28.984,4.447,4.447,0,0,0-.864,3A4.5,4.5,0,0,0,47.16-3.06,2.871,2.871,0,0,0,49.44-2.064ZM63.7.24a6.514,6.514,0,0,1-3.24-.768,5.322,5.322,0,0,1-2.124-2.184,7.038,7.038,0,0,1-.756-3.36,6.967,6.967,0,0,1,.756-3.348,5.341,5.341,0,0,1,2.124-2.172,6.514,6.514,0,0,1,3.24-.768,6.582,6.582,0,0,1,3.252.768A5.32,5.32,0,0,1,69.084-9.42a6.967,6.967,0,0,1,.756,3.348,7.038,7.038,0,0,1-.756,3.36A5.3,5.3,0,0,1,66.948-.528,6.582,6.582,0,0,1,63.7.24Zm0-2.3a2.8,2.8,0,0,0,2.256-1,4.587,4.587,0,0,0,.84-3.012,4.536,4.536,0,0,0-.84-3,2.815,2.815,0,0,0-2.256-.984,2.815,2.815,0,0,0-2.256.984,4.536,4.536,0,0,0-.84,3,4.587,4.587,0,0,0,.84,3.012A2.8,2.8,0,0,0,63.7-2.064ZM72.432,0V-9.1q0-.744-.048-1.512T72.24-12.12h2.9l.24,2.4H75.1a4.292,4.292,0,0,1,1.7-1.956,4.945,4.945,0,0,1,2.616-.684,4.107,4.107,0,0,1,3.216,1.2,5.478,5.478,0,0,1,1.08,3.744V0h-3V-7.272a3.142,3.142,0,0,0-.564-2.1,2.144,2.144,0,0,0-1.692-.636,2.892,2.892,0,0,0-2.208.864,3.218,3.218,0,0,0-.816,2.3V0ZM91.224.24a10.458,10.458,0,0,1-2.868-.372,6.59,6.59,0,0,1-2.2-1.044L87-3.192a7.319,7.319,0,0,0,2.016.96,7.627,7.627,0,0,0,2.232.336A3.159,3.159,0,0,0,93.036-2.3a1.277,1.277,0,0,0,.588-1.1,1.1,1.1,0,0,0-.372-.876,2.625,2.625,0,0,0-1.188-.492l-2.4-.456a4.574,4.574,0,0,1-2.34-1.152,2.912,2.912,0,0,1-.8-2.136,3.359,3.359,0,0,1,.612-1.992,4.045,4.045,0,0,1,1.752-1.356,6.713,6.713,0,0,1,2.676-.492,8.687,8.687,0,0,1,2.532.36,5.307,5.307,0,0,1,2,1.08l-.864,1.944a5.675,5.675,0,0,0-1.7-.936,5.649,5.649,0,0,0-1.872-.336,3,3,0,0,0-1.824.444,1.378,1.378,0,0,0-.576,1.14,1.188,1.188,0,0,0,.348.876,2.21,2.21,0,0,0,1.092.516l2.4.456a4.825,4.825,0,0,1,2.436,1.092A2.778,2.778,0,0,1,96.36-3.6a3.342,3.342,0,0,1-.648,2.064,4.046,4.046,0,0,1-1.8,1.32A7.276,7.276,0,0,1,91.224.24Zm12.384,0a5.112,5.112,0,0,1-2.784-.756,5.048,5.048,0,0,1-1.872-2.172,7.832,7.832,0,0,1-.672-3.384,7.752,7.752,0,0,1,.672-3.372,5.061,5.061,0,0,1,1.872-2.16,5.112,5.112,0,0,1,2.784-.756,4.846,4.846,0,0,1,2.7.756,3.6,3.6,0,0,1,1.548,2.028h-.264l.264-2.544h2.88q-.072.744-.132,1.512t-.06,1.512V0h-2.976l-.024-2.5h.288A3.542,3.542,0,0,1,106.272-.5,4.877,4.877,0,0,1,103.608.24Zm.84-2.3a2.871,2.871,0,0,0,2.28-1,4.5,4.5,0,0,0,.864-3.012,4.447,4.447,0,0,0-.864-3,2.887,2.887,0,0,0-2.28-.984,2.887,2.887,0,0,0-2.28.984,4.447,4.447,0,0,0-.864,3,4.541,4.541,0,0,0,.852,3.012A2.862,2.862,0,0,0,104.448-2.064Zm16.3,2.3a4.787,4.787,0,0,1-2.688-.756,3.618,3.618,0,0,1-1.536-2.052h.264V0h-2.976V-17.664h3v8.016h-.288a3.628,3.628,0,0,1,1.56-1.98,4.86,4.86,0,0,1,2.664-.732,5.1,5.1,0,0,1,2.808.768,5.142,5.142,0,0,1,1.872,2.172,7.752,7.752,0,0,1,.672,3.372,7.752,7.752,0,0,1-.672,3.372,5.033,5.033,0,0,1-1.884,2.16A5.172,5.172,0,0,1,120.744.24Zm-.84-2.3a2.923,2.923,0,0,0,2.292-.984,4.405,4.405,0,0,0,.876-3A4.454,4.454,0,0,0,122.2-9.06a2.907,2.907,0,0,0-2.292-1,2.887,2.887,0,0,0-2.28.984,4.447,4.447,0,0,0-.864,3,4.5,4.5,0,0,0,.864,3.012A2.871,2.871,0,0,0,119.9-2.064ZM128.688,0V-12.12h3V0Zm-.168-14.4v-2.928h3.336V-14.4ZM134.952,0V-17.664h3V0Zm6.264,0V-12.12h3V0Zm-.168-14.4v-2.928h3.336V-14.4ZM152.184.24a5.172,5.172,0,0,1-2.8-.756A5.021,5.021,0,0,1,147.5-2.688a7.832,7.832,0,0,1-.672-3.384,7.752,7.752,0,0,1,.672-3.372,5.033,5.033,0,0,1,1.884-2.16,5.172,5.172,0,0,1,2.8-.756,4.92,4.92,0,0,1,2.676.732,3.5,3.5,0,0,1,1.548,1.98H156.1v-8.016h3V0h-2.952V-2.568h.288a3.6,3.6,0,0,1-1.548,2.052A4.846,4.846,0,0,1,152.184.24Zm.84-2.3a2.871,2.871,0,0,0,2.28-1,4.5,4.5,0,0,0,.864-3.012,4.447,4.447,0,0,0-.864-3,2.887,2.887,0,0,0-2.28-.984,2.923,2.923,0,0,0-2.292.984,4.405,4.405,0,0,0-.876,3,4.454,4.454,0,0,0,.876,3.012A2.907,2.907,0,0,0,153.024-2.064ZM167.04.24a5.112,5.112,0,0,1-2.784-.756,5.048,5.048,0,0,1-1.872-2.172,7.832,7.832,0,0,1-.672-3.384,7.752,7.752,0,0,1,.672-3.372,5.061,5.061,0,0,1,1.872-2.16,5.112,5.112,0,0,1,2.784-.756,4.846,4.846,0,0,1,2.7.756,3.6,3.6,0,0,1,1.548,2.028h-.264l.264-2.544h2.88q-.072.744-.132,1.512t-.06,1.512V0H171l-.024-2.5h.288A3.542,3.542,0,0,1,169.7-.5,4.877,4.877,0,0,1,167.04.24Zm.84-2.3a2.871,2.871,0,0,0,2.28-1,4.5,4.5,0,0,0,.864-3.012,4.447,4.447,0,0,0-.864-3,2.887,2.887,0,0,0-2.28-.984,2.887,2.887,0,0,0-2.28.984,4.447,4.447,0,0,0-.864,3,4.541,4.541,0,0,0,.852,3.012A2.862,2.862,0,0,0,167.88-2.064ZM181.944.24a5.172,5.172,0,0,1-2.8-.756,5.021,5.021,0,0,1-1.884-2.172,7.832,7.832,0,0,1-.672-3.384,7.752,7.752,0,0,1,.672-3.372,5.033,5.033,0,0,1,1.884-2.16,5.172,5.172,0,0,1,2.8-.756,4.92,4.92,0,0,1,2.676.732,3.5,3.5,0,0,1,1.548,1.98h-.312v-8.016h3V0H185.9V-2.568h.288a3.6,3.6,0,0,1-1.548,2.052A4.846,4.846,0,0,1,181.944.24Zm.84-2.3a2.871,2.871,0,0,0,2.28-1,4.5,4.5,0,0,0,.864-3.012,4.447,4.447,0,0,0-.864-3,2.887,2.887,0,0,0-2.28-.984,2.923,2.923,0,0,0-2.292.984,4.405,4.405,0,0,0-.876,3,4.454,4.454,0,0,0,.876,3.012A2.907,2.907,0,0,0,182.784-2.064ZM1.632,36V18.336h3V36Zm12.12.24a6.562,6.562,0,0,1-4.776-1.68,6.129,6.129,0,0,1-1.728-4.608,7.022,7.022,0,0,1,.744-3.312,5.473,5.473,0,0,1,2.076-2.208,5.966,5.966,0,0,1,3.108-.792,5.376,5.376,0,0,1,2.928.744,4.717,4.717,0,0,1,1.788,2.088,7.524,7.524,0,0,1,.612,3.144v.792H9.672V28.824h6.7l-.408.336a4.041,4.041,0,0,0-.708-2.568A2.469,2.469,0,0,0,13.2,25.7a2.71,2.71,0,0,0-2.292,1.056,4.779,4.779,0,0,0-.8,2.952v.312a4,4,0,0,0,.972,2.94,3.716,3.716,0,0,0,2.748.972,6.557,6.557,0,0,0,1.932-.276,5.448,5.448,0,0,0,1.716-.9l.888,2.016a6.325,6.325,0,0,1-2.064,1.08A8.3,8.3,0,0,1,13.752,36.24Zm12.912,5.136a11.837,11.837,0,0,1-3.036-.36,7.478,7.478,0,0,1-2.412-1.1l.648-2.16a7.689,7.689,0,0,0,1.44.744,8.415,8.415,0,0,0,1.536.432,8.971,8.971,0,0,0,1.608.144,3.41,3.41,0,0,0,2.508-.828,3.2,3.2,0,0,0,.828-2.364v-2.9h.24a3.554,3.554,0,0,1-1.548,1.992,4.86,4.86,0,0,1-2.676.744,5.394,5.394,0,0,1-2.844-.732,4.916,4.916,0,0,1-1.884-2.1,7.216,7.216,0,0,1-.672-3.216,7.139,7.139,0,0,1,.672-3.2,4.93,4.93,0,0,1,1.884-2.088A5.394,5.394,0,0,1,25.8,23.64a4.844,4.844,0,0,1,2.676.732A3.53,3.53,0,0,1,30,26.352l-.216-.144.24-2.328h2.9q-.1.744-.144,1.512T32.736,26.9V35.52a5.791,5.791,0,0,1-1.548,4.356A6.25,6.25,0,0,1,26.664,41.376Zm-.048-7.968a2.894,2.894,0,0,0,2.292-.972,4.076,4.076,0,0,0,.852-2.772,4.028,4.028,0,0,0-.852-2.76,2.911,2.911,0,0,0-2.292-.96,2.976,2.976,0,0,0-2.328.96,3.991,3.991,0,0,0-.864,2.76,4.038,4.038,0,0,0,.864,2.772A2.959,2.959,0,0,0,26.616,33.408Zm14.04,2.832a5.112,5.112,0,0,1-2.784-.756A5.048,5.048,0,0,1,36,33.312a7.832,7.832,0,0,1-.672-3.384A7.752,7.752,0,0,1,36,26.556a4.926,4.926,0,0,1,4.656-2.916,4.846,4.846,0,0,1,2.7.756A3.6,3.6,0,0,1,44.9,26.424H44.64L44.9,23.88h2.88q-.072.744-.132,1.512t-.06,1.512V36H44.616l-.024-2.5h.288A3.542,3.542,0,0,1,43.32,35.5,4.877,4.877,0,0,1,40.656,36.24Zm.84-2.3a2.871,2.871,0,0,0,2.28-1,4.5,4.5,0,0,0,.864-3.012,4.447,4.447,0,0,0-.864-3,3.133,3.133,0,0,0-4.56,0,4.447,4.447,0,0,0-.864,3A4.541,4.541,0,0,0,39.2,32.94,2.862,2.862,0,0,0,41.5,33.936ZM50.856,36V18.336h3V36Z" transform="translate(906 5979)" fill="#212429"/>
      <path id="Trazado_978959" data-name="Trazado 978959" d="M1.872,0V-16.92H9.264a6.379,6.379,0,0,1,4.308,1.32A4.6,4.6,0,0,1,15.1-11.928a4.96,4.96,0,0,1-.684,2.664,4.411,4.411,0,0,1-1.956,1.692,7.092,7.092,0,0,1-3,.588l.336-.456h.816a3.171,3.171,0,0,1,1.8.528A3.8,3.8,0,0,1,13.7-5.3L16.176,0H12.768l-2.5-5.5a1.822,1.822,0,0,0-1.02-1.1,4.57,4.57,0,0,0-1.644-.264H4.968V0Zm3.1-9.144H8.76a3.894,3.894,0,0,0,2.484-.684,2.418,2.418,0,0,0,.852-2,2.383,2.383,0,0,0-.852-1.992A3.945,3.945,0,0,0,8.76-14.5H4.968ZM24.024.24a6.562,6.562,0,0,1-4.776-1.68A6.129,6.129,0,0,1,17.52-6.048a7.022,7.022,0,0,1,.744-3.312,5.473,5.473,0,0,1,2.076-2.208,5.966,5.966,0,0,1,3.108-.792,5.376,5.376,0,0,1,2.928.744,4.717,4.717,0,0,1,1.788,2.088,7.524,7.524,0,0,1,.612,3.144v.792H19.944V-7.176h6.7l-.408.336a4.041,4.041,0,0,0-.708-2.568,2.469,2.469,0,0,0-2.052-.888A2.71,2.71,0,0,0,21.18-9.24a4.779,4.779,0,0,0-.8,2.952v.312a4,4,0,0,0,.972,2.94,3.716,3.716,0,0,0,2.748.972,6.557,6.557,0,0,0,1.932-.276,5.448,5.448,0,0,0,1.716-.9l.888,2.016a6.325,6.325,0,0,1-2.064,1.08A8.3,8.3,0,0,1,24.024.24ZM35.64.24a10.458,10.458,0,0,1-2.868-.372,6.59,6.59,0,0,1-2.2-1.044l.84-2.016a7.319,7.319,0,0,0,2.016.96,7.627,7.627,0,0,0,2.232.336A3.159,3.159,0,0,0,37.452-2.3a1.277,1.277,0,0,0,.588-1.1,1.1,1.1,0,0,0-.372-.876,2.625,2.625,0,0,0-1.188-.492l-2.4-.456a4.574,4.574,0,0,1-2.34-1.152,2.912,2.912,0,0,1-.8-2.136,3.359,3.359,0,0,1,.612-1.992A4.045,4.045,0,0,1,33.3-11.868a6.713,6.713,0,0,1,2.676-.492,8.687,8.687,0,0,1,2.532.36,5.307,5.307,0,0,1,2,1.08l-.864,1.944a5.675,5.675,0,0,0-1.7-.936,5.649,5.649,0,0,0-1.872-.336,3,3,0,0,0-1.824.444,1.378,1.378,0,0,0-.576,1.14,1.188,1.188,0,0,0,.348.876,2.21,2.21,0,0,0,1.092.516l2.4.456a4.825,4.825,0,0,1,2.436,1.092A2.778,2.778,0,0,1,40.776-3.6a3.342,3.342,0,0,1-.648,2.064,4.046,4.046,0,0,1-1.8,1.32A7.276,7.276,0,0,1,35.64.24Zm7.7,4.944V-9.1q0-.744-.048-1.512t-.144-1.512h2.9l.264,2.544h-.264A3.5,3.5,0,0,1,47.58-11.6a4.846,4.846,0,0,1,2.7-.756,5.156,5.156,0,0,1,2.808.756,5.061,5.061,0,0,1,1.872,2.16,7.752,7.752,0,0,1,.672,3.372,7.832,7.832,0,0,1-.672,3.384A5.048,5.048,0,0,1,53.088-.516,5.156,5.156,0,0,1,50.28.24,4.8,4.8,0,0,1,47.616-.5,3.568,3.568,0,0,1,46.08-2.5h.264v7.68Zm6.1-7.248a2.9,2.9,0,0,0,2.3-1,4.5,4.5,0,0,0,.864-3.012,4.447,4.447,0,0,0-.864-3,2.914,2.914,0,0,0-2.3-.984,2.887,2.887,0,0,0-2.28.984,4.447,4.447,0,0,0-.864,3A4.5,4.5,0,0,0,47.16-3.06,2.871,2.871,0,0,0,49.44-2.064ZM63.7.24a6.514,6.514,0,0,1-3.24-.768,5.322,5.322,0,0,1-2.124-2.184,7.038,7.038,0,0,1-.756-3.36,6.967,6.967,0,0,1,.756-3.348,5.341,5.341,0,0,1,2.124-2.172,6.514,6.514,0,0,1,3.24-.768,6.582,6.582,0,0,1,3.252.768A5.32,5.32,0,0,1,69.084-9.42a6.967,6.967,0,0,1,.756,3.348,7.038,7.038,0,0,1-.756,3.36A5.3,5.3,0,0,1,66.948-.528,6.582,6.582,0,0,1,63.7.24Zm0-2.3a2.8,2.8,0,0,0,2.256-1,4.587,4.587,0,0,0,.84-3.012,4.536,4.536,0,0,0-.84-3,2.815,2.815,0,0,0-2.256-.984,2.815,2.815,0,0,0-2.256.984,4.536,4.536,0,0,0-.84,3,4.587,4.587,0,0,0,.84,3.012A2.8,2.8,0,0,0,63.7-2.064ZM72.432,0V-9.1q0-.744-.048-1.512T72.24-12.12h2.9l.24,2.4H75.1a4.292,4.292,0,0,1,1.7-1.956,4.945,4.945,0,0,1,2.616-.684,4.107,4.107,0,0,1,3.216,1.2,5.478,5.478,0,0,1,1.08,3.744V0h-3V-7.272a3.142,3.142,0,0,0-.564-2.1,2.144,2.144,0,0,0-1.692-.636,2.892,2.892,0,0,0-2.208.864,3.218,3.218,0,0,0-.816,2.3V0ZM91.224.24a10.458,10.458,0,0,1-2.868-.372,6.59,6.59,0,0,1-2.2-1.044L87-3.192a7.319,7.319,0,0,0,2.016.96,7.627,7.627,0,0,0,2.232.336A3.159,3.159,0,0,0,93.036-2.3a1.277,1.277,0,0,0,.588-1.1,1.1,1.1,0,0,0-.372-.876,2.625,2.625,0,0,0-1.188-.492l-2.4-.456a4.574,4.574,0,0,1-2.34-1.152,2.912,2.912,0,0,1-.8-2.136,3.359,3.359,0,0,1,.612-1.992,4.045,4.045,0,0,1,1.752-1.356,6.713,6.713,0,0,1,2.676-.492,8.687,8.687,0,0,1,2.532.36,5.307,5.307,0,0,1,2,1.08l-.864,1.944a5.675,5.675,0,0,0-1.7-.936,5.649,5.649,0,0,0-1.872-.336,3,3,0,0,0-1.824.444,1.378,1.378,0,0,0-.576,1.14,1.188,1.188,0,0,0,.348.876,2.21,2.21,0,0,0,1.092.516l2.4.456a4.825,4.825,0,0,1,2.436,1.092A2.778,2.778,0,0,1,96.36-3.6a3.342,3.342,0,0,1-.648,2.064,4.046,4.046,0,0,1-1.8,1.32A7.276,7.276,0,0,1,91.224.24Zm12.384,0a5.112,5.112,0,0,1-2.784-.756,5.048,5.048,0,0,1-1.872-2.172,7.832,7.832,0,0,1-.672-3.384,7.752,7.752,0,0,1,.672-3.372,5.061,5.061,0,0,1,1.872-2.16,5.112,5.112,0,0,1,2.784-.756,4.846,4.846,0,0,1,2.7.756,3.6,3.6,0,0,1,1.548,2.028h-.264l.264-2.544h2.88q-.072.744-.132,1.512t-.06,1.512V0h-2.976l-.024-2.5h.288A3.542,3.542,0,0,1,106.272-.5,4.877,4.877,0,0,1,103.608.24Zm.84-2.3a2.871,2.871,0,0,0,2.28-1,4.5,4.5,0,0,0,.864-3.012,4.447,4.447,0,0,0-.864-3,2.887,2.887,0,0,0-2.28-.984,2.887,2.887,0,0,0-2.28.984,4.447,4.447,0,0,0-.864,3,4.541,4.541,0,0,0,.852,3.012A2.862,2.862,0,0,0,104.448-2.064Zm16.3,2.3a4.787,4.787,0,0,1-2.688-.756,3.618,3.618,0,0,1-1.536-2.052h.264V0h-2.976V-17.664h3v8.016h-.288a3.628,3.628,0,0,1,1.56-1.98,4.86,4.86,0,0,1,2.664-.732,5.1,5.1,0,0,1,2.808.768,5.142,5.142,0,0,1,1.872,2.172,7.752,7.752,0,0,1,.672,3.372,7.752,7.752,0,0,1-.672,3.372,5.033,5.033,0,0,1-1.884,2.16A5.172,5.172,0,0,1,120.744.24Zm-.84-2.3a2.923,2.923,0,0,0,2.292-.984,4.405,4.405,0,0,0,.876-3A4.454,4.454,0,0,0,122.2-9.06a2.907,2.907,0,0,0-2.292-1,2.887,2.887,0,0,0-2.28.984,4.447,4.447,0,0,0-.864,3,4.5,4.5,0,0,0,.864,3.012A2.871,2.871,0,0,0,119.9-2.064ZM128.688,0V-12.12h3V0Zm-.168-14.4v-2.928h3.336V-14.4ZM134.952,0V-17.664h3V0Zm6.264,0V-12.12h3V0Zm-.168-14.4v-2.928h3.336V-14.4ZM152.184.24a5.172,5.172,0,0,1-2.8-.756A5.021,5.021,0,0,1,147.5-2.688a7.832,7.832,0,0,1-.672-3.384,7.752,7.752,0,0,1,.672-3.372,5.033,5.033,0,0,1,1.884-2.16,5.172,5.172,0,0,1,2.8-.756,4.92,4.92,0,0,1,2.676.732,3.5,3.5,0,0,1,1.548,1.98H156.1v-8.016h3V0h-2.952V-2.568h.288a3.6,3.6,0,0,1-1.548,2.052A4.846,4.846,0,0,1,152.184.24Zm.84-2.3a2.871,2.871,0,0,0,2.28-1,4.5,4.5,0,0,0,.864-3.012,4.447,4.447,0,0,0-.864-3,2.887,2.887,0,0,0-2.28-.984,2.923,2.923,0,0,0-2.292.984,4.405,4.405,0,0,0-.876,3,4.454,4.454,0,0,0,.876,3.012A2.907,2.907,0,0,0,153.024-2.064ZM167.04.24a5.112,5.112,0,0,1-2.784-.756,5.048,5.048,0,0,1-1.872-2.172,7.832,7.832,0,0,1-.672-3.384,7.752,7.752,0,0,1,.672-3.372,5.061,5.061,0,0,1,1.872-2.16,5.112,5.112,0,0,1,2.784-.756,4.846,4.846,0,0,1,2.7.756,3.6,3.6,0,0,1,1.548,2.028h-.264l.264-2.544h2.88q-.072.744-.132,1.512t-.06,1.512V0H171l-.024-2.5h.288A3.542,3.542,0,0,1,169.7-.5,4.877,4.877,0,0,1,167.04.24Zm.84-2.3a2.871,2.871,0,0,0,2.28-1,4.5,4.5,0,0,0,.864-3.012,4.447,4.447,0,0,0-.864-3,2.887,2.887,0,0,0-2.28-.984,2.887,2.887,0,0,0-2.28.984,4.447,4.447,0,0,0-.864,3,4.541,4.541,0,0,0,.852,3.012A2.862,2.862,0,0,0,167.88-2.064ZM181.944.24a5.172,5.172,0,0,1-2.8-.756,5.021,5.021,0,0,1-1.884-2.172,7.832,7.832,0,0,1-.672-3.384,7.752,7.752,0,0,1,.672-3.372,5.033,5.033,0,0,1,1.884-2.16,5.172,5.172,0,0,1,2.8-.756,4.92,4.92,0,0,1,2.676.732,3.5,3.5,0,0,1,1.548,1.98h-.312v-8.016h3V0H185.9V-2.568h.288a3.6,3.6,0,0,1-1.548,2.052A4.846,4.846,0,0,1,181.944.24Zm.84-2.3a2.871,2.871,0,0,0,2.28-1,4.5,4.5,0,0,0,.864-3.012,4.447,4.447,0,0,0-.864-3,2.887,2.887,0,0,0-2.28-.984,2.923,2.923,0,0,0-2.292.984,4.405,4.405,0,0,0-.876,3,4.454,4.454,0,0,0,.876,3.012A2.907,2.907,0,0,0,182.784-2.064ZM7.488,36.24a6.562,6.562,0,0,1-4.776-1.68A6.129,6.129,0,0,1,.984,29.952a7.022,7.022,0,0,1,.744-3.312A5.473,5.473,0,0,1,3.8,24.432a5.966,5.966,0,0,1,3.108-.792,5.376,5.376,0,0,1,2.928.744,4.717,4.717,0,0,1,1.788,2.088,7.524,7.524,0,0,1,.612,3.144v.792H3.408V28.824h6.7L9.7,29.16a4.041,4.041,0,0,0-.708-2.568A2.469,2.469,0,0,0,6.936,25.7,2.71,2.71,0,0,0,4.644,26.76a4.779,4.779,0,0,0-.8,2.952v.312a4,4,0,0,0,.972,2.94,3.716,3.716,0,0,0,2.748.972,6.557,6.557,0,0,0,1.932-.276,5.448,5.448,0,0,0,1.716-.9l.888,2.016a6.325,6.325,0,0,1-2.064,1.08A8.3,8.3,0,0,1,7.488,36.24Zm12.864,0a6.72,6.72,0,0,1-3.276-.768,5.32,5.32,0,0,1-2.172-2.2,7.072,7.072,0,0,1-.768-3.4,6.775,6.775,0,0,1,.78-3.36,5.318,5.318,0,0,1,2.172-2.136,6.825,6.825,0,0,1,3.264-.744,7.5,7.5,0,0,1,2.34.372,4.744,4.744,0,0,1,1.86,1.068l-.912,2.088a4.369,4.369,0,0,0-1.452-.9,4.48,4.48,0,0,0-1.572-.3,3.188,3.188,0,0,0-2.508,1.008,4.261,4.261,0,0,0-.9,2.928,4.357,4.357,0,0,0,.9,2.952,3.152,3.152,0,0,0,2.508,1.032,4.583,4.583,0,0,0,1.548-.288,4.464,4.464,0,0,0,1.476-.888l.912,2.064a5.092,5.092,0,0,1-1.884,1.08A7.211,7.211,0,0,1,20.352,36.24Zm11.76,0a6.514,6.514,0,0,1-3.24-.768,5.322,5.322,0,0,1-2.124-2.184,7.038,7.038,0,0,1-.756-3.36,6.967,6.967,0,0,1,.756-3.348,5.341,5.341,0,0,1,2.124-2.172,6.514,6.514,0,0,1,3.24-.768,6.582,6.582,0,0,1,3.252.768A5.32,5.32,0,0,1,37.5,26.58a6.967,6.967,0,0,1,.756,3.348,7.038,7.038,0,0,1-.756,3.36,5.3,5.3,0,0,1-2.136,2.184A6.582,6.582,0,0,1,32.112,36.24Zm0-2.3a2.8,2.8,0,0,0,2.256-1,4.587,4.587,0,0,0,.84-3.012,4.536,4.536,0,0,0-.84-3,3.078,3.078,0,0,0-4.512,0,4.536,4.536,0,0,0-.84,3,4.587,4.587,0,0,0,.84,3.012A2.8,2.8,0,0,0,32.112,33.936ZM40.848,36V26.9q0-.744-.048-1.512t-.144-1.512h2.9l.24,2.4h-.288a4.292,4.292,0,0,1,1.7-1.956,4.945,4.945,0,0,1,2.616-.684,4.107,4.107,0,0,1,3.216,1.2,5.478,5.478,0,0,1,1.08,3.744V36h-3V28.728a3.142,3.142,0,0,0-.564-2.1,2.144,2.144,0,0,0-1.692-.636,2.892,2.892,0,0,0-2.208.864,3.218,3.218,0,0,0-.816,2.3V36Zm19.944.24a6.514,6.514,0,0,1-3.24-.768,5.322,5.322,0,0,1-2.124-2.184,7.038,7.038,0,0,1-.756-3.36,6.967,6.967,0,0,1,.756-3.348,5.341,5.341,0,0,1,2.124-2.172,6.514,6.514,0,0,1,3.24-.768,6.582,6.582,0,0,1,3.252.768A5.32,5.32,0,0,1,66.18,26.58a6.967,6.967,0,0,1,.756,3.348,7.038,7.038,0,0,1-.756,3.36,5.3,5.3,0,0,1-2.136,2.184A6.582,6.582,0,0,1,60.792,36.24Zm0-2.3a2.8,2.8,0,0,0,2.256-1,4.587,4.587,0,0,0,.84-3.012,4.536,4.536,0,0,0-.84-3,3.078,3.078,0,0,0-4.512,0,4.536,4.536,0,0,0-.84,3,4.587,4.587,0,0,0,.84,3.012A2.8,2.8,0,0,0,60.792,33.936ZM59.808,22.7l2.472-4.872h2.952L61.824,22.7ZM69.528,36V26.9q0-.744-.048-1.512t-.144-1.512h2.9l.24,2.4h-.288a4.124,4.124,0,0,1,1.548-1.944,4.373,4.373,0,0,1,2.484-.7,3.977,3.977,0,0,1,2.388.684,3.668,3.668,0,0,1,1.332,2.124H79.56A4.227,4.227,0,0,1,81.216,24.4a4.7,4.7,0,0,1,2.64-.756,3.756,3.756,0,0,1,3.048,1.2,5.753,5.753,0,0,1,1.008,3.744V36h-3V28.7a3.5,3.5,0,0,0-.48-2.076,1.8,1.8,0,0,0-1.536-.636,2.411,2.411,0,0,0-1.968.876,3.611,3.611,0,0,0-.72,2.364V36h-3V28.7a3.5,3.5,0,0,0-.48-2.076,1.8,1.8,0,0,0-1.536-.636,2.377,2.377,0,0,0-1.956.876,3.653,3.653,0,0,0-.708,2.364V36ZM91.1,36V23.88h3V36Zm-.168-14.4V18.672h3.336V21.6Zm12,14.64a6.72,6.72,0,0,1-3.276-.768,5.32,5.32,0,0,1-2.172-2.2,7.072,7.072,0,0,1-.768-3.4,6.775,6.775,0,0,1,.78-3.36,5.318,5.318,0,0,1,2.172-2.136,6.825,6.825,0,0,1,3.264-.744,7.5,7.5,0,0,1,2.34.372,4.744,4.744,0,0,1,1.86,1.068l-.912,2.088a4.369,4.369,0,0,0-1.452-.9,4.48,4.48,0,0,0-1.572-.3,3.188,3.188,0,0,0-2.508,1.008,4.261,4.261,0,0,0-.9,2.928,4.357,4.357,0,0,0,.9,2.952,3.152,3.152,0,0,0,2.508,1.032,4.583,4.583,0,0,0,1.548-.288,4.464,4.464,0,0,0,1.476-.888l.912,2.064a5.092,5.092,0,0,1-1.884,1.08A7.211,7.211,0,0,1,102.936,36.24Zm11.136,0a5.112,5.112,0,0,1-2.784-.756,5.048,5.048,0,0,1-1.872-2.172,7.832,7.832,0,0,1-.672-3.384,7.752,7.752,0,0,1,.672-3.372,4.926,4.926,0,0,1,4.656-2.916,4.846,4.846,0,0,1,2.7.756,3.6,3.6,0,0,1,1.548,2.028h-.264l.264-2.544h2.88q-.072.744-.132,1.512t-.06,1.512V36h-2.976l-.024-2.5h.288a3.542,3.542,0,0,1-1.56,1.992A4.877,4.877,0,0,1,114.072,36.24Zm.84-2.3a2.871,2.871,0,0,0,2.28-1,4.5,4.5,0,0,0,.864-3.012,4.447,4.447,0,0,0-.864-3,3.133,3.133,0,0,0-4.56,0,4.447,4.447,0,0,0-.864,3,4.541,4.541,0,0,0,.852,3.012A2.862,2.862,0,0,0,114.912,33.936Z" transform="translate(964 6096)" fill="#212429"/>
    </g>
  </g>
</svg>
