<svg xmlns="http://www.w3.org/2000/svg" xmlns:xlink="http://www.w3.org/1999/xlink" width="110" height="110" viewBox="0 0 110 110">
  <defs>
    <filter id="Trazado_982547" x="0" y="0" width="110" height="110" filterUnits="userSpaceOnUse">
      <feOffset dy="3" input="SourceAlpha"/>
      <feGaussianBlur stdDeviation="3" result="blur"/>
      <feFlood flood-opacity="0.161"/>
      <feComposite operator="in" in2="blur"/>
      <feComposite in="SourceGraphic"/>
    </filter>
  </defs>
  <g id="Grupo_1150010" data-name="Grupo 1150010" transform="translate(-1218 -4859)">
    <g id="Grupo_1149676" data-name="Grupo 1149676" transform="translate(1227 4865)">
      <g id="Grupo_1148534" data-name="Grupo 1148534" transform="translate(0)">
        <g id="Grupo_1147066" data-name="Grupo 1147066" transform="translate(0 0)">
          <g transform="matrix(1, 0, 0, 1, -9, -6)" filter="url(#Trazado_982547)">
            <g id="Trazado_982547-2" data-name="Trazado 982547" transform="translate(9 6)" fill="#f6f9fc">
              <path d="M 46.00000381469727 90.5 C 39.99188232421875 90.5 34.16427230834961 89.32364654541016 28.67905807495117 87.00359344482422 C 23.38020324707031 84.76236724853516 18.62103080749512 81.55355072021484 14.53375053405762 77.46625518798828 C 10.44645690917969 73.37897491455078 7.237643718719482 68.61980438232422 4.996417045593262 63.32094955444336 C 2.676363706588745 57.83573532104492 1.500003814697266 52.00812530517578 1.500003814697266 46.00000381469727 C 1.500003814697266 39.99188232421875 2.676363706588745 34.16427230834961 4.996417045593262 28.67905807495117 C 7.237643718719482 23.38020324707031 10.44645690917969 18.62104415893555 14.53375053405762 14.53375053405762 C 18.62103080749512 10.44647026062012 23.38020324707031 7.237643718719482 28.67905807495117 4.996417045593262 C 34.16427230834961 2.676363706588745 39.99188232421875 1.500003814697266 46.00000381469727 1.500003814697266 C 52.00812530517578 1.500003814697266 57.83573532104492 2.676363706588745 63.32094955444336 4.996417045593262 C 68.61980438232422 7.237643718719482 73.37897491455078 10.44647026062012 77.46625518798828 14.53375053405762 C 81.55355072021484 18.62104415893555 84.76236724853516 23.38020324707031 87.00359344482422 28.67905807495117 C 89.32364654541016 34.16427230834961 90.5 39.99188232421875 90.5 46.00000381469727 C 90.5 52.00812530517578 89.32364654541016 57.83573532104492 87.00359344482422 63.32094955444336 C 84.76236724853516 68.61980438232422 81.55355072021484 73.37897491455078 77.46625518798828 77.46625518798828 C 73.37897491455078 81.55355072021484 68.61980438232422 84.76236724853516 63.32094955444336 87.00359344482422 C 57.83573532104492 89.32364654541016 52.00812530517578 90.5 46.00000381469727 90.5 Z" stroke="none"/>
              <path d="M 46.00000381469727 3.000007629394531 C 40.19371795654297 3.000007629394531 34.56270217895508 4.136505126953125 29.26338958740234 6.377914428710938 C 24.14333343505859 8.54351806640625 19.54441833496094 11.64440155029297 15.59442138671875 15.59442138671875 C 11.64440155029297 19.54441833496094 8.54351806640625 24.14333343505859 6.377914428710938 29.26338958740234 C 4.136505126953125 34.56270217895508 3.000007629394531 40.19371795654297 3.000007629394531 46.00000381469727 C 3.000007629394531 51.80628967285156 4.136505126953125 57.43730545043945 6.377914428710938 62.73661804199219 C 8.54351806640625 67.85667419433594 11.64440155029297 72.45558929443359 15.59442138671875 76.40558624267578 C 19.54441833496094 80.35560607910156 24.14333343505859 83.45648956298828 29.26338958740234 85.62208557128906 C 34.56270217895508 87.86350250244141 40.19371795654297 89 46.00000381469727 89 C 51.80628967285156 89 57.43730545043945 87.86350250244141 62.73661804199219 85.62208557128906 C 67.85667419433594 83.45648956298828 72.45558929443359 80.35560607910156 76.40558624267578 76.40558624267578 C 80.35560607910156 72.45558929443359 83.45648956298828 67.85667419433594 85.62208557128906 62.73661804199219 C 87.86350250244141 57.43730545043945 89 51.80628967285156 89 46.00000381469727 C 89 40.19371795654297 87.86350250244141 34.56270217895508 85.62208557128906 29.26338958740234 C 83.45648956298828 24.14333343505859 80.35560607910156 19.54441833496094 76.40558624267578 15.59442138671875 C 72.45558929443359 11.64440155029297 67.85667419433594 8.54351806640625 62.73661804199219 6.377914428710938 C 57.43730545043945 4.136505126953125 51.80628967285156 3.000007629394531 46.00000381469727 3.000007629394531 M 46.00000381469727 7.62939453125e-06 C 71.40510559082031 7.62939453125e-06 92 20.59490203857422 92 46.00000381469727 C 92 71.40510559082031 71.40510559082031 92 46.00000381469727 92 C 20.59490203857422 92 7.62939453125e-06 71.40510559082031 7.62939453125e-06 46.00000381469727 C 7.62939453125e-06 20.59490203857422 20.59490203857422 7.62939453125e-06 46.00000381469727 7.62939453125e-06 Z" stroke="none" fill="#a530fe"/>
            </g>
          </g>
        </g>
      </g>
    </g>
    <g id="analisis_2_" data-name="analisis (2)" transform="translate(1238.325 4887.711)">
      <g id="Grupo_1150146" data-name="Grupo 1150146" transform="translate(8.074 0.894)">
        <g id="Grupo_1150142" data-name="Grupo 1150142" transform="translate(0)">
          <path id="Trazado_985818" data-name="Trazado 985818" d="M17.5,8.01H66.072a2.321,2.321,0,0,1,2.314,2.314V48.057a2.321,2.321,0,0,1-2.314,2.314H17.5a2.321,2.321,0,0,1-2.314-2.314V10.324A2.321,2.321,0,0,1,17.5,8.01Z" transform="translate(-15.185 -8.01)" fill="#eceff1" fill-rule="evenodd"/>
          <path id="Trazado_985819" data-name="Trazado 985819" d="M455.861,8.01h2.209a2.321,2.321,0,0,1,2.314,2.314V48.057a2.321,2.321,0,0,1-2.314,2.314h-2.209a2.321,2.321,0,0,0,2.314-2.314V10.324a2.321,2.321,0,0,0-2.314-2.314Z" transform="translate(-407.183 -8.01)" fill="#d1d1d6" fill-rule="evenodd"/>
          <path id="Trazado_985820" data-name="Trazado 985820" d="M17.5,8.01H66.072a2.321,2.321,0,0,1,2.314,2.314v5.951h-53.2V10.324A2.321,2.321,0,0,1,17.5,8.01Z" transform="translate(-15.185 -8.01)" fill="#a79ba7" fill-rule="evenodd"/>
          <path id="Trazado_985821" data-name="Trazado 985821" d="M455.861,8.01h2.209a2.321,2.321,0,0,1,2.314,2.314v5.951h-2.209V10.324A2.321,2.321,0,0,0,455.861,8.01Z" transform="translate(-407.183 -8.01)" fill="#837683" fill-rule="evenodd"/>
          <path id="Trazado_985822" data-name="Trazado 985822" d="M61.286,35.883a1.353,1.353,0,1,0-1.353-1.353A1.355,1.355,0,0,0,61.286,35.883Z" transform="translate(-54.99 -30.398)" fill="#fe646f" fill-rule="evenodd"/>
          <path id="Trazado_985823" data-name="Trazado 985823" d="M108.29,35.883a1.353,1.353,0,1,0-1.353-1.353A1.355,1.355,0,0,0,108.29,35.883Z" transform="translate(-96.802 -30.398)" fill="#ffe177" fill-rule="evenodd"/>
          <path id="Trazado_985824" data-name="Trazado 985824" d="M155.293,35.883a1.353,1.353,0,1,0-1.353-1.353A1.355,1.355,0,0,0,155.293,35.883Z" transform="translate(-138.613 -30.398)" fill="#6cf5c2" fill-rule="evenodd"/>
        </g>
        <g id="Grupo_1150143" data-name="Grupo 1150143" transform="translate(4.36 10.415)">
          <circle id="Elipse_11556" data-name="Elipse 11556" cx="7.517" cy="7.517" r="7.517" transform="matrix(0.94, -0.34, 0.34, 0.94, 0, 5.111)" fill="#60b7ff"/>
          <circle id="Elipse_11557" data-name="Elipse 11557" cx="6.583" cy="6.583" r="6.583" transform="matrix(0.94, -0.34, 0.34, 0.94, 1.195, 5.672)" fill="#8ac9fe"/>
          <path id="Trazado_985825" data-name="Trazado 985825" d="M141.877,189.393h7.517a7.514,7.514,0,0,1-3.758,6.511Z" transform="translate(-132.242 -179.772)" fill="#fd4755" fill-rule="evenodd"/>
          <path id="Trazado_985826" data-name="Trazado 985826" d="M141.877,189.393h6.583a6.58,6.58,0,0,1-3.291,5.7Z" transform="translate(-132.242 -179.772)" fill="#fe646f" fill-rule="evenodd"/>
          <path id="Trazado_985827" data-name="Trazado 985827" d="M149.393,128.86h-7.517v-7.517A7.517,7.517,0,0,1,149.393,128.86Z" transform="translate(-132.241 -119.239)" fill="#ffd064" fill-rule="evenodd"/>
          <path id="Trazado_985828" data-name="Trazado 985828" d="M148.459,136.381h-6.583V129.8A6.583,6.583,0,0,1,148.459,136.381Z" transform="translate(-132.241 -126.76)" fill="#ffe177" fill-rule="evenodd"/>
        </g>
        <g id="Grupo_1150144" data-name="Grupo 1150144" transform="translate(33.664 20.847)">
          <path id="Trazado_985829" data-name="Trazado 985829" d="M320.493,246.969h1.48a.553.553,0,0,1,.552.552v8.747a.553.553,0,0,1-.552.552h-1.48a.553.553,0,0,1-.552-.552v-8.747A.553.553,0,0,1,320.493,246.969Z" transform="translate(-319.941 -241.421)" fill="#ffe177" fill-rule="evenodd"/>
          <path id="Trazado_985830" data-name="Trazado 985830" d="M328.341,246.969h1.1a.553.553,0,0,1,.552.552v8.747a.553.553,0,0,1-.552.552h-1.1a.553.553,0,0,0,.552-.552v-8.747A.553.553,0,0,0,328.341,246.969Z" transform="translate(-327.413 -241.421)" fill="#ffd064" fill-rule="evenodd"/>
          <path id="Trazado_985831" data-name="Trazado 985831" d="M370.832,221.854h1.48a.553.553,0,0,1,.552.552v11.521a.553.553,0,0,1-.552.552h-1.48a.553.553,0,0,1-.552-.552V222.406A.553.553,0,0,1,370.832,221.854Z" transform="translate(-364.719 -219.08)" fill="#6cf5c2" fill-rule="evenodd"/>
          <path id="Trazado_985832" data-name="Trazado 985832" d="M378.68,221.854h1.1a.553.553,0,0,1,.552.552v11.521a.553.553,0,0,1-.552.552h-1.1a.553.553,0,0,0,.552-.552V222.406A.553.553,0,0,0,378.68,221.854Z" transform="translate(-372.192 -219.08)" fill="#00e499" fill-rule="evenodd"/>
          <path id="Trazado_985833" data-name="Trazado 985833" d="M421.171,196.74h1.48a.553.553,0,0,1,.552.552v14.3a.553.553,0,0,1-.552.552h-1.48a.553.553,0,0,1-.552-.552v-14.3A.553.553,0,0,1,421.171,196.74Z" transform="translate(-409.498 -196.74)" fill="#8ac9fe" fill-rule="evenodd"/>
          <path id="Trazado_985834" data-name="Trazado 985834" d="M429.019,196.74h1.1a.553.553,0,0,1,.552.552v14.3a.553.553,0,0,1-.552.552h-1.1a.553.553,0,0,0,.552-.552v-14.3A.553.553,0,0,0,429.019,196.74Z" transform="translate(-416.97 -196.74)" fill="#60b7ff" fill-rule="evenodd"/>
        </g>
        <g id="Grupo_1150145" data-name="Grupo 1150145" transform="translate(11.047 23.729)">
          <path id="Trazado_985835" data-name="Trazado 985835" d="M293.686,392.841a9.855,9.855,0,0,1-1.662,1.83l4.52,4.43,1.721-1.773Z" transform="translate(-272.491 -374.061)" fill="#a79ba7" fill-rule="evenodd"/>
          <path id="Trazado_985836" data-name="Trazado 985836" d="M303.386,392.565a1.135,1.135,0,0,1-.492.66l4.49,4.46.55-.6Z" transform="translate(-282.161 -373.815)" fill="#837683" fill-rule="evenodd"/>
          <path id="Trazado_985837" data-name="Trazado 985837" d="M329.131,431.274l1.942-2a.893.893,0,0,0-.019-1.259l-5.378-5.219a.893.893,0,0,0-1.259.019l-1.942,2a.893.893,0,0,0,.019,1.259l5.378,5.219A.893.893,0,0,0,329.131,431.274Z" transform="translate(-299.356 -400.483)" fill="#f1ba84" fill-rule="evenodd"/>
          <path id="Trazado_985838" data-name="Trazado 985838" d="M344.476,422.8l5.378,5.219a.893.893,0,0,1,.019,1.259l-1.942,2a.882.882,0,0,1-.241.176.894.894,0,0,0,1.037-.176l1.942-2a.893.893,0,0,0-.019-1.259l-5.378-5.219a.894.894,0,0,0-1.018-.157A.879.879,0,0,1,344.476,422.8Z" transform="translate(-318.952 -400.485)" fill="#e3a76f" fill-rule="evenodd"/>
          <ellipse id="Elipse_11558" data-name="Elipse 11558" cx="9.794" cy="9.794" rx="9.794" ry="9.794" transform="translate(0 13.849) rotate(-45)" fill="#8ac9fe"/>
          <path id="Trazado_985839" data-name="Trazado 985839" d="M236.8,259.543a9.794,9.794,0,0,1,0,19.588q-.239,0-.475-.012a9.794,9.794,0,0,0,0-19.565Q236.561,259.543,236.8,259.543Z" transform="translate(-222.945 -255.487)" fill="#60b7ff" fill-rule="evenodd"/>
          <circle id="Elipse_11559" data-name="Elipse 11559" cx="7.033" cy="7.033" r="7.033" transform="translate(4.679 10.041) rotate(-22.514)" fill="#eceff1"/>
          <path id="Trazado_985840" data-name="Trazado 985840" d="M184,284.541c.16,0,.318.006.475.016a7.032,7.032,0,0,0,0,14.033c-.157.01-.316.016-.475.016a7.033,7.033,0,0,1,0-14.065Z" transform="translate(-170.14 -277.724)" fill="#d1d1d6" fill-rule="evenodd"/>
        </g>
      </g>
      <path id="Trazado_985841" data-name="Trazado 985841" d="M32.977,44.621a6.149,6.149,0,1,1,6.149-6.148A6.157,6.157,0,0,1,32.977,44.621Zm0-14.065a7.916,7.916,0,1,0,7.915,7.917A7.926,7.926,0,0,0,32.977,30.556ZM45.953,18.275a.884.884,0,0,1-.884.884H36.44a.883.883,0,1,1,0-1.767h8.629A.884.884,0,0,1,45.953,18.275Zm-10.4-3.734a.884.884,0,0,1,.884-.884H53.7a.884.884,0,1,1,0,1.767H36.44A.883.883,0,0,1,35.556,14.54Zm19,21.717h-.818V22.625h.818Zm.883-15.4H52.859a.883.883,0,0,0-.884.884v15.4a.884.884,0,0,0,.884.884h2.584a.883.883,0,0,0,.884-.884v-15.4A.883.883,0,0,0,55.444,20.858ZM49,36.257h-.818V25.4H49Zm.884-12.626H47.3a.884.884,0,0,0-.884.884V37.141a.883.883,0,0,0,.884.884h2.585a.883.883,0,0,0,.883-.884V24.515A.884.884,0,0,0,49.883,23.631ZM18.31,37.066a.883.883,0,0,1-.883.883H14.552a.883.883,0,1,1,0-1.767h2.875A.883.883,0,0,1,18.31,37.066Zm0-3.861a.883.883,0,0,1-.883.884H14.552a.883.883,0,1,1,0-1.767h2.875A.883.883,0,0,1,18.31,33.2Zm7.85-7.059-2.546-4.332,5.028,0a6.633,6.633,0,0,1-2.482,4.329ZM15.436,20.929a6.632,6.632,0,0,0,9.2,6.115l-3.332-5.667a.885.885,0,0,1-.121-.449V14.357a6.643,6.643,0,0,0-5.75,6.572Zm13.206-.88-5.689,0v-5.69A6.645,6.645,0,0,1,28.641,20.049Zm-6.573-7.52a8.4,8.4,0,1,0,8.4,8.4,8.41,8.41,0,0,0-8.4-8.4Zm1.332-7.5a1.353,1.353,0,1,1,1.353,1.353A1.355,1.355,0,0,1,23.4,5.026Zm-5.192,0a1.353,1.353,0,1,1,1.352,1.353A1.355,1.355,0,0,1,18.209,5.026Zm-5.192,0A1.352,1.352,0,1,1,14.37,6.379,1.355,1.355,0,0,1,13.017,5.026ZM58.961,42.371a1.432,1.432,0,0,0,1.431-1.431v-30.9H8.958v30.9a1.432,1.432,0,0,0,1.43,1.431H23.036a10.615,10.615,0,0,1-.736-3.9q0-.264.012-.524h-1.5a.883.883,0,1,1,0-1.767h1.739a10.681,10.681,0,0,1,.693-2.094H20.808a.883.883,0,1,1,0-1.767h3.446a10.664,10.664,0,0,1,16.6-1.049V27.289a.883.883,0,0,1,.884-.884h2.585a.883.883,0,0,1,.884.884v9.851a.883.883,0,0,1-.884.884h-.678c.007.149.01.3.01.449a10.607,10.607,0,0,1-.737,3.9Zm-14.135,5.2L50.2,52.8l-1.942,2h-.01l-5.378-5.228Zm-2.494.022-1.717-1.666c.164-.168.323-.34.475-.519l1.732,1.68Zm1.107-11.334h-.016a10.577,10.577,0,0,0-.8-2.363V28.173h.818v8.084ZM24.067,38.473a8.91,8.91,0,1,0,8.91-8.911,8.919,8.919,0,0,0-8.91,8.911ZM10.389,1.777a1.432,1.432,0,0,0-1.43,1.43V8.275H60.392V3.208a1.432,1.432,0,0,0-1.431-1.43H10.389ZM58.961.01H10.389a3.2,3.2,0,0,0-3.2,3.2V40.94a3.2,3.2,0,0,0,3.2,3.2H23.931a10.664,10.664,0,0,0,15.346,2.949l1.937,1.88a1.777,1.777,0,0,0,.43,1.88l5.378,5.219a1.777,1.777,0,0,0,2.508-.039l1.942-2a1.777,1.777,0,0,0-.038-2.509L46.057,46.3a1.773,1.773,0,0,0-1.891-.373l-1.842-1.788H58.961a3.2,3.2,0,0,0,3.2-3.2V3.208a3.2,3.2,0,0,0-3.2-3.2Z" transform="translate(0)" fill-rule="evenodd"/>
    </g>
  </g>
</svg>
