<svg xmlns="http://www.w3.org/2000/svg" width="36.825" height="36.832" viewBox="0 0 36.825 36.832">
  <g id="layer1" transform="translate(-0.53 -280.593)">
    <path id="path7367" d="M18.93,280.593a.613.613,0,0,0-.6.62V284.9a.614.614,0,1,0,1.227,0v-3.684a.613.613,0,0,0-.626-.62Zm-8.916,2.383a.614.614,0,0,0-.5.929l1.839,3.189a.614.614,0,1,0,1.064-.611l-1.844-3.19A.613.613,0,0,0,10.014,282.976Zm17.837,0a.612.612,0,0,0-.543.316l-1.84,3.19a.614.614,0,1,0,1.061.611l1.844-3.189a.614.614,0,0,0-.521-.929Zm-14.434,27.7v3.067a.614.614,0,0,0,.616.611h.234l1.032,2.677a.614.614,0,0,0,.573.393H22.01a.614.614,0,0,0,.569-.386l.246-.614a.614.614,0,1,0-1.14-.456l-.091.228h-5.3l-.71-1.842h8.268a.613.613,0,0,0,.611-.611v-5.172a11.044,11.044,0,1,0-10.719.183.614.614,0,1,0,.575-1.082,9.822,9.822,0,1,1,9.242,0,.614.614,0,0,0-.321.539v1.848H14.033a.591.591,0,0,0-.616.615ZM3.481,289.495a.614.614,0,0,0-.263,1.151l3.19,1.84a.615.615,0,1,0,.616-1.064l-3.19-1.84a.615.615,0,0,0-.354-.086Zm30.839,0a.61.61,0,0,0-.271.086l-3.19,1.84a.614.614,0,1,0,.611,1.064l3.19-1.84a.614.614,0,0,0-.34-1.151Zm-16.608,2.153a.614.614,0,1,0,0,1.227h1.953l.331,1.64a.613.613,0,0,0,.393.458,4.31,4.31,0,0,1,1.333.766.614.614,0,0,0,.593.113l1.576-.535.725,1.255-1.25,1.1a.614.614,0,0,0-.2.571,4.628,4.628,0,0,1,0,1.536.614.614,0,0,0,.2.571l1.255,1.1-.725,1.255-1.581-.535a.613.613,0,0,0-.593.113,4.3,4.3,0,0,1-1.327.771.613.613,0,0,0-.394.457l-.331,1.636h-1.45l-.326-1.64a.613.613,0,0,0-.4-.458,4.3,4.3,0,0,1-1.333-.766.613.613,0,0,0-.589-.109l-1.581.535-.725-1.255,1.255-1.105a.614.614,0,0,0,.2-.571,4.089,4.089,0,0,1,0-1.531.614.614,0,0,0-.2-.575l-1.255-1.1.725-1.255,1.586.535a.614.614,0,0,0,.593-.113,4.276,4.276,0,0,1,.861-.567.615.615,0,1,0-.548-1.1,5.767,5.767,0,0,0-.827.513l-1.747-.59a.613.613,0,0,0-.729.271l-1.229,2.13a.613.613,0,0,0,.127.765l1.383,1.215a4.3,4.3,0,0,0,0,1.273l-1.381,1.213a.615.615,0,0,0-.127.771l1.229,2.125a.613.613,0,0,0,.729.276l1.743-.592a5.354,5.354,0,0,0,1.1.632l.363,1.809a.614.614,0,0,0,.6.494h2.455a.614.614,0,0,0,.6-.494l.36-1.8a5.335,5.335,0,0,0,1.1-.637l1.753.592a.614.614,0,0,0,.725-.276l1.227-2.125a.615.615,0,0,0-.122-.771l-1.385-1.217a4.664,4.664,0,0,0,0-1.263l1.387-1.221a.613.613,0,0,0,.122-.765l-1.224-2.13a.613.613,0,0,0-.729-.271l-1.745.587a5.184,5.184,0,0,0-1.1-.629l-.367-1.811a.614.614,0,0,0-.6-.494Zm1.227,4.911a2.456,2.456,0,1,0,2.456,2.455A2.465,2.465,0,0,0,18.94,296.559Zm0,1.228a1.228,1.228,0,1,1-1.227,1.227A1.218,1.218,0,0,1,18.94,297.786Zm-17.8.611a.614.614,0,1,0,0,1.228H4.827a.614.614,0,1,0,0-1.228Zm31.913,0a.614.614,0,1,0,0,1.228H36.74a.614.614,0,1,0,0-1.228ZM6.68,305.452a.615.615,0,0,0-.272.086l-3.19,1.844a.614.614,0,1,0,.616,1.06l3.19-1.839a.614.614,0,0,0-.344-1.151Zm24.437,0a.614.614,0,0,0-.258,1.151l3.19,1.839a.614.614,0,1,0,.611-1.06l-3.19-1.844a.615.615,0,0,0-.354-.086Zm-16.473,5.835h8.595v1.839H14.645Z" transform="translate(0 0)"/>
  </g>
</svg>
