<svg xmlns="http://www.w3.org/2000/svg" xmlns:xlink="http://www.w3.org/1999/xlink" width="418" height="315" viewBox="0 0 418 315">
  <defs>
    <filter id="representation-collective-mind-process-concept-digital-art-style" x="0" y="77" width="418" height="163" filterUnits="userSpaceOnUse">
      <feOffset dy="3" input="SourceAlpha"/>
      <feGaussianBlur stdDeviation="3" result="blur"/>
      <feFlood flood-opacity="0.161"/>
      <feComposite operator="in" in2="blur"/>
      <feComposite in="SourceGraphic"/>
    </filter>
    <clipPath id="clip-path">
      <rect id="Rectángulo_408300" data-name="Rectángulo 408300" width="277" height="315" transform="translate(1042 4812.293)" fill="#fff" stroke="#707070" stroke-width="1"/>
    </clipPath>
    <clipPath id="clip-path-2">
      <rect id="Rectángulo_408299" data-name="Rectángulo 408299" width="277.354" height="315.565" fill="none"/>
    </clipPath>
    <clipPath id="clip-path-4">
      <path id="Trazado_985851" data-name="Trazado 985851" d="M186.084,233.961l-1.24,81.392-9.736,14.187,4.471,11.4c46.349,16.833,62.011-.258,62.011-.258l-8.456-9.525,21.224-48.032-17.065-47.68s-12.461-6.915-24.418-7.049l-.57,0c-13.824,0-26.221,5.565-26.221,5.565" transform="translate(-175.108 -228.396)" fill="none"/>
    </clipPath>
    <clipPath id="clip-path-5">
      <path id="Trazado_985854" data-name="Trazado 985854" d="M194.508,327.764c21.037-4.876,50.52.195,50.52.195s4.119-75.091.941-74.311-23.738,15.8-25.2,14.238-24.286-17.05-24.286-17.05Z" transform="translate(-194.508 -250.837)" fill="none"/>
    </clipPath>
    <clipPath id="clip-path-7">
      <path id="Trazado_985859" data-name="Trazado 985859" d="M233.071,192.556l-10.077-5.63,2.137,27.231a31.876,31.876,0,0,0,7.72,1.206v.007c.074,0,.147,0,.22,0s.147,0,.22,0v-.007a31.875,31.875,0,0,0,7.719-1.206l2.137-27.231Z" transform="translate(-222.994 -186.926)" fill="none"/>
    </clipPath>
    <clipPath id="clip-path-9">
      <path id="Trazado_985867" data-name="Trazado 985867" d="M191.157,129.618s-4.707,6.586-3.6,12.181c1.216,6.158,24.465,25.213,29.922,25.553,5.885.366,28.881-19.064,29.394-25.553.449-5.685-3.6-12.181-3.6-12.181l-26.055-4.461Z" transform="translate(-187.387 -125.157)" fill="none"/>
    </clipPath>
    <clipPath id="clip-path-11">
      <path id="Trazado_985873" data-name="Trazado 985873" d="M165.833,426.264c-22.563,20.024-22.563,52.409-22.563,52.409,21.816,4.716,28.394,5.843,44.419,4.052,2.077-.232,4.764-26.838,6.756-26.809l5.071.394c1.91,7.292,10.179,27.284,11.379,27.283,34.387-.036,41.763-4.6,41.763-4.6,0-15.191-7.038-37.26-24.813-52.987-17.015,8.376-38.031,7.679-62.011.258" transform="translate(-143.27 -426.006)" fill="none"/>
    </clipPath>
    <clipPath id="clip-path-13">
      <path id="Trazado_985879" data-name="Trazado 985879" d="M122.321,238.258c-6.594,7.651-1.58,19.021-1.58,19.021s11.6,22.12,13.879,25.56,10.119,5.263,9,8.522-30.8,26.544-26.838,45.005,26.374,15.3,31.575,14.77,5.085-2.9,5.883-9.231,25.048-46.946,24.784-61.188-20.183-48.379-20.183-48.379c-6.1,1.966-12.486,1.941-16.708-.676a8.666,8.666,0,0,0-4.49-1.039c-4.5,0-10.645,2.206-15.323,7.635" transform="translate(-116.419 -230.623)" fill="none"/>
    </clipPath>
    <clipPath id="clip-path-14">
      <rect id="Rectángulo_408275" data-name="Rectángulo 408275" width="107.888" height="85.229" fill="none"/>
    </clipPath>
    <clipPath id="clip-path-16">
      <path id="Trazado_985882" data-name="Trazado 985882" d="M73.92,300.45c8.832,13.933,32.874,24.514,32.874,12.784s-13.755-21.291-13.755-21.291c-11.061,14.4-19.12,8.507-19.12,8.507" transform="translate(-73.92 -291.943)" fill="none"/>
    </clipPath>
    <clipPath id="clip-path-17">
      <rect id="Rectángulo_408277" data-name="Rectángulo 408277" width="31.049" height="26.345" fill="none"/>
    </clipPath>
    <clipPath id="clip-path-19">
      <path id="Trazado_985894" data-name="Trazado 985894" d="M292.527,233.525c-4.222,2.616-12.559,2.084-18.659.119,0,0-17.969,34.694-18.233,48.937s23.987,54.858,24.785,61.187.681,8.7,5.882,9.231,27.619,3.692,31.575-14.77-25.721-41.746-26.838-45.006,6.723-5.082,9-8.522,13.879-25.56,13.879-25.56,5.014-11.369-1.58-19.021c-4.678-5.429-10.821-7.635-15.323-7.635a8.664,8.664,0,0,0-4.49,1.039" transform="translate(-255.633 -232.486)" fill="none"/>
    </clipPath>
    <clipPath id="clip-path-20">
      <rect id="Rectángulo_408279" data-name="Rectángulo 408279" width="107.888" height="85.23" fill="none"/>
    </clipPath>
    <clipPath id="clip-path-22">
      <path id="Trazado_985897" data-name="Trazado 985897" d="M350.457,315.1c0,11.73,24.043,1.15,32.875-12.784,0,0-8.058,5.894-19.12-8.507,0,0-13.755,9.561-13.755,21.291" transform="translate(-350.457 -293.805)" fill="none"/>
    </clipPath>
  </defs>
  <g id="Grupo_1150196" data-name="Grupo 1150196" transform="translate(-965 -4834)">
    <g transform="matrix(1, 0, 0, 1, 965, 4834)" filter="url(#representation-collective-mind-process-concept-digital-art-style)">
      <rect id="representation-collective-mind-process-concept-digital-art-style-2" data-name="representation-collective-mind-process-concept-digital-art-style" width="400" height="145" rx="72.5" transform="translate(9 83)" fill="#a530fe" opacity="0.74"/>
    </g>
    <g id="Enmascarar_grupo_1098764" data-name="Enmascarar grupo 1098764" transform="translate(-1 21.707)" clip-path="url(#clip-path)">
      <g id="Grupo_1150147" data-name="Grupo 1150147" transform="translate(1042.067 4835)">
        <g id="Grupo_1150195" data-name="Grupo 1150195" clip-path="url(#clip-path-2)">
          <g id="Grupo_1150148" data-name="Grupo 1150148">
            <g id="Grupo_1150147-2" data-name="Grupo 1150147" clip-path="url(#clip-path-2)">
              <path id="Trazado_985843" data-name="Trazado 985843" d="M318.249,457.419c5.835-1.891,9.376-.715,9.957,2.343s5.286,19.993,3.874,21.874-10.113,3.275-10.113,3.275Z" transform="translate(-137.408 -197.102)" fill="#d19834"/>
              <path id="Trazado_985844" data-name="Trazado 985844" d="M250.111,187.948c-10.326-12.148-43.732-3.366-49.2-3.974-5.466.607-38.872-8.174-49.2,3.974s31.584,40.694,49.2,40.694,59.523-28.547,49.2-40.694" transform="translate(-64.808 -78.352)" fill="#25214c"/>
              <path id="Trazado_985845" data-name="Trazado 985845" d="M281,113.4s7.985,13.415,18.547,15.877,12.241-4.711,12.241-4.711-.708,12.567-19.848,8.865c0,0,.121,10.468,13.127,12.582,0,0-17.253,16.664-40.523,9.621S281,113.4,281,113.4" transform="translate(-111.064 -48.963)" fill="#982da8"/>
              <path id="Trazado_985846" data-name="Trazado 985846" d="M161.209,113.4s-7.985,13.415-18.547,15.877-12.241-4.711-12.241-4.711.708,12.567,19.848,8.865c0,0-.121,10.468-13.127,12.582,0,0,17.253,16.664,40.523,9.621S161.209,113.4,161.209,113.4" transform="translate(-56.311 -48.963)" fill="#982da8"/>
              <path id="Trazado_985847" data-name="Trazado 985847" d="M244.347,42.184s.418-12.534-4.178-16.646S224.5,16.726,223.041,12.025,216.356-2.663,204.659.667s-8.773,9.6-10.653,11.359S161.837,29.7,173.117,44.362s71.23-2.178,71.23-2.178" transform="translate(-73.662 0)" fill="#8356db"/>
              <path id="Trazado_985848" data-name="Trazado 985848" d="M245.629,78.607s5.431-10.379,3.969-15.471-57.026-23.3-83.763,4.7c0,0,5.222,9.792,8.982,13.709,0,0,29.871-12.142,70.813-2.938" transform="translate(-71.601 -22.714)" fill="#6b47c4"/>
              <path id="Trazado_985849" data-name="Trazado 985849" d="M212.875,228.4c11.958.134,24.419,7.049,24.419,7.049l17.065,47.68L233.135,331.16l8.456,9.525s-15.662,17.091-62.011.258l-4.471-11.4,9.736-14.187,1.24-81.392s12.74-5.719,26.791-5.561" transform="translate(-75.605 -98.613)" fill="#483aa9"/>
            </g>
          </g>
          <g id="Grupo_1150150" data-name="Grupo 1150150" transform="translate(99.503 129.783)">
            <g id="Grupo_1150149" data-name="Grupo 1150149" clip-path="url(#clip-path-4)">
              <path id="Trazado_985850" data-name="Trazado 985850" d="M196.485,250.836s22.827,15.49,24.286,17.05,22.019-13.458,25.2-14.238-.941,74.311-.941,74.311-29.482-5.072-50.52-.2Z" transform="translate(-183.484 -238.085)" fill="#483aa9"/>
            </g>
          </g>
          <g id="Grupo_1150152" data-name="Grupo 1150152" transform="translate(110.527 142.535)">
            <g id="Grupo_1150151" data-name="Grupo 1150151" clip-path="url(#clip-path-5)">
              <path id="Trazado_985852" data-name="Trazado 985852" d="M187.953,259.268s24.674,18.59,26.432,18.217,37.065-20.069,37.065-20.069l2.185-22.186-73.41,1.883Z" transform="translate(-188.342 -244.098)" fill="#25214c"/>
              <path id="Trazado_985853" data-name="Trazado 985853" d="M187.387,375.707s37.371-9.046,63.277.7l-7.77,10.29-54.462-2.4Z" transform="translate(-191.433 -303.101)" fill="#25214c"/>
            </g>
          </g>
          <g id="Grupo_1150154" data-name="Grupo 1150154">
            <g id="Grupo_1150153" data-name="Grupo 1150153" clip-path="url(#clip-path-2)">
              <path id="Trazado_985855" data-name="Trazado 985855" d="M142.684,470.166s-13.421,2.95-14.008,6.154,11.878,0,11.878,0Z" transform="translate(-55.549 -203)" fill="#472d87"/>
              <path id="Trazado_985856" data-name="Trazado 985856" d="M243.148,186.926l-10.077,5.63-10.077-5.63,2.137,27.231a31.891,31.891,0,0,0,7.719,1.205v.007c.073,0,.147,0,.22,0s.145,0,.22,0v-.007a31.9,31.9,0,0,0,7.719-1.205Z" transform="translate(-96.281 -80.708)" fill="#cc6a56"/>
            </g>
          </g>
          <g id="Grupo_1150156" data-name="Grupo 1150156" transform="translate(126.714 106.218)">
            <g id="Grupo_1150155" data-name="Grupo 1150155" clip-path="url(#clip-path-7)">
              <path id="Trazado_985857" data-name="Trazado 985857" d="M222.994,184.8s3.516,11.224,9.91,11.224,10.741-13.125,10.741-13.125Z" transform="translate(-222.994 -185.186)" fill="#a04738"/>
              <path id="Trazado_985858" data-name="Trazado 985858" d="M220.3,210.937s8.217,8.591,22.286.249l-1.249,17.551H218.809Z" transform="translate(-221.187 -197.293)" fill="#483aa9"/>
            </g>
          </g>
          <g id="Grupo_1150158" data-name="Grupo 1150158">
            <g id="Grupo_1150157" data-name="Grupo 1150157" clip-path="url(#clip-path-2)">
              <path id="Trazado_985860" data-name="Trazado 985860" d="M178.822,122.877s-6.77-6.751-12.08,0-2.655,19.1,14.47,20.69c0,0,3.888-15.521-2.389-20.69" transform="translate(-70.934 -51.758)" fill="#cc6a56"/>
              <path id="Trazado_985861" data-name="Trazado 985861" d="M183.055,134.344s-4-11.157-9.048-7.746-2.617,15.671,7.072,16.735-4.031-5.017-3.512-7.984,6.985,2.278,5.488-1.005" transform="translate(-74.024 -54.38)" fill="#a04738"/>
              <path id="Trazado_985862" data-name="Trazado 985862" d="M286.993,122.877s6.77-6.751,12.08,0,2.655,19.1-14.47,20.69c0,0-3.888-15.521,2.389-20.69" transform="translate(-122.367 -51.758)" fill="#cc6a56"/>
              <path id="Trazado_985863" data-name="Trazado 985863" d="M286.565,134.344s4-11.157,9.047-7.746,2.617,15.671-7.072,16.735,4.031-5.017,3.512-7.984-6.985,2.278-5.488-1.005" transform="translate(-123.082 -54.38)" fill="#a04738"/>
              <path id="Trazado_985864" data-name="Trazado 985864" d="M243.268,129.618l-26.055-4.461-26.056,4.461s-4.707,6.586-3.6,12.181c1.216,6.158,24.465,25.213,29.922,25.553,5.885.366,28.881-19.064,29.394-25.553.449-5.685-3.6-12.181-3.6-12.181" transform="translate(-80.906 -54.038)" fill="#f29875"/>
            </g>
          </g>
          <g id="Grupo_1150160" data-name="Grupo 1150160" transform="translate(106.48 71.119)">
            <g id="Grupo_1150159" data-name="Grupo 1150159" clip-path="url(#clip-path-9)">
              <path id="Trazado_985865" data-name="Trazado 985865" d="M185.365,142.131s-.893,7.887,3.918,13.26,17.963,18.98,17.963,18.98l-27.019-21.627,1.563-9.127Z" transform="translate(-184.295 -132.486)" fill="#ffdacf"/>
              <path id="Trazado_985866" data-name="Trazado 985866" d="M273.684,143.209s.893,7.887-3.919,13.26-17.962,18.98-17.962,18.98l27.019-21.627-1.563-9.127Z" transform="translate(-215.199 -132.951)" fill="#ffdacf"/>
            </g>
          </g>
          <g id="Grupo_1150162" data-name="Grupo 1150162">
            <g id="Grupo_1150161" data-name="Grupo 1150161" clip-path="url(#clip-path-2)">
              <path id="Trazado_985868" data-name="Trazado 985868" d="M227.183,80.508a116.945,116.945,0,0,0-32.274,0,105.1,105.1,0,0,0-20.235,4.76,2.356,2.356,0,0,0-1.535,2.629c1.018,5.832,4.7,22.922,13.068,24.169a34.99,34.99,0,0,0,20.078-2.761,5.2,5.2,0,0,0,.831-.538,6.538,6.538,0,0,1,7.86,0c3.567,2.012,10.036,4.67,20.909,3.3,8.366-1.248,12.049-18.338,13.068-24.17a2.356,2.356,0,0,0-1.535-2.629,105.082,105.082,0,0,0-20.235-4.76" transform="translate(-74.739 -34.277)" fill="#25214c"/>
              <path id="Trazado_985869" data-name="Trazado 985869" d="M232.774,144.13c0,.509,1.925.921,4.3.921s4.3-.412,4.3-.921-1.925-.921-4.3-.921-4.3.413-4.3.921" transform="translate(-100.503 -61.832)" fill="#cc6a56"/>
              <path id="Trazado_985870" data-name="Trazado 985870" d="M165.833,426.264c-22.562,20.025-22.562,52.409-22.562,52.409,21.816,4.716,28.394,5.843,44.418,4.052,2.078-.232,4.764-26.838,6.756-26.809l5.071.394c1.91,7.292,10.18,27.284,11.379,27.283,34.387-.036,41.763-4.6,41.763-4.6,0-15.19-7.038-37.26-24.813-52.987-17.015,8.376-38.031,7.679-62.011.258" transform="translate(-61.859 -183.933)" fill="#efce43"/>
            </g>
          </g>
          <g id="Grupo_1150164" data-name="Grupo 1150164" transform="translate(81.411 242.073)">
            <g id="Grupo_1150163" data-name="Grupo 1150163" clip-path="url(#clip-path-11)">
              <path id="Trazado_985871" data-name="Trazado 985871" d="M308.555,443.642s17.234,31.641,15.466,55.135,8.6-10.135,8.6-10.135l-2.3-27.87Z" transform="translate(-214.634 -433.621)" fill="#fff7d4"/>
              <path id="Trazado_985872" data-name="Trazado 985872" d="M153.224,433.64s-17.234,31.641-15.466,55.135-8.6-10.135-8.6-10.135l2.3-27.87Z" transform="translate(-137.178 -429.302)" fill="#fff7d4"/>
            </g>
          </g>
          <g id="Grupo_1150166" data-name="Grupo 1150166">
            <g id="Grupo_1150165" data-name="Grupo 1150165" clip-path="url(#clip-path-2)">
              <path id="Trazado_985874" data-name="Trazado 985874" d="M219.535,426.006l8.536,4.987s-31.37,37.354-104.046,40.749l2.651-14.489s67.486.214,92.859-31.247" transform="translate(-53.549 -183.933)" fill="#d063e0"/>
              <path id="Trazado_985875" data-name="Trazado 985875" d="M120.74,257.279s-5.014-11.369,1.58-19.021,16.094-8.9,19.813-6.6c4.222,2.617,10.608,2.641,16.708.676,0,0,19.919,34.137,20.183,48.379s-23.986,54.858-24.785,61.187-.681,8.7-5.882,9.231-27.619,3.692-31.575-14.77,25.721-41.746,26.838-45.005-6.724-5.082-9-8.522-13.879-25.56-13.879-25.56" transform="translate(-50.265 -99.575)" fill="#8356db"/>
            </g>
          </g>
          <g id="Grupo_1150171" data-name="Grupo 1150171" transform="translate(66.154 131.049)">
            <g id="Grupo_1150170" data-name="Grupo 1150170" clip-path="url(#clip-path-13)">
              <g id="Grupo_1150169" data-name="Grupo 1150169" transform="translate(-43.477 44.825)" opacity="0.23">
                <g id="Grupo_1150168" data-name="Grupo 1150168" transform="translate(0)">
                  <g id="Grupo_1150167" data-name="Grupo 1150167" clip-path="url(#clip-path-14)">
                    <path id="Trazado_985876" data-name="Trazado 985876" d="M39.908,372.275c0,11.331,54.134,22.461,83.819,22.461s23.542-72.5,23.542-83.828-16.189,50.06-53.611,40.851c-28.826-7.093-53.75,9.185-53.75,20.516" transform="translate(-39.908 -309.507)" fill="#472d87"/>
                  </g>
                </g>
              </g>
              <path id="Trazado_985877" data-name="Trazado 985877" d="M124.384,332.2c4.4,3.895-21.874,32.088-25.351,48.022s-23.721-1.7-23.721-1.7L107.4,344.276Z" transform="translate(-98.671 -274.481)" fill="#d5bbff"/>
              <path id="Trazado_985878" data-name="Trazado 985878" d="M119.046,239.293s7.322-18.728,23.082-15.437-12.9-11.314-12.9-11.314l-8.491,6.824s-4.169,11.192-4.322,11.6,2.632,8.326,2.632,8.326" transform="translate(-116.415 -222.816)" fill="#d5bbff"/>
            </g>
          </g>
          <g id="Grupo_1150173" data-name="Grupo 1150173">
            <g id="Grupo_1150172" data-name="Grupo 1150172" clip-path="url(#clip-path-2)">
              <path id="Trazado_985880" data-name="Trazado 985880" d="M93.039,291.943s13.755,9.561,13.755,21.291-24.043,1.15-32.874-12.784c0,0,8.058,5.894,19.12-8.507" transform="translate(-31.916 -126.05)" fill="#f29875"/>
            </g>
          </g>
          <g id="Grupo_1150178" data-name="Grupo 1150178" transform="translate(42.004 165.893)">
            <g id="Grupo_1150177" data-name="Grupo 1150177" clip-path="url(#clip-path-16)">
              <g id="Grupo_1150176" data-name="Grupo 1150176" transform="translate(4.419 -3.255)" opacity="0.69">
                <g id="Grupo_1150175" data-name="Grupo 1150175">
                  <g id="Grupo_1150174" data-name="Grupo 1150174" clip-path="url(#clip-path-17)">
                    <path id="Trazado_985881" data-name="Trazado 985881" d="M99.389,287.157s16.241,14.461,12.9,21.612-24.948,4.608-29.875-11.282,16.972-10.329,16.972-10.329" transform="translate(-81.696 -286.214)" fill="#cc6a56"/>
                  </g>
                </g>
              </g>
            </g>
          </g>
          <g id="Grupo_1150180" data-name="Grupo 1150180">
            <g id="Grupo_1150179" data-name="Grupo 1150179" clip-path="url(#clip-path-2)">
              <path id="Trazado_985883" data-name="Trazado 985883" d="M121.322,283.965s11.149,3.406,11.992,20.441a98.759,98.759,0,0,0-13.105,8.841s5.632-11.14-12.642-24.749Z" transform="translate(-46.443 -122.605)" fill="#8356db"/>
              <path id="Trazado_985884" data-name="Trazado 985884" d="M114.36,195.145c0,2.45-5.733,16.094-6.8,29.222l-5.92-2.645s3.661-16.695,4.441-21.206c1.426-8.245,8.277-7.821,8.277-5.372" transform="translate(-43.885 -83.586)" fill="#f29875"/>
              <path id="Trazado_985885" data-name="Trazado 985885" d="M94.221,185.353c.561,2.723-1.925,19.044.043,33.85l-6.405-1.743s-.241-19.294-.512-24.465c-.494-9.451,6.313-10.365,6.875-7.642" transform="translate(-37.702 -79.451)" fill="#f29875"/>
              <path id="Trazado_985886" data-name="Trazado 985886" d="M69.905,192.709c1.084,2.516,2.033,18.719,6.9,32.61l-6.422-.453s-4.136-18.546-5.439-23.477c-2.382-9.013,3.883-11.2,4.966-8.68" transform="translate(-27.807 -82.784)" fill="#f29875"/>
              <path id="Trazado_985887" data-name="Trazado 985887" d="M54.252,212.185c1.213,2.05,3.5,16.106,9.169,27.582l-5.919.514s-5.411-15.655-7.035-19.789c-2.97-7.555,2.574-10.357,3.786-8.307" transform="translate(-21.416 -91.332)" fill="#f29875"/>
              <path id="Trazado_985888" data-name="Trazado 985888" d="M118.055,267.729c4.491-3.072,12.748-1.89,12.625.57s.492,4.921-3.691,6.767a113.123,113.123,0,0,1-12.863,4.056s-.453-8.4,3.929-11.394" transform="translate(-49.269 -114.801)" fill="#f29875"/>
              <path id="Trazado_985889" data-name="Trazado 985889" d="M71.792,280.511c9.423.363,15.715-10.019,15.715-10.019l3.733-1.572s.786-9.036,3.929-11.394h-5.7l.589-12.148s-15.2-9.309-28.955,4.246c0,0,.47,30.494,10.686,30.887" transform="translate(-26.383 -104.599)" fill="#25214c"/>
              <path id="Trazado_985890" data-name="Trazado 985890" d="M313.919,259.141s5.014-11.369-1.58-19.021-16.094-8.9-19.813-6.6c-4.222,2.616-12.559,2.084-18.659.119,0,0-17.968,34.694-18.232,48.936s23.987,54.858,24.785,61.187.681,8.7,5.882,9.231,27.619,3.692,31.575-14.77-25.721-41.746-26.838-45.005,6.724-5.082,9-8.522,13.879-25.56,13.879-25.56" transform="translate(-110.373 -100.378)" fill="#8356db"/>
            </g>
          </g>
          <g id="Grupo_1150185" data-name="Grupo 1150185" transform="translate(145.261 132.107)">
            <g id="Grupo_1150184" data-name="Grupo 1150184" clip-path="url(#clip-path-19)">
              <g id="Grupo_1150183" data-name="Grupo 1150183" transform="translate(-1.804 44.824)" opacity="0.23">
                <g id="Grupo_1150182" data-name="Grupo 1150182">
                  <g id="Grupo_1150181" data-name="Grupo 1150181" clip-path="url(#clip-path-20)">
                    <path id="Trazado_985891" data-name="Trazado 985891" d="M360.347,374.136c0,11.331-54.134,22.461-83.819,22.461s-23.542-72.5-23.542-83.828,16.189,50.06,53.611,40.851c28.826-7.093,53.75,9.185,53.75,20.516" transform="translate(-252.459 -311.368)" fill="#472d87"/>
                  </g>
                </g>
              </g>
              <path id="Trazado_985892" data-name="Trazado 985892" d="M321.576,335.655c-4.4,3.895,21.874,32.088,25.351,48.022s23.721-1.7,23.721-1.7l-32.083-34.248Z" transform="translate(-283.891 -277.03)" fill="#d5bbff"/>
              <path id="Trazado_985893" data-name="Trazado 985893" d="M340.047,241.155s-7.322-18.728-23.082-15.437,12.9-11.314,12.9-11.314l8.491,6.824s4.169,11.192,4.322,11.6-2.632,8.326-2.632,8.326" transform="translate(-280.071 -224.679)" fill="#d5bbff"/>
            </g>
          </g>
          <g id="Grupo_1150187" data-name="Grupo 1150187">
            <g id="Grupo_1150186" data-name="Grupo 1150186" clip-path="url(#clip-path-2)">
              <path id="Trazado_985895" data-name="Trazado 985895" d="M364.212,293.8s-13.755,9.561-13.755,21.291,24.043,1.15,32.874-12.784c0,0-8.058,5.894-19.12-8.507" transform="translate(-151.314 -126.854)" fill="#f29875"/>
            </g>
          </g>
          <g id="Grupo_1150192" data-name="Grupo 1150192" transform="translate(199.143 166.951)">
            <g id="Grupo_1150191" data-name="Grupo 1150191" clip-path="url(#clip-path-22)">
              <g id="Grupo_1150190" data-name="Grupo 1150190" transform="translate(-2.593 -3.255)" opacity="0.69">
                <g id="Grupo_1150189" data-name="Grupo 1150189">
                  <g id="Grupo_1150188" data-name="Grupo 1150188" clip-path="url(#clip-path-17)">
                    <path id="Trazado_985896" data-name="Trazado 985896" d="M359.249,289.018s-16.241,14.461-12.9,21.612,24.948,4.608,29.875-11.282-16.971-10.329-16.971-10.329" transform="translate(-345.894 -288.076)" fill="#cc6a56"/>
                  </g>
                </g>
              </g>
            </g>
          </g>
          <g id="Grupo_1150194" data-name="Grupo 1150194">
            <g id="Grupo_1150193" data-name="Grupo 1150193" clip-path="url(#clip-path-2)">
              <path id="Trazado_985898" data-name="Trazado 985898" d="M341.345,285.827s-11.149,3.406-11.992,20.441a98.807,98.807,0,0,1,13.105,8.841s-5.632-11.14,12.642-24.748Z" transform="translate(-142.202 -123.409)" fill="#8356db"/>
              <path id="Trazado_985899" data-name="Trazado 985899" d="M358.206,197.006c0,2.45,5.733,16.094,6.8,29.222l5.92-2.645s-3.661-16.695-4.441-21.206c-1.426-8.245-8.277-7.821-8.277-5.372" transform="translate(-154.66 -84.39)" fill="#f29875"/>
              <path id="Trazado_985900" data-name="Trazado 985900" d="M382.7,187.215c-.562,2.723,1.925,19.044-.043,33.85l6.405-1.743s.241-19.294.512-24.465c.494-9.451-6.313-10.365-6.875-7.642" transform="translate(-165.2 -80.255)" fill="#f29875"/>
              <path id="Trazado_985901" data-name="Trazado 985901" d="M402.905,194.571c-1.084,2.516-2.033,18.719-6.9,32.61l6.422-.453s4.136-18.546,5.439-23.477c2.382-9.013-3.883-11.2-4.966-8.68" transform="translate(-170.982 -83.588)" fill="#f29875"/>
              <path id="Trazado_985902" data-name="Trazado 985902" d="M417.479,214.046c-1.213,2.05-3.5,16.106-9.169,27.582l5.919.514s5.411-15.656,7.035-19.789c2.97-7.555-2.574-10.357-3.786-8.307" transform="translate(-176.293 -92.136)" fill="#f29875"/>
              <path id="Trazado_985903" data-name="Trazado 985903" d="M351.587,269.591c-4.491-3.073-12.748-1.89-12.625.57s-.492,4.921,3.691,6.767a113.155,113.155,0,0,0,12.863,4.056s.453-8.4-3.929-11.394" transform="translate(-146.35 -115.604)" fill="#f29875"/>
              <path id="Trazado_985904" data-name="Trazado 985904" d="M384.558,282.373c-9.423.363-15.715-10.019-15.715-10.019l-3.733-1.572s-.786-9.036-3.929-11.394h5.7l-.59-12.148s15.2-9.309,28.955,4.246c0,0-.47,30.494-10.686,30.887" transform="translate(-155.944 -105.403)" fill="#25214c"/>
              <path id="Trazado_985905" data-name="Trazado 985905" d="M201.108,107.64c13.88-5.175,31.253-5.773,45.026,0-14.8-1.636-30.184-1.047-45.026,0" transform="translate(-86.831 -44.701)" fill="#44bde2"/>
              <path id="Trazado_985906" data-name="Trazado 985906" d="M156.517,186.358c-14.433,9.788,15.992,11.628,23.364,39.143l-12.855-6.318a109.353,109.353,0,0,0-8.971-10.764c-6.922-7.165-14.064-18.222-1.539-22.061" transform="translate(-64.615 -80.462)" fill="#8356db"/>
              <path id="Trazado_985907" data-name="Trazado 985907" d="M300.652,187.26c14.433,9.788-16.881,12.669-24.253,40.184l13.887-7.872a109.28,109.28,0,0,1,8.971-10.764c6.922-7.165,13.921-17.71,1.4-21.548" transform="translate(-119.339 -80.852)" fill="#8356db"/>
              <path id="Trazado_985908" data-name="Trazado 985908" d="M286.258,297.841c-10.475-7.556-5.531-19.242-1.558-28.631.648-1.53,1.259-2.975,1.777-4.34,1.008-2.652.99-4.737-.054-6.2-1.86-2.6-6.418-2.472-6.467-2.47l-.034-.959c.211-.009,5.116-.151,7.279,2.866,1.245,1.737,1.3,4.125.173,7.1-.524,1.38-1.139,2.834-1.79,4.372-3.841,9.076-8.62,20.371,1.235,27.479Z" transform="translate(-120.86 -110.204)" fill="#d5bbff"/>
              <path id="Trazado_985909" data-name="Trazado 985909" d="M294.239,335.569a.961.961,0,0,1-.9-.618,18.485,18.485,0,0,0-3.372-5.53.96.96,0,1,1,1.454-1.255,20.355,20.355,0,0,1,3.713,6.1.962.962,0,0,1-.9,1.3" transform="translate(-125.097 -141.546)" fill="#25214c"/>
              <path id="Trazado_985910" data-name="Trazado 985910" d="M186.51,297.841c10.475-7.556,5.53-19.242,1.557-28.631-.647-1.53-1.259-2.975-1.777-4.34-1.008-2.652-.99-4.737.054-6.2,1.86-2.6,6.418-2.472,6.467-2.47l.034-.959c-.211-.009-5.116-.151-7.279,2.866-1.245,1.737-1.3,4.125-.173,7.1.525,1.38,1.14,2.834,1.791,4.372,3.841,9.076,8.62,20.371-1.235,27.479Z" transform="translate(-79.698 -110.204)" fill="#d5bbff"/>
              <path id="Trazado_985911" data-name="Trazado 985911" d="M180.652,335.569a.961.961,0,0,0,.9-.618,18.485,18.485,0,0,1,3.372-5.53.96.96,0,0,0-1.454-1.255,20.354,20.354,0,0,0-3.713,6.1.962.962,0,0,0,.9,1.3" transform="translate(-77.584 -141.546)" fill="#25214c"/>
              <path id="Trazado_985912" data-name="Trazado 985912" d="M161.631,364.046a8.251,8.251,0,1,0,9.294-7.056,8.251,8.251,0,0,0-9.294,7.056" transform="translate(-69.753 -154.102)" fill="#25214c"/>
              <path id="Trazado_985913" data-name="Trazado 985913" d="M161.138,363.015a8.251,8.251,0,1,0,9.294-7.056,8.251,8.251,0,0,0-9.294,7.056" transform="translate(-69.54 -153.656)" fill="#fff"/>
              <rect id="Rectángulo_408282" data-name="Rectángulo 408282" width="1.627" height="1.627" transform="translate(99.102 209.292) rotate(-82.213)" fill="#d063e0"/>
              <rect id="Rectángulo_408283" data-name="Rectángulo 408283" width="1.627" height="1.627" transform="translate(97.688 207.456) rotate(-82.213)" fill="#d063e0"/>
              <rect id="Rectángulo_408284" data-name="Rectángulo 408284" width="1.627" height="1.627" transform="translate(96.077 207.235) rotate(-82.21)" fill="#d063e0"/>
              <rect id="Rectángulo_408285" data-name="Rectángulo 408285" width="1.627" height="1.627" transform="translate(96.806 213.903) rotate(-82.213)" fill="#d063e0"/>
              <rect id="Rectángulo_408286" data-name="Rectángulo 408286" width="1.627" height="1.627" transform="translate(98.22 215.739) rotate(-82.213)" fill="#d063e0"/>
              <rect id="Rectángulo_408287" data-name="Rectángulo 408287" width="1.627" height="1.627" transform="translate(95.415 212.071) rotate(-82.213)" fill="#d063e0"/>
              <rect id="Rectángulo_408288" data-name="Rectángulo 408288" width="1.627" height="1.627" transform="translate(94.023 210.238) rotate(-82.213)" fill="#d063e0"/>
              <rect id="Rectángulo_408289" data-name="Rectángulo 408289" width="1.627" height="1.627" transform="translate(94.244 208.627) rotate(-82.213)" fill="#d063e0"/>
              <rect id="Rectángulo_408290" data-name="Rectángulo 408290" width="1.627" height="1.627" transform="matrix(0.136, -0.991, 0.991, 0.136, 99.114, 209.293)" fill="#d063e0"/>
              <rect id="Rectángulo_408291" data-name="Rectángulo 408291" width="1.627" height="1.627" transform="translate(100.969 207.905) rotate(-82.212)" fill="#d063e0"/>
              <rect id="Rectángulo_408292" data-name="Rectángulo 408292" width="1.627" height="1.627" transform="matrix(0.136, -0.991, 0.991, 0.136, 102.581, 208.125)" fill="#d063e0"/>
              <rect id="Rectángulo_408293" data-name="Rectángulo 408293" width="1.627" height="1.627" transform="translate(100.087 214.352) rotate(-82.212)" fill="#d063e0"/>
              <rect id="Rectángulo_408294" data-name="Rectángulo 408294" width="1.627" height="1.627" transform="translate(98.232 215.74) rotate(-82.212)" fill="#d063e0"/>
              <rect id="Rectángulo_408295" data-name="Rectángulo 408295" width="1.627" height="1.627" transform="translate(101.919 212.961) rotate(-82.212)" fill="#d063e0"/>
              <rect id="Rectángulo_408296" data-name="Rectángulo 408296" width="1.627" height="1.627" transform="matrix(0.136, -0.991, 0.991, 0.136, 103.752, 211.57)" fill="#d063e0"/>
              <rect id="Rectángulo_408297" data-name="Rectángulo 408297" width="1.627" height="1.627" transform="translate(103.972 209.958) rotate(-82.213)" fill="#d063e0"/>
              <path id="Trazado_985914" data-name="Trazado 985914" d="M218.468,154.126a37.686,37.686,0,0,0,13.131,2.859,23.776,23.776,0,0,0,11.315-2.859s-2.231,4.228-11.059,4.228-13.387-4.228-13.387-4.228" transform="translate(-94.326 -66.546)" fill="#a04738"/>
              <path id="Trazado_985915" data-name="Trazado 985915" d="M262.31,154.534s-3.014-1.113-3.381-3.394Z" transform="translate(-111.796 -65.257)" fill="#a04738"/>
              <path id="Trazado_985916" data-name="Trazado 985916" d="M275.252,141.354l.851,3.065,2.32,1.4-2.354,1.34-.91,3.055-2.245-2.237-2.944.491L271,145.744l-.972-2.753,2.943.555Z" transform="translate(-116.563 -61.031)" fill="#cc6a56"/>
              <path id="Trazado_985917" data-name="Trazado 985917" d="M204.247,149.552a3.87,3.87,0,0,1-3-6.343,4.243,4.243,0,1,0,4.577,6,3.868,3.868,0,0,1-1.579.341" transform="translate(-85.385 -61.832)" fill="#cc6a56"/>
              <path id="Trazado_985918" data-name="Trazado 985918" d="M91.189,122.264a9.938,9.938,0,1,1,9.938-9.938,9.95,9.95,0,0,1-9.938,9.938m0-17.382a7.444,7.444,0,1,0,7.444,7.444,7.453,7.453,0,0,0-7.444-7.444" transform="translate(-35.081 -44.207)" fill="#fff"/>
              <path id="Trazado_985919" data-name="Trazado 985919" d="M54.184,106.714h-23.5a1.247,1.247,0,1,1,0-2.494h23.5a1.247,1.247,0,0,1,0,2.494" transform="translate(-12.712 -44.998)" fill="#fff"/>
              <path id="Trazado_985920" data-name="Trazado 985920" d="M63.111,115.122H51.363a1.247,1.247,0,0,1,0-2.494H63.111a1.247,1.247,0,0,1,0,2.494" transform="translate(-21.638 -48.628)" fill="#fff"/>
              <path id="Trazado_985921" data-name="Trazado 985921" d="M69.694,385.374a1.247,1.247,0,0,1-1.247-1.247v-23.5a1.247,1.247,0,0,1,2.493,0v23.5a1.247,1.247,0,0,1-1.247,1.247" transform="translate(-29.553 -155.168)" fill="#fff"/>
              <path id="Trazado_985922" data-name="Trazado 985922" d="M61.285,394.3a1.247,1.247,0,0,1-1.247-1.247V381.306a1.247,1.247,0,0,1,2.493,0v11.748a1.247,1.247,0,0,1-1.247,1.247" transform="translate(-25.922 -164.095)" fill="#fff"/>
              <path id="Trazado_985923" data-name="Trazado 985923" d="M51.968,397.93a1.247,1.247,0,0,1-1.247-1.247v-6.972a1.247,1.247,0,1,1,2.493,0v6.972a1.247,1.247,0,0,1-1.247,1.247" transform="translate(-21.899 -167.724)" fill="#fff"/>
              <path id="Trazado_985924" data-name="Trazado 985924" d="M407.669,385.374a1.247,1.247,0,0,1-1.247-1.247v-23.5a1.247,1.247,0,0,1,2.493,0v23.5a1.247,1.247,0,0,1-1.247,1.247" transform="translate(-175.478 -155.168)" fill="#fff"/>
              <path id="Trazado_985925" data-name="Trazado 985925" d="M416.078,394.3a1.247,1.247,0,0,1-1.247-1.247V381.306a1.247,1.247,0,1,1,2.493,0v11.748a1.247,1.247,0,0,1-1.247,1.247" transform="translate(-179.108 -164.095)" fill="#fff"/>
              <path id="Trazado_985926" data-name="Trazado 985926" d="M425.4,397.93a1.247,1.247,0,0,1-1.247-1.247v-6.972a1.247,1.247,0,1,1,2.493,0v6.972a1.247,1.247,0,0,1-1.247,1.247" transform="translate(-183.131 -167.724)" fill="#fff"/>
              <path id="Trazado_985927" data-name="Trazado 985927" d="M57.478,260.537a50.281,50.281,0,1,1,50.282-50.281,50.338,50.338,0,0,1-50.282,50.281m0-98.069a47.787,47.787,0,1,0,47.788,47.788,47.842,47.842,0,0,0-47.788-47.788" transform="translate(-3.107 -69.071)" fill="#fff"/>
              <path id="Trazado_985928" data-name="Trazado 985928" d="M11.319,254a5.659,5.659,0,1,0-5.66,5.66,5.659,5.659,0,0,0,5.66-5.66" transform="translate(0 -107.225)" fill="#fff"/>
              <path id="Trazado_985929" data-name="Trazado 985929" d="M361.4,260.537a50.281,50.281,0,1,1,50.282-50.281A50.338,50.338,0,0,1,361.4,260.537m0-98.069a47.787,47.787,0,1,0,47.788,47.788A47.842,47.842,0,0,0,361.4,162.468" transform="translate(-134.331 -69.071)" fill="#fff"/>
              <path id="Trazado_985930" data-name="Trazado 985930" d="M315.245,254a5.659,5.659,0,1,0-5.66,5.66,5.66,5.66,0,0,0,5.66-5.66" transform="translate(-131.224 -107.225)" fill="#fff"/>
              <path id="Trazado_985931" data-name="Trazado 985931" d="M368.775,106.127v14.2a1.247,1.247,0,0,1-2.494,0v-14.2a2.774,2.774,0,0,0-.816-1.97L353.307,92a1.247,1.247,0,0,1,1.763-1.763L367.23,102.4a5.248,5.248,0,0,1,1.546,3.731" transform="translate(-152.387 -38.803)" fill="#fff"/>
              <path id="Trazado_985932" data-name="Trazado 985932" d="M352.571,67.447a6.052,6.052,0,1,1-6.053-6.051V63.89a3.558,3.558,0,1,0,3.559,3.557Z" transform="translate(-147.001 -26.508)" fill="#fff"/>
              <path id="Trazado_985933" data-name="Trazado 985933" d="M380.065,67.447a6.051,6.051,0,1,1-6.051-6.051V63.89a3.558,3.558,0,1,0,3.557,3.557Z" transform="translate(-158.872 -26.508)" fill="#fff"/>
            </g>
          </g>
        </g>
      </g>
    </g>
  </g>
</svg>
