<svg xmlns="http://www.w3.org/2000/svg" xmlns:xlink="http://www.w3.org/1999/xlink" width="110" height="110" viewBox="0 0 110 110">
  <defs>
    <filter id="Trazado_982547" x="0" y="0" width="110" height="110" filterUnits="userSpaceOnUse">
      <feOffset dy="3" input="SourceAlpha"/>
      <feGaussianBlur stdDeviation="3" result="blur"/>
      <feFlood flood-opacity="0.161"/>
      <feComposite operator="in" in2="blur"/>
      <feComposite in="SourceGraphic"/>
    </filter>
  </defs>
  <g id="Grupo_1150331" data-name="Grupo 1150331" transform="translate(-273 -5987)">
    <g id="Grupo_1150031" data-name="Grupo 1150031" transform="translate(-1 1128)">
      <g id="Grupo_1149673" data-name="Grupo 1149673" transform="translate(283 4865)">
        <g id="Grupo_1148532" data-name="Grupo 1148532" transform="translate(0)">
          <g id="Grupo_1147065" data-name="Grupo 1147065" transform="translate(0 0)">
            <g transform="matrix(1, 0, 0, 1, -9, -6)" filter="url(#Trazado_982547)">
              <g id="Trazado_982547-2" data-name="Trazado 982547" transform="translate(9 6)" fill="#f6f9fc">
                <path d="M 46.00000381469727 90.5 C 39.99188232421875 90.5 34.16427230834961 89.32364654541016 28.67905807495117 87.00359344482422 C 23.38020324707031 84.76236724853516 18.62103080749512 81.55355072021484 14.53375053405762 77.46625518798828 C 10.44645690917969 73.37897491455078 7.237643718719482 68.61980438232422 4.996417045593262 63.32094955444336 C 2.676363706588745 57.83573532104492 1.500003814697266 52.00812530517578 1.500003814697266 46.00000381469727 C 1.500003814697266 39.99188232421875 2.676363706588745 34.16427230834961 4.996417045593262 28.67905807495117 C 7.237643718719482 23.38020324707031 10.44645690917969 18.62104415893555 14.53375053405762 14.53375053405762 C 18.62103080749512 10.44647026062012 23.38020324707031 7.237643718719482 28.67905807495117 4.996417045593262 C 34.16427230834961 2.676363706588745 39.99188232421875 1.500003814697266 46.00000381469727 1.500003814697266 C 52.00812530517578 1.500003814697266 57.83573532104492 2.676363706588745 63.32094955444336 4.996417045593262 C 68.61980438232422 7.237643718719482 73.37897491455078 10.44647026062012 77.46625518798828 14.53375053405762 C 81.55355072021484 18.62104415893555 84.76236724853516 23.38020324707031 87.00359344482422 28.67905807495117 C 89.32364654541016 34.16427230834961 90.5 39.99188232421875 90.5 46.00000381469727 C 90.5 52.00812530517578 89.32364654541016 57.83573532104492 87.00359344482422 63.32094955444336 C 84.76236724853516 68.61980438232422 81.55355072021484 73.37897491455078 77.46625518798828 77.46625518798828 C 73.37897491455078 81.55355072021484 68.61980438232422 84.76236724853516 63.32094955444336 87.00359344482422 C 57.83573532104492 89.32364654541016 52.00812530517578 90.5 46.00000381469727 90.5 Z" stroke="none"/>
                <path d="M 46.00000381469727 3.000007629394531 C 40.19371795654297 3.000007629394531 34.56270217895508 4.136505126953125 29.26338958740234 6.377914428710938 C 24.14333343505859 8.54351806640625 19.54441833496094 11.64440155029297 15.59442138671875 15.59442138671875 C 11.64440155029297 19.54441833496094 8.54351806640625 24.14333343505859 6.377914428710938 29.26338958740234 C 4.136505126953125 34.56270217895508 3.000007629394531 40.19371795654297 3.000007629394531 46.00000381469727 C 3.000007629394531 51.80628967285156 4.136505126953125 57.43730545043945 6.377914428710938 62.73661804199219 C 8.54351806640625 67.85667419433594 11.64440155029297 72.45558929443359 15.59442138671875 76.40558624267578 C 19.54441833496094 80.35560607910156 24.14333343505859 83.45648956298828 29.26338958740234 85.62208557128906 C 34.56270217895508 87.86350250244141 40.19371795654297 89 46.00000381469727 89 C 51.80628967285156 89 57.43730545043945 87.86350250244141 62.73661804199219 85.62208557128906 C 67.85667419433594 83.45648956298828 72.45558929443359 80.35560607910156 76.40558624267578 76.40558624267578 C 80.35560607910156 72.45558929443359 83.45648956298828 67.85667419433594 85.62208557128906 62.73661804199219 C 87.86350250244141 57.43730545043945 89 51.80628967285156 89 46.00000381469727 C 89 40.19371795654297 87.86350250244141 34.56270217895508 85.62208557128906 29.26338958740234 C 83.45648956298828 24.14333343505859 80.35560607910156 19.54441833496094 76.40558624267578 15.59442138671875 C 72.45558929443359 11.64440155029297 67.85667419433594 8.54351806640625 62.73661804199219 6.377914428710938 C 57.43730545043945 4.136505126953125 51.80628967285156 3.000007629394531 46.00000381469727 3.000007629394531 M 46.00000381469727 7.62939453125e-06 C 71.40510559082031 7.62939453125e-06 92 20.59490203857422 92 46.00000381469727 C 92 71.40510559082031 71.40510559082031 92 46.00000381469727 92 C 20.59490203857422 92 7.62939453125e-06 71.40510559082031 7.62939453125e-06 46.00000381469727 C 7.62939453125e-06 20.59490203857422 20.59490203857422 7.62939453125e-06 46.00000381469727 7.62939453125e-06 Z" stroke="none" fill="#a530fe"/>
              </g>
            </g>
          </g>
        </g>
      </g>
    </g>
    <g id="objetivos" transform="translate(295.456 6006.456)">
      <g id="Grupo_1150329" data-name="Grupo 1150329" transform="translate(0.953 0.953)">
        <g id="Grupo_1150325" data-name="Grupo 1150325">
          <g id="Grupo_1150317" data-name="Grupo 1150317" transform="translate(2.99 2.99)">
            <g id="Grupo_1150312" data-name="Grupo 1150312" transform="translate(2.114 2.114)">
              <path id="Trazado_986123" data-name="Trazado 986123" d="M74.137,100.624a26.486,26.486,0,1,1,26.486-26.486A26.516,26.516,0,0,1,74.137,100.624Zm0-46.712A20.226,20.226,0,1,0,94.363,74.137,20.249,20.249,0,0,0,74.137,53.912Z" transform="translate(-47.651 -47.651)" fill="#fb6672"/>
            </g>
            <g id="Grupo_1150313" data-name="Grupo 1150313" transform="translate(2.117 28.836)">
              <path id="Trazado_986124" data-name="Trazado 986124" d="M47.674,257.852a26.526,26.526,0,0,0,.478,4.791h6.412a20.184,20.184,0,0,1-.629-4.791Z" transform="translate(-47.674 -257.852)" fill="#fb4a59"/>
              <path id="Trazado_986125" data-name="Trazado 986125" d="M410.756,257.852a20.183,20.183,0,0,1-.629,4.791h6.412a26.513,26.513,0,0,0,.478-4.791Z" transform="translate(-364.05 -257.852)" fill="#fb4a59"/>
            </g>
            <g id="Grupo_1150314" data-name="Grupo 1150314" transform="translate(17.271 2.114)">
              <path id="Trazado_986126" data-name="Trazado 986126" d="M204.7,74.136A26.483,26.483,0,0,1,166.88,98.075a25.18,25.18,0,1,0,0-47.878A26.483,26.483,0,0,1,204.7,74.136Z" transform="translate(-166.88 -47.65)" fill="#fb4a59"/>
            </g>
            <g id="Grupo_1150315" data-name="Grupo 1150315" transform="translate(0 0)">
              <path id="Trazado_986127" data-name="Trazado 986127" d="M59.623,88.223a28.6,28.6,0,1,1,28.6-28.6,28.632,28.632,0,0,1-28.6,28.6Zm0-53.806A25.205,25.205,0,1,0,84.829,59.623,25.234,25.234,0,0,0,59.623,34.418Z" transform="translate(-31.023 -31.023)" fill="#3b93ba"/>
            </g>
            <g id="Grupo_1150316" data-name="Grupo 1150316" transform="translate(26.903)">
              <path id="Trazado_986128" data-name="Trazado 986128" d="M272.948,59.621a28.634,28.634,0,0,1-28.6,28.6q-.854,0-1.7-.051a28.636,28.636,0,0,0,26.895-27.9c.01-.433.01-.867,0-1.3a28.636,28.636,0,0,0-26.895-27.9q.843-.051,1.7-.051A28.634,28.634,0,0,1,272.948,59.621Z" transform="translate(-242.65 -31.02)" fill="#107295"/>
            </g>
            <path id="Trazado_986129" data-name="Trazado 986129" d="M31.044,257.852a28.65,28.65,0,0,0,.44,4.791H34.94a25.212,25.212,0,0,1-.5-4.791Z" transform="translate(-31.041 -229.016)" fill="#107295"/>
            <path id="Trazado_986130" data-name="Trazado 986130" d="M450.808,257.852a25.212,25.212,0,0,1-.5,4.791h3.456a28.65,28.65,0,0,0,.44-4.791Z" transform="translate(-397.006 -229.016)" fill="#0d5f7f"/>
          </g>
          <g id="Grupo_1150324" data-name="Grupo 1150324">
            <g id="Grupo_1150320" data-name="Grupo 1150320" transform="translate(29.826)">
              <g id="Grupo_1150318" data-name="Grupo 1150318">
                <path id="Trazado_986131" data-name="Trazado 986131" d="M245.649,8.771v10.17q-.873-.076-1.764-.076t-1.764.076V8.771A1.271,1.271,0,0,1,243.391,7.5h.986A1.271,1.271,0,0,1,245.649,8.771Z" transform="translate(-242.12 -7.5)" fill="#68dbf9"/>
              </g>
              <g id="Grupo_1150319" data-name="Grupo 1150319" transform="translate(0 51.74)">
                <path id="Trazado_986132" data-name="Trazado 986132" d="M245.649,414.5v10.17a1.271,1.271,0,0,1-1.271,1.271h-.986a1.271,1.271,0,0,1-1.271-1.271V414.5q.873.076,1.764.076T245.649,414.5Z" transform="translate(-242.12 -414.5)" fill="#68dbf9"/>
              </g>
            </g>
            <g id="Grupo_1150323" data-name="Grupo 1150323" transform="translate(0 29.825)">
              <g id="Grupo_1150321" data-name="Grupo 1150321" transform="translate(46.436)">
                <path id="Trazado_986133" data-name="Trazado 986133" d="M372.775,244.374v-.988a1.271,1.271,0,0,1,1.271-1.271h14.2a1.271,1.271,0,0,1,1.271,1.271v.988a1.271,1.271,0,0,1-1.271,1.271h-14.2A1.271,1.271,0,0,1,372.775,244.374Z" transform="translate(-372.775 -242.115)" fill="#68dbf9"/>
              </g>
              <g id="Grupo_1150322" data-name="Grupo 1150322">
                <path id="Trazado_986134" data-name="Trazado 986134" d="M7.5,244.374v-.988a1.271,1.271,0,0,1,1.271-1.271h14.2a1.271,1.271,0,0,1,1.271,1.271v.988a1.271,1.271,0,0,1-1.271,1.271H8.771A1.271,1.271,0,0,1,7.5,244.374Z" transform="translate(-7.5 -242.115)" fill="#68dbf9"/>
              </g>
            </g>
          </g>
        </g>
        <g id="Grupo_1150328" data-name="Grupo 1150328" transform="translate(20.4 20.4)">
          <g id="Grupo_1150326" data-name="Grupo 1150326">
            <circle id="Elipse_11560" data-name="Elipse 11560" cx="11.19" cy="11.19" r="11.19" fill="#27d1b3"/>
            <path id="Trazado_986135" data-name="Trazado 986135" d="M246.792,179.167a11.2,11.2,0,0,1-14.159,10.792,10.792,10.792,0,0,0,0-21.583,11.2,11.2,0,0,1,14.162,10.791Z" transform="translate(-224.41 -167.977)" fill="#20b69f"/>
          </g>
          <g id="Grupo_1150327" data-name="Grupo 1150327" transform="translate(4.014 5.653)">
            <path id="Trazado_986136" data-name="Trazado 986136" d="M203.729,223.453l-4.016-4.016a.576.576,0,0,1,0-.814l1.658-1.658a.576.576,0,0,1,.814,0l2.357,2.357,6.713-6.713a.576.576,0,0,1,.814,0l1.658,1.658a.576.576,0,0,1,0,.814l-8.372,8.372A1.151,1.151,0,0,1,203.729,223.453Z" transform="translate(-199.544 -212.44)" fill="#bcea73"/>
          </g>
        </g>
      </g>
      <g id="Grupo_1150330" data-name="Grupo 1150330" transform="translate(0 0)">
        <path id="Trazado_986137" data-name="Trazado 986137" d="M62.863,29.825h-.892a29.6,29.6,0,0,0-26.71-26.71V2.225A2.227,2.227,0,0,0,33.037,0h-.986a2.227,2.227,0,0,0-2.225,2.225v.89A29.619,29.619,0,0,0,5.3,21.1a.953.953,0,1,0,1.757.741A27.711,27.711,0,0,1,29.826,5.031v1.5a26.2,26.2,0,0,0-23.3,23.3H5.032a27.66,27.66,0,0,1,.636-3.77.953.953,0,1,0-1.853-.448,29.577,29.577,0,0,0-.7,4.217h-.89A2.227,2.227,0,0,0,0,32.05v.988a2.227,2.227,0,0,0,2.225,2.225h.891A29.6,29.6,0,0,0,29.826,61.972v.892a2.227,2.227,0,0,0,2.225,2.225h.986a2.227,2.227,0,0,0,2.225-2.225v-.891a29.6,29.6,0,0,0,26.711-26.71h.89a2.227,2.227,0,0,0,2.225-2.225V32.05a2.227,2.227,0,0,0-2.225-2.225ZM52.053,12.974a27.636,27.636,0,0,1,8,16.852h-1.5a26.2,26.2,0,0,0-23.3-23.3V5.03a27.636,27.636,0,0,1,16.791,7.943Zm1.5,16.852a21.159,21.159,0,0,0-3.572-9.3.954.954,0,0,0-1.569,1.084,19.246,19.246,0,0,1,3.215,8.211H48.66a2.227,2.227,0,0,0-2.225,2.225v.988a2.227,2.227,0,0,0,2.225,2.225h2.964a19.275,19.275,0,0,1-38.161,0h2.964a2.227,2.227,0,0,0,2.225-2.225V32.05a2.227,2.227,0,0,0-2.225-2.225H13.464A19.262,19.262,0,0,1,45.507,18.3a.953.953,0,1,0,1.284-1.41,21.121,21.121,0,0,0-11.529-5.345v-3.1A24.3,24.3,0,0,1,56.644,29.825ZM35.262,53.547A21.214,21.214,0,0,0,53.549,35.262h3.094A24.294,24.294,0,0,1,35.262,56.643Zm-5.436,3.1A24.294,24.294,0,0,1,8.445,35.263h3.094A21.214,21.214,0,0,0,29.826,53.547v3.1ZM32.051,1.907h.986a.318.318,0,0,1,.318.318v9.157c-.27-.01-.54-.017-.811-.017s-.541.006-.811.017V2.225A.318.318,0,0,1,32.051,1.907ZM15.383,15.424A24.259,24.259,0,0,1,29.826,8.445v3.1A21.214,21.214,0,0,0,11.539,29.826H8.445a24.259,24.259,0,0,1,6.938-14.4ZM1.907,33.038V32.05a.318.318,0,0,1,.318-.318h14.2a.318.318,0,0,1,.318.318v.988a.318.318,0,0,1-.318.318H2.225A.318.318,0,0,1,1.907,33.038Zm11,18.943A27.625,27.625,0,0,1,5.032,35.263H6.525a26.205,26.205,0,0,0,23.3,23.3v1.5A27.627,27.627,0,0,1,12.9,51.981Zm20.135,11.2h-.986a.318.318,0,0,1-.318-.318V53.706c.27.01.54.017.811.017s.541-.006.811-.017v9.157A.318.318,0,0,1,33.037,63.181ZM52.125,52.042a27.624,27.624,0,0,1-16.863,8.015V58.562a26.2,26.2,0,0,0,23.3-23.3h1.494a27.624,27.624,0,0,1-7.931,16.78Zm11.056-19a.318.318,0,0,1-.318.318H48.66a.318.318,0,0,1-.318-.318V32.05a.318.318,0,0,1,.318-.318h14.2a.318.318,0,0,1,.318.318Z" transform="translate(0 0)"/>
        <path id="Trazado_986138" data-name="Trazado 986138" d="M172.615,160.473a12.145,12.145,0,0,0-2.652,24,.953.953,0,0,0,.415-1.861,10.237,10.237,0,1,1,4.222.053.953.953,0,1,0,.368,1.871,12.145,12.145,0,0,0-2.352-24.059Z" transform="translate(-140.071 -140.073)"/>
        <path id="Trazado_986139" data-name="Trazado 986139" d="M207.862,209.214a1.531,1.531,0,0,0,0-2.163l-1.659-1.659a1.532,1.532,0,0,0-2.163,0L198,211.432l-1.683-1.683a1.531,1.531,0,0,0-2.163,0l-1.658,1.658a1.531,1.531,0,0,0,0,2.163l4.016,4.016h0a2.108,2.108,0,0,0,2.977,0Zm-10,7.023-3.749-3.749,1.124-1.124,2.09,2.09a.954.954,0,0,0,1.348,0l6.446-6.446,1.125,1.124-8.1,8.1A.2.2,0,0,1,197.862,216.237Z" transform="translate(-167.636 -178.892)"/>
        <path id="Trazado_986140" data-name="Trazado 986140" d="M139.045,307.783a.953.953,0,0,0-1.3-.349l-1.366.788a.953.953,0,1,0,.953,1.651l1.366-.788A.954.954,0,0,0,139.045,307.783Z" transform="translate(-118.624 -268.24)"/>
        <path id="Trazado_986141" data-name="Trazado 986141" d="M352.2,183.618l-1.366.788a.953.953,0,1,0,.953,1.651l1.366-.788a.953.953,0,0,0-.953-1.651Z" transform="translate(-305.817 -160.164)"/>
        <path id="Trazado_986142" data-name="Trazado 986142" d="M157.957,331.946l-1.115,1.115a.954.954,0,0,0,1.349,1.348l1.115-1.115a.954.954,0,0,0-1.349-1.348Z" transform="translate(-136.659 -289.504)"/>
        <path id="Trazado_986143" data-name="Trazado 986143" d="M332.62,159.586a.951.951,0,0,0,.674-.279l1.115-1.115a.953.953,0,0,0-1.348-1.348l-1.115,1.115a.953.953,0,0,0,.674,1.628Z" transform="translate(-289.503 -136.661)"/>
        <path id="Trazado_986144" data-name="Trazado 986144" d="M185.709,350.483a.953.953,0,0,0-1.3.349l-.788,1.366a.953.953,0,1,0,1.651.953l.788-1.366A.953.953,0,0,0,185.709,350.483Z" transform="translate(-160.164 -305.816)"/>
        <path id="Trazado_986145" data-name="Trazado 986145" d="M307.782,139.045a.953.953,0,0,0,1.3-.349l.788-1.366a.953.953,0,1,0-1.651-.953l-.788,1.366A.953.953,0,0,0,307.782,139.045Z" transform="translate(-268.239 -118.624)"/>
        <path id="Trazado_986146" data-name="Trazado 986146" d="M216.455,362.136a.953.953,0,0,0-1.168.674l-.408,1.523a.953.953,0,1,0,1.842.494l.408-1.523a.953.953,0,0,0-.674-1.168Z" transform="translate(-187.534 -316.071)"/>
        <path id="Trazado_986147" data-name="Trazado 986147" d="M279.645,126.307a.952.952,0,0,0,1.168-.674l.408-1.523a.953.953,0,1,0-1.842-.494l-.408,1.523A.954.954,0,0,0,279.645,126.307Z" transform="translate(-243.478 -107.284)"/>
        <path id="Trazado_986148" data-name="Trazado 986148" d="M249.453,366.114a.953.953,0,0,0-.953.953v1.577a.953.953,0,0,0,1.907,0v-1.577A.953.953,0,0,0,249.453,366.114Z" transform="translate(-216.91 -319.572)"/>
        <path id="Trazado_986149" data-name="Trazado 986149" d="M249.453,121.966a.953.953,0,0,0,.953-.953v-1.577a.953.953,0,1,0-1.907,0v1.577A.953.953,0,0,0,249.453,121.966Z" transform="translate(-216.91 -103.42)"/>
      </g>
    </g>
  </g>
</svg>
