<svg xmlns="http://www.w3.org/2000/svg" xmlns:xlink="http://www.w3.org/1999/xlink" width="110" height="110" viewBox="0 0 110 110">
  <defs>
    <filter id="Trazado_982547" x="0" y="0" width="110" height="110" filterUnits="userSpaceOnUse">
      <feOffset dy="3" input="SourceAlpha"/>
      <feGaussianBlur stdDeviation="3" result="blur"/>
      <feFlood flood-opacity="0.161"/>
      <feComposite operator="in" in2="blur"/>
      <feComposite in="SourceGraphic"/>
    </filter>
  </defs>
  <g id="Grupo_1150333" data-name="Grupo 1150333" transform="translate(-588 -5987)">
    <g id="Grupo_1150032" data-name="Grupo 1150032" transform="translate(0 1128)">
      <g id="Grupo_1149674" data-name="Grupo 1149674" transform="translate(597 4865)">
        <g id="Grupo_1148534" data-name="Grupo 1148534">
          <g id="Grupo_1147066" data-name="Grupo 1147066" transform="translate(0 0)">
            <g transform="matrix(1, 0, 0, 1, -9, -6)" filter="url(#Trazado_982547)">
              <g id="Trazado_982547-2" data-name="Trazado 982547" transform="translate(9 6)" fill="#f6f9fc">
                <path d="M 46.00000381469727 90.5 C 39.99188232421875 90.5 34.16427230834961 89.32364654541016 28.67905807495117 87.00359344482422 C 23.38020324707031 84.76236724853516 18.62103080749512 81.55355072021484 14.53375053405762 77.46625518798828 C 10.44645690917969 73.37897491455078 7.237643718719482 68.61980438232422 4.996417045593262 63.32094955444336 C 2.676363706588745 57.83573532104492 1.500003814697266 52.00812530517578 1.500003814697266 46.00000381469727 C 1.500003814697266 39.99188232421875 2.676363706588745 34.16427230834961 4.996417045593262 28.67905807495117 C 7.237643718719482 23.38020324707031 10.44645690917969 18.62104415893555 14.53375053405762 14.53375053405762 C 18.62103080749512 10.44647026062012 23.38020324707031 7.237643718719482 28.67905807495117 4.996417045593262 C 34.16427230834961 2.676363706588745 39.99188232421875 1.500003814697266 46.00000381469727 1.500003814697266 C 52.00812530517578 1.500003814697266 57.83573532104492 2.676363706588745 63.32094955444336 4.996417045593262 C 68.61980438232422 7.237643718719482 73.37897491455078 10.44647026062012 77.46625518798828 14.53375053405762 C 81.55355072021484 18.62104415893555 84.76236724853516 23.38020324707031 87.00359344482422 28.67905807495117 C 89.32364654541016 34.16427230834961 90.5 39.99188232421875 90.5 46.00000381469727 C 90.5 52.00812530517578 89.32364654541016 57.83573532104492 87.00359344482422 63.32094955444336 C 84.76236724853516 68.61980438232422 81.55355072021484 73.37897491455078 77.46625518798828 77.46625518798828 C 73.37897491455078 81.55355072021484 68.61980438232422 84.76236724853516 63.32094955444336 87.00359344482422 C 57.83573532104492 89.32364654541016 52.00812530517578 90.5 46.00000381469727 90.5 Z" stroke="none"/>
                <path d="M 46.00000381469727 3.000007629394531 C 40.19371795654297 3.000007629394531 34.56270217895508 4.136505126953125 29.26338958740234 6.377914428710938 C 24.14333343505859 8.54351806640625 19.54441833496094 11.64440155029297 15.59442138671875 15.59442138671875 C 11.64440155029297 19.54441833496094 8.54351806640625 24.14333343505859 6.377914428710938 29.26338958740234 C 4.136505126953125 34.56270217895508 3.000007629394531 40.19371795654297 3.000007629394531 46.00000381469727 C 3.000007629394531 51.80628967285156 4.136505126953125 57.43730545043945 6.377914428710938 62.73661804199219 C 8.54351806640625 67.85667419433594 11.64440155029297 72.45558929443359 15.59442138671875 76.40558624267578 C 19.54441833496094 80.35560607910156 24.14333343505859 83.45648956298828 29.26338958740234 85.62208557128906 C 34.56270217895508 87.86350250244141 40.19371795654297 89 46.00000381469727 89 C 51.80628967285156 89 57.43730545043945 87.86350250244141 62.73661804199219 85.62208557128906 C 67.85667419433594 83.45648956298828 72.45558929443359 80.35560607910156 76.40558624267578 76.40558624267578 C 80.35560607910156 72.45558929443359 83.45648956298828 67.85667419433594 85.62208557128906 62.73661804199219 C 87.86350250244141 57.43730545043945 89 51.80628967285156 89 46.00000381469727 C 89 40.19371795654297 87.86350250244141 34.56270217895508 85.62208557128906 29.26338958740234 C 83.45648956298828 24.14333343505859 80.35560607910156 19.54441833496094 76.40558624267578 15.59442138671875 C 72.45558929443359 11.64440155029297 67.85667419433594 8.54351806640625 62.73661804199219 6.377914428710938 C 57.43730545043945 4.136505126953125 51.80628967285156 3.000007629394531 46.00000381469727 3.000007629394531 M 46.00000381469727 7.62939453125e-06 C 71.40510559082031 7.62939453125e-06 92 20.59490203857422 92 46.00000381469727 C 92 71.40510559082031 71.40510559082031 92 46.00000381469727 92 C 20.59490203857422 92 7.62939453125e-06 71.40510559082031 7.62939453125e-06 46.00000381469727 C 7.62939453125e-06 20.59490203857422 20.59490203857422 7.62939453125e-06 46.00000381469727 7.62939453125e-06 Z" stroke="none" fill="#a530fe"/>
              </g>
            </g>
          </g>
        </g>
      </g>
    </g>
    <g id="cronograma-del-proyecto" transform="translate(596.75 5994.54)">
      <g id="Grupo_1150332" data-name="Grupo 1150332" transform="translate(20.43 16.004)">
        <path id="Trazado_986150" data-name="Trazado 986150" d="M58.964,36.265c.356,0,.639-.05.882.2l1.277,1.277a.65.65,0,0,1,.191.46V40.57a14.32,14.32,0,0,1,4.2,1.744l1.675-1.674a.646.646,0,0,1,.461-.191h1.813a.644.644,0,0,1,.466.2l1.991,1.99a.65.65,0,0,1,.191.46V44.91a.649.649,0,0,1-.2.466l-1.67,1.669a14.3,14.3,0,0,1,1.744,4.206h2.371a.644.644,0,0,1,.466.2l1.277,1.271a.651.651,0,0,1,.191.461V56a.653.653,0,0,1-.2.467l-1.281,1.271a.653.653,0,0,1-.461.191H71.989a14.3,14.3,0,0,1-1.744,4.206l1.675,1.675a.65.65,0,0,1,.191.46v1.813a.652.652,0,0,1-.2.467l-1.991,1.99a.646.646,0,0,1-.516.189H67.655a.647.647,0,0,1-.46-.19l-1.677-1.671a14.333,14.333,0,0,1-4.2,1.744v2.371a.651.651,0,0,1-.2.466L59.84,72.727a.649.649,0,0,1-.46.19H56.557a.649.649,0,0,1-.466-.2l-1.277-1.277a.65.65,0,0,1-.191-.46V68.612a14.327,14.327,0,0,1-4.206-1.741l-1.674,1.674a.646.646,0,0,1-.461.191H46.465a.649.649,0,0,1-.467-.2L44.15,66.692H23.088a2.664,2.664,0,0,1-2.658-2.658V22.264a2.664,2.664,0,0,1,2.658-2.658h8.965a1.623,1.623,0,0,1,1.477-.958h2.253a.288.288,0,0,0,.282-.193,3.91,3.91,0,0,1,7.254,0,.288.288,0,0,0,.282.193h2.253a1.622,1.622,0,0,1,1.476.958h8.975a2.664,2.664,0,0,1,2.657,2.658Z" transform="translate(-20.43 -16.004)" fill-rule="evenodd"/>
        <path id="Trazado_986151" data-name="Trazado 986151" d="M140.908,29.635h-2.253a1.584,1.584,0,0,1-1.5-1.045,2.615,2.615,0,0,0-4.821,0,1.582,1.582,0,0,1-1.5,1.045h-2.253a.318.318,0,0,0-.325.32V32.97a.318.318,0,0,0,.315.314h12.332a.317.317,0,0,0,.314-.314V29.955A.317.317,0,0,0,140.908,29.635Z" transform="translate(-115.474 -25.687)" fill="#ffb432" fill-rule="evenodd"/>
        <path id="Trazado_986152" data-name="Trazado 986152" d="M205.42,202.773a13.139,13.139,0,0,0-2.222,1.186.651.651,0,0,1-.863-.052l-1.853-1.853h-1.275l-1.614,1.614v1.273l1.854,1.854a.649.649,0,0,1,.079.813,13.091,13.091,0,0,0-1.209,2.264,12.94,12.94,0,0,0-.736,2.42.652.652,0,0,1-.645.555H194.31l-.9.9v2.284l.9.9h2.62a.651.651,0,0,1,.639.527,13.061,13.061,0,0,0,1.924,4.67.651.651,0,0,1-.051.863l-1.854,1.854v1.273l1.614,1.614h1.275l1.853-1.853a.649.649,0,0,1,.821-.081,13.063,13.063,0,0,0,4.684,1.946.652.652,0,0,1,.555.645v2.62l.9.9h2.283l.9-.9v-2.62a.651.651,0,0,1,.526-.639,13.043,13.043,0,0,0,4.669-1.924.653.653,0,0,1,.864.052l1.863,1.862h1.269l1.616-1.616V224.85L221.428,223a.649.649,0,0,1-.079-.821,13.173,13.173,0,0,0,1.209-2.264,13.032,13.032,0,0,0,.736-2.42.651.651,0,0,1,.644-.555h2.624l.9-.9v-2.285l-.9-.9h-2.62a.651.651,0,0,1-.639-.525,13.031,13.031,0,0,0-1.923-4.671.651.651,0,0,1,.051-.863l1.853-1.854v-1.275l-1.614-1.614H220.4l-1.853,1.853a.651.651,0,0,1-.822.081,13.043,13.043,0,0,0-4.687-1.948.652.652,0,0,1-.555-.645v-2.62l-.9-.9H209.3l-.9.9v2.62a.651.651,0,0,1-.526.639,12.946,12.946,0,0,0-2.449.742Zm5.016,1.753a10.37,10.37,0,1,1-10.369,10.37,10.371,10.371,0,0,1,10.369-10.37Z" transform="translate(-172.899 -176.306)" fill="#1e99ec" fill-rule="evenodd"/>
        <path id="Trazado_986153" data-name="Trazado 986153" d="M53.508,101.852v-1.113c0-.3.168-.439.356-.621H33.807a.652.652,0,0,1-.652-.652V59.756a.651.651,0,0,1,.652-.651H41.6V57.37H32.775a1.361,1.361,0,0,0-1.355,1.355V100.5a1.362,1.362,0,0,0,1.355,1.355Z" transform="translate(-30.117 -52.465)" fill="#434b62" fill-rule="evenodd"/>
        <path id="Trazado_986154" data-name="Trazado 986154" d="M257.015,73.088c.192-.192.326-.362.631-.362h1.1v-14A1.36,1.36,0,0,0,257.4,57.37H248.57V59.1h7.794a.651.651,0,0,1,.651.651Z" transform="translate(-221.519 -52.465)" fill="#434b62" fill-rule="evenodd"/>
        <path id="Trazado_986155" data-name="Trazado 986155" d="M82.651,101.362a14.327,14.327,0,0,1,4.206-1.744V83H79.574a1.622,1.622,0,0,1-1.476.958H65.766A1.623,1.623,0,0,1,64.287,83H57v38.406H77.71l.211-.211a14.33,14.33,0,0,1-1.745-4.206H73.81a.649.649,0,0,1-.467-.2l-1.276-1.276a.647.647,0,0,1-.191-.461v-2.822a.647.647,0,0,1,.2-.467l1.276-1.276a.646.646,0,0,1,.461-.191h2.366a14.329,14.329,0,0,1,1.745-4.206l-1.675-1.675a.65.65,0,0,1-.191-.46v-1.814a.651.651,0,0,1,.2-.466l1.99-1.99A.647.647,0,0,1,78.7,99.5h1.813a.649.649,0,0,1,.467.2ZM59.866,88.312h5.371a.652.652,0,0,1,.652.652v5.371a.652.652,0,0,1-.652.652H59.866a.651.651,0,0,1-.651-.652V88.964A.652.652,0,0,1,59.866,88.312Zm0,11.027h5.371a.651.651,0,0,1,.652.651v5.371a.652.652,0,0,1-.652.652H59.866a.651.651,0,0,1-.651-.652V99.99A.651.651,0,0,1,59.866,99.339Zm0,11.027h5.371a.651.651,0,0,1,.652.651v5.371a.652.652,0,0,1-.652.652H59.866a.651.651,0,0,1-.651-.652v-5.371a.651.651,0,0,1,.651-.651Zm8.813-9.227a.652.652,0,0,1,0-1.3h5.539a.652.652,0,1,1,0,1.3Zm0,4.371a.652.652,0,0,1,0-1.3h5.539a.652.652,0,1,1,0,1.3Zm0-15.4a.652.652,0,0,1,0-1.3H84.067a.652.652,0,1,1,0,1.3Zm0,4.369a.652.652,0,0,1,0-1.3H84.067a.652.652,0,1,1,0,1.3Z" transform="translate(-52.664 -75.056)" fill="#efeff0" fill-rule="evenodd"/>
        <path id="Trazado_986156" data-name="Trazado 986156" d="M276.014,267.626a9.067,9.067,0,1,0,0,12.822A9.067,9.067,0,0,0,276.014,267.626Zm-7.062-1.186a.652.652,0,0,1,1.3,0v.43a.652.652,0,1,1-1.3,0v-.432Zm-5.182,2.683a.651.651,0,1,1,.921-.921l.3.3a.652.652,0,0,1-.921.923ZM262,274.688a.652.652,0,1,1,0-1.3h.432a.652.652,0,0,1,0,1.3Zm2.687,5.182a.651.651,0,1,1-.921-.921l.3-.306a.652.652,0,0,1,.921.922Zm5.563,1.764a.652.652,0,0,1-1.3,0V281.2a.652.652,0,1,1,1.3,0Zm5.182-2.686a.651.651,0,1,1-.921.921l-.3-.3a.652.652,0,0,1,.921-.922Zm-.921-10.746a.651.651,0,1,1,.921.921l-.3.306a.652.652,0,0,1-.921-.923Zm-5.563,1.591a.652.652,0,1,1,1.3,0v3.972l3.428,3.429a.651.651,0,1,1-.921.921L269.15,274.5a.644.644,0,0,1-.2-.466v-4.241Zm8.25,3.59a.652.652,0,0,1,0,1.3h-.432a.652.652,0,1,1,0-1.3Z" transform="translate(-232.065 -235.45)" fill="#1cd9ed" fill-rule="evenodd"/>
      </g>
      <path id="Trazado_986157" data-name="Trazado 986157" d="M86.67,138.8h4.068v4.068H86.67Z" transform="translate(-58.386 -108.236)" fill="#24809d"/>
      <path id="Trazado_986158" data-name="Trazado 986158" d="M86.67,231.83h4.068V235.9H86.67Z" transform="translate(-58.386 -190.235)" fill="#ffa71b"/>
      <path id="Trazado_986159" data-name="Trazado 986159" d="M86.67,324.86h4.068v4.068H86.67Z" transform="translate(-58.386 -272.234)" fill="#f3585c"/>
    </g>
  </g>
</svg>
