<svg xmlns="http://www.w3.org/2000/svg" xmlns:xlink="http://www.w3.org/1999/xlink" width="110" height="110" viewBox="0 0 110 110">
  <defs>
    <filter id="Trazado_982547" x="0" y="0" width="110" height="110" filterUnits="userSpaceOnUse">
      <feOffset dy="3" input="SourceAlpha"/>
      <feGaussianBlur stdDeviation="3" result="blur"/>
      <feFlood flood-opacity="0.161"/>
      <feComposite operator="in" in2="blur"/>
      <feComposite in="SourceGraphic"/>
    </filter>
  </defs>
  <g id="Grupo_1150352" data-name="Grupo 1150352" transform="translate(-902 -5987)">
    <g id="Grupo_1150033" data-name="Grupo 1150033" transform="translate(-1 1128)">
      <g id="Grupo_1149675" data-name="Grupo 1149675" transform="translate(912 4865)">
        <g id="Grupo_1148534" data-name="Grupo 1148534" transform="translate(0)">
          <g id="Grupo_1147066" data-name="Grupo 1147066" transform="translate(0 0)">
            <g transform="matrix(1, 0, 0, 1, -9, -6)" filter="url(#Trazado_982547)">
              <g id="Trazado_982547-2" data-name="Trazado 982547" transform="translate(9 6)" fill="#f6f9fc">
                <path d="M 46.00000381469727 90.5 C 39.99188232421875 90.5 34.16427230834961 89.32364654541016 28.67905807495117 87.00359344482422 C 23.38020324707031 84.76236724853516 18.62103080749512 81.55355072021484 14.53375053405762 77.46625518798828 C 10.44645690917969 73.37897491455078 7.237643718719482 68.61980438232422 4.996417045593262 63.32094955444336 C 2.676363706588745 57.83573532104492 1.500003814697266 52.00812530517578 1.500003814697266 46.00000381469727 C 1.500003814697266 39.99188232421875 2.676363706588745 34.16427230834961 4.996417045593262 28.67905807495117 C 7.237643718719482 23.38020324707031 10.44645690917969 18.62104415893555 14.53375053405762 14.53375053405762 C 18.62103080749512 10.44647026062012 23.38020324707031 7.237643718719482 28.67905807495117 4.996417045593262 C 34.16427230834961 2.676363706588745 39.99188232421875 1.500003814697266 46.00000381469727 1.500003814697266 C 52.00812530517578 1.500003814697266 57.83573532104492 2.676363706588745 63.32094955444336 4.996417045593262 C 68.61980438232422 7.237643718719482 73.37897491455078 10.44647026062012 77.46625518798828 14.53375053405762 C 81.55355072021484 18.62104415893555 84.76236724853516 23.38020324707031 87.00359344482422 28.67905807495117 C 89.32364654541016 34.16427230834961 90.5 39.99188232421875 90.5 46.00000381469727 C 90.5 52.00812530517578 89.32364654541016 57.83573532104492 87.00359344482422 63.32094955444336 C 84.76236724853516 68.61980438232422 81.55355072021484 73.37897491455078 77.46625518798828 77.46625518798828 C 73.37897491455078 81.55355072021484 68.61980438232422 84.76236724853516 63.32094955444336 87.00359344482422 C 57.83573532104492 89.32364654541016 52.00812530517578 90.5 46.00000381469727 90.5 Z" stroke="none"/>
                <path d="M 46.00000381469727 3.000007629394531 C 40.19371795654297 3.000007629394531 34.56270217895508 4.136505126953125 29.26338958740234 6.377914428710938 C 24.14333343505859 8.54351806640625 19.54441833496094 11.64440155029297 15.59442138671875 15.59442138671875 C 11.64440155029297 19.54441833496094 8.54351806640625 24.14333343505859 6.377914428710938 29.26338958740234 C 4.136505126953125 34.56270217895508 3.000007629394531 40.19371795654297 3.000007629394531 46.00000381469727 C 3.000007629394531 51.80628967285156 4.136505126953125 57.43730545043945 6.377914428710938 62.73661804199219 C 8.54351806640625 67.85667419433594 11.64440155029297 72.45558929443359 15.59442138671875 76.40558624267578 C 19.54441833496094 80.35560607910156 24.14333343505859 83.45648956298828 29.26338958740234 85.62208557128906 C 34.56270217895508 87.86350250244141 40.19371795654297 89 46.00000381469727 89 C 51.80628967285156 89 57.43730545043945 87.86350250244141 62.73661804199219 85.62208557128906 C 67.85667419433594 83.45648956298828 72.45558929443359 80.35560607910156 76.40558624267578 76.40558624267578 C 80.35560607910156 72.45558929443359 83.45648956298828 67.85667419433594 85.62208557128906 62.73661804199219 C 87.86350250244141 57.43730545043945 89 51.80628967285156 89 46.00000381469727 C 89 40.19371795654297 87.86350250244141 34.56270217895508 85.62208557128906 29.26338958740234 C 83.45648956298828 24.14333343505859 80.35560607910156 19.54441833496094 76.40558624267578 15.59442138671875 C 72.45558929443359 11.64440155029297 67.85667419433594 8.54351806640625 62.73661804199219 6.377914428710938 C 57.43730545043945 4.136505126953125 51.80628967285156 3.000007629394531 46.00000381469727 3.000007629394531 M 46.00000381469727 7.62939453125e-06 C 71.40510559082031 7.62939453125e-06 92 20.59490203857422 92 46.00000381469727 C 92 71.40510559082031 71.40510559082031 92 46.00000381469727 92 C 20.59490203857422 92 7.62939453125e-06 71.40510559082031 7.62939453125e-06 46.00000381469727 C 7.62939453125e-06 20.59490203857422 20.59490203857422 7.62939453125e-06 46.00000381469727 7.62939453125e-06 Z" stroke="none" fill="#a530fe"/>
              </g>
            </g>
          </g>
        </g>
      </g>
    </g>
    <g id="goal_4443951" transform="translate(931.278 6012.278)">
      <g id="Grupo_1150351" data-name="Grupo 1150351" transform="translate(0.862 0.862)">
        <g id="Grupo_1150334" data-name="Grupo 1150334" transform="translate(12.068 48.271)">
          <path id="Trazado_986160" data-name="Trazado 986160" d="M15,57H44.308v3.448H15Z" transform="translate(-15 -57)" fill="#ef7385"/>
        </g>
        <g id="Grupo_1150335" data-name="Grupo 1150335" transform="translate(12.068 41.376)">
          <path id="Trazado_986161" data-name="Trazado 986161" d="M44.308,49v3.448H15V49H44.308Z" transform="translate(-15 -49)" fill="#ef7385"/>
        </g>
        <g id="Grupo_1150336" data-name="Grupo 1150336" transform="translate(12.068 44.823)">
          <path id="Trazado_986162" data-name="Trazado 986162" d="M15,53H44.308v3.448H15Z" transform="translate(-15 -53)" fill="#5cd6b3"/>
        </g>
        <g id="Grupo_1150337" data-name="Grupo 1150337" transform="translate(8.62 41.376)">
          <path id="Trazado_986163" data-name="Trazado 986163" d="M14.448,55.9v3.448H11V49h3.448v6.9Z" transform="translate(-11 -49)" fill="#ffeaa7"/>
        </g>
        <g id="Grupo_1150338" data-name="Grupo 1150338" transform="translate(41.376 41.376)">
          <path id="Trazado_986164" data-name="Trazado 986164" d="M58.551,52.982a1.289,1.289,0,0,1,0,2.379L49,59.344V49l2.345.974,3.965,1.655Z" transform="translate(-49 -49)" fill="#ccd1d9"/>
        </g>
        <g id="Grupo_1150339" data-name="Grupo 1150339" transform="translate(0 41.376)">
          <path id="Trazado_986165" data-name="Trazado 986165" d="M9.62,49V59.344H6.172A5.18,5.18,0,0,1,1,54.172,5.176,5.176,0,0,1,6.172,49Z" transform="translate(-1 -49)" fill="#ccd1d9"/>
        </g>
        <g id="Grupo_1150340" data-name="Grupo 1150340" transform="translate(40.72 28.971)">
          <path id="Trazado_986166" data-name="Trazado 986166" d="M51.447,34.61,55.2,49.643,51.24,47.988l-1.534-6.146L48.24,36a15.409,15.409,0,0,0,3.207-1.388Z" transform="translate(-48.24 -34.61)" fill="#d3a06c"/>
        </g>
        <g id="Grupo_1150341" data-name="Grupo 1150341" transform="translate(25.377 28.971)">
          <path id="Trazado_986167" data-name="Trazado 986167" d="M36.75,36l-1.465,5.844-1.293,5.172H30.44l3.1-12.4A15.409,15.409,0,0,0,36.75,36Z" transform="translate(-30.44 -34.61)" fill="#d3a06c"/>
        </g>
        <g id="Grupo_1150342" data-name="Grupo 1150342" transform="translate(20.688)">
          <path id="Trazado_986168" data-name="Trazado 986168" d="M40.516,1a15.51,15.51,0,0,1,7.723,28.963v.009a15.507,15.507,0,0,1-15.447,0v-.009A15.51,15.51,0,0,1,40.516,1Z" transform="translate(-25 -1)" fill="#aab2bd"/>
        </g>
        <g id="Grupo_1150343" data-name="Grupo 1150343" transform="translate(25.86 5.172)">
          <path id="Trazado_986169" data-name="Trazado 986169" d="M41.344,7A10.344,10.344,0,1,1,31,17.344,10.341,10.341,0,0,1,41.344,7Z" transform="translate(-31 -7)" fill="#ccd1d9"/>
        </g>
        <g id="Grupo_1150344" data-name="Grupo 1150344" transform="translate(31.032 10.344)">
          <circle id="Elipse_11561" data-name="Elipse 11561" cx="5.5" cy="5.5" r="5.5" transform="translate(-0.172 -0.484)" fill="#ef7385"/>
        </g>
        <g id="Grupo_1150345" data-name="Grupo 1150345" transform="translate(7.758 12.068)">
          <path id="Trazado_986170" data-name="Trazado 986170" d="M15.172,15,16.9,18.448H11.724L10,15Z" transform="translate(-10 -15)" fill="#5cd6b3"/>
        </g>
        <g id="Grupo_1150346" data-name="Grupo 1150346" transform="translate(7.758 15.516)">
          <path id="Trazado_986171" data-name="Trazado 986171" d="M16.9,19l-1.724,3.448H10L11.724,19Z" transform="translate(-10 -19)" fill="#5cd6b3"/>
        </g>
        <g id="Grupo_1150347" data-name="Grupo 1150347" transform="translate(0.862 22.412)">
          <path id="Trazado_986172" data-name="Trazado 986172" d="M7.172,27,8.9,30.448H3.724L2,27Z" transform="translate(-2 -27)" fill="#5cd6b3"/>
        </g>
        <g id="Grupo_1150348" data-name="Grupo 1150348" transform="translate(0.862 25.86)">
          <path id="Trazado_986173" data-name="Trazado 986173" d="M8.9,31,7.172,34.448H2L3.724,31Z" transform="translate(-2 -31)" fill="#5cd6b3"/>
        </g>
        <g id="Grupo_1150349" data-name="Grupo 1150349" transform="translate(0.862 5.172)">
          <path id="Trazado_986174" data-name="Trazado 986174" d="M8.9,7,7.172,10.448H2L3.724,7Z" transform="translate(-2 -7)" fill="#5cd6b3"/>
        </g>
        <g id="Grupo_1150350" data-name="Grupo 1150350" transform="translate(0.862 1.724)">
          <path id="Trazado_986175" data-name="Trazado 986175" d="M7.172,3,8.9,6.448H3.724L2,3Z" transform="translate(-2 -3)" fill="#5cd6b3"/>
        </g>
      </g>
      <path id="Trazado_986176" data-name="Trazado 986176" d="M52.118,45.42l-2.835-1.181-3.5-14.018A16.359,16.359,0,1,0,25.155,5.172h-16L7.429,1.724H.329l2.155,4.31L.329,10.344h7.1L9.153,6.9H23.737a16.262,16.262,0,0,0-3,8.62H16.049l-1.724-3.448h-7.1l2.155,4.31-2.155,4.31h7.1l1.724-3.448h4.682a16.262,16.262,0,0,0,3,8.62H9.153L7.429,22.412H.329l2.155,4.31L.329,31.032h7.1l1.724-3.448h16a16.486,16.486,0,0,0,3.2,2.638L25.566,41.376H6.034a6.034,6.034,0,0,0,0,12.068H42.41L52.118,49.4a2.156,2.156,0,0,0,0-3.979ZM6.363,3.448l.862,1.724H3.981L3.119,3.448Zm0,5.172H3.119L3.981,6.9H7.225Zm6.9,5.172.862,1.724H10.877l-.862-1.724Zm0,5.172H10.015l.862-1.724h3.245Zm-6.9,5.172.862,1.724H3.981l-.862-1.724Zm0,5.172H3.119l.862-1.724H7.225ZM47.3,43.412l-1.983-.827-2.7-10.817a16.421,16.421,0,0,0,1.608-.68ZM41.376,43.1v1.724H13.792V43.1Zm0,5.172H13.792V46.547H41.376ZM12.068,51.719H10.344V43.1h1.724ZM13.792,50H41.376v1.724H13.792Zm28.618-8.62H30.9l.862-3.448H42.374l.958,3.832Zm-5.344-8.62a16.284,16.284,0,0,0,3.893-.487l.984,3.935H32.189l.984-3.935a16.3,16.3,0,0,0,3.893.487Zm-11.152-6.9a14.574,14.574,0,0,1-3.457-8.62H25.9a11.206,11.206,0,1,0,0-1.724H22.456A14.574,14.574,0,0,1,25.913,6.9h3.395V5.172H27.642a14.654,14.654,0,1,1,0,22.412h1.665V25.86ZM31.1,17.24a6.034,6.034,0,1,0,0-1.724H27.628a9.482,9.482,0,1,1,0,1.724Zm6.827,1.724V13.792H36.2v1.724H32.843a4.31,4.31,0,1,1,0,1.724H36.2v1.724ZM29.914,31.089a16.334,16.334,0,0,0,1.608.68l-2.4,9.607H27.342ZM1.724,47.409a4.315,4.315,0,0,1,4.31-4.31H8.62v8.62H6.034A4.315,4.315,0,0,1,1.724,47.409Zm49.73.4L43.1,51.288V43.53l8.354,3.481a.431.431,0,0,1,0,.8Z"/>
    </g>
  </g>
</svg>
