<svg xmlns="http://www.w3.org/2000/svg" width="33.323" height="25.187" viewBox="0 0 33.323 25.187">
  <g id="protractor_1865509" transform="translate(0 0)">
    <path id="Trazado_985634" data-name="Trazado 985634" d="M13.19,32.972a.65.65,0,0,0,.851-.35,13.711,13.711,0,0,1,4.8-5.442l-.252.809a.651.651,0,1,0,1.243.386l.745-2.4a.659.659,0,0,0-.455-.822l-2.41-.638a.651.651,0,0,0-.333,1.258l.874.231a14.716,14.716,0,0,0-5.412,6.115.65.65,0,0,0,.352.849Zm0,0" transform="translate(-11.956 -22.902)"/>
    <path id="Trazado_985635" data-name="Trazado 985635" d="M32.672,17.282H31.065a14.419,14.419,0,0,0-14.4-13.768,14.466,14.466,0,0,0-4.119.595L11.243.434a.651.651,0,1,0-1.227.434l1.3,3.667A14.274,14.274,0,0,0,8.262,6.21,14.445,14.445,0,0,0,2.273,17c-.006.093-.011.186-.016.28H.651A.651.651,0,0,0,0,17.932v6.6a.651.651,0,0,0,.651.651H32.672a.651.651,0,0,0,.651-.651v-6.6a.651.651,0,0,0-.651-.651ZM16.661,4.815a13.134,13.134,0,0,1,13.1,12.467H24.8a8.178,8.178,0,0,0-.879-3.09.651.651,0,1,0-1.157.6,6.774,6.774,0,0,1,.73,2.493H17.2L15.07,11.251a6.889,6.889,0,0,1,3.7.144.651.651,0,0,0,.4-1.239,8.191,8.191,0,0,0-4.538-.139L12.979,5.342a13.082,13.082,0,0,1,3.682-.527ZM3.577,17a13.11,13.11,0,0,1,.788-3.64q.185-.5.41-.978A13.2,13.2,0,0,1,11.75,5.769l1.593,4.5.06.17a8.188,8.188,0,0,0-4.885,6.84H3.56c0-.092.011-.185.017-.277Zm11.966-.515.28.792h-6a6.883,6.883,0,0,1,4.013-5.61Zm16.478,7.4H27.983V22.641a.651.651,0,0,0-1.3,0v1.245H22.571V21.234a.651.651,0,1,0-1.3,0v2.651h-4.11V22.641a.651.651,0,0,0-1.3,0v1.245H11.747V21.234a.651.651,0,1,0-1.3,0v2.651H6.334V22.641a.651.651,0,0,0-1.3,0v1.245H1.3v-5.3H32.021Zm0,0" transform="translate(0 0)"/>
    <path id="Trazado_985636" data-name="Trazado 985636" d="M321.4,178.816a.65.65,0,1,0-.245-.775A.657.657,0,0,0,321.4,178.816Zm0,0" transform="translate(-300.212 -166.072)"/>
  </g>
</svg>
