<svg xmlns="http://www.w3.org/2000/svg" xmlns:xlink="http://www.w3.org/1999/xlink" width="110" height="110" viewBox="0 0 110 110">
  <defs>
    <filter id="Trazado_982547" x="0" y="0" width="110" height="110" filterUnits="userSpaceOnUse">
      <feOffset dy="3" input="SourceAlpha"/>
      <feGaussianBlur stdDeviation="3" result="blur"/>
      <feFlood flood-opacity="0.161"/>
      <feComposite operator="in" in2="blur"/>
      <feComposite in="SourceGraphic"/>
    </filter>
  </defs>
  <g id="Grupo_1150355" data-name="Grupo 1150355" transform="translate(-327.02 -2296.5)">
    <g id="Grupo_1150073" data-name="Grupo 1150073" transform="translate(336.02 2302.5)">
      <g id="Grupo_1149673" data-name="Grupo 1149673" transform="translate(0)">
        <g id="Grupo_1148532" data-name="Grupo 1148532" transform="translate(0 0)">
          <g id="Grupo_1147065" data-name="Grupo 1147065">
            <g transform="matrix(1, 0, 0, 1, -9, -6)" filter="url(#Trazado_982547)">
              <g id="Trazado_982547-2" data-name="Trazado 982547" transform="translate(9 6)" fill="#f6f9fc">
                <path d="M 46.00000381469727 90.5 C 39.99188232421875 90.5 34.16427230834961 89.32364654541016 28.67905807495117 87.00359344482422 C 23.38020324707031 84.76236724853516 18.62103080749512 81.55355072021484 14.53375053405762 77.46625518798828 C 10.44645690917969 73.37897491455078 7.237643718719482 68.61980438232422 4.996417045593262 63.32094955444336 C 2.676363706588745 57.83573532104492 1.500003814697266 52.00812530517578 1.500003814697266 46.00000381469727 C 1.500003814697266 39.99188232421875 2.676363706588745 34.16427230834961 4.996417045593262 28.67905807495117 C 7.237643718719482 23.38020324707031 10.44645690917969 18.62104415893555 14.53375053405762 14.53375053405762 C 18.62103080749512 10.44647026062012 23.38020324707031 7.237643718719482 28.67905807495117 4.996417045593262 C 34.16427230834961 2.676363706588745 39.99188232421875 1.500003814697266 46.00000381469727 1.500003814697266 C 52.00812530517578 1.500003814697266 57.83573532104492 2.676363706588745 63.32094955444336 4.996417045593262 C 68.61980438232422 7.237643718719482 73.37897491455078 10.44647026062012 77.46625518798828 14.53375053405762 C 81.55355072021484 18.62104415893555 84.76236724853516 23.38020324707031 87.00359344482422 28.67905807495117 C 89.32364654541016 34.16427230834961 90.5 39.99188232421875 90.5 46.00000381469727 C 90.5 52.00812530517578 89.32364654541016 57.83573532104492 87.00359344482422 63.32094955444336 C 84.76236724853516 68.61980438232422 81.55355072021484 73.37897491455078 77.46625518798828 77.46625518798828 C 73.37897491455078 81.55355072021484 68.61980438232422 84.76236724853516 63.32094955444336 87.00359344482422 C 57.83573532104492 89.32364654541016 52.00812530517578 90.5 46.00000381469727 90.5 Z" stroke="none"/>
                <path d="M 46.00000381469727 3.000007629394531 C 40.19371795654297 3.000007629394531 34.56270217895508 4.136505126953125 29.26338958740234 6.377914428710938 C 24.14333343505859 8.54351806640625 19.54441833496094 11.64440155029297 15.59442138671875 15.59442138671875 C 11.64440155029297 19.54441833496094 8.54351806640625 24.14333343505859 6.377914428710938 29.26338958740234 C 4.136505126953125 34.56270217895508 3.000007629394531 40.19371795654297 3.000007629394531 46.00000381469727 C 3.000007629394531 51.80628967285156 4.136505126953125 57.43730545043945 6.377914428710938 62.73661804199219 C 8.54351806640625 67.85667419433594 11.64440155029297 72.45558929443359 15.59442138671875 76.40558624267578 C 19.54441833496094 80.35560607910156 24.14333343505859 83.45648956298828 29.26338958740234 85.62208557128906 C 34.56270217895508 87.86350250244141 40.19371795654297 89 46.00000381469727 89 C 51.80628967285156 89 57.43730545043945 87.86350250244141 62.73661804199219 85.62208557128906 C 67.85667419433594 83.45648956298828 72.45558929443359 80.35560607910156 76.40558624267578 76.40558624267578 C 80.35560607910156 72.45558929443359 83.45648956298828 67.85667419433594 85.62208557128906 62.73661804199219 C 87.86350250244141 57.43730545043945 89 51.80628967285156 89 46.00000381469727 C 89 40.19371795654297 87.86350250244141 34.56270217895508 85.62208557128906 29.26338958740234 C 83.45648956298828 24.14333343505859 80.35560607910156 19.54441833496094 76.40558624267578 15.59442138671875 C 72.45558929443359 11.64440155029297 67.85667419433594 8.54351806640625 62.73661804199219 6.377914428710938 C 57.43730545043945 4.136505126953125 51.80628967285156 3.000007629394531 46.00000381469727 3.000007629394531 M 46.00000381469727 7.62939453125e-06 C 71.40510559082031 7.62939453125e-06 92 20.59490203857422 92 46.00000381469727 C 92 71.40510559082031 71.40510559082031 92 46.00000381469727 92 C 20.59490203857422 92 7.62939453125e-06 71.40510559082031 7.62939453125e-06 46.00000381469727 C 7.62939453125e-06 20.59490203857422 20.59490203857422 7.62939453125e-06 46.00000381469727 7.62939453125e-06 Z" stroke="none" fill="#a530fe"/>
              </g>
            </g>
          </g>
        </g>
      </g>
    </g>
    <g id="goal_4443951_1_" data-name="goal_4443951 (1)" transform="translate(356.565 2322.565)">
      <g id="Grupo_1150373" data-name="Grupo 1150373" transform="translate(0.853 0.853)">
        <g id="Grupo_1150356" data-name="Grupo 1150356" transform="translate(11.938 47.753)">
          <path id="Trazado_986232" data-name="Trazado 986232" d="M15,57H43.993v3.411H15Z" transform="translate(-15 -57)" fill="#ef7385"/>
        </g>
        <g id="Grupo_1150357" data-name="Grupo 1150357" transform="translate(11.938 40.931)">
          <path id="Trazado_986233" data-name="Trazado 986233" d="M43.993,49v3.411H15V49H43.993Z" transform="translate(-15 -49)" fill="#ef7385"/>
        </g>
        <g id="Grupo_1150358" data-name="Grupo 1150358" transform="translate(11.938 44.342)">
          <path id="Trazado_986234" data-name="Trazado 986234" d="M15,53H43.993v3.411H15Z" transform="translate(-15 -53)" fill="#5cd6b3"/>
        </g>
        <g id="Grupo_1150359" data-name="Grupo 1150359" transform="translate(8.527 40.931)">
          <path id="Trazado_986235" data-name="Trazado 986235" d="M14.411,55.822v3.411H11V49h3.411v6.822Z" transform="translate(-11 -49)" fill="#ffeaa7"/>
        </g>
        <g id="Grupo_1150360" data-name="Grupo 1150360" transform="translate(40.931 40.931)">
          <path id="Trazado_986236" data-name="Trazado 986236" d="M58.448,52.94a1.275,1.275,0,0,1,0,2.354L49,59.233V49l2.319.964L55.242,51.6Z" transform="translate(-49 -49)" fill="#ccd1d9"/>
        </g>
        <g id="Grupo_1150361" data-name="Grupo 1150361" transform="translate(0 40.931)">
          <path id="Trazado_986237" data-name="Trazado 986237" d="M9.527,49V59.233H6.116A5.124,5.124,0,0,1,1,54.116,5.12,5.12,0,0,1,6.116,49Z" transform="translate(-1 -49)" fill="#ccd1d9"/>
        </g>
        <g id="Grupo_1150362" data-name="Grupo 1150362" transform="translate(40.283 28.66)">
          <path id="Trazado_986238" data-name="Trazado 986238" d="M51.412,34.61,55.13,49.482l-3.923-1.637-1.518-6.08-1.45-5.782a15.243,15.243,0,0,0,3.172-1.373Z" transform="translate(-48.24 -34.61)" fill="#d3a06c"/>
        </g>
        <g id="Grupo_1150363" data-name="Grupo 1150363" transform="translate(25.105 28.66)">
          <path id="Trazado_986239" data-name="Trazado 986239" d="M36.682,35.983l-1.45,5.782-1.279,5.116H30.44L33.51,34.61A15.244,15.244,0,0,0,36.682,35.983Z" transform="translate(-30.44 -34.61)" fill="#d3a06c"/>
        </g>
        <g id="Grupo_1150364" data-name="Grupo 1150364" transform="translate(20.466)">
          <path id="Trazado_986240" data-name="Trazado 986240" d="M40.349,1A15.343,15.343,0,0,1,47.99,29.652v.009a15.341,15.341,0,0,1-15.281,0v-.009A15.343,15.343,0,0,1,40.349,1Z" transform="translate(-25 -1)" fill="#aab2bd"/>
        </g>
        <g id="Grupo_1150365" data-name="Grupo 1150365" transform="translate(25.582 5.116)">
          <path id="Trazado_986241" data-name="Trazado 986241" d="M41.233,7A10.233,10.233,0,1,1,31,17.233,10.23,10.23,0,0,1,41.233,7Z" transform="translate(-31 -7)" fill="#ccd1d9"/>
        </g>
        <g id="Grupo_1150366" data-name="Grupo 1150366" transform="translate(30.33 10.389)">
          <circle id="Elipse_11565" data-name="Elipse 11565" cx="5" cy="5" r="5" transform="translate(0.252 0.193)" fill="#ef7385"/>
        </g>
        <g id="Grupo_1150367" data-name="Grupo 1150367" transform="translate(7.675 11.938)">
          <path id="Trazado_986242" data-name="Trazado 986242" d="M15.116,15l1.705,3.411H11.705L10,15Z" transform="translate(-10 -15)" fill="#5cd6b3"/>
        </g>
        <g id="Grupo_1150368" data-name="Grupo 1150368" transform="translate(7.675 15.349)">
          <path id="Trazado_986243" data-name="Trazado 986243" d="M16.822,19l-1.705,3.411H10L11.705,19Z" transform="translate(-10 -19)" fill="#5cd6b3"/>
        </g>
        <g id="Grupo_1150369" data-name="Grupo 1150369" transform="translate(0.853 22.171)">
          <path id="Trazado_986244" data-name="Trazado 986244" d="M7.116,27l1.705,3.411H3.705L2,27Z" transform="translate(-2 -27)" fill="#5cd6b3"/>
        </g>
        <g id="Grupo_1150370" data-name="Grupo 1150370" transform="translate(0.853 25.582)">
          <path id="Trazado_986245" data-name="Trazado 986245" d="M8.822,31,7.116,34.411H2L3.705,31Z" transform="translate(-2 -31)" fill="#5cd6b3"/>
        </g>
        <g id="Grupo_1150371" data-name="Grupo 1150371" transform="translate(0.853 5.116)">
          <path id="Trazado_986246" data-name="Trazado 986246" d="M8.822,7,7.116,10.411H2L3.705,7Z" transform="translate(-2 -7)" fill="#5cd6b3"/>
        </g>
        <g id="Grupo_1150372" data-name="Grupo 1150372" transform="translate(0.853 1.705)">
          <path id="Trazado_986247" data-name="Trazado 986247" d="M7.116,3,8.822,6.411H3.705L2,3Z" transform="translate(-2 -3)" fill="#5cd6b3"/>
        </g>
      </g>
      <path id="Trazado_986248" data-name="Trazado 986248" d="M51.558,44.932l-2.8-1.168L45.287,29.9a16.184,16.184,0,1,0-20.4-24.781H9.054L7.349,1.705H.326L2.458,5.969.326,10.233H7.349L9.054,6.822H23.482a16.087,16.087,0,0,0-2.973,8.527H15.877l-1.705-3.411H7.148L9.279,16.2,7.148,20.466h7.023l1.705-3.411h4.632a16.087,16.087,0,0,0,2.973,8.527H9.054L7.349,22.171H.326l2.132,4.264L.326,30.7H7.349l1.705-3.411H24.884A16.309,16.309,0,0,0,28.049,29.9L25.291,40.931H5.969a5.969,5.969,0,1,0,0,11.938H41.955l9.6-4a2.133,2.133,0,0,0,0-3.936ZM6.295,3.411l.853,1.705H3.938L3.085,3.411Zm0,5.116H3.085l.853-1.705h3.21Zm6.822,5.116.853,1.705H10.76l-.853-1.705Zm0,5.116H9.907l.853-1.705h3.21ZM6.295,23.877l.853,1.705H3.938l-.853-1.705Zm0,5.116H3.085l.853-1.705h3.21Zm40.5,13.953-1.962-.818-2.676-10.7a16.245,16.245,0,0,0,1.59-.673Zm-5.86-.31v1.705H13.644V42.637Zm0,5.116H13.644V46.048H40.931ZM11.938,51.164H10.233V42.637h1.705Zm1.705-1.705H40.931v1.705H13.644Zm28.311-8.527H30.565l.853-3.411h10.5l.947,3.79ZM36.668,32.4a16.109,16.109,0,0,0,3.851-.482l.974,3.893H31.844l.973-3.893a16.12,16.12,0,0,0,3.851.482ZM25.635,25.582a14.418,14.418,0,0,1-3.42-8.527h3.411a11.086,11.086,0,1,0,0-1.705H22.215a14.418,14.418,0,0,1,3.42-8.527h3.358V5.116H27.346a14.5,14.5,0,1,1,0,22.171h1.647V25.582Zm5.132-8.527a5.969,5.969,0,1,0,0-1.705H27.331a9.38,9.38,0,1,1,0,1.705ZM37.52,18.76V13.644H35.815v1.705H32.49a4.264,4.264,0,1,1,0,1.705h3.325V18.76ZM29.593,30.755a16.158,16.158,0,0,0,1.59.673l-2.376,9.5H27.049ZM1.705,46.9a4.269,4.269,0,0,1,4.264-4.264H8.527v8.527H5.969A4.269,4.269,0,0,1,1.705,46.9Zm49.2.394-8.265,3.443V43.063L50.9,46.507a.427.427,0,0,1,0,.788Z"/>
    </g>
  </g>
</svg>
