<svg xmlns="http://www.w3.org/2000/svg" xmlns:xlink="http://www.w3.org/1999/xlink" width="505" height="352" viewBox="0 0 505 352">
  <defs>
    <clipPath id="clip-path">
      <rect id="Rectángulo_408464" data-name="Rectángulo 408464" width="505" height="352" transform="translate(915 3348)" fill="#fff" stroke="#707070" stroke-width="1"/>
    </clipPath>
    <clipPath id="clip-path-2">
      <rect id="Rectángulo_408462" data-name="Rectángulo 408462" width="471.502" height="307.648" fill="none"/>
    </clipPath>
    <clipPath id="clip-path-6">
      <rect id="Rectángulo_408412" data-name="Rectángulo 408412" width="19.583" height="55.104" fill="none"/>
    </clipPath>
    <clipPath id="clip-path-7">
      <rect id="Rectángulo_408413" data-name="Rectángulo 408413" width="47.342" height="15.625" fill="none"/>
    </clipPath>
    <clipPath id="clip-path-8">
      <rect id="Rectángulo_408414" data-name="Rectángulo 408414" width="23.051" height="15.447" fill="none"/>
    </clipPath>
    <clipPath id="clip-path-9">
      <rect id="Rectángulo_408415" data-name="Rectángulo 408415" width="47.39" height="15.54" fill="none"/>
    </clipPath>
    <clipPath id="clip-path-10">
      <rect id="Rectángulo_408416" data-name="Rectángulo 408416" width="12.895" height="58.896" fill="none"/>
    </clipPath>
    <clipPath id="clip-path-11">
      <rect id="Rectángulo_408417" data-name="Rectángulo 408417" width="26.268" height="51.822" fill="none"/>
    </clipPath>
    <clipPath id="clip-path-12">
      <rect id="Rectángulo_408420" data-name="Rectángulo 408420" width="49.59" height="36.2" fill="none"/>
    </clipPath>
    <clipPath id="clip-path-13">
      <rect id="Rectángulo_408422" data-name="Rectángulo 408422" width="46.851" height="21.394" fill="none"/>
    </clipPath>
    <clipPath id="clip-path-14">
      <rect id="Rectángulo_408425" data-name="Rectángulo 408425" width="48.929" height="21.665" fill="none"/>
    </clipPath>
    <clipPath id="clip-path-16">
      <rect id="Rectángulo_408429" data-name="Rectángulo 408429" width="469.069" height="304.5" fill="none"/>
    </clipPath>
    <clipPath id="clip-path-17">
      <rect id="Rectángulo_408430" data-name="Rectángulo 408430" width="469.071" height="303.658" fill="none"/>
    </clipPath>
    <clipPath id="clip-path-19">
      <rect id="Rectángulo_408442" data-name="Rectángulo 408442" width="38.092" height="31.312" fill="none"/>
    </clipPath>
    <clipPath id="clip-path-20">
      <rect id="Rectángulo_408445" data-name="Rectángulo 408445" width="50.457" height="61.965" fill="none"/>
    </clipPath>
    <clipPath id="clip-path-21">
      <rect id="Rectángulo_408447" data-name="Rectángulo 408447" width="33.774" height="55.656" fill="none"/>
    </clipPath>
    <clipPath id="clip-path-22">
      <rect id="Rectángulo_408450" data-name="Rectángulo 408450" width="34.537" height="57.972" fill="none"/>
    </clipPath>
    <clipPath id="clip-path-24">
      <rect id="Rectángulo_408459" data-name="Rectángulo 408459" width="243.679" height="249.357" fill="none"/>
    </clipPath>
  </defs>
  <g id="Enmascarar_grupo_1098766" data-name="Enmascarar grupo 1098766" transform="translate(-915 -3348)" clip-path="url(#clip-path)">
    <g id="Grupo_1150576" data-name="Grupo 1150576" transform="translate(948.498 3392.074)">
      <g id="Grupo_1150575" data-name="Grupo 1150575" clip-path="url(#clip-path-2)">
        <rect id="Rectángulo_408404" data-name="Rectángulo 408404" width="24.133" height="7.681" transform="translate(383.527 258.532)" fill="#ebebeb"/>
        <rect id="Rectángulo_408405" data-name="Rectángulo 408405" width="24.133" height="7.681" transform="translate(126.396 153.25)" fill="#ebebeb"/>
        <g id="Grupo_1150514" data-name="Grupo 1150514">
          <g id="Grupo_1150513" data-name="Grupo 1150513" clip-path="url(#clip-path-2)">
            <path id="Trazado_986593" data-name="Trazado 986593" d="M578.285,398.28c4.008-.067,14.285-.239,18.153-.284l5.979-.03-.312.313-.03-7.681.342.343c-4.007-.013-14.227-.05-18.1-.105l-6.033-.075.163-.163Zm0,0-.163-7.681,0-.161.166,0c3.011-.04,9.057-.109,12.066-.133l12.066-.047h.345v.344l-.03,7.681v.314h-.312l-6.087-.03c-3.844-.043-14.075-.216-18.045-.283" transform="translate(-181.296 -122.382)" fill="#ebebeb"/>
            <path id="Trazado_986594" data-name="Trazado 986594" d="M345.144,120.766c4.008-.068,14.285-.239,18.153-.283l5.979-.03-.313.313-.03-7.681.343.343c-4.008-.013-14.228-.05-18.1-.105l-6.033-.075.163-.163Zm0,0-.163-7.681,0-.161.166,0c3.011-.04,9.057-.109,12.066-.133l12.066-.047h.344v.344l-.03,7.681v.314h-.312l-6.088-.03c-3.844-.042-14.075-.216-18.045-.283" transform="translate(-108.184 -35.355)" fill="#ebebeb"/>
            <path id="Trazado_986595" data-name="Trazado 986595" d="M364.756,134.876c4.008-.068,14.285-.239,18.153-.283l5.979-.03-.312.313-.03-7.681.343.343c-4.007-.013-14.227-.05-18.1-.105l-6.033-.075.163-.163Zm0,0-.163-7.681,0-.161.166,0c3.011-.04,9.057-.109,12.066-.133l12.066-.047h.345v.344l-.03,7.681v.314h-.312l-6.087-.03c-3.844-.042-14.075-.216-18.045-.283" transform="translate(-114.334 -39.78)" fill="#ebebeb"/>
            <rect id="Rectángulo_408406" data-name="Rectángulo 408406" width="24.133" height="7.681" transform="translate(263.831 77.73)" fill="#ebebeb"/>
            <rect id="Rectángulo_408407" data-name="Rectángulo 408407" width="24.133" height="7.681" transform="translate(7.079 268.216)" fill="#ebebeb"/>
            <rect id="Rectángulo_408408" data-name="Rectángulo 408408" width="24.133" height="7.681" transform="translate(20.541 31.03)" fill="#ebebeb"/>
            <path id="Trazado_986596" data-name="Trazado 986596" d="M10.237,66.839c4.008-.068,14.285-.239,18.153-.283l5.979-.03-.312.313-.03-7.681.343.343c-4.007-.013-14.227-.05-18.1-.105l-6.033-.075.163-.163Zm0,0-.163-7.681,0-.161.166,0c3.011-.04,9.057-.109,12.066-.133l12.066-.047h.345v.344l-.03,7.681v.314h-.312l-6.087-.03c-3.844-.042-14.075-.216-18.045-.283" transform="translate(-3.158 -18.444)" fill="#ebebeb"/>
            <path id="Trazado_986597" data-name="Trazado 986597" d="M470.015,199.419c4.008-.067,14.285-.239,18.153-.283l5.979-.03-.312.313-.03-7.681.342.343c-4.007-.013-14.227-.05-18.1-.105l-6.033-.075.163-.163Zm0,0-.163-7.681,0-.161.166,0c3.011-.04,9.057-.109,12.066-.133l12.066-.047h.345v.344l-.03,7.681v.314h-.312l-6.087-.03c-3.844-.042-14.075-.216-18.045-.283" transform="translate(-147.343 -60.02)" fill="#ebebeb"/>
            <path id="Trazado_986598" data-name="Trazado 986598" d="M558.673,52.73c4.008-.068,14.285-.239,18.153-.283l5.979-.03-.313.313-.03-7.681.343.343c-4.008-.013-14.228-.05-18.1-.105l-6.033-.075.163-.163Zm0,0-.163-7.681,0-.161.166,0c3.011-.04,9.057-.109,12.066-.133l12.066-.047h.344v.344l-.03,7.681v.314h-.312l-6.088-.03c-3.844-.042-14.075-.216-18.045-.283" transform="translate(-175.146 -14.019)" fill="#ebebeb"/>
            <path id="Trazado_986599" data-name="Trazado 986599" d="M64.54,343.567c5.814-11.95,15.989-18.087,27.456-14.7s13.243,19.381,4.683,23.417-17.12-7.752-21.642-10.175-10.5,1.453-10.5,1.453" transform="translate(-20.24 -102.842)" fill="#ebebeb"/>
            <path id="Trazado_986600" data-name="Trazado 986600" d="M56.315,376.717c.03-1.441.085-2.881.137-4.321q.152-4.315.305-8.629c.2-5.26.762-10.426,2.942-15.276a23.681,23.681,0,0,1,9.223-10.629,19.417,19.417,0,0,1,4.848-2.092,11.331,11.331,0,0,1,5.659-3.109,23.124,23.124,0,0,1,8.067-.2c.1.011.093.163,0,.152a19.4,19.4,0,0,0-7.631.544,16.026,16.026,0,0,0-3.074,1.2,14.7,14.7,0,0,0-1.778,1.128,16.49,16.49,0,0,1,7.008.067,15.786,15.786,0,0,1,2.431.8,7.159,7.159,0,0,1,1.911-.163,11.29,11.29,0,0,1,2.483.354,18.737,18.737,0,0,1,4.717,2.061c.085.049.006.176-.08.129a17.594,17.594,0,0,0-4.6-1.735,15.4,15.4,0,0,0-2.366-.347,11.756,11.756,0,0,0-1.319.01,15.2,15.2,0,0,1,7.416,7.389c.04.089-.093.163-.132.073a13.94,13.94,0,0,0-9.449-7.574c-.253-.065-.511-.1-.767-.149a10.979,10.979,0,0,1,.122,1.157q.115.872.291,1.735a29.458,29.458,0,0,0,.934,3.5,27.59,27.59,0,0,0,1.389,3.392,16.17,16.17,0,0,0,1.938,3.273.076.076,0,1,1-.121.089c-.688-1.08-1.49-2.073-2.119-3.2a23.987,23.987,0,0,1-1.555-3.337,22.706,22.706,0,0,1-1.022-3.582q-.188-.966-.3-1.945a4.523,4.523,0,0,1-.073-1.186,15.7,15.7,0,0,0-4.072-.083c.509,2.85,1.056,5.822,2.653,8.3.053.082-.087.161-.133.073a33.37,33.37,0,0,1-1.97-4.078,15.459,15.459,0,0,1-.983-4.247,18.782,18.782,0,0,0-6.732,2.258,22.232,22.232,0,0,0-8.963,9.805,36.889,36.889,0,0,0-3.322,14.055c-.382,6.108-.461,12.254-1.071,18.346-.04.4-.671.531-.748.082a21.576,21.576,0,0,1-.084-4.089" transform="translate(-17.643 -104.178)" fill="#a6a6a6"/>
            <path id="Trazado_986601" data-name="Trazado 986601" d="M75.909,337.278a6.727,6.727,0,0,1,1.321-1.219c.476-.395.964-.776,1.476-1.122a10.987,10.987,0,0,1,3.3-1.533.076.076,0,0,1,.037.148,8.749,8.749,0,0,0-3.26,1.6c-.486.356-.953.739-1.407,1.135a8.387,8.387,0,0,1-1.334,1.133.1.1,0,0,1-.137-.144" transform="translate(-23.8 -104.553)" fill="#a6a6a6"/>
            <path id="Trazado_986602" data-name="Trazado 986602" d="M102.893,345.348a35.076,35.076,0,0,1,2.667,3.529,21.458,21.458,0,0,1,1.984,3.932c.015.041-.049.065-.07.028a47.072,47.072,0,0,0-4.69-7.384c-.062-.074.048-.179.11-.1" transform="translate(-32.227 -108.292)" fill="#a6a6a6"/>
            <path id="Trazado_986603" data-name="Trazado 986603" d="M84.66,343.611a8.6,8.6,0,0,0,.657,2.162,14.327,14.327,0,0,0,1.107,1.916c.027.04-.035.083-.067.049a7.767,7.767,0,0,1-1.845-4.09c-.015-.1.131-.133.148-.036" transform="translate(-26.502 -107.737)" fill="#a6a6a6"/>
            <path id="Trazado_986604" data-name="Trazado 986604" d="M39.483,347.723s-8.233-10.347-24.123-6.679c-15.1,3.486-22.074,31.181-6.812,34.494s12.571-22.315,18.133-26.664c4.081-3.191,9.95-2.505,12.8-1.15" transform="translate(0 -106.703)" fill="#ebebeb"/>
            <path id="Trazado_986605" data-name="Trazado 986605" d="M4.486,357.161a30.912,30.912,0,0,1,3.274-2.51,14.254,14.254,0,0,1,3.49-1.743,21.088,21.088,0,0,1,2.072-2.664,20.526,20.526,0,0,1,4.8-3.825c-.157-.009-.315-.026-.473-.032a24.819,24.819,0,0,0-2.526.025,14.119,14.119,0,0,0-4.9,1.221c-.089.04-.154-.1-.065-.137a22.4,22.4,0,0,1,4.9-1.476,13.866,13.866,0,0,1,2.481-.213c.445,0,.892.034,1.336.078.082.008.168.013.255.02a21.344,21.344,0,0,1,4.58-1.684c-.148-.039-.293-.085-.442-.119a22.044,22.044,0,0,0-2.356-.387,18.463,18.463,0,0,0-4.754.073c-.1.013-.124-.137-.027-.15a30.048,30.048,0,0,1,4.806-.194,20.2,20.2,0,0,1,4,.518,21.044,21.044,0,0,1,2.9-.331c5.54-.234,11.58,1.837,14.991,6.39,3.422,4.568,4.079,10.639,4.682,16.139a122.541,122.541,0,0,1,.608,23.1c-.036.454-.674.371-.688-.06-.208-6.53-.438-13.062-1.063-19.57-.289-3.013-.61-6.038-1.111-9.023a26.59,26.59,0,0,0-2.19-7.431,13.6,13.6,0,0,0-5.363-5.766,18.1,18.1,0,0,0-7.6-2.337,20.465,20.465,0,0,0-7.129.667,4.706,4.706,0,0,1,.04,1.406,7.928,7.928,0,0,1-.349,1.737,9.132,9.132,0,0,1-.664,1.541c-.294.546-.664,1.032-.992,1.555-.052.082-.185-.011-.124-.088a7.224,7.224,0,0,0,1.232-3.133,12.462,12.462,0,0,0,.19-1.619c.021-.41-.014-.822,0-1.229a20.99,20.99,0,0,0-6.937,3.663c-.387.309-.759.637-1.124.973a7.713,7.713,0,0,1,1.347,1.655A16.224,16.224,0,0,1,17,354.715a21.364,21.364,0,0,1,1.47,5.528c.014.1-.136.124-.15.028a16,16,0,0,0-1.808-5.238,21.146,21.146,0,0,0-1.408-2.328c-.268-.382-.546-.761-.835-1.127-.156-.2-.326-.4-.474-.609a21.906,21.906,0,0,0-4.506,6.346c.01.006.021,0,.03.014A10.784,10.784,0,0,1,11.183,360a25.044,25.044,0,0,1,1.488,3.18,53.426,53.426,0,0,1,1.9,6.48c.023.095-.13.124-.15.027a27.191,27.191,0,0,0-2.254-6.381q-.71-1.5-1.5-2.945a27.222,27.222,0,0,1-1.493-2.778,20.39,20.39,0,0,0-1.813,7.36.076.076,0,0,1-.151-.013,25.671,25.671,0,0,1,3.567-11.3c-.972.414-1.947.813-2.882,1.317a16.155,16.155,0,0,0-3.3,2.321c-.071.066-.172-.053-.1-.117" transform="translate(-1.399 -107.696)" fill="#a6a6a6"/>
            <path id="Trazado_986606" data-name="Trazado 986606" d="M21.408,364.265c.476,1.569,1.077,3.093,1.507,4.677a18.026,18.026,0,0,1,.7,4.672c0,.044-.069.046-.076,0a45.439,45.439,0,0,0-2.277-9.306.076.076,0,1,1,.143-.046" transform="translate(-6.666 -114.214)" fill="#a6a6a6"/>
            <path id="Trazado_986607" data-name="Trazado 986607" d="M6.8,357.541a8.838,8.838,0,0,1,2.1-1.5,15.145,15.145,0,0,1,2.436-.861c.092-.028.124.128.027.149a9.511,9.511,0,0,0-2.344.965,17.535,17.535,0,0,0-2.16,1.326.049.049,0,0,1-.063-.076" transform="translate(-2.128 -111.381)" fill="#a6a6a6"/>
            <path id="Trazado_986608" data-name="Trazado 986608" d="M32.9,319.24s-1.519-18.588-15.339-24.614C6.015,289.6-.591,302.563,7.567,310.5c6.6,6.421,17.183,3.523,25.328,8.74" transform="translate(-1.237 -92.04)" fill="#ebebeb"/>
            <path id="Trazado_986609" data-name="Trazado 986609" d="M12.9,299.736a58.35,58.35,0,0,1,6.146,2.91,45.99,45.99,0,0,1,4.772,3.168c-.229-.47-.429-.962-.66-1.422-.361-.717-.747-1.42-1.174-2.1a19.671,19.671,0,0,0-3.044-3.853c-.071-.068.041-.175.11-.105a30.416,30.416,0,0,1,3.2,3.73,22.106,22.106,0,0,1,1.313,2.1,8.388,8.388,0,0,1,.929,2.141c.05.038.1.072.153.111a45.439,45.439,0,0,1,6.6,6.458c-.038-.183-.077-.365-.124-.532q-.388-1.361-.837-2.7a23.053,23.053,0,0,0-2.5-5.421c-.054-.081.082-.157.133-.073a43.284,43.284,0,0,1,2.893,5.287,20.048,20.048,0,0,1,.955,2.748,11.7,11.7,0,0,1,.45,1.867c.6.762,1.194,1.532,1.752,2.327,5.932,8.445,8.91,18.661,9.625,28.883a88.794,88.794,0,0,1,.154,9.157,57.372,57.372,0,0,1-.81,9.19c-.038.192-.339.135-.334-.054.069-2.685.347-5.36.4-8.048s-.043-5.388-.26-8.07a75.031,75.031,0,0,0-3.013-15.817,56.629,56.629,0,0,0-7.027-14.87c-.582-.115-1.159-.273-1.732-.421-.69-.178-1.381-.354-2.067-.546a20.709,20.709,0,0,1-3.854-1.413c-.086-.043-.005-.178.08-.129a12.41,12.41,0,0,0,3.908,1.348c1.081.216,2.2.356,3.288.6a52.182,52.182,0,0,0-3.213-4.223,24,24,0,0,1-7.863-.587,31.853,31.853,0,0,1-4.024-1.253c-1.384-.533-2.695-1.219-4.061-1.79-.1-.043-.032-.194.062-.137a23.086,23.086,0,0,0,7.971,2.608,49.251,49.251,0,0,0,7.455.616c-.982-1.126-2-2.223-3.078-3.254a36.359,36.359,0,0,0-12.722-8.289c-.093-.033-.045-.183.044-.146" transform="translate(-4.017 -93.549)" fill="#a6a6a6"/>
            <path id="Trazado_986610" data-name="Trazado 986610" d="M29.272,300.458a20.844,20.844,0,0,1,1.694,2.478,13.551,13.551,0,0,1,1.219,2.883.03.03,0,0,1-.056.022c-.461-.912-.85-1.857-1.317-2.766a13.812,13.812,0,0,0-1.65-2.513c-.062-.075.05-.181.11-.1" transform="translate(-9.14 -94.214)" fill="#a6a6a6"/>
            <path id="Trazado_986611" data-name="Trazado 986611" d="M10.556,309.481a14.354,14.354,0,0,0,2.833,1.183,25.889,25.889,0,0,0,2.886.774.042.042,0,0,1-.013.082,13.985,13.985,0,0,1-2.988-.654,25.2,25.2,0,0,1-2.8-1.255c-.086-.043-.006-.178.08-.129" transform="translate(-3.274 -97.049)" fill="#a6a6a6"/>
            <path id="Trazado_986612" data-name="Trazado 986612" d="M61.567,304.509c.086.8,2.091-6.749,13.775-13.453,10.612-6.089,23.278-21.925,12.873-31.93-8.4-8.076-30.524,9.529-26.648,45.383" transform="translate(-19.166 -80.654)" fill="#ebebeb"/>
            <path id="Trazado_986613" data-name="Trazado 986613" d="M50.029,350.63a207.194,207.194,0,0,1,1.854-23.495,105.79,105.79,0,0,1,4.937-21.029c.87-2.457,1.863-4.875,2.941-7.255a16.739,16.739,0,0,1,.049-2.781c.056-1.19.165-2.377.274-3.564s.23-2.371.371-3.555.392-2.364.441-3.545a.076.076,0,1,1,.149.024,25.093,25.093,0,0,0-.419,3.762c-.089,1.147-.155,2.293-.19,3.442s-.03,2.3-.03,3.45c0,.415.022.855.037,1.3,1.1-2.323,2.277-4.609,3.552-6.835-.791-4.845.236-9.91,1.226-14.646.02-.1.165-.051.146.043a41.213,41.213,0,0,0-.771,7.509c-.045,1.989.048,3.979.056,5.968.281-.476.56-.954.848-1.425q2.271-3.713,4.853-7.253a11.354,11.354,0,0,1,.113-3.449,26.684,26.684,0,0,1,.847-3.775q.559-1.857,1.294-3.649c.506-1.228,1.181-2.391,1.669-3.623.04-.1.194-.032.137.062a17.815,17.815,0,0,0-1.463,3.665,33.28,33.28,0,0,0-.955,3.636c-.247,1.231-.45,2.463-.623,3.706-.114.822-.186,1.674-.328,2.5a89.416,89.416,0,0,1,8.182-9.521c.07-.071.168.037.1.109a107.665,107.665,0,0,0-11.88,16.161c-.128.215-.249.434-.375.65.644-.4,1.382-.723,1.988-1.06q1.7-.944,3.408-1.871,1.66-.9,3.311-1.812c.566-.314,1.125-.64,1.7-.936a13.6,13.6,0,0,0,1.98-1.1c.089-.067.184.069.089.122-1.124.618-2.119,1.536-3.2,2.229s-2.2,1.367-3.336,2c-2.078,1.16-4.334,1.993-6.379,3.191-1.419,2.483-2.725,5.031-3.932,7.626q1.863-1.194,3.8-2.272c.828-.465,1.658-.922,2.5-1.363a12.358,12.358,0,0,0,2.354-1.422.076.076,0,0,1,.1.11,22.129,22.129,0,0,1-4.489,3.123c-1.5.877-3.018,1.724-4.579,2.49q-1.875,4.105-3.382,8.362c-4.918,13.926-6.725,28.71-7.589,43.393-.257,4.378-.39,8.752-.444,13.136s.176,8.75.167,13.126c0,.129-.213.16-.231.026-.526-3.882-.618-7.83-.787-11.74-.172-3.976-.175-7.975-.086-11.954" transform="translate(-15.671 -83.479)" fill="#a6a6a6"/>
            <path id="Trazado_986614" data-name="Trazado 986614" d="M80.965,294.174a56.2,56.2,0,0,0,6.209-3.211,65.568,65.568,0,0,0,5.9-3.743c.031-.023.07.03.04.054a49.678,49.678,0,0,1-5.661,3.959,56.569,56.569,0,0,1-6.41,3.074c-.09.039-.163-.1-.073-.133" transform="translate(-25.378 -90.07)" fill="#a6a6a6"/>
            <path id="Trazado_986615" data-name="Trazado 986615" d="M75.676,272.786c.173-.68.388-1.347.616-2.01a.06.06,0,0,1-.03-.077c.148-.377.3-.75.456-1.124a1.242,1.242,0,0,1,.055-.135l.087-.214c.009-.023.046-.014.038.011-.042.128-.073.259-.114.388a2.046,2.046,0,0,1-.063.215,55.451,55.451,0,0,0-1.732,7.934c-.013.084-.142.086-.137,0a26.712,26.712,0,0,1,.822-4.984" transform="translate(-23.474 -84.424)" fill="#a6a6a6"/>
            <path id="Trazado_986616" data-name="Trazado 986616" d="M36.579,396.506l2.975,35.168H63.578l2.975-35.168Z" transform="translate(-11.471 -124.343)" fill="#c7c7c7"/>
            <path id="Trazado_986617" data-name="Trazado 986617" d="M36.579,396.506l.529,6.272,28.714,2.412.732-8.684Z" transform="translate(-11.471 -124.343)" fill="#a6a6a6"/>
            <rect id="Rectángulo_408409" data-name="Rectángulo 408409" width="34.689" height="8.331" transform="translate(22.75 268.678)" fill="#c7c7c7"/>
          </g>
        </g>
        <g id="Grupo_1150516" data-name="Grupo 1150516">
          <g id="Grupo_1150515" data-name="Grupo 1150515" clip-path="url(#clip-path-2)">
            <path id="Trazado_986618" data-name="Trazado 986618" d="M0,447.6c137.167-.42,291.035-.423,428.2,0-137.167.424-291.035.42-428.2,0" transform="translate(0 -140.265)" fill="#263238"/>
          </g>
        </g>
        <g id="Grupo_1150545" data-name="Grupo 1150545">
          <g id="Grupo_1150544" data-name="Grupo 1150544" clip-path="url(#clip-path-2)">
            <path id="Trazado_986619" data-name="Trazado 986619" d="M162.34,114.3c-.738,11.883.252,17.306,1.421,25.74.835,6.02,8.745,15.439,14.077,21.882.877,1.06,12.5-7.166,11.687-9.259-.51-1.306-12.277-13.743-13.266-17.072-1.308-4.4-4.512-14.12-7.824-22.129-2.021-4.888-5.569-7.624-6.095.838" transform="translate(-50.829 -34.135)" fill="#f7a9a0"/>
            <path id="Trazado_986620" data-name="Trazado 986620" d="M190.86,191.9c-.826-.558-1.124-.128-.583,1.559.544,1.708,4.116,7.9,1.841,8.967s-7.19-7.78-7.876-10.658a46.983,46.983,0,0,1-.788-7.774c1.3,1.53,4.814,4.939,7.406,7.907" transform="translate(-57.53 -57.701)" fill="#f7a9a0"/>
            <path id="Trazado_986621" data-name="Trazado 986621" d="M195.7,171.914c4.228,4.42,8.149,9.759,9.019,16.087a3.166,3.166,0,0,1-.354,2.041c.441,2.829-.763,3.886-.763,3.886-.4,2.761-1.776,3.674-1.776,3.674s.074,2.313-1.54,2.483c-1.566.165-2.97-3.466-4.722-6.029-4.016-5.874-10.783-12.268-12.11-13.847Z" transform="translate(-57.53 -53.912)" fill="#f7a9a0"/>
            <path id="Trazado_986622" data-name="Trazado 986622" d="M202.107,192.062a45.658,45.658,0,0,1,3.224,5.342,45.929,45.929,0,0,1,2.269,6.447.056.056,0,0,0,.108-.024,24.194,24.194,0,0,0-5.522-11.819c-.067-.076-.137-.034-.079.054" transform="translate(-63.373 -60.201)" fill="#263238"/>
            <path id="Trazado_986623" data-name="Trazado 986623" d="M206.756,187.773a33.711,33.711,0,0,1,4.079,11.109c0,.02.04.019.038,0a21.711,21.711,0,0,0-4.033-11.154c-.073-.105-.152-.069-.084.049" transform="translate(-64.83 -58.85)" fill="#263238"/>
            <path id="Trazado_986624" data-name="Trazado 986624" d="M209.3,185.511a34.081,34.081,0,0,1,3.146,8.744c0,.021.041.017.038-.006a20.322,20.322,0,0,0-3.086-8.809c-.062-.112-.161-.049-.1.071" transform="translate(-65.63 -58.135)" fill="#263238"/>
            <path id="Trazado_986625" data-name="Trazado 986625" d="M175.1,163,189,149.538s-11.073-11.626-11.611-13.114-6.076-16.636-8.106-22.23c-2.295-6.321-6.734-10.167-7.251-.214a138.043,138.043,0,0,0,1.383,28.149C163.881,145.59,175.1,163,175.1,163" transform="translate(-50.751 -33.835)" fill="#ffc727"/>
            <path id="Trazado_986626" data-name="Trazado 986626" d="M180.055,176.666a17.024,17.024,0,0,1,1.434-1.416c.429-.419.852-.846,1.287-1.26.948-.9,1.89-1.813,2.843-2.712s1.9-1.8,2.853-2.685,1.882-1.8,2.883-2.631c.038-.032.091.025.06.062-.821,1.01-1.748,1.936-2.653,2.869s-1.814,1.813-2.744,2.7c-.947.9-1.92,1.772-2.9,2.635-.472.416-.96.815-1.444,1.217a15.11,15.11,0,0,1-1.575,1.27c-.03.019-.069-.016-.045-.047" transform="translate(-56.462 -52.042)" fill="#263238"/>
            <g id="Grupo_1150519" data-name="Grupo 1150519" transform="translate(111.083 74.06)" opacity="0.1">
              <g id="Grupo_1150518" data-name="Grupo 1150518">
                <g id="Grupo_1150517" data-name="Grupo 1150517" clip-path="url(#clip-path-6)">
                  <path id="Trazado_986627" data-name="Trazado 986627" d="M162.025,113.981a138.294,138.294,0,0,0,1.382,28.148C163.881,145.592,175.1,163,175.1,163l6.32-6.123L164.434,107.9c-1.213.035-2.182,1.75-2.409,6.086" transform="translate(-161.834 -107.896)"/>
                </g>
              </g>
            </g>
            <path id="Trazado_986628" data-name="Trazado 986628" d="M205.781,387.882c-1.492.482-44.04-.06-45.646-1.111-.617-.388-.9-6.593-1.025-14.1l0-.235c-.029-1.547-.049-3.14-.052-4.755,0-.222,0-.445-.008-.666l2.059-22.073,27.468.279-1.809,21.867-.032.866-.171,4.527-.016.465s16.194,7.492,17.838,8.833,2.89,5.627,1.4,6.1" transform="translate(-49.877 -108.173)" fill="#f7a9a0"/>
            <path id="Trazado_986629" data-name="Trazado 986629" d="M205.781,397.967c-1.492.482-44.04-.06-45.646-1.111-.617-.388-.9-6.593-1.025-14.1l0-.235c-.029-1.547-.049-3.14-.052-4.755,0-.222,0-.445-.008-.667l27.718.072-.032.866-.171,4.527-.016.465s16.194,7.492,17.838,8.833,2.89,5.627,1.4,6.1" transform="translate(-49.877 -118.257)" fill="#ebebeb"/>
            <path id="Trazado_986630" data-name="Trazado 986630" d="M205.813,400.438c-.768.248-12.328.224-23.627,0-2.272-.045-4.53-.1-6.685-.154-8.058-.22-14.717-.55-15.335-.953-.612-.384-.893-6.417-1.018-13.786,0-.1-.007-.208-.007-.312,0-.078,0-.163-.006-.241h.032l27.421.046-.013.469s16.2,7.488,17.836,8.829,2.891,5.629,1.4,6.1" transform="translate(-49.904 -120.731)" fill="#ffc727"/>
            <g id="Grupo_1150522" data-name="Grupo 1150522" transform="translate(109.231 264.259)" opacity="0.5">
              <g id="Grupo_1150521" data-name="Grupo 1150521">
                <g id="Grupo_1150520" data-name="Grupo 1150520" clip-path="url(#clip-path-7)">
                  <path id="Trazado_986631" data-name="Trazado 986631" d="M205.813,400.438c-.768.248-12.328.224-23.627,0-2.272-.045-4.53-.1-6.685-.154-8.058-.22-14.717-.55-15.335-.953-.612-.384-.893-6.417-1.018-13.786,0-.1-.007-.208-.007-.312,0-.078,0-.163-.006-.241h.032l27.421.046-.013.469s16.2,7.488,17.836,8.829,2.891,5.629,1.4,6.1" transform="translate(-159.135 -384.99)"/>
                </g>
              </g>
            </g>
            <path id="Trazado_986632" data-name="Trazado 986632" d="M206.695,404.867c-7.171-.268-36.114-.67-43.223-.389-.058,0-.059.041,0,.045,7.1.42,36.046.588,43.221.461.152,0,.153-.111,0-.117" transform="translate(-51.25 -126.813)" fill="#263238"/>
            <path id="Trazado_986633" data-name="Trazado 986633" d="M199.705,385.126c-2.816-.563-6.273-.174-8.455,1.81-.084.077.025.2.117.168a39.679,39.679,0,0,1,8.322-1.622.18.18,0,0,0,.016-.356" transform="translate(-59.966 -120.7)" fill="#263238"/>
            <path id="Trazado_986634" data-name="Trazado 986634" d="M202.65,386.952c-2.816-.563-6.273-.174-8.455,1.81-.085.077.026.2.117.168a39.722,39.722,0,0,1,8.322-1.622.18.18,0,0,0,.016-.356" transform="translate(-60.889 -121.273)" fill="#263238"/>
            <path id="Trazado_986635" data-name="Trazado 986635" d="M205.6,388.779c-2.816-.563-6.273-.174-8.455,1.81-.085.077.025.2.117.168a39.679,39.679,0,0,1,8.322-1.622.18.18,0,0,0,.016-.356" transform="translate(-61.813 -121.846)" fill="#263238"/>
            <g id="Grupo_1150525" data-name="Grupo 1150525" transform="translate(109.231 264.259)" opacity="0.1">
              <g id="Grupo_1150524" data-name="Grupo 1150524">
                <g id="Grupo_1150523" data-name="Grupo 1150523" clip-path="url(#clip-path-8)">
                  <path id="Trazado_986636" data-name="Trazado 986636" d="M182.186,400.437c-2.271-.045-4.53-.1-6.684-.154-8.058-.22-14.716-.551-15.335-.953-.612-.384-.893-6.418-1.019-13.786,0-.1-.007-.208-.007-.312,0-.078,0-.163-.006-.241h.032c3.757,2.635,17,11.445,23.019,15.447" transform="translate(-159.135 -384.99)"/>
                </g>
              </g>
            </g>
            <path id="Trazado_986637" data-name="Trazado 986637" d="M181.168,318.094l-30.643.007s6.154-71.572,5.913-72.821c-.306-1.6-2.117-8.845-4.528-18.308-.756-2.961-1.57-6.137-2.417-9.431-2.286-8.9-4.808-18.633-7-27.1a186.069,186.069,0,0,0-5.869-19.222l25.969-.005s21.349,61.123,22.2,73.755c.742,11.016-3.622,73.127-3.622,73.127" transform="translate(-42.844 -53.691)" fill="#263238"/>
            <path id="Trazado_986638" data-name="Trazado 986638" d="M186.961,377.483c-4.68-.1-3.335-.135-8.016-.178-2.291-.022-17.343-.15-19.482.205a.05.05,0,0,0,0,.1c2.14.354,17.192.22,19.482.2,4.681-.047,3.336-.084,8.016-.183a.068.068,0,0,0,0-.137" transform="translate(-49.996 -118.309)" fill="#37474f"/>
            <path id="Trazado_986639" data-name="Trazado 986639" d="M164.625,243.878c-1.006-4.429-2.508-8.77-3.816-13.118q-3.988-13.251-8.022-26.488c-1.342-4.413-7.572-20.922-8.187-23.116-.251-.893-.388-.4-.067.731.647,2.286,11.293,35.016,13.984,43.983q2.025,6.744,4.059,13.484a55.189,55.189,0,0,1,1.658,6.523,30.055,30.055,0,0,1,.272,6.979c-.292,4.688-.835,9.369-1.266,14.047s-.866,9.374-1.3,14.062q-1.292,13.992-2.56,27.987c-.106,1.182-.209,2.365-.3,3.549-.03.4.568.366.61-.015,1.007-9.224,1.779-18.478,2.643-27.716q1.289-13.788,2.577-27.578c.215-2.308.46-4.62.461-6.94a28.674,28.674,0,0,0-.747-6.373" transform="translate(-45.266 -56.665)" fill="#37474f"/>
            <path id="Trazado_986640" data-name="Trazado 986640" d="M159.642,171.213c-1.8,13.948-5.231,36.784-7.733,55.758-5.862-22.988-15.289-55.752-15.289-55.752Z" transform="translate(-42.844 -53.692)" fill="#37474f"/>
            <path id="Trazado_986641" data-name="Trazado 986641" d="M159.575,388.568c-1.491.487-44.04.1-45.65-.944-.618-.386-.923-6.59-1.077-14.1,0-.078,0-.156,0-.235-.034-1.546-.061-3.14-.069-4.754,0-.222,0-.445-.011-.667-.1-10.833.677-22.073.677-22.073l27.812.175-.772,21.869-.03.866-.154,4.527-.014.465s16.22,7.433,17.871,8.768,2.911,5.617,1.419,6.1" transform="translate(-35.36 -108.442)" fill="#f7a9a0"/>
            <path id="Trazado_986642" data-name="Trazado 986642" d="M159.579,398.64c-1.491.487-44.04.1-45.65-.944-.618-.386-.923-6.59-1.077-14.1,0-.078,0-.156,0-.235-.034-1.546-.061-3.14-.069-4.754,0-.222,0-.445-.011-.666l27.718-.03-.03.866-.154,4.527-.014.465s16.22,7.433,17.871,8.768,2.911,5.617,1.419,6.1" transform="translate(-35.364 -118.513)" fill="#ebebeb"/>
            <path id="Trazado_986643" data-name="Trazado 986643" d="M159.616,401.1c-1.491.487-44.04.1-45.65-.944-.618-.386-.923-6.59-1.077-14.1,0-.078,0-.156,0-.235l27.454-.057-.014.465s16.22,7.433,17.871,8.768,2.911,5.617,1.419,6.1" transform="translate(-35.401 -120.977)" fill="#ffc727"/>
            <g id="Grupo_1150528" data-name="Grupo 1150528" transform="translate(77.486 264.795)" opacity="0.5">
              <g id="Grupo_1150527" data-name="Grupo 1150527">
                <g id="Grupo_1150526" data-name="Grupo 1150526" clip-path="url(#clip-path-9)">
                  <path id="Trazado_986644" data-name="Trazado 986644" d="M159.616,401.1c-1.491.487-44.04.1-45.65-.944-.618-.386-.923-6.59-1.077-14.1,0-.078,0-.156,0-.235l27.454-.057-.014.465s16.22,7.433,17.871,8.768,2.911,5.617,1.419,6.1" transform="translate(-112.887 -385.772)"/>
                </g>
              </g>
            </g>
            <path id="Trazado_986645" data-name="Trazado 986645" d="M160.519,405.533c-7.171-.241-36.117-.538-43.224-.231-.058,0-.058.041,0,.045,7.1.395,36.049.456,43.224.3.151,0,.152-.112,0-.117" transform="translate(-36.77 -127.06)" fill="#263238"/>
            <path id="Trazado_986646" data-name="Trazado 986646" d="M153.46,385.823c-2.818-.553-6.274-.15-8.449,1.841-.084.077.027.2.119.167a39.683,39.683,0,0,1,8.316-1.652.18.18,0,0,0,.014-.356" transform="translate(-45.466 -120.922)" fill="#263238"/>
            <path id="Trazado_986647" data-name="Trazado 986647" d="M156.412,387.639c-2.818-.553-6.274-.15-8.449,1.841-.084.077.027.2.119.167a39.689,39.689,0,0,1,8.316-1.652.18.18,0,0,0,.014-.356" transform="translate(-46.391 -121.491)" fill="#263238"/>
            <path id="Trazado_986648" data-name="Trazado 986648" d="M159.364,389.455c-2.818-.553-6.274-.15-8.449,1.841-.084.077.027.2.119.168a39.685,39.685,0,0,1,8.316-1.652.18.18,0,0,0,.014-.356" transform="translate(-47.317 -122.061)" fill="#263238"/>
            <path id="Trazado_986649" data-name="Trazado 986649" d="M154.007,171.212a100.44,100.44,0,0,1-3.438,18.95c-.227.815-.475,1.615-.741,2.383,0,0-2.3,1.074-6.821,3.848,0,0-.3,10-.594,21.147-.329,12.464-.671,26.367-.6,29.316.263,11.033-1.364,71.694-1.364,71.694l-30.636.13s5.523-67.743,5.484-71.786c-.06-6.5,1.327-32.575,2.514-53.513,0,0-1.438-4.8-1.343-6.368a62.754,62.754,0,0,1,2.814-15.792Z" transform="translate(-34.437 -53.691)" fill="#263238"/>
            <path id="Trazado_986650" data-name="Trazado 986650" d="M140.338,377.854c-4.681-.076-3.336-.121-8.016-.145-2.292-.012-17.343-.076-19.482.289a.049.049,0,0,0,0,.095c2.142.345,17.193.147,19.483.114,4.681-.066,3.336-.1,8.015-.216a.068.068,0,0,0,0-.137" transform="translate(-35.375 -118.444)" fill="#37474f"/>
            <path id="Trazado_986651" data-name="Trazado 986651" d="M123.834,177.641c-.56,17.093-1.154,30.87-1.914,47.956-.763,17.144-1.793,34.282-3.223,51.384-.8,9.555-1.552,22.995-2.581,32.527-.007.064.091.087.1.022,2.227-16.956,3.466-37.922,4.559-54.984s1.832-34.15,2.41-51.235c.327-9.665.577-16.015.863-25.68,0-.138-.209-.126-.213.011" transform="translate(-36.413 -55.674)" fill="#37474f"/>
            <path id="Trazado_986652" data-name="Trazado 986652" d="M129.043,189.283c.754-.194,1.56-.255,2.329-.376.621-.1,1.24-.208,1.854-.344a8.034,8.034,0,0,0,3.271-1.377c1.529-1.2,3.281-7.246,3.5-7.631.368-.662.478-.08.478-.018a35.376,35.376,0,0,1-2.229,6.988,6.821,6.821,0,0,1-5.2,2.8c-.582.073-1.17.115-1.756.148a12.613,12.613,0,0,1-2.219.016.1.1,0,0,1-.023-.2" transform="translate(-40.444 -56.209)" fill="#37474f"/>
            <path id="Trazado_986653" data-name="Trazado 986653" d="M164,202.5a54.737,54.737,0,0,0-8.629,4.019.1.1,0,0,0,.08.177c2.907-1.248,5.871-2.442,8.7-3.849A.19.19,0,0,0,164,202.5" transform="translate(-48.706 -63.499)" fill="#37474f"/>
            <path id="Trazado_986654" data-name="Trazado 986654" d="M166.53,173.459c-.008-.1-.184-.123-.183-.014a96.925,96.925,0,0,1-.488,9.712c-.135,1.5-1.339,9.772-3.936,9.169-.434-.1-.656-.529-.724-1.184a10.384,10.384,0,0,1,.345-2.538c.288-1.732.52-3.47.668-5.219a47.467,47.467,0,0,0-.105-9.789.084.084,0,0,0-.167.01,89.834,89.834,0,0,1-.791,13.513c-.325,2.152-1.409,5.392.842,5.723,2.293.337,3.776-5.09,4.055-6.575a49.55,49.55,0,0,0,.485-12.807" transform="translate(-50.364 -54.369)" fill="#37474f"/>
            <path id="Trazado_986655" data-name="Trazado 986655" d="M162.246,201.225a13.944,13.944,0,0,0-.584,1.715,3.9,3.9,0,0,0-.242,1.41c.01.091.13.1.18.038a4.966,4.966,0,0,0,.6-1.371c.2-.531.406-1.057.588-1.593a.29.29,0,0,0-.545-.2" transform="translate(-50.618 -63.046)" fill="#37474f"/>
            <path id="Trazado_986656" data-name="Trazado 986656" d="M160.638,152.217c-.6.6-37.391-1.133-37.569-1.371-.487-.646,10.993-37.472,18.8-44.663,2.693-2.479,7.25-2.047,9.575-.386.925.66,3.2,5.683,4.363,9.885,2.337,8.411,5.344,36.01,4.826,36.535" transform="translate(-38.589 -32.751)" fill="#ebebeb"/>
            <path id="Trazado_986657" data-name="Trazado 986657" d="M160.425,118.116l1.387-3.482,2.415,1.929-.811,2.93-2.188.174Z" transform="translate(-50.309 -35.949)" fill="#263238"/>
            <path id="Trazado_986658" data-name="Trazado 986658" d="M160.579,121.886l-2.227,24.4,4.19,8.307,4.282-9.525-4.057-23.354Z" transform="translate(-49.659 -38.168)" fill="#263238"/>
            <path id="Trazado_986659" data-name="Trazado 986659" d="M162.043,160.907l-8.568.805s-2.474-7.7-2.569-7.7c-.071.123-1.673,5.515-2.248,7.7-6.3-.312-30.555-2.663-30.771-2.834-.195-.148,2.921-7.7,3.269-8.807,2.71-8.787,7.537-26.232,11.225-32.719A60.549,60.549,0,0,1,138,108.941c.215-.251.407-.485.594-.7l1.338-1.527,11.135,22.834c.032-.4.2-21.309.2-21.309a72.707,72.707,0,0,1,5.373,15.5c2.275,9.834,3.023,23.448,3.628,30.276,0,0,1.778,6.752,1.778,6.891" transform="translate(-36.966 -33.466)" fill="#ffc727"/>
            <path id="Trazado_986660" data-name="Trazado 986660" d="M166.072,139.983q.438,12.229-.16,24.465-.442-12.229.16-24.465" transform="translate(-51.971 -43.898)" fill="#263238"/>
            <path id="Trazado_986661" data-name="Trazado 986661" d="M163.12,171.383a.892.892,0,0,1-1.783.01.892.892,0,0,1,1.783-.01m0,0a.72.72,0,0,0-1.44.008.72.72,0,0,0,1.44-.008" transform="translate(-50.595 -53.47)" fill="#263238"/>
            <path id="Trazado_986662" data-name="Trazado 986662" d="M163.12,162.211a.892.892,0,0,1-1.783.01.892.892,0,0,1,1.783-.01m0,0a.72.72,0,0,0-1.44.009.72.72,0,0,0,1.44-.009" transform="translate(-50.595 -50.594)" fill="#263238"/>
            <path id="Trazado_986663" data-name="Trazado 986663" d="M163.12,153.04a.892.892,0,0,1-1.783.01.892.892,0,0,1,1.783-.01m0,0a.72.72,0,0,0-1.44.008.72.72,0,0,0,1.44-.008" transform="translate(-50.595 -47.718)" fill="#263238"/>
            <path id="Trazado_986664" data-name="Trazado 986664" d="M163.12,143.868a.892.892,0,0,1-1.783.01.892.892,0,0,1,1.783-.01m0,0a.72.72,0,0,0-1.44.008.72.72,0,0,0,1.44-.008" transform="translate(-50.595 -44.841)" fill="#263238"/>
            <path id="Trazado_986665" data-name="Trazado 986665" d="M163.508,108.223c.455-.009,2.24,1.825,2.433,2.331s4.86,26.032,4.377,28.926-9.565,27.638-9.565,27.638l-3.3-1.465s9.168-25.756,9.474-26.672-3.143-28.94-3.258-29.657-.166-1.1-.166-1.1" transform="translate(-49.378 -33.938)" fill="#ffc727"/>
            <g id="Grupo_1150531" data-name="Grupo 1150531" transform="translate(108.08 74.285)" opacity="0.6">
              <g id="Grupo_1150530" data-name="Grupo 1150530">
                <g id="Grupo_1150529" data-name="Grupo 1150529" clip-path="url(#clip-path-10)">
                  <path id="Trazado_986666" data-name="Trazado 986666" d="M163.508,108.223c.455-.009,2.24,1.825,2.433,2.331s4.86,26.032,4.377,28.926-9.565,27.638-9.565,27.638l-3.3-1.465s9.168-25.756,9.474-26.672-3.143-28.94-3.258-29.657-.166-1.1-.166-1.1" transform="translate(-157.458 -108.223)"/>
                </g>
              </g>
            </g>
            <path id="Trazado_986667" data-name="Trazado 986667" d="M137.724,107.17c-.37-.265-2.932,1.845-3.378,2.153s-9.824,18.711-11.065,21.37-11.825,27.617-11.825,27.617l3.546.659s10.46-25.433,10.728-26.361,10.6-23.222,11.1-23.748a5.757,5.757,0,0,0,.894-1.691" transform="translate(-34.952 -33.601)" fill="#ffc727"/>
            <g id="Grupo_1150534" data-name="Grupo 1150534" transform="translate(76.504 73.545)" opacity="0.6">
              <g id="Grupo_1150533" data-name="Grupo 1150533">
                <g id="Grupo_1150532" data-name="Grupo 1150532" clip-path="url(#clip-path-11)">
                  <path id="Trazado_986668" data-name="Trazado 986668" d="M137.724,107.17c-.37-.265-2.932,1.845-3.378,2.153s-9.824,18.711-11.065,21.37-11.825,27.617-11.825,27.617l3.546.659s10.46-25.433,10.728-26.361,10.6-23.222,11.1-23.748a5.757,5.757,0,0,0,.894-1.691" transform="translate(-111.456 -107.146)"/>
                </g>
              </g>
            </g>
            <rect id="Rectángulo_408418" data-name="Rectángulo 408418" width="28.46" height="45.166" transform="translate(64.776 155.04) rotate(-79.521)" fill="#ffc727"/>
            <g id="Grupo_1150537" data-name="Grupo 1150537" transform="translate(64.776 127.054)" opacity="0.3">
              <g id="Grupo_1150536" data-name="Grupo 1150536">
                <g id="Grupo_1150535" data-name="Grupo 1150535" clip-path="url(#clip-path-12)">
                  <rect id="Rectángulo_408419" data-name="Rectángulo 408419" width="28.46" height="45.166" transform="translate(0 27.986) rotate(-79.521)"/>
                </g>
              </g>
            </g>
            <g id="Grupo_1150540" data-name="Grupo 1150540" transform="translate(67.515 127.054)" opacity="0.1">
              <g id="Grupo_1150539" data-name="Grupo 1150539">
                <g id="Grupo_1150538" data-name="Grupo 1150538" clip-path="url(#clip-path-13)">
                  <rect id="Rectángulo_408421" data-name="Rectángulo 408421" width="13.403" height="45.167" transform="translate(0 13.179) rotate(-79.522)"/>
                </g>
              </g>
            </g>
            <rect id="Rectángulo_408423" data-name="Rectángulo 408423" width="13.283" height="47.302" transform="translate(67.245 135.807) rotate(-79.521)" fill="#ffc727"/>
            <g id="Grupo_1150543" data-name="Grupo 1150543" transform="translate(67.245 122.746)" opacity="0.3">
              <g id="Grupo_1150542" data-name="Grupo 1150542">
                <g id="Grupo_1150541" data-name="Grupo 1150541" clip-path="url(#clip-path-14)">
                  <rect id="Rectángulo_408424" data-name="Rectángulo 408424" width="13.283" height="47.302" transform="translate(0 13.061) rotate(-79.521)"/>
                </g>
              </g>
            </g>
            <path id="Trazado_986669" data-name="Trazado 986669" d="M140,178.878l-.877,4.742-2.144-.4.5-2.7-8.178-1.512-.5,2.7-2.144-.4.877-4.742Z" transform="translate(-39.718 -55.373)" fill="#263238"/>
            <rect id="Rectángulo_408426" data-name="Rectángulo 408426" width="6.345" height="3.083" transform="translate(73.052 140.108) rotate(-79.521)" fill="#263238"/>
            <rect id="Rectángulo_408427" data-name="Rectángulo 408427" width="6.345" height="3.083" transform="translate(103.766 145.788) rotate(-79.521)" fill="#263238"/>
            <path id="Trazado_986670" data-name="Trazado 986670" d="M133.32,113.492c-3.167,4-15.058,22.1-15.2,26.256-.217,6.307,11.605,25.122,14.64,29.158,1.322,1.759,14.728-8.964,13.451-10.941-.861-1.333-12.408-15.362-12.794-17.078s3.757-17.148,6.664-25.089c2.769-7.563-.047-10.788-6.76-2.307" transform="translate(-37.041 -34.011)" fill="#f7a9a0"/>
            <path id="Trazado_986671" data-name="Trazado 986671" d="M167.572,196a2.693,2.693,0,0,1-2.723,1.429,4,4,0,0,1-.625,2.645c-.965,1.333-3.479.4-3.479.4a4.929,4.929,0,0,1-1.1,2.685c-1.052,1.183-3.722.608-3.722.608a4.321,4.321,0,0,1-2.458,1.749c-2.706.611-5.688-2.4-7.6-4.3s-5.572-9.063-6.408-10.358l12.056-12.4s11.005,6.053,12.94,8.6c1.631,2.146,4.026,7.027,3.127,8.928" transform="translate(-43.731 -55.966)" fill="#f7a9a0"/>
            <path id="Trazado_986672" data-name="Trazado 986672" d="M174.332,202.375c-1.186-2.7-3.1-4.9-4.9-7.2a.051.051,0,0,0-.079.063c1.807,2.271,3.14,4.873,4.854,7.211a.071.071,0,0,0,.121-.071" transform="translate(-53.106 -61.199)" fill="#263238"/>
            <path id="Trazado_986673" data-name="Trazado 986673" d="M168.047,207.36a7.7,7.7,0,0,0-1.2-1.61q-.7-.809-1.419-1.6-1.448-1.574-2.971-3.074c-.045-.045-.124.014-.08.062.96,1.048,1.9,2.109,2.818,3.2q.687.816,1.36,1.643a9.136,9.136,0,0,0,1.341,1.5.1.1,0,0,0,.153-.121" transform="translate(-50.916 -63.053)" fill="#263238"/>
            <path id="Trazado_986674" data-name="Trazado 986674" d="M161,212.657a5.346,5.346,0,0,0-1.16-1.391q-.673-.7-1.341-1.414c-.888-.948-1.776-1.9-2.631-2.874-.042-.049-.122.013-.079.062.863,1,1.713,2.008,2.586,3q.642.73,1.292,1.452a5.03,5.03,0,0,0,1.286,1.212c.028.014.057-.02.046-.047" transform="translate(-48.851 -64.902)" fill="#263238"/>
            <path id="Trazado_986675" data-name="Trazado 986675" d="M145.755,155.418l-14.563,13.588s-13.289-19.035-13.78-29.331c-.2-4.245,10.91-20.956,16-27.4,5.033-6.371,10.58-8.2,6.773,3.578s-6.8,22.4-6.333,23.1,11.907,16.463,11.907,16.463" transform="translate(-36.819 -33.632)" fill="#ffc727"/>
            <path id="Trazado_986676" data-name="Trazado 986676" d="M148.238,174.553a40.649,40.649,0,0,0-3.168,2.578c-1.076.91-2.123,1.852-3.175,2.79s-5.13,4.825-6.148,5.8a.049.049,0,0,0,.067.073c1.079-.908,5.355-4.506,6.381-5.429s2.062-1.843,3.064-2.8a41.768,41.768,0,0,0,3.013-2.965c.02-.023,0-.068-.034-.047" transform="translate(-42.565 -54.737)" fill="#263238"/>
            <path id="Trazado_986677" data-name="Trazado 986677" d="M133.6,187.9l-.913.929-.045.045-.04-.056c-3.954-5.874-7.984-11.859-10.543-18.494,1.535,3.2,3.413,6.213,5.213,9.27,1.368,2.274,4.09,6.871,5.425,9.163l-.085-.01Z" transform="translate(-38.278 -53.413)" fill="#263238"/>
            <path id="Trazado_986678" data-name="Trazado 986678" d="M152.232,162.156l.9-.863v.022c-2.091-2.579-4.127-5.2-6.141-7.843a93.9,93.9,0,0,1-5.953-8.441,5.628,5.628,0,0,1,.243-2.287c.561-2.432,1.227-4.835,1.935-7.226.942-3.186,1.929-6.355,2.993-9.5-1.218,4.637-3.435,12.251-4.45,16.831a6.351,6.351,0,0,0-.245,2A48.075,48.075,0,0,0,144.4,149.2c1.857,2.575,6.832,9.442,8.756,12.1l.009.012-.011.01Z" transform="translate(-44.209 -39.519)" fill="#263238"/>
            <path id="Trazado_986679" data-name="Trazado 986679" d="M147.1,130.068a17.923,17.923,0,0,0,1.216-2.05,3.448,3.448,0,0,1-1.216,2.05" transform="translate(-46.132 -40.146)" fill="#263238"/>
            <path id="Trazado_986680" data-name="Trazado 986680" d="M148.922,109c-.414,1.724-1.292,5.173-1.748,6.885l-.168-.235c1.793.057,3.584.152,5.375.237-.582,1.856-1.148,3.718-1.76,5.565l-.068-.256c3.232,2.98,6.445,5.979,9.568,9.075-3.4-2.864-6.718-5.83-10.015-8.815.553-1.814,1.15-3.615,1.735-5.419l.211.306c-1.689-.1-3.378-.195-5.067-.323l-.233-.018.066-.217c.5-1.695,1.558-5.1,2.1-6.784" transform="translate(-46.021 -34.18)" fill="#263238"/>
            <path id="Trazado_986681" data-name="Trazado 986681" d="M168.279,128.555a31.105,31.105,0,0,1-2.049,7.844,31.085,31.085,0,0,1,2.049-7.844" transform="translate(-52.129 -40.314)" fill="#263238"/>
            <path id="Trazado_986682" data-name="Trazado 986682" d="M158.7,108.016c-2.2.415-6.257-3.385-7.609-6.152-.092-.19.281-2.127.624-4.5.2-1.442.393-3.053.461-4.535l9.192,2.686a23.659,23.659,0,0,0-1.159,5.65,3.391,3.391,0,0,0,.036.612c0,.028.009.062.009.1.135,1.164.575,5.737-1.553,6.14" transform="translate(-47.376 -29.11)" fill="#f7a9a0"/>
            <path id="Trazado_986683" data-name="Trazado 986683" d="M161.025,101.859c0,.026.008.058.008.1a5.92,5.92,0,0,1-.956.012c-5.375-.369-6.338-7.012-6.5-8.875l2.3.67L162.15,95.6a23.469,23.469,0,0,0-1.157,5.65,3.115,3.115,0,0,0,.032.611" transform="translate(-48.161 -29.194)" fill="#263238"/>
            <path id="Trazado_986684" data-name="Trazado 986684" d="M159.471,104.9l-1.757,5.586-7.262-6.335-1.738,2.347s7.427,10.383,7.43,9.887l1.873-4.842,3.474,3L160.6,106.4Z" transform="translate(-46.636 -32.66)" fill="#ebebeb"/>
            <path id="Trazado_986685" data-name="Trazado 986685" d="M161.422,111.536c-.192-1.338-.349-2.692-.6-4.02-.009-.047-.085-.063-.092-.006-.17,1.32.593,6.434.682,7.668l-.015-.013c-.146-.13-3.208-2.628-3.234-2.583-.426.779-1.8,4.307-1.89,4.624-1.175-1.649-5.653-7.63-7.012-9.171a.047.047,0,0,0-.077.054c1.061,1.755,7,9.816,7.077,9.786a52.547,52.547,0,0,0,1.954-5.118,35.643,35.643,0,0,0,3.64,3.2,42.6,42.6,0,0,0-.43-4.421" transform="translate(-46.78 -33.703)" fill="#263238"/>
            <path id="Trazado_986686" data-name="Trazado 986686" d="M149.945,75.666c-.683,3.456,2.07,12.961,4.673,14.878,3.774,2.779,9.463,2.5,11.7-1.92,2.169-4.289-1.637-16.613-4.5-18.305-4.216-2.492-10.866.241-11.875,5.346" transform="translate(-46.989 -21.759)" fill="#f7a9a0"/>
            <path id="Trazado_986687" data-name="Trazado 986687" d="M164.812,85.691c-.012-.023-.042.045-.033.071.2.636.327,1.4-.192,1.775-.016.012,0,.043.016.034.68-.3.5-1.31.209-1.88" transform="translate(-51.611 -26.871)" fill="#263238"/>
            <path id="Trazado_986688" data-name="Trazado 986688" d="M163.539,84.95c-1.053.215-.546,2.306.43,2.107s.454-2.286-.43-2.107" transform="translate(-51.102 -26.637)" fill="#263238"/>
            <path id="Trazado_986689" data-name="Trazado 986689" d="M170.142,84.332c0-.026.058.019.064.045.137.653.4,1.378,1.041,1.45.02,0,.026.036,0,.038-.739.073-1.083-.893-1.108-1.533" transform="translate(-53.356 -26.444)" fill="#263238"/>
            <path id="Trazado_986690" data-name="Trazado 986690" d="M170.556,83.13c1.023-.332,1.611,1.738.664,2.045s-1.521-1.767-.664-2.045" transform="translate(-53.355 -26.058)" fill="#263238"/>
            <path id="Trazado_986691" data-name="Trazado 986691" d="M162.086,83.59a8.347,8.347,0,0,0,.74-.483c.281-.188.526-.309.66-.636a.454.454,0,0,0-.2-.518,1.129,1.129,0,0,0-1.132.157,1.655,1.655,0,0,0-.758.923.485.485,0,0,0,.691.557" transform="translate(-50.605 -25.67)" fill="#263238"/>
            <path id="Trazado_986692" data-name="Trazado 986692" d="M171.256,82.063a8.372,8.372,0,0,1-.855.224,1.428,1.428,0,0,1-.915.062.456.456,0,0,1-.248-.5,1.129,1.129,0,0,1,.877-.734,1.66,1.66,0,0,1,1.193.058.485.485,0,0,1-.051.886" transform="translate(-53.069 -25.412)" fill="#263238"/>
            <path id="Trazado_986693" data-name="Trazado 986693" d="M165.453,94.577c.192.114.4.286.637.248a1.754,1.754,0,0,0,.657-.332.024.024,0,0,1,.036.027.9.9,0,0,1-.737.55.709.709,0,0,1-.648-.449c-.019-.036.027-.061.055-.045" transform="translate(-51.867 -29.631)" fill="#263238"/>
            <path id="Trazado_986694" data-name="Trazado 986694" d="M165.776,88.027a2.268,2.268,0,0,0,1.71.624,2.842,2.842,0,0,0,.8-.156.775.775,0,0,0,.147-.054c.046-.017.088-.033.137-.056a.167.167,0,0,0,.095-.176v0a.277.277,0,0,0-.023-.065v0l-.015-.057c-.107-.5-.34-1.249-.34-1.249.2.047,1.235.24,1.157-.017a34.166,34.166,0,0,0-2.475-6.467.062.062,0,0,0-.114.045c.546,2.067,1.451,4.026,2.032,6.094a3.976,3.976,0,0,0-1.117-.063c-.066.037.475,1.435.505,1.664a.105.105,0,0,1,0,.025,3.143,3.143,0,0,1-2.455-.154c-.058-.025-.1.031-.047.073" transform="translate(-51.979 -25.185)" fill="#263238"/>
            <path id="Trazado_986695" data-name="Trazado 986695" d="M152.426,80.031c.244-2-1.485-4.915-.726-5.95,1.643-2.242,6.515.38,9.363-.2,2.76-.559,3.311-2.525,2.345-4.657s-3.18-3.238-6.371-3.053a11.889,11.889,0,0,0-7.321,3.439s.462-1.262.129-1.555-1.458,1.064-1.775,1.608a4.24,4.24,0,0,0-.4,1.47,4.555,4.555,0,0,0-1.286.133,2.68,2.68,0,0,0-1.481,1.074c-.015.175,1.014.093,1.726-.019a6.652,6.652,0,0,0-.607,3.5c.34,1.484,4.14,8.078,4.714,8.038.737-.051,1.588-3.014,1.686-3.829" transform="translate(-45.443 -20.745)" fill="#263238"/>
            <path id="Trazado_986696" data-name="Trazado 986696" d="M147.214,74.791c.021-.02.062.008.043.033a4.814,4.814,0,0,0-1.05,2.42,5.983,5.983,0,0,0,.612,3.078A28.8,28.8,0,0,0,150.2,85.4c.036.047-.045.108-.084.063a21.23,21.23,0,0,1-3.65-5.465,4.627,4.627,0,0,1,.746-5.2" transform="translate(-45.788 -23.452)" fill="#263238"/>
            <path id="Trazado_986697" data-name="Trazado 986697" d="M154.4,76.515a6.889,6.889,0,0,1,2.535-.36,9.816,9.816,0,0,1,2.365.613,9.756,9.756,0,0,0,5.386.334.018.018,0,0,1,.01.036,8.539,8.539,0,0,1-4.953-.025,21.69,21.69,0,0,0-2.467-.71,8.931,8.931,0,0,0-2.837.259.076.076,0,0,1-.038-.147" transform="translate(-48.402 -23.88)" fill="#263238"/>
            <path id="Trazado_986698" data-name="Trazado 986698" d="M154.15,68.26a13.4,13.4,0,0,1,3.292-1.908,10.561,10.561,0,0,1,3.54-.87,5.26,5.26,0,0,1,5.18,2.811,4.556,4.556,0,0,1,.249,3.271.058.058,0,0,1-.113-.032,4.707,4.707,0,0,0-2.181-5.2c-1.978-1.1-4.353-.723-6.373.047a19.282,19.282,0,0,0-3.584,1.89c-.008,0-.016-.007-.01-.012" transform="translate(-48.34 -20.533)" fill="#263238"/>
            <path id="Trazado_986699" data-name="Trazado 986699" d="M152.973,88.455s-2.459-2.95-3.816-2.047.679,5.309,2.4,5.789a1.706,1.706,0,0,0,2.2-1.107Z" transform="translate(-46.636 -27.043)" fill="#f7a9a0"/>
            <path id="Trazado_986700" data-name="Trazado 986700" d="M150.245,88.305a.023.023,0,0,0,0,.045,4.314,4.314,0,0,1,2.448,2.5.942.942,0,0,0-1.426-.137c-.029.024,0,.069.037.06a1.049,1.049,0,0,1,1.181.267,5.022,5.022,0,0,1,.63.883c.064.1.248.028.2-.089l-.012-.026c-.1-1.5-1.436-3.488-3.052-3.5" transform="translate(-47.11 -27.692)" fill="#263238"/>
          </g>
        </g>
        <g id="Grupo_1150553" data-name="Grupo 1150553">
          <g id="Grupo_1150552" data-name="Grupo 1150552" clip-path="url(#clip-path-2)">
            <g id="Grupo_1150548" data-name="Grupo 1150548" transform="translate(2.433 2.831)" opacity="0.2">
              <g id="Grupo_1150547" data-name="Grupo 1150547">
                <g id="Grupo_1150546" data-name="Grupo 1150546" clip-path="url(#clip-path-16)">
                  <path id="Trazado_986701" data-name="Trazado 986701" d="M3.545,278.365V251.726a25.368,25.368,0,0,1,25.514-25.219h75.512a23,23,0,0,0,12.061-3.411L472.613,4.125v81.74L111.1,308.625H34.159A30.438,30.438,0,0,1,3.545,278.365" transform="translate(-3.545 -4.125)" fill="#ebebeb"/>
                </g>
              </g>
            </g>
            <g id="Grupo_1150551" data-name="Grupo 1150551" transform="translate(2.431 3.672)" opacity="0.4">
              <g id="Grupo_1150550" data-name="Grupo 1150550">
                <g id="Grupo_1150549" data-name="Grupo 1150549" clip-path="url(#clip-path-17)">
                  <path id="Trazado_986702" data-name="Trazado 986702" d="M112.988,328.1,52.239,410.221h-10a30.684,30.684,0,0,1-12.93-2.828l58.659-79.287h24.68c.111,0,.229,0,.34-.007" transform="translate(-11.622 -106.563)" fill="#fff"/>
                  <path id="Trazado_986703" data-name="Trazado 986703" d="M428.9,118.64,317.58,269.1,271.6,297.434,382.975,146.886Z" transform="translate(-87.604 -40.877)" fill="#fff"/>
                  <path id="Trazado_986704" data-name="Trazado 986704" d="M671.011,85.9v25.61L636.2,132.953Z" transform="translate(-201.94 -30.61)" fill="#fff"/>
                  <path id="Trazado_986705" data-name="Trazado 986705" d="M186.03,287.67,104.739,397.543H98.621l76.173-102.961Z" transform="translate(-33.358 -93.885)" fill="#fff"/>
                  <path id="Trazado_986706" data-name="Trazado 986706" d="M636.664,5.35v8.271L537.929,147.092l-11.257,6.933Z" transform="translate(-167.593 -5.35)" fill="#fff"/>
                  <path id="Trazado_986707" data-name="Trazado 986707" d="M78.162,328.11,21.628,404.52c-.333-.233-.66-.48-.979-.728L76.634,328.11Z" transform="translate(-8.906 -106.566)" fill="#fff"/>
                  <path id="Trazado_986708" data-name="Trazado 986708" d="M523.713,72.47,412.478,222.827l-2.819,1.737L520.908,74.193Z" transform="translate(-130.898 -26.399)" fill="#fff"/>
                  <path id="Trazado_986709" data-name="Trazado 986709" d="M25.742,328.42l-22.2,30.01v-2.066L24.006,328.7c.577-.117,1.152-.206,1.736-.281" transform="translate(-3.541 -106.664)" fill="#fff"/>
                </g>
              </g>
            </g>
            <path id="Trazado_986710" data-name="Trazado 986710" d="M471.5,0V5.663L116.8,223.843a25.478,25.478,0,0,1-13.347,3.775H27.944A22.98,22.98,0,0,0,4.861,250.434v27.271a24.978,24.978,0,0,0,25.1,24.8H49.472v4.8H29.958A29.817,29.817,0,0,1,0,277.705V250.434a27.819,27.819,0,0,1,27.944-27.621h75.513a20.565,20.565,0,0,0,10.777-3.048Z" fill="#263238"/>
            <rect id="Rectángulo_408431" data-name="Rectángulo 408431" width="46.053" height="27.985" transform="translate(85.33 279.347)" fill="#c7c7c7"/>
            <rect id="Rectángulo_408432" data-name="Rectángulo 408432" width="46.053" height="27.985" transform="translate(131.382 251.362)" fill="#c7c7c7"/>
            <rect id="Rectángulo_408433" data-name="Rectángulo 408433" width="46.053" height="27.985" transform="translate(177.435 223.378)" fill="#c7c7c7"/>
            <rect id="Rectángulo_408434" data-name="Rectángulo 408434" width="46.053" height="27.985" transform="translate(223.488 195.394)" fill="#c7c7c7"/>
            <rect id="Rectángulo_408435" data-name="Rectángulo 408435" width="46.053" height="27.985" transform="translate(269.54 167.409)" fill="#c7c7c7"/>
            <rect id="Rectángulo_408436" data-name="Rectángulo 408436" width="46.053" height="27.985" transform="translate(315.593 139.425)" fill="#c7c7c7"/>
            <rect id="Rectángulo_408437" data-name="Rectángulo 408437" width="46.053" height="27.985" transform="translate(361.646 111.44)" fill="#c7c7c7"/>
            <rect id="Rectángulo_408438" data-name="Rectángulo 408438" width="46.053" height="27.985" transform="translate(407.699 83.456)" fill="#c7c7c7"/>
            <rect id="Rectángulo_408439" data-name="Rectángulo 408439" width="17.75" height="27.985" transform="translate(453.752 55.472)" fill="#c7c7c7"/>
            <rect id="Rectángulo_408440" data-name="Rectángulo 408440" width="36.123" height="4.847" transform="translate(49.469 302.484)" fill="#c7c7c7"/>
            <path id="Trazado_986711" data-name="Trazado 986711" d="M510.6,106.02v27.971L170.483,340.578H124.693Z" transform="translate(-39.103 -33.247)" fill="#c7c7c7"/>
            <path id="Trazado_986712" data-name="Trazado 986712" d="M521.75,123.21V345.969H160.232Z" transform="translate(-50.248 -38.638)" fill="#ebebeb"/>
          </g>
        </g>
        <g id="Grupo_1150567" data-name="Grupo 1150567">
          <g id="Grupo_1150566" data-name="Grupo 1150566" clip-path="url(#clip-path-2)">
            <path id="Trazado_986713" data-name="Trazado 986713" d="M284.278,147.219a3.085,3.085,0,0,0,3.8-4.107,2.835,2.835,0,0,0,3.23-1.26,2.717,2.717,0,0,0-.835-3.509c-.008-.006-.02.005-.012.013a2.786,2.786,0,0,1,.653,3.376,2.5,2.5,0,0,1-2.5,1.211,3.411,3.411,0,0,0,2.151-1.665,2.644,2.644,0,0,0-.34-2.9,3.893,3.893,0,0,0,1.52-3.145,2.644,2.644,0,0,0-1.728-2.321,2.955,2.955,0,0,0-2.468-4.836,2.48,2.48,0,0,0-1.67-3.827,1.671,1.671,0,0,0-.308-1.777,2.79,2.79,0,0,0-1.985-.813,1.992,1.992,0,0,0-1.157-1.522,1.809,1.809,0,0,0-2.228.734,4.994,4.994,0,0,0-3.253-1.412,2.6,2.6,0,0,0-2.384,1.59,3.586,3.586,0,0,0-5.151,1.5,2.524,2.524,0,0,0-2.433.653,3.716,3.716,0,0,0-.991,1.5,1.89,1.89,0,0,0-2,.935,2.493,2.493,0,0,0-.076,2.135,1.442,1.442,0,0,1-.275.574,3.281,3.281,0,0,0-.548,3.051,2.237,2.237,0,0,0-.356,3.338,2.516,2.516,0,0,0,.456,3.5,3.663,3.663,0,0,0-.435,3.019,2.123,2.123,0,0,0,1.677,1.621,1.285,1.285,0,0,0,.629,1.59,3.222,3.222,0,0,0,.653.278,2.72,2.72,0,0,1,.856.3c.234.182.294.52.422.77a2.93,2.93,0,0,0,.332.507,3.328,3.328,0,0,0,4.09.8,2.694,2.694,0,0,0,2.682,1.2,5.68,5.68,0,0,0,.989-.177,1.452,1.452,0,0,1,.881-.012c.186.066.356.174.542.241a2.3,2.3,0,0,0,1.814-.265c1.434,2.531,4.872,1.632,5.752-.883m-20.024-21.142a1.992,1.992,0,0,1,1.909-1.288c-.016.06-.024.1-.024.1s-.265.073-.39.124a2.516,2.516,0,0,0-.627.377,2.6,2.6,0,0,0-.844,1.252,2.709,2.709,0,0,0-.1.671c0,.03-.005.056-.007.084a2.42,2.42,0,0,1,.086-1.321m18.477-5.278a1.918,1.918,0,0,0-2.191.181l-.05-.04a1.7,1.7,0,0,1,2.08-.651,1.667,1.667,0,0,1,.978,1.353h-.012a2.112,2.112,0,0,0-.805-.842m-4.09,27.246.026-.012a3.462,3.462,0,0,0,4.821.095c-1.359,1.46-3.381,1.934-4.847-.082" transform="translate(-82.272 -37.46)" fill="#263238"/>
            <path id="Trazado_986714" data-name="Trazado 986714" d="M255.48,161.967c-14.616,4.18-27.942,9.8-28.992,14.211-1.506,6.333.286,23.273,2.5,30.981.649,2.264,18.172-3.146,17.48-5.568-.836-2.927-4.645-19.909-4.637-20.215.016-.655,13.635-10.725,17.156-13.135,6.458-4.418,3.829-8.371-3.5-6.274" transform="translate(-70.851 -50.611)" fill="#ad6359"/>
            <path id="Trazado_986715" data-name="Trazado 986715" d="M228.692,218.631c-.1,1.958.255,10.969.914,13.454s3.072,9.5,5.027,9.191,1.413-2.422,1.413-2.422,1.488,2.8,3.427,2.308.988-3.748.988-3.748,1.738,2.765,3.637,2.135.394-3.742.394-3.742,1.472,2.6,2.818,1.425c1.619-1.415-1.635-5.907-2.156-8.706-.119-.636-1.482-13.053-1.482-13.053Z" transform="translate(-71.712 -67.572)" fill="#ad6359"/>
            <path id="Trazado_986716" data-name="Trazado 986716" d="M250.412,241.269c-2.385-3.308-2.857-5.169-3.1-9.177,0-.078-.122-.089-.125-.006-.115,3.946.14,6.365,3.075,9.306.143.144.268.034.154-.124" transform="translate(-77.509 -72.763)" fill="#263238"/>
            <path id="Trazado_986717" data-name="Trazado 986717" d="M244.582,243.3a21.5,21.5,0,0,1-3.274-9.844c-.009-.059-.109-.051-.106.009.214,4.145.524,6.552,3.179,9.916.12.152.3.086.2-.081" transform="translate(-75.64 -73.198)" fill="#263238"/>
            <path id="Trazado_986718" data-name="Trazado 986718" d="M238.1,244.622a19.288,19.288,0,0,1-2.559-10,.076.076,0,0,0-.152-.008,13.7,13.7,0,0,0,2.593,10.05c.147.212.235.187.118-.045" transform="translate(-73.789 -73.553)" fill="#263238"/>
            <path id="Trazado_986719" data-name="Trazado 986719" d="M247.71,211.836a50.036,50.036,0,0,1,4.985,5.433c1.284,1.907,3.453,10.777,1.564,11.354-2.439.745-4.7-4.129-5.495-6.66,0,0-5.64,1.729-8.02-1.417s6.966-8.709,6.966-8.709" transform="translate(-75.375 -66.431)" fill="#ad6359"/>
            <path id="Trazado_986720" data-name="Trazado 986720" d="M253.642,232.652c-2.714-.925-3.544-4.315-4.5-6.714a.236.236,0,0,0-.373-.105c-2.413.567-5.981.664-7.927-1.083a.06.06,0,0,0-.087.082c1.833,2.157,5.346,2.348,7.949,1.558.941,2.474,1.922,5.839,4.93,6.289a.014.014,0,0,0,.008-.027" transform="translate(-75.495 -70.475)" fill="#263238"/>
            <path id="Trazado_986721" data-name="Trazado 986721" d="M243.5,191.387l-18.488,1.065s-1.838-14.936.98-18.273,17.42-8.947,27.935-12.2c8.76-2.71,11.812,1.568,4.435,7.091-8.953,6.7-16.684,12.015-16.671,12.32s1.809,10,1.809,10" transform="translate(-70.378 -50.534)" fill="#ffc727"/>
            <path id="Trazado_986722" data-name="Trazado 986722" d="M232.038,186.481a6.538,6.538,0,0,0-1.586-.9,7.027,7.027,0,0,0,2.9,2.176,6.59,6.59,0,0,0-1.311-1.277m15.938-22.548c-.151.055-.309.11-.46.158a4.927,4.927,0,0,0,1.119.577,5.6,5.6,0,0,0-.659-.734m-10.893,15.06a6.538,6.538,0,0,0-.9,1.586,6.375,6.375,0,0,0,1.277-1.3,6.243,6.243,0,0,0,.9-1.592,6.59,6.59,0,0,0-1.277,1.311m-12.136,12.8c.041.426.069.666.069.666a6.243,6.243,0,0,0,.9-1.592,5.909,5.909,0,0,0-.968.927m13-22.61a6.564,6.564,0,0,0-1.764.487,7.058,7.058,0,0,0,3.583-.508,6.451,6.451,0,0,0-1.819.021m-13.495,12.177c0,.158-.007.316-.007.474h.021a6.45,6.45,0,0,0,1.757-.487,6.37,6.37,0,0,0-1.771.014M254.888,169.6a6.466,6.466,0,0,0-1.757.494,6.965,6.965,0,0,0,3.583-.515,6.5,6.5,0,0,0-1.826.021M229.875,174.7a6.45,6.45,0,0,0-.487-1.757,6.451,6.451,0,0,0,.021,1.819,6.322,6.322,0,0,0,.487,1.764,6.5,6.5,0,0,0-.021-1.826m29.749-13.508c-.151-.014-.309-.027-.474-.034a5.954,5.954,0,0,0,.48,1.743,6.194,6.194,0,0,0-.007-1.709M246.1,175.087a6.451,6.451,0,0,0-.487-1.757,6.452,6.452,0,0,0,.021,1.819,6.323,6.323,0,0,0,.487,1.764,6.5,6.5,0,0,0-.021-1.826M238.421,190a6.047,6.047,0,0,0,.007,1.689l.46-.027a6.076,6.076,0,0,0-.467-1.661" transform="translate(-70.385 -50.539)" fill="#fff"/>
            <path id="Trazado_986723" data-name="Trazado 986723" d="M242.634,200.355c.06-.006.054-.105-.007-.106a149.6,149.6,0,0,0-16.29.726c-.059.005-.053.106.008.106a149.736,149.736,0,0,0,16.289-.726" transform="translate(-70.966 -62.793)" fill="#263238"/>
            <g id="Grupo_1150556" data-name="Grupo 1150556" transform="translate(154.045 110.608)" opacity="0.1">
              <g id="Grupo_1150555" data-name="Grupo 1150555">
                <g id="Grupo_1150554" data-name="Grupo 1150554" clip-path="url(#clip-path-19)">
                  <path id="Trazado_986724" data-name="Trazado 986724" d="M241.7,181.385c.012.31,1.805,10,1.805,10l-18.487,1.065s-.535-4.376-.589-8.917L257.3,161.227c6.047-.719,7.4,3.1,1.071,7.844-8.927,6.677-16.633,11.98-16.671,12.314" transform="translate(-224.424 -161.141)" fill="#020100"/>
                </g>
              </g>
            </g>
            <path id="Trazado_986725" data-name="Trazado 986725" d="M264.085,425.684a68.152,68.152,0,0,1-22.251.082c-10.284-1.88-21.665-4.662-22.337-5.276-.535-.472,9.131-39.907,9.131-39.907l26.758,5.287L248.664,411.6l-.089.448s2.1,1.675,6.585,4.513c.8.507,9.088,2.893,9.67,3.55,1.367,1.546.772,5.345-.745,5.57" transform="translate(-68.827 -119.349)" fill="#ad6359"/>
            <path id="Trazado_986726" data-name="Trazado 986726" d="M264.089,439.7a68.231,68.231,0,0,1-22.25.088c-10.291-1.883-21.674-4.661-22.34-5.285-.168-.143.635-3.985,1.824-9.228,6.572,2.4,26.861,8.678,29.865,9.037,3.461.428,8.691.921,8.284-.4-.349-1.153-3.386-2.842-4.142-3.24,1.423.637,8.955,2.836,9.5,3.465,1.365,1.538.772,5.34-.74,5.564" transform="translate(-68.827 -133.363)" fill="#263238"/>
            <path id="Trazado_986727" data-name="Trazado 986727" d="M263.447,206.138s1.94,18.547-1.934,22.719c0,0,5.946,47.463,4.593,59.913-1.921,17.663-11.223,62.336-11.223,62.336l-29.267-7.456s12.876-55.417,13-56.476c.4-3.5-6.307-54.875-6.659-55.908-4.543-13.33,1.875-25.487,1.875-25.487Z" transform="translate(-70.753 -64.532)" fill="#37474f"/>
            <path id="Trazado_986728" data-name="Trazado 986728" d="M254.4,404.068c-3.835-1.11-2.715-.862-6.565-1.916-1.885-.515-14.271-3.888-16.137-3.963-.041,0-.064.085-.027.1,1.667.843,14.127,3.931,16.024,4.4,3.875.956,2.777.626,6.667,1.525.073.017.111-.126.038-.148" transform="translate(-72.646 -124.871)" fill="#263238"/>
            <path id="Trazado_986729" data-name="Trazado 986729" d="M251.063,339.012c3.074-13.386,6.223-26.76,8.879-40.234.541-3.354,1.524-6.73,1.122-10.14-1.669-15.275-5.011-42.7-6.838-57.972a13.473,13.473,0,0,1-1.946-5.042c-.916-5.412.155-10.98,1.829-16.14-1.943,6.6-3.438,14.905.39,21.079,2.17,17.234,5.287,40.951,6.99,58.036.391,3.454-.616,6.873-1.179,10.249-2.706,13.472-5.936,26.83-9.248,40.163" transform="translate(-78.732 -65.693)" fill="#263238"/>
            <path id="Trazado_986730" data-name="Trazado 986730" d="M269.158,268.813l-31.585-63.035,29.62.364s1.946,18.539-1.927,22.719c0,0,2.492,21.452,3.892,39.953" transform="translate(-74.502 -64.531)" fill="#263238"/>
            <path id="Trazado_986731" data-name="Trazado 986731" d="M335.9,349.183c-1.452.458-42.761-.367-44.313-1.4-.6-.381,6.292-35.761,6.292-35.761l24.386.189-4.937,22.333s15.671,7.387,17.259,8.7,2.767,5.484,1.314,5.935" transform="translate(-91.428 -97.85)" fill="#ad6359"/>
            <path id="Trazado_986732" data-name="Trazado 986732" d="M335.87,360.765c-.64.2-8.97.154-18.247-.047l-1.841-.045c-1.583-.031-3.181-.076-4.764-.121-.617-.022-1.233-.044-1.842-.06l-.029,0c-.609-.023-1.218-.045-1.813-.061-.925-.026-1.828-.06-2.71-.1-.573-.024-1.14-.049-1.692-.068h-.021c-.553-.025-1.1-.052-1.621-.072h-.021c-.8-.034-1.556-.069-2.282-.113-.487-.022-.968-.045-1.428-.076-.9-.049-1.716-.1-2.442-.161-.367-.022-.712-.052-1.028-.084-.791-.069-1.424-.14-1.858-.216a2.177,2.177,0,0,1-.676-.183c-.207-.131-.178-4.557,1.1-10.406,3.976.982,10.466,2.534,21.605,4.274,18.314,2.862,12.906-2.138,9.811-3.851-.03-.019-.059-.032-.089-.052.192.089.39.185.581.282a.542.542,0,0,1,.1.045l1.06.519c.383.185.773.378,1.156.57.64.314,1.281.628,1.892.944s1.208.6,1.768.894c.332.174.656.342.966.5.154.078.3.162.45.24.2.1.4.206.583.31q.62.33,1.086.6a1.927,1.927,0,0,1,.214.124,6.711,6.711,0,0,1,.721.474c1.577,1.306,2.766,5.48,1.319,5.935" transform="translate(-91.4 -109.433)" fill="#263238"/>
            <path id="Trazado_986733" data-name="Trazado 986733" d="M303.667,292.1l-26.651-.775s10.412-44.681,9.757-46.966c-.256-.893-28.876-1.349-42.186-11.361-10.573-7.955-7.236-27.218-7.236-27.218l29.62.359a6.425,6.425,0,0,0,1.167,3.989c2.232,3.1,43.314,12.2,46.681,21.424,4.225,11.58-11.151,60.549-11.151,60.549" transform="translate(-74.276 -64.532)" fill="#37474f"/>
            <path id="Trazado_986734" data-name="Trazado 986734" d="M237.466,220.652a37.426,37.426,0,0,0,.433,5.326,20.379,20.379,0,0,0,4.566,9.426c3.41,4.145,8.87,5.751,13.777,7.509,3.4,1.093,6.85,2.019,10.338,2.82a82.792,82.792,0,0,1-10.484-2.345,45.422,45.422,0,0,1-9.99-4.048,13.185,13.185,0,0,1-4.147-3.532,19.775,19.775,0,0,1-4.493-15.156" transform="translate(-74.432 -69.196)" fill="#263238"/>
            <path id="Trazado_986735" data-name="Trazado 986735" d="M273.867,209.484a10.331,10.331,0,0,0,.629,4.831c1.43,2.346,4.209,3.449,6.55,4.7,3.936,1.914,8.028,3.5,12.121,5.062l12.322,4.607A86.779,86.779,0,0,1,317.553,234c1.049.69,2.3,1.365,2.759,2.626.6,3.137-.034,6.376-.418,9.5-.656,4.344-1.532,8.646-2.466,12.932-1.874,8.57-4.057,17.068-6.422,25.514,2.188-8.489,4.246-17.016,6.095-25.585.9-4.287,1.753-8.59,2.378-12.922.36-3.077.962-6.239.372-9.307-.428-1.064-1.573-1.684-2.558-2.321a91.979,91.979,0,0,0-11.961-5.34L293.044,224.4c-4.085-1.593-8.174-3.2-12.111-5.158-2.332-1.312-5.12-2.481-6.519-4.894a10.378,10.378,0,0,1-.547-4.868" transform="translate(-85.864 -65.693)" fill="#263238"/>
            <path id="Trazado_986736" data-name="Trazado 986736" d="M322.65,322.274c-3.707-.154-2.641-.183-6.349-.279-1.814-.047-13.738-.338-15.439.038-.037.008-.038.1,0,.107,1.691.417,13.618.415,15.432.412,3.709-.005,2.645-.061,6.353-.125.07,0,.072-.15,0-.153" transform="translate(-94.341 -100.929)" fill="#263238"/>
            <path id="Trazado_986737" data-name="Trazado 986737" d="M268.131,188.335l-.7,7.072-32.808-4.177s13.224-22.638,24.437-29.253c6.37-3.757,9.678-.047,11.3,4.366.411,1.116,3.078,11.683,2.538,15.9a7.936,7.936,0,0,1-4.769,6.087" transform="translate(-73.577 -50.309)" fill="#ffc727"/>
            <path id="Trazado_986738" data-name="Trazado 986738" d="M274.229,197.118a25.923,25.923,0,0,0-4.291.284c-.708.117-1.406.27-2.107.441-.349.084-.7.156-1.049.226a4.119,4.119,0,0,1-1.109.1.029.029,0,0,0-.006.057,6.815,6.815,0,0,0,1.044.1,6.7,6.7,0,0,0,1.018-.094c.718-.111,1.433-.259,2.15-.379,1.448-.241,2.895-.481,4.351-.6.067-.006.065-.134,0-.134" transform="translate(-83.306 -61.815)" fill="#263238"/>
            <path id="Trazado_986739" data-name="Trazado 986739" d="M279.77,199.462a27.773,27.773,0,0,0-3.484-.6c-.588-.061-1.174-.084-1.765-.089-.282,0-.565,0-.847.008-.311.008-.622.062-.932.065-.032,0-.039.056-.006.058.292.007.583.069.875.1s.585.051.878.077c.586.053,1.17.113,1.757.159,1.174.093,2.342.2,3.512.338.064.008.071-.095.012-.108" transform="translate(-85.522 -62.333)" fill="#263238"/>
            <path id="Trazado_986740" data-name="Trazado 986740" d="M269.113,193.627a6.7,6.7,0,0,0-.487-1.757,6.251,6.251,0,0,0,.021,1.826,6.6,6.6,0,0,0,.4,1.558c.021.069.055.13.082.2a1.707,1.707,0,0,0,.021-.185,6.535,6.535,0,0,0-.041-1.641m-23.846-2.052a6.45,6.45,0,0,0-.487-1.757,6.452,6.452,0,0,0,.021,1.819c.027.178.062.364.1.542l.432.055q-.021-.329-.062-.659m7.194-16.673a6.45,6.45,0,0,0-.487-1.757,6.452,6.452,0,0,0,.021,1.819,6.322,6.322,0,0,0,.487,1.764,6.5,6.5,0,0,0-.021-1.826m13.508-14.01c-.021-.11-.034-.213-.062-.323-.144.027-.288.055-.432.089.007.1.014.2.027.3a6.323,6.323,0,0,0,.487,1.764,6.5,6.5,0,0,0-.021-1.826m-4.722,8.518a6.466,6.466,0,0,0-1.757.494,6.965,6.965,0,0,0,3.583-.515,6.5,6.5,0,0,0-1.826.021m-9.912,15.753a6.565,6.565,0,0,0-1.764.487,7.058,7.058,0,0,0,3.583-.508,6.452,6.452,0,0,0-1.819.021m17.366-1.181a6.215,6.215,0,0,0-1.757.487,7.058,7.058,0,0,0,3.583-.508,6.021,6.021,0,0,0-1.826.021m1.75-9.946a6.243,6.243,0,0,0-.9,1.592,6.376,6.376,0,0,0,1.277-1.3,6.456,6.456,0,0,0,.9-1.592,6.557,6.557,0,0,0-1.277,1.3M258.9,188.884a6.539,6.539,0,0,0-.9,1.586,6.375,6.375,0,0,0,1.277-1.3,6.243,6.243,0,0,0,.9-1.592,6.59,6.59,0,0,0-1.277,1.311m1.881-9.555a6.456,6.456,0,0,0-1.592-.9,6.408,6.408,0,0,0,1.311,1.277,6.32,6.32,0,0,0,1.586.9,6.558,6.558,0,0,0-1.3-1.277m12.328-13.961a5.928,5.928,0,0,0-1.208-.631,6.406,6.406,0,0,0,1.311,1.277c.082.055.151.117.233.165-.1-.275-.213-.542-.336-.81" transform="translate(-76.745 -50.354)" fill="#fff"/>
            <path id="Trazado_986741" data-name="Trazado 986741" d="M277.267,157.672c.034.666,2.338,5.365,5.285,5.754.96.125,1.877-5.083,1.877-5.083l.154-.369,2.175-5.168-5.595-5.2-.817-.7s-.5,1.453-1.109,3.269c-.027.084-.057.168-.086.258s-.073.2-.1.294c-.094.27-.189.546-.278.823-.068.211-.136.415-.2.639s-.133.44-.2.663a35.974,35.974,0,0,0-1.1,4.819" transform="translate(-86.95 -46.069)" fill="#ad6359"/>
            <path id="Trazado_986742" data-name="Trazado 986742" d="M280.139,150.176a11.243,11.243,0,0,0,5.346,7.8l2.174-5.167-5.595-5.2-.817-.7s-.5,1.453-1.108,3.269" transform="translate(-87.851 -46.069)" fill="#263238"/>
            <path id="Trazado_986743" data-name="Trazado 986743" d="M277.269,162.339c-.148,1.581,6.244,12.7,7.135,12.588.479-.06-.986-8.356-.986-8.356Z" transform="translate(-86.95 -50.909)" fill="#ad6359"/>
            <rect id="Rectángulo_408443" data-name="Rectángulo 408443" width="53.499" height="33.71" transform="translate(237.234 163.564) rotate(-69.282)" fill="#ffc727"/>
            <g id="Grupo_1150559" data-name="Grupo 1150559" transform="translate(237.234 113.525)" opacity="0.3">
              <g id="Grupo_1150558" data-name="Grupo 1150558">
                <g id="Grupo_1150557" data-name="Grupo 1150557" clip-path="url(#clip-path-20)">
                  <rect id="Rectángulo_408444" data-name="Rectángulo 408444" width="53.499" height="33.71" transform="translate(0 50.039) rotate(-69.282)"/>
                </g>
              </g>
            </g>
            <g id="Grupo_1150562" data-name="Grupo 1150562" transform="translate(237.234 113.525)" opacity="0.1">
              <g id="Grupo_1150561" data-name="Grupo 1150561">
                <g id="Grupo_1150560" data-name="Grupo 1150560" clip-path="url(#clip-path-21)">
                  <rect id="Rectángulo_408446" data-name="Rectángulo 408446" width="53.499" height="15.875" transform="translate(0 50.039) rotate(-69.282)"/>
                </g>
              </g>
            </g>
            <rect id="Rectángulo_408448" data-name="Rectángulo 408448" width="56.029" height="15.734" transform="translate(232.151 162.997) rotate(-69.283)" fill="#ffc727"/>
            <g id="Grupo_1150565" data-name="Grupo 1150565" transform="translate(232.151 110.591)" opacity="0.3">
              <g id="Grupo_1150564" data-name="Grupo 1150564">
                <g id="Grupo_1150563" data-name="Grupo 1150563" clip-path="url(#clip-path-22)">
                  <rect id="Rectángulo_408449" data-name="Rectángulo 408449" width="56.029" height="15.734" transform="translate(0 52.407) rotate(-69.283)"/>
                </g>
              </g>
            </g>
            <path id="Trazado_986744" data-name="Trazado 986744" d="M346.467,185.7l5.343,2.021-.914,2.416-3.039-1.15-3.485,9.214,3.039,1.15-.914,2.416-5.343-2.021Z" transform="translate(-106.985 -58.236)" fill="#263238"/>
            <rect id="Rectángulo_408451" data-name="Rectángulo 408451" width="3.652" height="7.515" transform="translate(246.073 160.041) rotate(-69.282)" fill="#263238"/>
            <rect id="Rectángulo_408452" data-name="Rectángulo 408452" width="3.652" height="7.515" transform="translate(259.161 125.436) rotate(-69.282)" fill="#263238"/>
            <path id="Trazado_986745" data-name="Trazado 986745" d="M268.09,170.535c5.3,14.9,11.739,26.716,16.452,27.812,6.34,1.474,21.185-1.829,27.085-4.94,2.084-1.1-2.368-17.868-4.749-17.045-2.877.994-17.678,6.376-17.983,6.385-.654.019-11.681-11.305-14.608-14.52-4.888-5.369-8.55-4.3-6.2,2.308" transform="translate(-83.843 -51.681)" fill="#ad6359"/>
            <path id="Trazado_986746" data-name="Trazado 986746" d="M340.929,177.813a2.694,2.694,0,0,1-.294,3.061,3.992,3.992,0,0,1,1.872,1.97c.588,1.537-1.564,3.134-1.564,3.134a4.924,4.924,0,0,1,1.643,2.393c.415,1.528-1.527,3.448-1.527,3.448a4.323,4.323,0,0,1,.119,3.014c-.97,2.6-5.122,3.448-7.756,4.015s-10.636-.294-12.177-.3l-3.781-16.874s11.089-5.9,14.281-6.126c2.689-.19,8.084.475,9.183,2.268" transform="translate(-99.556 -55.04)" fill="#ad6359"/>
            <path id="Trazado_986747" data-name="Trazado 986747" d="M346.965,182.861c-2.907-.483-5.8-.08-8.708.157a.05.05,0,0,0,.009.1c2.891-.269,5.8.038,8.693-.117a.071.071,0,0,0,.006-.14" transform="translate(-106.062 -57.274)" fill="#263238"/>
            <path id="Trazado_986748" data-name="Trazado 986748" d="M347.7,190.44a7.689,7.689,0,0,0-2.005.127c-.706.092-1.41.2-2.112.315q-2.11.35-4.2.805c-.062.014-.056.112.009.1,1.4-.23,2.807-.439,4.217-.61q1.059-.128,2.12-.24a9.14,9.14,0,0,0,1.988-.3.1.1,0,0,0-.017-.195" transform="translate(-106.415 -59.712)" fill="#263238"/>
            <path id="Trazado_986749" data-name="Trazado 986749" d="M348.276,199.269a5.36,5.36,0,0,0-1.8.209q-.958.18-1.917.349c-1.279.225-2.559.45-3.845.629-.064.009-.056.11.009.1,1.308-.176,2.619-.336,3.925-.524q.963-.138,1.923-.288a5.019,5.019,0,0,0,1.718-.413.036.036,0,0,0-.014-.064" transform="translate(-106.833 -62.481)" fill="#263238"/>
            <path id="Trazado_986750" data-name="Trazado 986750" d="M296.24,179.65l3.991,18.729s-13.29,1.726-17.016-.553-11.295-14.287-14.725-24.746.3-11.609,7.905-3.41,12.208,12.3,12.509,12.237,7.335-2.258,7.335-2.258" transform="translate(-83.796 -51.516)" fill="#ffc727"/>
            <path id="Trazado_986751" data-name="Trazado 986751" d="M286.915,182.908l-.529-.487c.007.055.014.117.021.172a6.321,6.321,0,0,0,.487,1.764,5.7,5.7,0,0,0,.021-1.448m7.132,18.107a4.66,4.66,0,0,0-.055.755c.11-.007.22-.007.329-.014a4.626,4.626,0,0,0-.275-.741m-25.486-27.6c-.172.027-.343.055-.515.1.034.137.069.281.11.426.158-.014.316-.027.474-.048a6.465,6.465,0,0,0,1.757-.494,6.5,6.5,0,0,0-1.826.021m17.75,25.218a6.215,6.215,0,0,0-1.757.487,7.058,7.058,0,0,0,3.583-.508,6.021,6.021,0,0,0-1.826.021m-10.3-10.646a6.174,6.174,0,0,0-1.689.46c0,.014.007.021.014.034a6.436,6.436,0,0,0,1.743-.027,6.519,6.519,0,0,0,1.757-.487,6.02,6.02,0,0,0-1.826.021m21.114-2.553a9.842,9.842,0,0,0-1.105.076,6.449,6.449,0,0,0-1.757.487,6.249,6.249,0,0,0,1.826-.021,6.9,6.9,0,0,0,1.105-.24Zm-19.363-7.393a6.244,6.244,0,0,0-.9,1.592,6.375,6.375,0,0,0,1.277-1.3,6.456,6.456,0,0,0,.9-1.592,6.556,6.556,0,0,0-1.277,1.3m17.311,15.76a6.54,6.54,0,0,0-.9,1.586,6.376,6.376,0,0,0,1.277-1.3,6.245,6.245,0,0,0,.9-1.592,6.589,6.589,0,0,0-1.277,1.311m-9.212-2.794a6.684,6.684,0,0,0-1.592-.9,6.074,6.074,0,0,0,1.311,1.277,6.319,6.319,0,0,0,1.586.9,6.558,6.558,0,0,0-1.3-1.277" transform="translate(-84.058 -54.358)" fill="#fff"/>
            <path id="Trazado_986752" data-name="Trazado 986752" d="M303.9,189.771c-.016-.058-.112-.036-.1.024a149.732,149.732,0,0,0,3.335,15.961c.015.058.113.036.1-.024a149.615,149.615,0,0,0-3.334-15.961" transform="translate(-95.268 -59.501)" fill="#263238"/>
            <path id="Trazado_986753" data-name="Trazado 986753" d="M300.037,181.606c-1.855.627-5.5,1.829-7.369,2.421a105.437,105.437,0,0,1-13.354-13.515A173.1,173.1,0,0,0,292.8,183.755l-.137-.03c1.831-.546,5.536-1.608,7.377-2.119" transform="translate(-87.592 -53.472)" fill="#263238"/>
            <path id="Trazado_986754" data-name="Trazado 986754" d="M268.845,177.9c1.482,3.121,3.068,6.377,4.627,9.457a68.887,68.887,0,0,0,5.188,9.135,47.836,47.836,0,0,1-5.494-8.98c-1.56-3.149-3.059-6.331-4.321-9.611" transform="translate(-84.309 -55.788)" fill="#263238"/>
            <path id="Trazado_986755" data-name="Trazado 986755" d="M268.6,179.179c.487.842,1.02,1.622,1.579,2.42a5.189,5.189,0,0,1-1.579-2.42" transform="translate(-84.231 -56.19)" fill="#263238"/>
            <path id="Trazado_986756" data-name="Trazado 986756" d="M293.5,136.021c3.048,9.355-2.21,12.237-4.228,12.892-1.832.6-8.145,2.387-12.144-6.6s-.613-13.364,3.5-14.946,9.819-.7,12.867,8.657" transform="translate(-86.344 -39.743)" fill="#ad6359"/>
            <path id="Trazado_986757" data-name="Trazado 986757" d="M284.556,128.405a4.309,4.309,0,0,1,.422,2.5c-.553,2.352-3.243,2.353-3.937,3.387-.651.97-.005,2.543-.578,3.5-.793,1.32-1.664.688-1.673,1.462s.014,3.225-.86,3.729-8.588-14.149,3.791-16.341c0,0,1.562-1.157,4.433-.311,4.088,1.2,5.764,5.9,5.764,5.9a3.13,3.13,0,0,1-1.277-.277c-.706-.393-1.085-.719-1.592-.962-.8-.383-1.136.085-1.958-.277a8.406,8.406,0,0,1-2.536-2.3" transform="translate(-86.162 -39.518)" fill="#263238"/>
            <path id="Trazado_986758" data-name="Trazado 986758" d="M285.72,128.775a8.458,8.458,0,0,1,.768,1.8,3.525,3.525,0,0,1,.137,1.881,2.6,2.6,0,0,1-1.169,1.4c-.537.343-1.167.544-1.74.933a1.961,1.961,0,0,0-.688.8,2.621,2.621,0,0,0-.154,1.021,3.491,3.491,0,0,1-.31,1.847,2.172,2.172,0,0,1-1.494,1.05,4.631,4.631,0,0,0-1.883.515,4.6,4.6,0,0,1,1.911-.367,2.363,2.363,0,0,0,1.67-1.075,3.5,3.5,0,0,0,.388-1.967,2.346,2.346,0,0,1,.146-.909,1.664,1.664,0,0,1,.594-.661c.51-.36,1.146-.579,1.713-.948a3.412,3.412,0,0,0,.77-.67,2.049,2.049,0,0,0,.48-.914,3.688,3.688,0,0,0-.224-1.986,8.521,8.521,0,0,0-.914-1.75" transform="translate(-87.552 -40.383)" fill="#263238"/>
            <path id="Trazado_986759" data-name="Trazado 986759" d="M289.224,129.514a6.856,6.856,0,0,0,.964,1.562,3.224,3.224,0,0,0,1.527,1.083,4.659,4.659,0,0,0,.92.144,1.5,1.5,0,0,1,.761.3,4.6,4.6,0,0,0,.691.607,2.045,2.045,0,0,0,.879.284,2.266,2.266,0,0,1-.79-.408,4.616,4.616,0,0,1-.614-.655,1.579,1.579,0,0,0-.883-.415,5.007,5.007,0,0,1-.872-.15,3.416,3.416,0,0,1-1.433-.957,13.442,13.442,0,0,1-1.15-1.394" transform="translate(-90.7 -40.615)" fill="#263238"/>
            <path id="Trazado_986760" data-name="Trazado 986760" d="M279.5,146.959s-2.664-2.636-3.9-1.632,1.155,5.093,2.873,5.4a1.664,1.664,0,0,0,2.033-1.28Z" transform="translate(-86.322 -45.503)" fill="#ad6359"/>
            <path id="Trazado_986761" data-name="Trazado 986761" d="M276.792,147.111a.023.023,0,0,0,0,.045,4.206,4.206,0,0,1,2.611,2.2.919.919,0,0,0-1.4,0c-.025.027.012.067.042.055a1.023,1.023,0,0,1,1.172.15,4.979,4.979,0,0,1,.694.8c.071.091.244,0,.184-.105,0-.008-.01-.016-.014-.025-.233-1.443-1.719-3.253-3.291-3.116" transform="translate(-86.795 -46.131)" fill="#263238"/>
            <path id="Trazado_986762" data-name="Trazado 986762" d="M299.56,139.025a6.331,6.331,0,0,0-.663-.071,1.081,1.081,0,0,0-.691.057.342.342,0,0,0-.129.4.85.85,0,0,0,.737.449,1.25,1.25,0,0,0,.884-.178.366.366,0,0,0-.139-.656" transform="translate(-93.469 -43.566)" fill="#263238"/>
            <path id="Trazado_986763" data-name="Trazado 986763" d="M290.458,141.719a6.441,6.441,0,0,1,.529-.407A1.082,1.082,0,0,1,291.6,141a.344.344,0,0,1,.318.273.852.852,0,0,1-.394.768,1.25,1.25,0,0,1-.847.31.367.367,0,0,1-.224-.632" transform="translate(-91.051 -44.217)" fill="#263238"/>
            <path id="Trazado_986764" data-name="Trazado 986764" d="M293.383,143.572c-.015-.021-.036.049-.026.073.268.6.472,1.335,0,1.761-.014.013,0,.043.02.032.634-.369.352-1.34,0-1.867" transform="translate(-91.995 -45.023)" fill="#263238"/>
            <path id="Trazado_986765" data-name="Trazado 986765" d="M292,142.958c-1.01.324-.288,2.32.648,2.02.92-.3.2-2.291-.648-2.02" transform="translate(-91.417 -44.823)" fill="#263238"/>
            <path id="Trazado_986766" data-name="Trazado 986766" d="M291.168,143.318c-.133.176-.232.437-.435.534-.234.112-.494-.031-.725-.174-.024-.014-.036.009-.026.036.132.384.421.723.853.632.393-.083.539-.519.495-.938-.008-.078-.108-.16-.161-.089" transform="translate(-90.936 -44.935)" fill="#263238"/>
            <path id="Trazado_986767" data-name="Trazado 986767" d="M298.645,141.8c0-.025.059.013.067.038.194.629.522,1.316,1.156,1.33.019,0,.028.032.006.036-.719.139-1.146-.778-1.229-1.4" transform="translate(-93.654 -44.464)" fill="#263238"/>
            <path id="Trazado_986768" data-name="Trazado 986768" d="M298.971,140.548c.974-.419,1.742,1.56.839,1.949s-1.656-1.6-.839-1.949" transform="translate(-93.647 -44.057)" fill="#263238"/>
            <path id="Trazado_986769" data-name="Trazado 986769" d="M299.716,140.276c.216.045.462.177.679.117.251-.069.352-.347.432-.608.008-.027.032-.016.043.01a.775.775,0,0,1-.227,1.037.791.791,0,0,1-.99-.382c-.045-.064-.024-.192.063-.174" transform="translate(-93.963 -43.831)" fill="#263238"/>
            <path id="Trazado_986770" data-name="Trazado 986770" d="M294.77,151.566c.184.121.38.3.618.272a1.736,1.736,0,0,0,.661-.3.023.023,0,0,1,.035.027.885.885,0,0,1-.75.511.7.7,0,0,1-.62-.471c-.017-.035.03-.059.056-.041" transform="translate(-92.42 -47.521)" fill="#263238"/>
            <path id="Trazado_986771" data-name="Trazado 986771" d="M297.4,143.484s.382.93.5,1.385a9.842,9.842,0,0,0-2.529,1.059c-.183.12-.224-.049-.034-.242a4.007,4.007,0,0,1,2.071-1.112c0-.134-.614-1.421-.544-1.445a4.1,4.1,0,0,1,1.093-.032c-.739-1.96-1.785-3.786-2.492-5.749a.064.064,0,0,1,.111-.061,33.9,33.9,0,0,1,2.947,6.079c.1.249-.92.148-1.122.118" transform="translate(-92.577 -43.045)" fill="#263238"/>
            <path id="Trazado_986772" data-name="Trazado 986772" d="M296.772,148.847s-.156,1.207-.815,1.483c-.758.318-1.255-.573-.485-1.193a2.459,2.459,0,0,1,1.3-.29" transform="translate(-92.538 -46.677)" fill="#263238"/>
            <path id="Trazado_986773" data-name="Trazado 986773" d="M296.607,149.814a1.351,1.351,0,0,1-.636.79.587.587,0,0,1-.834-.291l0,0a.06.06,0,0,1,0-.029c.693-.635,1.174-.624,1.471-.465" transform="translate(-92.553 -46.953)" fill="#ff99ba"/>
          </g>
        </g>
        <rect id="Rectángulo_408454" data-name="Rectángulo 408454" width="55.048" height="56.378" transform="translate(251.312 194.575)" fill="#ffc727"/>
        <rect id="Rectángulo_408455" data-name="Rectángulo 408455" width="55.047" height="56.378" transform="translate(196.266 250.953)" fill="#ffc727"/>
        <rect id="Rectángulo_408456" data-name="Rectángulo 408456" width="55.048" height="56.378" transform="translate(306.36 138.276)" fill="#ffc727"/>
        <rect id="Rectángulo_408457" data-name="Rectángulo 408457" width="55.048" height="56.378" transform="translate(361.407 81.977)" fill="#ffc727"/>
        <rect id="Rectángulo_408458" data-name="Rectángulo 408458" width="55.048" height="56.378" transform="translate(416.454 25.678)" fill="#ffc727"/>
        <path id="Trazado_986774" data-name="Trazado 986774" d="M285.933,319.063H340.98L561.169,93.787V37.409Z" transform="translate(-89.667 -11.731)" fill="#ffc727"/>
        <path id="Trazado_986775" data-name="Trazado 986775" d="M285.937,319.062H340.98L561.171,93.784V37.409Z" transform="translate(-89.669 -11.731)" fill="#ffc727"/>
        <g id="Grupo_1150572" data-name="Grupo 1150572">
          <g id="Grupo_1150571" data-name="Grupo 1150571" clip-path="url(#clip-path-2)">
            <g id="Grupo_1150570" data-name="Grupo 1150570" transform="translate(227.823 57.974)" opacity="0.1">
              <g id="Grupo_1150569" data-name="Grupo 1150569">
                <g id="Grupo_1150568" data-name="Grupo 1150568" clip-path="url(#clip-path-24)">
                  <path id="Trazado_986776" data-name="Trazado 986776" d="M575.587,84.46v24.079L355.4,333.817H331.909Z" transform="translate(-331.908 -84.46)" fill="#020100"/>
                </g>
              </g>
            </g>
          </g>
        </g>
        <g id="Grupo_1150574" data-name="Grupo 1150574">
          <g id="Grupo_1150573" data-name="Grupo 1150573" clip-path="url(#clip-path-2)">
            <path id="Trazado_986777" data-name="Trazado 986777" d="M216.084,46.938A16.227,16.227,0,0,1,188.965,57.2l-8.12,1.192,4.063-7.02a16.233,16.233,0,1,1,31.176-4.438" transform="translate(-56.712 -9.099)" fill="#fff"/>
            <path id="Trazado_986778" data-name="Trazado 986778" d="M215.834,46.872a16.345,16.345,0,0,1-3.276,8.228,18.039,18.039,0,0,1-1.471,1.693,18.235,18.235,0,0,1-1.713,1.45,15.976,15.976,0,0,1-3.915,2.18,16.2,16.2,0,0,1-4.37,1.042,15.965,15.965,0,0,1-2.256.043,14.186,14.186,0,0,1-2.246-.234,16.371,16.371,0,0,1-8.03-3.965l.192.059-8.113,1.246-.589.091.3-.52,4.039-7.034-.019.278a16.414,16.414,0,0,1,1-14.467,16.606,16.606,0,0,1,5.083-5.413,16.516,16.516,0,0,1,14.267-1.921,16.583,16.583,0,0,1,6.259,3.838,16.326,16.326,0,0,1,4.858,13.4m0,0a16.056,16.056,0,0,0-18.407-17.566,15.949,15.949,0,0,0-6.7,2.648,16.731,16.731,0,0,0-4.856,5.3,16.023,16.023,0,0,0-2.06,6.868,16.208,16.208,0,0,0,1.142,7.071l.058.146-.077.132-4.087,7.006-.291-.428,8.128-1.138.112-.016.08.075a15.985,15.985,0,0,0,7.772,4,13.884,13.884,0,0,0,2.2.268,15.513,15.513,0,0,0,6.557-.958,15.116,15.116,0,0,0,3.915-2.11,18.226,18.226,0,0,0,1.715-1.431,18.013,18.013,0,0,0,1.476-1.677,16.316,16.316,0,0,0,3.324-8.19" transform="translate(-56.462 -9.034)" fill="#263238"/>
            <path id="Trazado_986779" data-name="Trazado 986779" d="M205.636,37.427a1.033,1.033,0,0,1,1.041,1.041V39a8.814,8.814,0,0,1,3.751,1.331,1.3,1.3,0,0,1,.726,1.161,1.332,1.332,0,0,1-1.356,1.331,1.4,1.4,0,0,1-.726-.218,8.78,8.78,0,0,0-2.492-1.065v4.646c3.678.92,5.252,2.4,5.252,4.985,0,2.662-2.082,4.428-5.155,4.719v1.452a1.033,1.033,0,0,1-1.041,1.041,1.054,1.054,0,0,1-1.065-1.041v-1.5a10.47,10.47,0,0,1-4.961-1.888,1.329,1.329,0,0,1-.653-1.161,1.331,1.331,0,0,1,2.13-1.065,8.585,8.585,0,0,0,3.581,1.621V48.582c-3.532-.919-5.178-2.25-5.178-4.985,0-2.589,2.057-4.38,5.081-4.622v-.508a1.053,1.053,0,0,1,1.065-1.041m-.969,8.252V41.4c-1.549.145-2.323.969-2.323,2.032,0,1.017.46,1.647,2.323,2.251m1.912,3.363v4.4c1.549-.17,2.4-.944,2.4-2.106,0-1.065-1.8-1.724-2.4-2.3" transform="translate(-62.392 -11.737)" fill="#ffc727"/>
            <path id="Trazado_986780" data-name="Trazado 986780" d="M334.41,96.513a16.227,16.227,0,0,1-27.119,10.267l-8.12,1.192,4.063-7.02a16.233,16.233,0,1,1,31.176-4.438" transform="translate(-93.819 -24.645)" fill="#fff"/>
            <path id="Trazado_986781" data-name="Trazado 986781" d="M334.16,96.447a16.345,16.345,0,0,1-3.276,8.228,18.046,18.046,0,0,1-1.471,1.693,18.238,18.238,0,0,1-1.713,1.45,15.976,15.976,0,0,1-3.915,2.18,16.169,16.169,0,0,1-4.37,1.042,15.954,15.954,0,0,1-2.255.043,14.187,14.187,0,0,1-2.246-.234,16.371,16.371,0,0,1-8.03-3.965l.191.059-8.112,1.246-.589.091.3-.519,4.039-7.034-.019.278a16.414,16.414,0,0,1,1-14.467,16.6,16.6,0,0,1,5.083-5.413A16.513,16.513,0,0,1,323.043,79.2a16.578,16.578,0,0,1,6.259,3.838,16.326,16.326,0,0,1,4.858,13.4m0,0a16.056,16.056,0,0,0-18.407-17.566,15.949,15.949,0,0,0-6.7,2.648,16.731,16.731,0,0,0-4.856,5.3,16.023,16.023,0,0,0-2.06,6.868,16.208,16.208,0,0,0,1.142,7.071l.058.146-.078.132-4.087,7.006-.29-.428,8.128-1.138.112-.016.08.075a15.985,15.985,0,0,0,7.772,4,13.882,13.882,0,0,0,2.2.268,15.513,15.513,0,0,0,6.557-.958,15.116,15.116,0,0,0,3.915-2.11,18.231,18.231,0,0,0,1.715-1.431,17.926,17.926,0,0,0,1.476-1.677,16.316,16.316,0,0,0,3.324-8.19" transform="translate(-93.569 -24.58)" fill="#263238"/>
            <path id="Trazado_986782" data-name="Trazado 986782" d="M312.21,96.666A4.549,4.549,0,0,0,313,97.921a3.7,3.7,0,0,0,1.371,2.637,10.864,10.864,0,0,0,2.824,1.9,20.754,20.754,0,0,0,5.4,1.6,14.809,14.809,0,0,1-1.186,4.293c-.014.035.042.051.056.016a16.978,16.978,0,0,0,1.3-4.28c.366.061.732.119,1.1.17.56.078,1.137.14,1.718.172a18.661,18.661,0,0,0,3.024.139,5.141,5.141,0,0,0,3.265-1.131,3,3,0,0,0,.936-2.977,5.46,5.46,0,0,0-.537-1.376,6.844,6.844,0,0,0-.482-.877,9.393,9.393,0,0,0-2.289-2.362c-.232-.174-.471-.342-.714-.5-.032-.03-.062-.062-.095-.093a11.856,11.856,0,0,0-2.949-1.972,17.362,17.362,0,0,0-7.206-1.752,16.779,16.779,0,0,0-3.746.326,3.407,3.407,0,0,0-2.626,1.716,3.513,3.513,0,0,0-.156,2.387,3.145,3.145,0,0,0,.2.715m12.5,7.231c-.632-.091-1.264-.2-1.892-.343,0-.076.007-.153.008-.229q.212.033.424.056c.126.013.257.021.389.025a17.092,17.092,0,0,0,3.552.222,15.559,15.559,0,0,0,3.146-.462,9.358,9.358,0,0,1-4.992.791c-.212-.015-.423-.037-.635-.059m-3.844-10.829c.329.062.657.133.984.209a7.969,7.969,0,0,0-2.5.418,4.816,4.816,0,0,0-2.269,1.551,5.389,5.389,0,0,0-1.277.524c-.094.009-.188.016-.282.03a4.406,4.406,0,0,0-1.027.277c0-.045-.013-.088-.013-.132a2.5,2.5,0,0,1,1.695-2.138,9.153,9.153,0,0,1,3.12-.726,12.393,12.393,0,0,1,1.573-.013m-6.088,4.7a4.8,4.8,0,0,0,.314.382,1.809,1.809,0,0,0-.292.3,2.209,2.209,0,0,1-.021-.683m7.838,5.524c0,.073,0,.145,0,.218a21.989,21.989,0,0,1-2.608-.765q.8.2,1.6.357c.332.065.666.134,1,.191m-.246-1.433a23.063,23.063,0,0,1-6.532-2.352c-.262-.146-.524-.3-.78-.463a1.176,1.176,0,0,1,.388-.542,10.858,10.858,0,0,0,3.043,1.842,34.381,34.381,0,0,0,3.585,1.247.172.172,0,0,0,.189-.052c.006.017.014.033.021.051.033.089.058.178.086.268m-6.257-3.312c-.1-.078-.206-.161-.307-.249a2.558,2.558,0,0,1,1.394-.035A10.929,10.929,0,0,1,320.3,99.3a4.273,4.273,0,0,1,1.815,1.9,18.981,18.981,0,0,1-6.007-2.656m6.377,3.776c.027.13.051.26.069.391l-.021,0c-.165-.032-.328-.068-.493-.1q-.346-.092-.688-.195a19.336,19.336,0,0,1-3.379-1.4,24.048,24.048,0,0,0,3.747,1.16c.254.056.509.105.765.154m.27.051c.693.123,1.39.213,2.091.276a2.139,2.139,0,0,1-.961.211,5.766,5.766,0,0,1-1.087-.1c-.011-.128-.024-.256-.043-.384m-4.859-.9c-.056-.023-.112-.041-.168-.065a9.846,9.846,0,0,1-1.419-.741c-.132-.083-.274-.17-.415-.263-.064-.066-.129-.131-.189-.2-.038-.043-.073-.09-.109-.135a20.008,20.008,0,0,0,2.3,1.4m-2.991-4.195a2.364,2.364,0,0,1,.872-1.047,5.784,5.784,0,0,1,1.017-.013,1.323,1.323,0,0,0,.46.607,13.448,13.448,0,0,0,1.448.994,15.741,15.741,0,0,0,6,2.1,3.457,3.457,0,0,1,.7,1.379,1.322,1.322,0,0,1-.137.974,22.942,22.942,0,0,1-2.6-.352c-.032-.134-.067-.267-.11-.4a4.468,4.468,0,0,0-2-2.505,11.043,11.043,0,0,0-3.236-1.183,2.883,2.883,0,0,0-1.865.079l-.04.022a4.256,4.256,0,0,1-.515-.655M329.527,99.2a1.4,1.4,0,0,1-.605.284,7.932,7.932,0,0,0-2.2-2.326,11.475,11.475,0,0,0-5.975-2.249,10.9,10.9,0,0,0-2.919.167l.078-.069a4.466,4.466,0,0,1,1.17-.73,8.692,8.692,0,0,1,5.289-.27c.043.015.086.028.128.044a17.06,17.06,0,0,1,4.962,2.733c.017.029.036.056.053.084.369.651.692,1.752.023,2.33m-12.154-3.65a9.734,9.734,0,0,1,2.6-.311,11.131,11.131,0,0,1,5.657,1.637,10.373,10.373,0,0,1,2.308,1.918,5.313,5.313,0,0,1,.57.759c-.175.018-.348.029-.507.042a14.994,14.994,0,0,1-1.684.041c-.428-.014-.854-.051-1.279-.1L325,99.489a11.225,11.225,0,0,0-5.7-3.247,13.087,13.087,0,0,0-2.063-.444,1.066,1.066,0,0,1,.14-.249m.475.808a16.862,16.862,0,0,1,3.1.94,10.332,10.332,0,0,1,2.685,1.545,8.558,8.558,0,0,1,.637.582,15.059,15.059,0,0,1-5.66-2.177q-.371-.238-.727-.5a2.877,2.877,0,0,1-.582-.481c.185.025.369.054.548.089m10.728,5.281a3.051,3.051,0,0,1-2.372.682c-.115,0-.23-.012-.345-.017a2.529,2.529,0,0,0-.478-2.3h.006a13.09,13.09,0,0,0,3.325-.06,1.494,1.494,0,0,1-.136,1.7m-13.889-4.778a2.559,2.559,0,0,1-.113-.312,3.586,3.586,0,0,1,.475-.176c-.055.059-.111.116-.161.18a2.436,2.436,0,0,0-.2.308m16.733,5.507a5.324,5.324,0,0,1-.785.262,14.842,14.842,0,0,1-3.071.535,16.231,16.231,0,0,1-2.485-.027,1.637,1.637,0,0,0,.532-.43l.037,0a4.68,4.68,0,0,0,2.82-.463,1.786,1.786,0,0,0,.794-1.123,2.18,2.18,0,0,0-.159-1.269,1.569,1.569,0,0,0,1.014-.731,2.02,2.02,0,0,0,.175-1.253,3.141,3.141,0,0,0-.105-.454,7.906,7.906,0,0,1,1.717,2.054,2.351,2.351,0,0,1,.279,1.6,2.636,2.636,0,0,1-.7,1.236c-.019.02-.041.037-.06.057m-17.146-3.879a8.861,8.861,0,0,1-.784-.781,1.556,1.556,0,0,1,.728-.975,3.288,3.288,0,0,0,.273.6,2.654,2.654,0,0,0-.041,1.292c-.06-.045-.118-.091-.176-.137m-1.7-2.206a2.35,2.35,0,0,1,.068-1.767,3.421,3.421,0,0,1,2.264-1.73,9.88,9.88,0,0,1,3.518-.073l.182.021a9.134,9.134,0,0,0-2.564.7,3.026,3.026,0,0,0-1.932,2.155,2.3,2.3,0,0,0,0,.673,2.167,2.167,0,0,0-.967,1.018,4.693,4.693,0,0,1-.572-1m13.387-2.435a16.418,16.418,0,0,0-2.995-.919,15.066,15.066,0,0,0-1.792-.25c-.647-.13-1.3-.24-1.943-.325-2.194-.289-5.009-.611-6.588,1.314-.052.064-.095.131-.141.2a2.3,2.3,0,0,1,.326-.577,2.709,2.709,0,0,1,1.325-.845,12.566,12.566,0,0,1,3.408-.5A17.058,17.058,0,0,1,324.32,93.1a16.184,16.184,0,0,1,1.64.75m3.352,10.245c-.064.009-.128.014-.192.021a6.821,6.821,0,0,0,1.75-.754,4.884,4.884,0,0,0,.793-.614,1.876,1.876,0,0,0,.439-.29c.026-.023.044-.052.068-.077a2.344,2.344,0,0,1-.152.256,3.842,3.842,0,0,1-2.706,1.457m-15.456-4.866a2.946,2.946,0,0,1-.334-.766,9.054,9.054,0,0,0,.894.708l.062.051.014.011a1.551,1.551,0,0,0,.566,1.2,7.414,7.414,0,0,0,1.472,1.023c.19.137.384.268.583.389.241.147.489.281.74.41a12.051,12.051,0,0,1-1.725-.9,6.978,6.978,0,0,1-2.272-2.121" transform="translate(-97.803 -28.7)" fill="#263238"/>
          </g>
        </g>
      </g>
    </g>
  </g>
</svg>
