<svg xmlns="http://www.w3.org/2000/svg" xmlns:xlink="http://www.w3.org/1999/xlink" width="109.117" height="109.117" viewBox="0 0 109.117 109.117">
  <defs>
    <filter id="Trazado_982548" x="0" y="0" width="109.117" height="109.117" filterUnits="userSpaceOnUse">
      <feOffset dy="3" input="SourceAlpha"/>
      <feGaussianBlur stdDeviation="3" result="blur"/>
      <feFlood flood-opacity="0.161"/>
      <feComposite operator="in" in2="blur"/>
      <feComposite in="SourceGraphic"/>
    </filter>
  </defs>
  <g id="Grupo_1150629" data-name="Grupo 1150629" transform="translate(-720.441 -6011.86)">
    <g id="Grupo_1150092" data-name="Grupo 1150092" transform="translate(519.441 5449.86)">
      <g id="Grupo_1149552" data-name="Grupo 1149552" transform="translate(210 568)">
        <g id="Grupo_1149263" data-name="Grupo 1149263">
          <g transform="matrix(1, 0, 0, 1, -9, -6)" filter="url(#Trazado_982548)">
            <g id="Trazado_982548-2" data-name="Trazado 982548" transform="translate(9 6)" fill="#f6f9fc">
              <path d="M 45.55858993530273 89.61717987060547 C 39.61005401611328 89.61717987060547 33.84025192260742 88.45249176025391 28.40946578979492 86.15544891357422 C 23.16317749023438 83.93646240234375 18.45121574401855 80.75946807861328 14.40446472167969 76.71271514892578 C 10.35771465301514 72.66597747802734 7.180715084075928 67.95401763916016 4.961727619171143 62.70772933959961 C 2.664690017700195 57.27692794799805 1.500002384185791 51.50712585449219 1.500002384185791 45.55858993530273 C 1.500002384185791 39.61005401611328 2.664690017700195 33.84025192260742 4.961727619171143 28.40946578979492 C 7.180715084075928 23.16317749023438 10.35771465301514 18.45121574401855 14.40446472167969 14.40446472167969 C 18.45121574401855 10.35771465301514 23.16317749023438 7.180715084075928 28.40946578979492 4.961727619171143 C 33.84025192260742 2.664690017700195 39.61005401611328 1.500002384185791 45.55858993530273 1.500002384185791 C 51.50712585449219 1.500002384185791 57.27692794799805 2.664690017700195 62.70772933959961 4.961727619171143 C 67.95401763916016 7.180715084075928 72.66597747802734 10.35771465301514 76.71271514892578 14.40446472167969 C 80.75946807861328 18.45121574401855 83.93646240234375 23.16317749023438 86.15544891357422 28.40946578979492 C 88.45249176025391 33.84025192260742 89.61717987060547 39.61005401611328 89.61717987060547 45.55858993530273 C 89.61717987060547 51.50712585449219 88.45249176025391 57.27692794799805 86.15544891357422 62.70772933959961 C 83.93646240234375 67.95401763916016 80.75946807861328 72.66597747802734 76.71271514892578 76.71271514892578 C 72.66597747802734 80.75946807861328 67.95401763916016 83.93646240234375 62.70772933959961 86.15544891357422 C 57.27692794799805 88.45249176025391 51.50712585449219 89.61717987060547 45.55858993530273 89.61717987060547 Z" stroke="none"/>
              <path d="M 45.55858993530273 3.000007629394531 C 39.8118896484375 3.000007629394531 34.23868942260742 4.124832153320312 28.99378967285156 6.343231201171875 C 23.92630767822266 8.486602783203125 19.37460327148438 11.55564880371094 15.46511840820312 15.46511840820312 C 11.55564880371094 19.37460327148438 8.486602783203125 23.92630767822266 6.343231201171875 28.99378967285156 C 4.124832153320312 34.23868942260742 3.000007629394531 39.8118896484375 3.000007629394531 45.55858993530273 C 3.000007629394531 51.30529022216797 4.124832153320312 56.87849044799805 6.343231201171875 62.12339019775391 C 8.486602783203125 67.19087219238281 11.55564880371094 71.74257659912109 15.46511840820312 75.65206146240234 C 19.37460327148438 79.56153106689453 23.92630767822266 82.63057708740234 28.99378967285156 84.77394866943359 C 34.23868942260742 86.99234771728516 39.8118896484375 88.11717224121094 45.55858993530273 88.11717224121094 C 51.30529022216797 88.11717224121094 56.87849044799805 86.99234771728516 62.12339019775391 84.77394866943359 C 67.19087219238281 82.63057708740234 71.74257659912109 79.56153106689453 75.65206146240234 75.65206146240234 C 79.56153106689453 71.74257659912109 82.63057708740234 67.19087219238281 84.77394866943359 62.12339019775391 C 86.99234771728516 56.87849044799805 88.11717224121094 51.30529022216797 88.11717224121094 45.55858993530273 C 88.11717224121094 39.8118896484375 86.99234771728516 34.23868942260742 84.77394866943359 28.99378967285156 C 82.63057708740234 23.92630767822266 79.56153106689453 19.37460327148438 75.65206146240234 15.46511840820312 C 71.74257659912109 11.55564880371094 67.19087219238281 8.486602783203125 62.12339019775391 6.343231201171875 C 56.87849044799805 4.124832153320312 51.30529022216797 3.000007629394531 45.55858993530273 3.000007629394531 M 45.55858993530273 7.62939453125e-06 C 70.71990203857422 7.62939453125e-06 91.11717224121094 20.39727783203125 91.11717224121094 45.55858993530273 C 91.11717224121094 70.71990203857422 70.71990203857422 91.11717224121094 45.55858993530273 91.11717224121094 C 20.39727783203125 91.11717224121094 7.62939453125e-06 70.71990203857422 7.62939453125e-06 45.55858993530273 C 7.62939453125e-06 20.39727783203125 20.39727783203125 7.62939453125e-06 45.55858993530273 7.62939453125e-06 Z" stroke="none" fill="#a530fe"/>
            </g>
          </g>
        </g>
      </g>
    </g>
    <g id="question_8912623" transform="translate(749.893 6035.308)">
      <path id="Trazado_986848" data-name="Trazado 986848" d="M23.408,2h3.51A11.408,11.408,0,0,1,38.325,13.408v8.775H12V13.408A11.408,11.408,0,0,1,23.408,2Z" transform="translate(-1.194 -0.214)" fill="#ffd740"/>
      <path id="Trazado_986849" data-name="Trazado 986849" d="M44.365,59.428H4L5.327,48.81a5.265,5.265,0,0,1,3.739-4.4L20.673,41h7.02L39.3,44.414a5.265,5.265,0,0,1,3.739,4.4Z" transform="translate(-0.214 -4.992)" fill="#788cb4"/>
      <g id="Grupo_1150628" data-name="Grupo 1150628" transform="translate(9.051 17.142)">
        <path id="Trazado_986850" data-name="Trazado 986850" d="M23,34h7.02V44.53H23Z" transform="translate(-11.592 -21.276)" fill="#fcbfac"/>
        <path id="Trazado_986851" data-name="Trazado 986851" d="M36,19.5h3.949a3.071,3.071,0,0,1,0,6.143H36Z" transform="translate(-13.185 -19.5)" fill="#fcbfac"/>
        <path id="Trazado_986852" data-name="Trazado 986852" d="M0,0H3.949a3.071,3.071,0,1,1,0,6.143H0Z" transform="translate(7.02 6.143) rotate(180)" fill="#fcbfac"/>
      </g>
      <path id="Trazado_986853" data-name="Trazado 986853" d="M28.143,52.143h-3.51L22,46h8.775Z" transform="translate(-2.419 -5.604)" fill="#ff8ba3"/>
      <path id="Trazado_986854" data-name="Trazado 986854" d="M28.265,53h-3.51L23,60.9h7.02Z" transform="translate(-2.541 -6.462)" fill="#ff6e8c"/>
      <path id="Trazado_986855" data-name="Trazado 986855" d="M32.265,48.775,27,45.265l.37-.185A5.679,5.679,0,0,0,30.51,40l1.892.473a3.51,3.51,0,0,1,1.956,5.511Z" transform="translate(-3.031 -4.869)" fill="#f4f5f5"/>
      <path id="Trazado_986856" data-name="Trazado 986856" d="M20.61,48.775l5.265-3.51-.37-.185A5.679,5.679,0,0,1,22.365,40l-1.892.473a3.51,3.51,0,0,0-1.956,5.511Z" transform="translate(-1.906 -4.869)" fill="#f4f5f5"/>
      <path id="Trazado_986857" data-name="Trazado 986857" d="M25.775,34.06A8.775,8.775,0,0,1,17,25.285V18.7h2.078A11.986,11.986,0,0,0,29.285,13a7.7,7.7,0,0,1,5.265,7.3v4.98A8.775,8.775,0,0,1,25.775,34.06Z" transform="translate(-1.806 -1.562)" fill="#ffd2be"/>
      <path id="Trazado_986858" data-name="Trazado 986858" d="M54.173,5.25a5.93,5.93,0,0,0-5.923,5.923,1.536,1.536,0,0,0,3.071,0,2.852,2.852,0,1,1,3.964,2.633,4.438,4.438,0,0,0-2.647,4.135v2.008a1.536,1.536,0,0,0,3.071,0V17.936a1.4,1.4,0,0,1,.773-1.307A5.924,5.924,0,0,0,54.173,5.25Z" transform="translate(-5.634 -0.612)"/>
      <circle id="Elipse_11566" data-name="Elipse 11566" cx="1.536" cy="1.536" r="1.536" transform="translate(47.003 23.065)"/>
      <path id="Trazado_986859" data-name="Trazado 986859" d="M44.348,43.63a6.8,6.8,0,0,0-4.826-5.68l-7.078-2.081a5.265,5.265,0,0,0-2.84-1.79l-.59-.147V32.7a10.32,10.32,0,0,0,5.2-7.885h1.6a4.588,4.588,0,0,0,2.852-8.2V13.193A12.958,12.958,0,0,0,25.724.25h-3.51A12.958,12.958,0,0,0,9.27,13.193v3.43a4.588,4.588,0,0,0,2.852,8.2h1.6a10.23,10.23,0,0,0,2.958,6.193,10.355,10.355,0,0,0,2.246,1.7v1.221l-.728.182a5.032,5.032,0,0,0-2.715,1.755l-7.061,2.08A6.8,6.8,0,0,0,3.592,43.63L2.264,54.247a1.537,1.537,0,0,0,1.522,1.724H44.151a1.537,1.537,0,0,0,1.524-1.726Zm-7-23.416a1.537,1.537,0,0,1-1.536,1.536H34.279V18.678h1.536A1.537,1.537,0,0,1,37.351,20.213ZM13.658,21.749H12.122a1.536,1.536,0,0,1,0-3.071h1.536Zm-1.316-6.143V13.193a9.883,9.883,0,0,1,9.872-9.872h3.51A9.883,9.883,0,0,1,35.6,13.193v2.413h-1.87a9.214,9.214,0,0,0-5.762-5.625,1.534,1.534,0,0,0-1.793.652,10.519,10.519,0,0,1-8.9,4.973Zm6.508,13.235a7.2,7.2,0,0,1-2.12-5.118V18.678h.542a13.622,13.622,0,0,0,10.756-5.33,6.157,6.157,0,0,1,3.181,5.4v4.98a7.239,7.239,0,0,1-12.359,5.118ZM19.23,52.9H5.525l1.112-8.89A3.727,3.727,0,0,1,9.285,40.9l5.1-1.5a5.364,5.364,0,0,0,1.078,2.757l2.009,2.676a1.536,1.536,0,0,0,2.081.356l.316-.211.735,1.716Zm-.166-11.079-1.221-1.629a1.942,1.942,0,0,1-.28-1.848,2.106,2.106,0,0,1,1.5-1.284l.118-.029A7.141,7.141,0,0,0,21.2,40.393ZM22.373,52.9l1.072-4.826H24.5L25.567,52.9Zm.1-9.66,1.5-1,1.5,1L24.711,45H23.226Zm3.472-8.109A4.116,4.116,0,0,1,24.048,38.6l-.08-.051-.08.054a4.115,4.115,0,0,1-1.895-3.476V33.844a10.216,10.216,0,0,0,3.949,0Zm2.813,1.9.241.061a1.943,1.943,0,0,1,1.383,1.259,2.106,2.106,0,0,1-.358,1.942l-1.146,1.527L26.734,40.4a7.13,7.13,0,0,0,2.023-3.363ZM28.707,52.9l-1.38-6.212.735-1.716.316.211a1.536,1.536,0,0,0,2.084-.356l2.093-2.79a5.023,5.023,0,0,0,.984-2.646l5.113,1.5A3.727,3.727,0,0,1,41.3,44.01l1.112,8.89Z"/>
    </g>
  </g>
</svg>
