<svg xmlns="http://www.w3.org/2000/svg" width="30.088" height="28.583" viewBox="0 0 30.088 28.583">
  <path id="Trazado_985654" data-name="Trazado 985654" d="M29.58,27.068V12.526a2.585,2.585,0,0,0-3.009-2.507V7.512a2.008,2.008,0,0,0-2.006-2.006H20.554V5a1.506,1.506,0,0,0-1.5-1.5H15.038a1.506,1.506,0,0,0-1.5,1.5v.5H9.522A2.008,2.008,0,0,0,7.516,7.512v2.507a2.585,2.585,0,0,0-3.009,2.507V27.068a2.507,2.507,0,1,0,0,5.015H29.58a2.507,2.507,0,1,0,0-5.015ZM14.536,5a.5.5,0,0,1,.5-.5H19.05a.5.5,0,0,1,.5.5v1.5a.5.5,0,0,1-.5.5H15.038a.5.5,0,0,1-.5-.5ZM8.519,7.512a1,1,0,0,1,1-1h4.012a1.506,1.506,0,0,0,1.5,1.5H19.05a1.506,1.506,0,0,0,1.5-1.5h4.012a1,1,0,0,1,1,1V22.555a1,1,0,0,1-1,1H9.522a1,1,0,0,1-1-1ZM5.51,12.526a1.506,1.506,0,0,1,1.5-1.5h.5V22.555a2.008,2.008,0,0,0,2.006,2.006H24.566a2.008,2.008,0,0,0,2.006-2.006V11.022h.5a1.506,1.506,0,0,1,1.5,1.5V27.068H5.51ZM19.551,28.071a1,1,0,0,1-1,1H15.539a1,1,0,0,1-1-1ZM29.58,31.08H4.507a1.5,1.5,0,1,1,0-3.009h9.026a2.008,2.008,0,0,0,2.006,2.006h3.009a2.008,2.008,0,0,0,2.006-2.006H29.58a1.5,1.5,0,1,1,0,3.009Z" transform="translate(-2 -3.5)"/>
</svg>
