<svg xmlns="http://www.w3.org/2000/svg" xmlns:xlink="http://www.w3.org/1999/xlink" width="110" height="110" viewBox="0 0 110 110">
  <defs>
    <filter id="Trazado_982547" x="0" y="0" width="110" height="110" filterUnits="userSpaceOnUse">
      <feOffset dy="3" input="SourceAlpha"/>
      <feGaussianBlur stdDeviation="3" result="blur"/>
      <feFlood flood-opacity="0.161"/>
      <feComposite operator="in" in2="blur"/>
      <feComposite in="SourceGraphic"/>
    </filter>
  </defs>
  <g id="Grupo_1150647" data-name="Grupo 1150647" transform="translate(-902 -2840.5)">
    <g id="Grupo_1150127" data-name="Grupo 1150127" transform="translate(-1 -2018.5)">
      <g id="Grupo_1149675" data-name="Grupo 1149675" transform="translate(912 4865)">
        <g id="Grupo_1148534" data-name="Grupo 1148534" transform="translate(0)">
          <g id="Grupo_1147066" data-name="Grupo 1147066" transform="translate(0 0)">
            <g transform="matrix(1, 0, 0, 1, -9, -6)" filter="url(#Trazado_982547)">
              <g id="Trazado_982547-2" data-name="Trazado 982547" transform="translate(9 6)" fill="#f6f9fc">
                <path d="M 46.00000381469727 90.5 C 39.99188232421875 90.5 34.16427230834961 89.32364654541016 28.67905807495117 87.00359344482422 C 23.38020324707031 84.76236724853516 18.62103080749512 81.55355072021484 14.53375053405762 77.46625518798828 C 10.44645690917969 73.37897491455078 7.237643718719482 68.61980438232422 4.996417045593262 63.32094955444336 C 2.676363706588745 57.83573532104492 1.500003814697266 52.00812530517578 1.500003814697266 46.00000381469727 C 1.500003814697266 39.99188232421875 2.676363706588745 34.16427230834961 4.996417045593262 28.67905807495117 C 7.237643718719482 23.38020324707031 10.44645690917969 18.62104415893555 14.53375053405762 14.53375053405762 C 18.62103080749512 10.44647026062012 23.38020324707031 7.237643718719482 28.67905807495117 4.996417045593262 C 34.16427230834961 2.676363706588745 39.99188232421875 1.500003814697266 46.00000381469727 1.500003814697266 C 52.00812530517578 1.500003814697266 57.83573532104492 2.676363706588745 63.32094955444336 4.996417045593262 C 68.61980438232422 7.237643718719482 73.37897491455078 10.44647026062012 77.46625518798828 14.53375053405762 C 81.55355072021484 18.62104415893555 84.76236724853516 23.38020324707031 87.00359344482422 28.67905807495117 C 89.32364654541016 34.16427230834961 90.5 39.99188232421875 90.5 46.00000381469727 C 90.5 52.00812530517578 89.32364654541016 57.83573532104492 87.00359344482422 63.32094955444336 C 84.76236724853516 68.61980438232422 81.55355072021484 73.37897491455078 77.46625518798828 77.46625518798828 C 73.37897491455078 81.55355072021484 68.61980438232422 84.76236724853516 63.32094955444336 87.00359344482422 C 57.83573532104492 89.32364654541016 52.00812530517578 90.5 46.00000381469727 90.5 Z" stroke="none"/>
                <path d="M 46.00000381469727 3.000007629394531 C 40.19371795654297 3.000007629394531 34.56270217895508 4.136505126953125 29.26338958740234 6.377914428710938 C 24.14333343505859 8.54351806640625 19.54441833496094 11.64440155029297 15.59442138671875 15.59442138671875 C 11.64440155029297 19.54441833496094 8.54351806640625 24.14333343505859 6.377914428710938 29.26338958740234 C 4.136505126953125 34.56270217895508 3.000007629394531 40.19371795654297 3.000007629394531 46.00000381469727 C 3.000007629394531 51.80628967285156 4.136505126953125 57.43730545043945 6.377914428710938 62.73661804199219 C 8.54351806640625 67.85667419433594 11.64440155029297 72.45558929443359 15.59442138671875 76.40558624267578 C 19.54441833496094 80.35560607910156 24.14333343505859 83.45648956298828 29.26338958740234 85.62208557128906 C 34.56270217895508 87.86350250244141 40.19371795654297 89 46.00000381469727 89 C 51.80628967285156 89 57.43730545043945 87.86350250244141 62.73661804199219 85.62208557128906 C 67.85667419433594 83.45648956298828 72.45558929443359 80.35560607910156 76.40558624267578 76.40558624267578 C 80.35560607910156 72.45558929443359 83.45648956298828 67.85667419433594 85.62208557128906 62.73661804199219 C 87.86350250244141 57.43730545043945 89 51.80628967285156 89 46.00000381469727 C 89 40.19371795654297 87.86350250244141 34.56270217895508 85.62208557128906 29.26338958740234 C 83.45648956298828 24.14333343505859 80.35560607910156 19.54441833496094 76.40558624267578 15.59442138671875 C 72.45558929443359 11.64440155029297 67.85667419433594 8.54351806640625 62.73661804199219 6.377914428710938 C 57.43730545043945 4.136505126953125 51.80628967285156 3.000007629394531 46.00000381469727 3.000007629394531 M 46.00000381469727 7.62939453125e-06 C 71.40510559082031 7.62939453125e-06 92 20.59490203857422 92 46.00000381469727 C 92 71.40510559082031 71.40510559082031 92 46.00000381469727 92 C 20.59490203857422 92 7.62939453125e-06 71.40510559082031 7.62939453125e-06 46.00000381469727 C 7.62939453125e-06 20.59490203857422 20.59490203857422 7.62939453125e-06 46.00000381469727 7.62939453125e-06 Z" stroke="none" fill="#a530fe"/>
              </g>
            </g>
          </g>
        </g>
      </g>
    </g>
    <g id="Layer_x0020_1" transform="translate(913.754 2853.51)">
      <g id="_308652920" transform="translate(19.034 9.139)">
        <g id="Grupo_1150645" data-name="Grupo 1150645" transform="translate(0.699 0.699)">
          <path id="_308657384" d="M94.917,74.87a8.826,8.826,0,0,1,6.533,16.289,6.985,6.985,0,0,1-6.034,10.5,7.049,7.049,0,0,1-.832-.05,6.985,6.985,0,0,1-13.37-2.83V77.929L84.54,67.052l2.5-.982a6.989,6.989,0,0,1,7.873,8.8Z" transform="translate(-56.297 -43.259)" fill="#ff8ad1" fill-rule="evenodd"/>
          <path id="_308656472" d="M117.937,21.615l14.307,20.661H117.937Z" transform="translate(-77.891 -17.175)" fill="#ffa95e" fill-rule="evenodd"/>
          <path id="_308656688" d="M117.937,51.1v-1.4h2.655a.7.7,0,0,1,0,1.4Zm0-4.2v-1.4h1.77a.7.7,0,1,1,0,1.4Zm0-4.2V41.3h2.655a.7.7,0,0,1,0,1.4Z" transform="translate(-77.891 -28.752)" fill="#f28d51" fill-rule="evenodd"/>
          <path id="_308656232" d="M34.112,24.663V37.332l-2.527,3.343-3.5-3.343V24.663l3-2.107Z" transform="translate(-25.053 -17.728)" fill="#e04141" fill-rule="evenodd"/>
          <path id="_308656616" d="M35.1,26.675a.7.7,0,0,0-1.4,0V39.344a.7.7,0,1,0,1.4,0Z" transform="translate(-28.361 -19.74)" fill="#c13434"/>
          <path id="_308656448" d="M31.947,74.87a8.826,8.826,0,0,0-6.533,16.289,6.985,6.985,0,0,0,6.034,10.5,7.05,7.05,0,0,0,.832-.05,6.985,6.985,0,0,0,13.37-2.83V77.929L42.324,67.052l-2.5-.982a6.989,6.989,0,0,0-7.873,8.8Z" transform="translate(-20.731 -43.259)" fill="#ff8ad1" fill-rule="evenodd"/>
          <path id="_308656424" d="M28.081,58.423h6.032V60.9a3.016,3.016,0,0,1-6.032,0Z" transform="translate(-25.053 -38.819)" fill="#f9c" fill-rule="evenodd"/>
          <path id="_308655704" d="M34.112,18.5H28.08L31.1,12.077Z" transform="translate(-25.053 -11.566)" fill="#fdaa66" fill-rule="evenodd"/>
          <path id="_308655992" d="M80.917,90.477a.7.7,0,0,0-1.4,0v21.6a.7.7,0,1,0,1.4,0Z" transform="translate(-55.302 -57.258)" fill="#f765c1"/>
          <g id="Grupo_1150644" data-name="Grupo 1150644" transform="translate(14.846)">
            <path id="_308655680" d="M71.381,36.988,67.31,38.369,62.3,36.988l-.975-1.427a1.719,1.719,0,0,1-.312-1.01V33.127a11.223,11.223,0,0,0-2.466-6.5,10.072,10.072,0,1,1,16.589,0,11.223,11.223,0,0,0-2.466,6.5v1.424a1.719,1.719,0,0,1-.312,1.01Z" transform="translate(-56.767 -10.837)" fill="#ffce00" fill-rule="evenodd"/>
            <g id="Grupo_1150643" data-name="Grupo 1150643" transform="translate(4.72 13.216)">
              <g id="Grupo_1150642" data-name="Grupo 1150642" transform="translate(2.459 2.083)">
                <path id="_308655536" d="M86.248,48.672a.7.7,0,1,0-1.4,0V58.825a.7.7,0,1,0,1.4,0Z" transform="translate(-80.461 -47.974)" fill="#ffe579"/>
                <path id="_308655560" d="M75.587,48.672a.7.7,0,1,0-1.4,0V58.825a.7.7,0,1,0,1.4,0Z" transform="translate(-74.192 -47.974)" fill="#ffe579"/>
                <path id="_308655488" d="M79.6,55.22a.7.7,0,1,0-.632-1.243,3.9,3.9,0,0,1-3.76,0,.7.7,0,1,0-.632,1.243,5.278,5.278,0,0,0,5.024,0Z" transform="translate(-74.192 -51.46)" fill="#ffe579"/>
              </g>
              <path id="_308655944" d="M74.481,82.96H80.03v2.828a2.136,2.136,0,0,1-2.13,2.13H76.611a2.136,2.136,0,0,1-2.13-2.13Z" transform="translate(-71.903 -66.464)" fill="#7b7d8c" fill-rule="evenodd"/>
              <path id="_308655896" d="M79.275,74.314H70.191v3.124a1.139,1.139,0,0,0,1.136,1.136h6.812a1.139,1.139,0,0,0,1.136-1.136Z" transform="translate(-69.38 -61.379)" fill="#5c5e71" fill-rule="evenodd"/>
              <circle id="_308655272" cx="1.39" cy="1.39" r="1.39" fill="#ffe579"/>
              <circle id="_308655224" cx="1.39" cy="1.39" r="1.39" transform="translate(7.371 0)" fill="#ffe579"/>
            </g>
          </g>
        </g>
        <g id="Grupo_1150646" data-name="Grupo 1150646" transform="translate(0)">
          <path id="_308655032" d="M77.974,49.367H70.6a.7.7,0,1,1,0-1.4h7.371a.7.7,0,1,1,0,1.4Z" transform="translate(-48.947 -31.974)" fill-rule="evenodd"/>
          <path id="_308655200" d="M68.617,42.616a.693.693,0,1,0,.693.693A.694.694,0,0,0,68.617,42.616Zm0,2.781a2.088,2.088,0,1,1,2.088-2.088A2.091,2.091,0,0,1,68.617,45.4Z" transform="translate(-46.962 -28.004)" fill-rule="evenodd"/>
          <path id="_308654888" d="M86.51,42.616a.693.693,0,1,0,.693.693A.694.694,0,0,0,86.51,42.616Zm0,2.781A2.088,2.088,0,1,1,88.6,43.309,2.091,2.091,0,0,1,86.51,45.4Z" transform="translate(-57.484 -28.004)" fill-rule="evenodd"/>
          <path id="_308655296" d="M37.668,105.468a7.691,7.691,0,0,1-6.8-4.116,7.683,7.683,0,0,1-7.374-10.921,9.524,9.524,0,0,1,6.562-17.467,7.685,7.685,0,0,1,8.886-8.58.7.7,0,1,1-.228,1.376,6.36,6.36,0,0,0-1.041-.086,6.288,6.288,0,0,0-6.047,8.008.7.7,0,0,1-.86.862,8.129,8.129,0,0,0-6.017,15,.7.7,0,0,1,.275.968,6.288,6.288,0,0,0,5.431,9.453,6.533,6.533,0,0,0,.75-.045.694.694,0,0,1,.719.41,6.287,6.287,0,0,0,12.035-2.547.7.7,0,1,1,1.4,0,7.69,7.69,0,0,1-7.681,7.682Z" transform="translate(-19.034 -41.563)" fill-rule="evenodd"/>
          <path id="_308654840" d="M52.228,90.585c-2.036,0-3.99-1.2-5.822-3.588a.7.7,0,0,1,1.107-.85c1.875,2.443,3.732,3.4,5.678,2.923a.7.7,0,0,1,.331,1.355,5.454,5.454,0,0,1-1.295.16Z" transform="translate(-35.044 -54.261)" fill-rule="evenodd"/>
          <path id="_308655056" d="M37.323,125.663a.689.689,0,0,1-.384-.116,4.581,4.581,0,0,0-5.459-.185.7.7,0,1,1-.76-1.17,5.926,5.926,0,0,1,6.989.192.7.7,0,0,1-.387,1.279Z" transform="translate(-25.72 -76.177)" fill-rule="evenodd"/>
          <path id="_308654312" d="M47.765,143.435a.7.7,0,0,1-.109-1.388c2.3-.365,3.434-2.146,3.465-5.445a.7.7,0,0,1,.7-.691h.007a.7.7,0,0,1,.69.7c-.048,5.027-2.549,6.478-4.641,6.811a.711.711,0,0,1-.11.009Z" transform="translate(-35.519 -83.684)" fill-rule="evenodd"/>
          <path id="_308654288" d="M38.71,120.091a.7.7,0,0,1-.68-.857c.522-2.228,2.414-3.463,5.623-3.672a.7.7,0,0,1,.092,1.392c-2.561.166-3.985,1.016-4.356,2.6A.7.7,0,0,1,38.71,120.091Z" transform="translate(-30.193 -71.718)" fill-rule="evenodd"/>
          <path id="_308654192" d="M56.322,100.161a.7.7,0,0,1-.468-.18,6.649,6.649,0,0,1-2.1-6.719.7.7,0,0,1,1.365.29,5.274,5.274,0,0,0,1.668,5.395.7.7,0,0,1-.468,1.215Z" transform="translate(-39.34 -58.281)" fill-rule="evenodd"/>
          <path id="_308654072" d="M57.545,136.315a5.964,5.964,0,0,1-.69-.042.7.7,0,1,1,.163-1.386,2.66,2.66,0,0,0,2.154-.5c.73-.634,1.122-1.883,1.166-3.712a.7.7,0,0,1,1.4.033c-.055,2.269-.593,3.817-1.647,4.732A3.743,3.743,0,0,1,57.545,136.315Z" transform="translate(-40.911 -80.206)" fill-rule="evenodd"/>
          <path id="_308654480" d="M87.2,105.468a7.69,7.69,0,0,1-7.682-7.682V76.933a.7.7,0,1,1,1.4,0V97.786a6.287,6.287,0,0,0,12.035,2.547.7.7,0,0,1,.721-.41,6.517,6.517,0,0,0,.748.045,6.288,6.288,0,0,0,5.433-9.453.7.7,0,0,1,.273-.968,8.129,8.129,0,0,0-6.015-15,.7.7,0,0,1-.86-.862,6.29,6.29,0,0,0-7.088-7.922.7.7,0,0,1-.23-1.376,7.773,7.773,0,0,1,1.27-.105,7.685,7.685,0,0,1,7.616,8.685,9.523,9.523,0,0,1,6.563,17.467,7.683,7.683,0,0,1-7.374,10.921A7.692,7.692,0,0,1,87.2,105.468Z" transform="translate(-54.602 -41.563)" fill-rule="evenodd"/>
          <path id="_308654240" d="M99.083,90.585a5.431,5.431,0,0,1-1.295-.16.7.7,0,0,1,.331-1.355c1.945.475,3.8-.48,5.678-2.923A.7.7,0,1,1,104.9,87C103.072,89.383,101.119,90.585,99.083,90.585Z" transform="translate(-65.031 -54.262)" fill-rule="evenodd"/>
          <path id="_308654216" d="M114.234,125.663a.7.7,0,0,1-.385-1.279,5.926,5.926,0,0,1,6.989-.192.7.7,0,0,1-.762,1.17,4.579,4.579,0,0,0-5.457.185.7.7,0,0,1-.385.116Z" transform="translate(-74.604 -76.177)" fill-rule="evenodd"/>
          <path id="_308653928" d="M106.89,143.435a.7.7,0,0,1-.111-.009c-2.091-.333-4.594-1.784-4.642-6.811a.7.7,0,0,1,.692-.7h.007a.7.7,0,0,1,.7.691c.032,3.3,1.166,5.08,3.465,5.445a.7.7,0,0,1-.107,1.388Z" transform="translate(-67.901 -83.685)" fill-rule="evenodd"/>
          <path id="_308654168" d="M114.609,120.091a.7.7,0,0,1-.679-.538c-.37-1.582-1.795-2.431-4.356-2.6a.7.7,0,1,1,.09-1.392c3.209.208,5.1,1.444,5.623,3.672a.7.7,0,0,1-.679.857Z" transform="translate(-71.89 -71.718)" fill-rule="evenodd"/>
          <path id="_308653976" d="M101.181,100.161a.7.7,0,0,1-.468-1.215,5.277,5.277,0,0,0,1.668-5.395.7.7,0,1,1,1.365-.29,6.652,6.652,0,0,1-2.1,6.719.694.694,0,0,1-.468.18Z" transform="translate(-66.928 -58.281)" fill-rule="evenodd"/>
          <path id="_308653496" d="M97.045,136.315a3.743,3.743,0,0,1-2.539-.873c-1.054-.915-1.593-2.463-1.647-4.732a.7.7,0,0,1,1.4-.033c.044,1.829.436,3.078,1.166,3.712a2.657,2.657,0,0,0,2.154.5.7.7,0,0,1,.161,1.386,5.924,5.924,0,0,1-.69.042Z" transform="translate(-62.445 -80.206)" fill-rule="evenodd"/>
          <path id="_308653280" d="M61.669,35.291h8.348l.767-1.123a1.018,1.018,0,0,0,.19-.616V32.128a11.991,11.991,0,0,1,2.59-6.9,9.375,9.375,0,1,0-15.442,0,12,12,0,0,1,2.588,6.9v1.424a1.02,1.02,0,0,0,.192.617Zm8.717,1.4H61.3a.7.7,0,0,1-.576-.3l-.975-1.427a2.411,2.411,0,0,1-.435-1.4V32.128a10.524,10.524,0,0,0-2.341-6.107,10.77,10.77,0,1,1,17.738,0,10.515,10.515,0,0,0-2.343,6.107v1.424a2.41,2.41,0,0,1-.433,1.4l-.975,1.427a.7.7,0,0,1-.576.3Z" transform="translate(-40.227 -9.139)" fill-rule="evenodd"/>
          <path id="_308653712" d="M69.893,74.014v2.427a.444.444,0,0,0,.439.438h6.812a.444.444,0,0,0,.439-.438V74.014Zm7.251,4.26H70.331A1.836,1.836,0,0,1,68.5,76.441V73.317a.7.7,0,0,1,.7-.7H78.28a.7.7,0,0,1,.7.7v3.124A1.836,1.836,0,0,1,77.143,78.274Z" transform="translate(-48.12 -46.467)" fill-rule="evenodd"/>
          <path id="_308653448" d="M85.55,59.521a.7.7,0,0,1-.7-.7V48.669a.7.7,0,0,1,1.4,0V58.824A.7.7,0,0,1,85.55,59.521Z" transform="translate(-57.737 -31.974)" fill-rule="evenodd"/>
          <path id="_308653688" d="M74.889,59.521a.7.7,0,0,1-.7-.7V48.669a.7.7,0,1,1,1.4,0V58.824A.7.7,0,0,1,74.889,59.521Z" transform="translate(-51.468 -31.974)" fill-rule="evenodd"/>
          <path id="_308653208" d="M77.085,55.855a5.5,5.5,0,0,1-2.513-.638.7.7,0,0,1,.634-1.243,3.894,3.894,0,0,0,3.758,0,.7.7,0,1,1,.634,1.243,5.487,5.487,0,0,1-2.513.638Z" transform="translate(-51.468 -35.459)" fill-rule="evenodd"/>
          <path id="_308653616" d="M76.9,88.615H75.615a2.831,2.831,0,0,1-2.828-2.827v-2.13a.7.7,0,1,1,1.4,0v2.13a1.434,1.434,0,0,0,1.433,1.432H76.9a1.434,1.434,0,0,0,1.431-1.432v-2.13a.7.7,0,1,1,1.4,0v2.13A2.83,2.83,0,0,1,76.9,88.615Z" transform="translate(-50.642 -52.548)" fill-rule="evenodd"/>
          <path id="_308653328" d="M117.64,40.58H129.92L117.64,22.848Zm13.611,1.395H116.943a.7.7,0,0,1-.7-.7V20.615a.7.7,0,0,1,1.272-.4L131.825,40.88a.7.7,0,0,1-.574,1.095Z" transform="translate(-76.197 -15.477)" fill-rule="evenodd"/>
          <path id="_308653400" d="M119.6,42.7h-2.655a.7.7,0,1,1,0-1.4H119.6a.7.7,0,0,1,0,1.4Z" transform="translate(-76.197 -28.051)" fill-rule="evenodd"/>
          <path id="_308653136" d="M118.714,52.9h-1.77a.7.7,0,0,1,0-1.4h1.77a.7.7,0,0,1,0,1.4Z" transform="translate(-76.197 -34.049)" fill-rule="evenodd"/>
          <path id="_308653376" d="M119.6,63.1h-2.655a.7.7,0,0,1,0-1.4H119.6a.7.7,0,0,1,0,1.4Z" transform="translate(-76.197 -40.047)" fill-rule="evenodd"/>
          <path id="_308652680" d="M27.781,38.643h4.636V27.369H27.781Zm5.334,1.4H27.084a.7.7,0,0,1-.7-.7V26.671a.7.7,0,0,1,.7-.7h6.031a.7.7,0,0,1,.7.7v12.67A.7.7,0,0,1,33.115,40.039Z" transform="translate(-23.357 -19.038)" fill-rule="evenodd"/>
          <path id="_308652344" d="M33.115,18.2a.7.7,0,0,1-.631-.4L30.1,12.719,27.714,17.8a.7.7,0,0,1-1.263-.593l3.016-6.424a.7.7,0,0,1,1.263,0l3.017,6.424a.7.7,0,0,1-.632.994Z" transform="translate(-23.357 -9.869)" fill-rule="evenodd"/>
          <path id="_308652608" d="M34.4,40.039a.7.7,0,0,1-.7-.7V26.671a.7.7,0,1,1,1.4,0v12.67A.7.7,0,0,1,34.4,40.039Z" transform="translate(-27.662 -19.039)" fill-rule="evenodd"/>
          <path id="_308652512" d="M30.1,63.62a3.717,3.717,0,0,1-3.713-3.713V57.425a.7.7,0,1,1,1.4,0v2.482a2.318,2.318,0,1,0,4.636,0V57.425a.7.7,0,1,1,1.4,0v2.482A3.717,3.717,0,0,1,30.1,63.62Z" transform="translate(-23.357 -37.122)" fill-rule="evenodd"/>
        </g>
      </g>
    </g>
  </g>
</svg>
