<svg xmlns="http://www.w3.org/2000/svg" xmlns:xlink="http://www.w3.org/1999/xlink" width="110" height="110" viewBox="0 0 110 110">
  <defs>
    <filter id="Trazado_982547" x="0" y="0" width="110" height="110" filterUnits="userSpaceOnUse">
      <feOffset dy="3" input="SourceAlpha"/>
      <feGaussianBlur stdDeviation="3" result="blur"/>
      <feFlood flood-opacity="0.161"/>
      <feComposite operator="in" in2="blur"/>
      <feComposite in="SourceGraphic"/>
    </filter>
  </defs>
  <g id="Grupo_1150011" data-name="Grupo 1150011" transform="translate(-274 -4859)">
    <g id="Grupo_1149673" data-name="Grupo 1149673" transform="translate(283 4865)">
      <g id="Grupo_1148532" data-name="Grupo 1148532" transform="translate(0)">
        <g id="Grupo_1147065" data-name="Grupo 1147065" transform="translate(0 0)">
          <g transform="matrix(1, 0, 0, 1, -9, -6)" filter="url(#Trazado_982547)">
            <g id="Trazado_982547-2" data-name="Trazado 982547" transform="translate(9 6)" fill="#f6f9fc">
              <path d="M 46.00000381469727 90.5 C 39.99188232421875 90.5 34.16427230834961 89.32364654541016 28.67905807495117 87.00359344482422 C 23.38020324707031 84.76236724853516 18.62103080749512 81.55355072021484 14.53375053405762 77.46625518798828 C 10.44645690917969 73.37897491455078 7.237643718719482 68.61980438232422 4.996417045593262 63.32094955444336 C 2.676363706588745 57.83573532104492 1.500003814697266 52.00812530517578 1.500003814697266 46.00000381469727 C 1.500003814697266 39.99188232421875 2.676363706588745 34.16427230834961 4.996417045593262 28.67905807495117 C 7.237643718719482 23.38020324707031 10.44645690917969 18.62104415893555 14.53375053405762 14.53375053405762 C 18.62103080749512 10.44647026062012 23.38020324707031 7.237643718719482 28.67905807495117 4.996417045593262 C 34.16427230834961 2.676363706588745 39.99188232421875 1.500003814697266 46.00000381469727 1.500003814697266 C 52.00812530517578 1.500003814697266 57.83573532104492 2.676363706588745 63.32094955444336 4.996417045593262 C 68.61980438232422 7.237643718719482 73.37897491455078 10.44647026062012 77.46625518798828 14.53375053405762 C 81.55355072021484 18.62104415893555 84.76236724853516 23.38020324707031 87.00359344482422 28.67905807495117 C 89.32364654541016 34.16427230834961 90.5 39.99188232421875 90.5 46.00000381469727 C 90.5 52.00812530517578 89.32364654541016 57.83573532104492 87.00359344482422 63.32094955444336 C 84.76236724853516 68.61980438232422 81.55355072021484 73.37897491455078 77.46625518798828 77.46625518798828 C 73.37897491455078 81.55355072021484 68.61980438232422 84.76236724853516 63.32094955444336 87.00359344482422 C 57.83573532104492 89.32364654541016 52.00812530517578 90.5 46.00000381469727 90.5 Z" stroke="none"/>
              <path d="M 46.00000381469727 3.000007629394531 C 40.19371795654297 3.000007629394531 34.56270217895508 4.136505126953125 29.26338958740234 6.377914428710938 C 24.14333343505859 8.54351806640625 19.54441833496094 11.64440155029297 15.59442138671875 15.59442138671875 C 11.64440155029297 19.54441833496094 8.54351806640625 24.14333343505859 6.377914428710938 29.26338958740234 C 4.136505126953125 34.56270217895508 3.000007629394531 40.19371795654297 3.000007629394531 46.00000381469727 C 3.000007629394531 51.80628967285156 4.136505126953125 57.43730545043945 6.377914428710938 62.73661804199219 C 8.54351806640625 67.85667419433594 11.64440155029297 72.45558929443359 15.59442138671875 76.40558624267578 C 19.54441833496094 80.35560607910156 24.14333343505859 83.45648956298828 29.26338958740234 85.62208557128906 C 34.56270217895508 87.86350250244141 40.19371795654297 89 46.00000381469727 89 C 51.80628967285156 89 57.43730545043945 87.86350250244141 62.73661804199219 85.62208557128906 C 67.85667419433594 83.45648956298828 72.45558929443359 80.35560607910156 76.40558624267578 76.40558624267578 C 80.35560607910156 72.45558929443359 83.45648956298828 67.85667419433594 85.62208557128906 62.73661804199219 C 87.86350250244141 57.43730545043945 89 51.80628967285156 89 46.00000381469727 C 89 40.19371795654297 87.86350250244141 34.56270217895508 85.62208557128906 29.26338958740234 C 83.45648956298828 24.14333343505859 80.35560607910156 19.54441833496094 76.40558624267578 15.59442138671875 C 72.45558929443359 11.64440155029297 67.85667419433594 8.54351806640625 62.73661804199219 6.377914428710938 C 57.43730545043945 4.136505126953125 51.80628967285156 3.000007629394531 46.00000381469727 3.000007629394531 M 46.00000381469727 7.62939453125e-06 C 71.40510559082031 7.62939453125e-06 92 20.59490203857422 92 46.00000381469727 C 92 71.40510559082031 71.40510559082031 92 46.00000381469727 92 C 20.59490203857422 92 7.62939453125e-06 71.40510559082031 7.62939453125e-06 46.00000381469727 C 7.62939453125e-06 20.59490203857422 20.59490203857422 7.62939453125e-06 46.00000381469727 7.62939453125e-06 Z" stroke="none" fill="#a530fe"/>
            </g>
          </g>
        </g>
      </g>
    </g>
    <g id="interactive_7865740" transform="translate(299.589 4881.588)">
      <rect id="Rect치ngulo_408268" data-name="Rect치ngulo 408268" width="54" height="40" rx="4" transform="translate(2.411 9.411)" fill="#686868"/>
      <path id="Trazado_985757" data-name="Trazado 985757" d="M53.33,10H5.672a3.658,3.658,0,0,0-3.606,3.066,39.409,39.409,0,0,0,39.349,37.26H53.33A3.666,3.666,0,0,0,57,46.66V13.666A3.666,3.666,0,0,0,53.33,10Z" transform="translate(-0.089 -0.752)" fill="#939393"/>
      <rect id="Rect치ngulo_408269" data-name="Rect치ngulo 408269" width="48" height="29" rx="2" transform="translate(5.411 13.411)" fill="#4fb5dc"/>
      <path id="Trazado_985758" data-name="Trazado 985758" d="M53.658,15.833A1.833,1.833,0,0,0,51.825,14H7.833A1.833,1.833,0,0,0,6,15.833V27.858a39.568,39.568,0,0,0,12.847,15.47H51.825a1.833,1.833,0,0,0,1.833-1.833Z" transform="translate(-0.418 -1.086)" fill="#5ed3f2"/>
      <path id="Trazado_985759" data-name="Trazado 985759" d="M12,2H48.66V34.994H12Z" transform="translate(-0.919 -0.084)" fill="#ddd1c4"/>
      <path id="Trazado_985760" data-name="Trazado 985760" d="M12,2H48.66V34.994H44.994A32.994,32.994,0,0,1,12,2Z" transform="translate(-0.919 -0.083)" fill="#f3e8d8"/>
      <path id="Trazado_985761" data-name="Trazado 985761" d="M46.666,34.583H43V32.75h2.75V30h1.833v3.666A.916.916,0,0,1,46.666,34.583Z" transform="translate(-3.507 -2.422)" fill="#474747"/>
      <circle id="Elipse_11554" data-name="Elipse 11554" cx="11" cy="11" r="11" transform="translate(18.411 7.411)" fill="#4ead54"/>
      <circle id="Elipse_11555" data-name="Elipse 11555" cx="6" cy="6" r="6" transform="translate(23.411 12.411)" fill="#f9d266"/>
      <path id="Trazado_985762" data-name="Trazado 985762" d="M35.581,54,42,61.332H20L26.415,54" transform="translate(-1.587 -4.426)" fill="#474747"/>
      <path id="Trazado_985763" data-name="Trazado 985763" d="M36.065,54l6.416,7.332H30.227A4.421,4.421,0,0,1,26.9,54" transform="translate(-2.071 -4.426)" fill="#595959"/>
      <path id="Trazado_985764" data-name="Trazado 985764" d="M31,49h1.833v1.833H31Z" transform="translate(-2.505 -4.008)" fill="#474747"/>
      <path id="Trazado_985765" data-name="Trazado 985765" d="M29.666,36.915v-11A.917.917,0,0,1,30.583,25a2.75,2.75,0,0,1,2.75,2.75v6.415h1.833A1.833,1.833,0,0,1,37,36V34.165h1.833A1.833,1.833,0,0,1,40.664,36H42.5a1.833,1.833,0,0,1,1.833,1.833v8.248L42.5,49.745V58.91H29.666V49.745L26,46.079V38.748a1.833,1.833,0,0,1,1.833-1.833Z" transform="translate(-2.088 -2.004)" fill="#f2b9a1"/>
      <g id="Grupo_1150131" data-name="Grupo 1150131" transform="translate(26.662 32.161)">
        <path id="Trazado_985766" data-name="Trazado 985766" d="M41,37h1.833v3.666H41Z" transform="translate(-30.002 -35.167)" fill="#e2a48f"/>
        <path id="Trazado_985767" data-name="Trazado 985767" d="M37,37h1.833v3.666H37Z" transform="translate(-29.668 -35.167)" fill="#e2a48f"/>
        <path id="Trazado_985768" data-name="Trazado 985768" d="M29,38h1.833v4.583H29Z" transform="translate(-29 -35.25)" fill="#e2a48f"/>
        <path id="Trazado_985769" data-name="Trazado 985769" d="M33,35h1.833v5.5H33Z" transform="translate(-29.334 -35)" fill="#e2a48f"/>
      </g>
      <path id="Trazado_985770" data-name="Trazado 985770" d="M20.583,34.583H16.917A.917.917,0,0,1,16,33.666V30h1.833v2.75h2.75Z" transform="translate(-1.253 -2.422)" fill="#474747"/>
      <path id="Trazado_985771" data-name="Trazado 985771" d="M17.833,9.583H16V5.916A.917.917,0,0,1,16.917,5h3.666V6.833h-2.75Z" transform="translate(-1.253 -0.334)" fill="#474747"/>
      <path id="Trazado_985772" data-name="Trazado 985772" d="M47.582,9.583H45.75V6.833H43V5h3.666a.916.916,0,0,1,.916.916Z" transform="translate(-3.507 -0.334)" fill="#474747"/>
      <path id="Trazado_985773" data-name="Trazado 985773" d="M53.24,8.332H48.658V1.916A.917.917,0,0,0,47.741,1H11.081a.916.916,0,0,0-.916.917V8.332H5.582A4.588,4.588,0,0,0,1,12.914V45.908a4.588,4.588,0,0,0,4.583,4.583h17.23L17.727,56.3a.916.916,0,0,0,.686,1.52h22a.917.917,0,0,0,.917-.917V50.491H53.24a4.588,4.588,0,0,0,4.582-4.583V12.914A4.588,4.588,0,0,0,53.24,8.332ZM48.658,34.91V13.831h2.75a.917.917,0,0,1,.917.917V40.41a.917.917,0,0,1-.917.917H43.159v-5.5h4.582A.917.917,0,0,0,48.658,34.91ZM12,2.833H46.825V33.994H42.444a2.736,2.736,0,0,0-2.035-.917H39.324a2.749,2.749,0,0,0-2.581-1.833H34.91a.917.917,0,0,0-.653.275,2.728,2.728,0,0,0-1.18-.275h-.917V30a11.915,11.915,0,1,0-5.5,0v3.994H12ZM26.662,28.11a10.082,10.082,0,1,1,5.5,0V25.745a3.591,3.591,0,0,0-.052-.519,7.358,7.358,0,1,0-5.447-.041Zm.134-4.876a5.5,5.5,0,1,1,4.6.293,3.648,3.648,0,0,0-2.9-1.448,1.833,1.833,0,0,0-1.7,1.155ZM23.165,35.827a2.718,2.718,0,0,0-.169.917v4.583H7.415A.917.917,0,0,1,6.5,40.41V14.747a.917.917,0,0,1,.917-.917h2.75V34.91a.917.917,0,0,0,.916.917ZM2.833,45.908V12.914a2.749,2.749,0,0,1,2.75-2.749h4.582V12H7.415a2.75,2.75,0,0,0-2.749,2.75V40.41a2.75,2.75,0,0,0,2.749,2.75H23v.916a.916.916,0,0,0,.268.648l3.4,3.4v.537H5.582a2.749,2.749,0,0,1-2.749-2.749Zm22.411,4.583h1.418v5.5H20.43Zm14.345-3.159a.916.916,0,0,0-.1.41V55.99h-11V47.741a.916.916,0,0,0-.268-.648l-3.4-3.4V36.743a.917.917,0,0,1,.917-.917h.917v3.666h1.833V23.912a1.833,1.833,0,0,1,1.833,1.833V37.66h1.833V33.077h.917a.917.917,0,0,1,.917.917V37.66h1.833V33.077h.917a.917.917,0,0,1,.917.917V37.66h1.833V34.91h.917a.917.917,0,0,1,.917.917v8.032Zm16.4-1.423a2.75,2.75,0,0,1-2.75,2.75H41.326v-.7l1.741-3.473a.917.917,0,0,0,.092-.41v-.916h8.248a2.75,2.75,0,0,0,2.75-2.75V14.747A2.749,2.749,0,0,0,51.408,12h-2.75V10.165H53.24a2.75,2.75,0,0,1,2.75,2.75Z"/>
      <path id="Trazado_985774" data-name="Trazado 985774" d="M17.833,30H16v3.666a.917.917,0,0,0,.917.917h3.666V32.75h-2.75Z" transform="translate(-1.253 -2.422)"/>
      <path id="Trazado_985775" data-name="Trazado 985775" d="M17.833,6.833h2.75V5H16.917A.917.917,0,0,0,16,5.916V9.583h1.833Z" transform="translate(-1.253 -0.334)"/>
      <path id="Trazado_985776" data-name="Trazado 985776" d="M45.75,9.583h1.833V5.916A.916.916,0,0,0,46.666,5H43V6.833h2.75Z" transform="translate(-3.507 -0.334)"/>
      <path id="Trazado_985777" data-name="Trazado 985777" d="M45.75,32.75H43v1.833h3.666a.916.916,0,0,0,.916-.917V30H45.75Z" transform="translate(-3.507 -2.422)"/>
    </g>
  </g>
</svg>
