<svg xmlns="http://www.w3.org/2000/svg" xmlns:xlink="http://www.w3.org/1999/xlink" width="108" height="108" viewBox="0 0 108 108">
  <defs>
    <filter id="Trazado_904820" x="0" y="0" width="108" height="108" filterUnits="userSpaceOnUse">
      <feOffset dy="3" input="SourceAlpha"/>
      <feGaussianBlur stdDeviation="3" result="blur"/>
      <feFlood flood-opacity="0.161"/>
      <feComposite operator="in" in2="blur"/>
      <feComposite in="SourceGraphic"/>
    </filter>
  </defs>
  <g id="Grupo_1150699" data-name="Grupo 1150699" transform="translate(-199 -318)">
    <g id="Icono" transform="translate(-416.101 -4682)">
      <g transform="matrix(1, 0, 0, 1, 615.1, 5000)" filter="url(#Trazado_904820)">
        <g id="Trazado_904820-2" data-name="Trazado 904820" transform="translate(9 6)" fill="#f5e9fe">
          <path d="M 45 88.5 C 39.12687683105469 88.5 33.43022537231445 87.35007476806641 28.06830024719238 85.08217620849609 C 22.88852500915527 82.89131164550781 18.23629951477051 79.75458526611328 14.2408504486084 75.75914764404297 C 10.24541282653809 71.76370239257812 7.108687400817871 67.11147308349609 4.917825222015381 61.93170166015625 C 2.649924993515015 56.56977462768555 1.5 50.87312316894531 1.5 45 C 1.5 39.12687683105469 2.649924993515015 33.43022537231445 4.917825222015381 28.06830024719238 C 7.108687400817871 22.88852500915527 10.24541282653809 18.23629951477051 14.2408504486084 14.2408504486084 C 18.23629951477051 10.24541282653809 22.88852500915527 7.108687400817871 28.06830024719238 4.917825222015381 C 33.43022537231445 2.649924993515015 39.12687683105469 1.5 45 1.5 C 50.87312316894531 1.5 56.56977462768555 2.649924993515015 61.93170166015625 4.917825222015381 C 67.11147308349609 7.108687400817871 71.76370239257812 10.24541282653809 75.75914764404297 14.2408504486084 C 79.75458526611328 18.23629951477051 82.89131164550781 22.88852500915527 85.08217620849609 28.06830024719238 C 87.35007476806641 33.43022537231445 88.5 39.12687683105469 88.5 45 C 88.5 50.87312316894531 87.35007476806641 56.56977462768555 85.08217620849609 61.93170166015625 C 82.89131164550781 67.11147308349609 79.75458526611328 71.76370239257812 75.75914764404297 75.75914764404297 C 71.76370239257812 79.75458526611328 67.11147308349609 82.89131164550781 61.93170166015625 85.08217620849609 C 56.56977462768555 87.35007476806641 50.87312316894531 88.5 45 88.5 Z" stroke="none"/>
          <path d="M 45 3 C 39.32871246337891 3 33.82865524291992 4.110054016113281 28.65262985229492 6.299339294433594 C 23.65165710449219 8.414573669433594 19.15968322753906 11.44334411621094 15.301513671875 15.301513671875 C 11.44334411621094 19.15968322753906 8.414573669433594 23.65165710449219 6.299339294433594 28.65262985229492 C 4.110054016113281 33.82865524291992 3 39.32871246337891 3 45 C 3 50.67128753662109 4.110054016113281 56.17134475708008 6.299339294433594 61.34737396240234 C 8.414573669433594 66.34834289550781 11.44334411621094 70.84031677246094 15.301513671875 74.698486328125 C 19.15968322753906 78.55665588378906 23.65165710449219 81.58542633056641 28.65262985229492 83.70066070556641 C 33.82865524291992 85.88994598388672 39.32871246337891 87 45 87 C 50.67128753662109 87 56.17134475708008 85.88994598388672 61.34737396240234 83.70066070556641 C 66.34834289550781 81.58542633056641 70.84031677246094 78.55665588378906 74.698486328125 74.698486328125 C 78.55665588378906 70.84031677246094 81.58542633056641 66.34834289550781 83.70066070556641 61.34737396240234 C 85.88994598388672 56.17134475708008 87 50.67128753662109 87 45 C 87 39.32871246337891 85.88994598388672 33.82865524291992 83.70066070556641 28.65262985229492 C 81.58542633056641 23.65165710449219 78.55665588378906 19.15968322753906 74.698486328125 15.301513671875 C 70.84031677246094 11.44334411621094 66.34834289550781 8.414573669433594 61.34737396240234 6.299339294433594 C 56.17134475708008 4.110054016113281 50.67128753662109 3 45 3 M 45 0 C 69.85281372070312 0 90 20.14718627929688 90 45 C 90 69.85281372070312 69.85281372070312 90 45 90 C 20.14718627929688 90 0 69.85281372070312 0 45 C 0 20.14718627929688 20.14718627929688 0 45 0 Z" stroke="none" fill="#a530fe"/>
        </g>
      </g>
    </g>
    <g id="Search_engine_optimize" data-name="Search engine optimize" transform="translate(227.49 340.524)">
      <path id="Trazado_985702" data-name="Trazado 985702" d="M3,3H41.831V54.186H3Z" transform="translate(-0.117 -0.117)" fill="#ffeb99"/>
      <path id="Trazado_985703" data-name="Trazado 985703" d="M11,56.771H42.771V25A31.771,31.771,0,0,1,11,56.771Z" transform="translate(-1.057 -2.702)" fill="#ffde55"/>
      <path id="Trazado_985704" data-name="Trazado 985704" d="M43.181,34.352A14.12,14.12,0,1,1,48.352,15.06a14.12,14.12,0,0,1-5.172,19.292Z" transform="translate(-2.35 -0.705)" fill="#57a4ff"/>
      <path id="Trazado_985705" data-name="Trazado 985705" d="M41.885,31.759a10.59,10.59,0,1,1,3.874-14.465,10.59,10.59,0,0,1-3.874,14.465Z" transform="translate(-2.819 -1.174)" fill="#ffdaaa"/>
      <path id="Trazado_985706" data-name="Trazado 985706" d="M56.96,57.309a3.53,3.53,0,0,0,1.292-4.822l-6.1-10.568-1.529.883-3.057,1.765-1.529.883.851,1.473,5.251,9.1a3.53,3.53,0,0,0,4.822,1.292Z" transform="translate(-5.173 -4.69)" fill="#005ece"/>
      <path id="Trazado_985707" data-name="Trazado 985707" d="M19,47h3.53v8.825H19Z" transform="translate(-1.997 -5.287)" fill="#ffcd00"/>
      <path id="Trazado_985708" data-name="Trazado 985708" d="M11,51h3.53v5.3H11Z" transform="translate(-1.057 -5.756)" fill="#ed1c24"/>
      <path id="Trazado_985709" data-name="Trazado 985709" d="M44.12,24.825h-2.8L43.3,26.8l-2.5,2.5-1.977-1.977v2.8H35.3v-2.8L33.318,29.3l-2.5-2.5L32.8,24.825H30V21.3h2.8l-1.977-1.977,2.5-2.5L35.3,18.8V16h3.53v2.8L40.8,16.821l2.5,2.5L41.323,21.3h2.8Z" transform="translate(-3.289 -1.645)" fill="#ffcd00"/>
      <circle id="Elipse_11551" data-name="Elipse 11551" cx="2" cy="2" r="2" transform="translate(31.51 19.476)" fill="#f1f2f2"/>
      <path id="Trazado_985710" data-name="Trazado 985710" d="M9,12.53A3.53,3.53,0,1,0,12.53,9,3.53,3.53,0,0,0,9,12.53Zm3.53-.883a.883.883,0,1,1-.883.883A.883.883,0,0,1,12.53,11.648Z" transform="translate(-0.822 -0.822)" fill="#ed1c24"/>
      <circle id="Elipse_11552" data-name="Elipse 11552" cx="1" cy="1" r="1" transform="translate(10.51 10.476)" fill="#57a4ff"/>
      <path id="Trazado_985711" data-name="Trazado 985711" d="M47.175,36.8a13.1,13.1,0,0,1-2.875,1.66l-.088.052,3.142,5.443,3.057-1.765-3.142-5.443Z" transform="translate(-4.959 -4.083)" fill="#ff5023"/>
      <path id="Trazado_985712" data-name="Trazado 985712" d="M35,43h3.53V55.355H35Z" transform="translate(-3.877 -4.817)" fill="#5eac24"/>
      <path id="Trazado_985713" data-name="Trazado 985713" d="M27,45h3.53V55.59H27Z" transform="translate(-2.937 -5.052)" fill="#006df0"/>
      <path id="Trazado_985714" data-name="Trazado 985714" d="M30.734,12.538a11.483,11.483,0,1,0,8.7-1.142A11.483,11.483,0,0,0,30.734,12.538Zm14.143,5.082a9.747,9.747,0,1,1-5.9-4.519A9.747,9.747,0,0,1,44.878,17.619Z" transform="translate(-2.7 -1.058)"/>
      <path id="Trazado_985715" data-name="Trazado 985715" d="M53.844,47.362l-6.1-10.574a.883.883,0,0,0-1.206-.323l-.764.441-2.328-4.031A14.982,14.982,0,0,0,42.6,9.29V2.883A.883.883,0,0,0,41.713,2H2.883A.883.883,0,0,0,2,2.883V54.069a.883.883,0,0,0,.883.883H41.713a.883.883,0,0,0,.883-.883V45.527l3.6,6.247a4.413,4.413,0,0,0,7.644-4.413Zm-9.6-9.574-.764.441-.764.441-2.22-3.846c.265-.131.522-.265.778-.416s.5-.317.743-.478ZM45.235,14.8A13.28,13.28,0,1,1,37.2,8.629,13.22,13.22,0,0,1,45.235,14.8Zm-4.4,38.39H3.765V3.765H40.831V8.189a15,15,0,1,0-7.036,28.235,14.826,14.826,0,0,0,5.066-.9l2.324,4.027-.764.441A.883.883,0,0,0,40.1,41.2l.734,1.269Zm11.748-2.938a2.648,2.648,0,0,1-4.854.639l-5.659-9.8,4.589-2.648,5.659,9.809a2.626,2.626,0,0,1,.265,2Z"/>
      <path id="Trazado_985716" data-name="Trazado 985716" d="M37.123,54.355h-.883V42.883A.883.883,0,0,0,35.358,42h-3.53a.883.883,0,0,0-.883.883V54.355H29.181V44.648a.883.883,0,0,0-.883-.883h-3.53a.883.883,0,0,0-.883.883v9.708H22.12V46.413a.883.883,0,0,0-.883-.883h-3.53a.883.883,0,0,0-.883.883v7.943H15.06V49.943a.883.883,0,0,0-.883-.883h-3.53a.883.883,0,0,0-.883.883v4.413H8.883a.883.883,0,0,0,0,1.765H37.123a.883.883,0,1,0,0-1.765Zm-25.593,0v-3.53H13.3v3.53Zm7.06,0V47.3h1.765v7.06Zm7.06,0V45.53h1.765v8.825Zm7.06,0V43.765h1.765v10.59Z" transform="translate(-0.705 -4.699)"/>
      <path id="Trazado_985717" data-name="Trazado 985717" d="M38.708,15h-3.53a.883.883,0,0,0-.883.883v.667l-.47-.47a.883.883,0,0,0-1.248,0l-2.5,2.5a.883.883,0,0,0,0,1.248l.47.47h-.667a.883.883,0,0,0-.883.883v3.53a.883.883,0,0,0,.883.883h.667l-.47.47a.883.883,0,0,0,0,1.248l2.5,2.5a.883.883,0,0,0,1.248,0l.47-.47V30a.883.883,0,0,0,.883.883h3.53A.883.883,0,0,0,39.59,30v-.667l.47.47a.883.883,0,0,0,1.248,0l2.5-2.5a.883.883,0,0,0,0-1.248l-.47-.47H44a.883.883,0,0,0,.883-.883v-3.53A.883.883,0,0,0,44,20.3h-.667l.47-.47a.883.883,0,0,0,0-1.248l-2.5-2.5a.883.883,0,0,0-1.248,0l-.47.47v-.667A.883.883,0,0,0,38.708,15Zm1.977,2.951,1.25,1.25-1.353,1.353a.883.883,0,0,0,.624,1.506H43.12v1.765H41.205a.883.883,0,0,0-.624,1.506l1.353,1.353-1.25,1.25-1.353-1.353a.883.883,0,0,0-1.506.624V29.12H36.06V27.205a.883.883,0,0,0-1.506-.624L33.2,27.934l-1.25-1.25L33.3,25.332a.883.883,0,0,0-.624-1.506H30.765V22.06H32.68a.883.883,0,0,0,.624-1.506L31.951,19.2l1.25-1.25L34.554,19.3a.883.883,0,0,0,1.506-.624V16.765h1.765V18.68a.883.883,0,0,0,1.506.624Z" transform="translate(-3.172 -1.527)"/>
      <path id="Trazado_985718" data-name="Trazado 985718" d="M37.648,21A2.648,2.648,0,1,0,40.3,23.648,2.648,2.648,0,0,0,37.648,21Zm0,3.53a.883.883,0,1,1,.883-.883A.883.883,0,0,1,37.648,24.53Z" transform="translate(-3.877 -2.232)"/>
      <path id="Trazado_985719" data-name="Trazado 985719" d="M6.883,13.06h.971A4.427,4.427,0,0,0,11.3,16.5v.971a.883.883,0,0,0,1.765,0V16.5A4.427,4.427,0,0,0,16.5,13.06h.971a.883.883,0,0,0,0-1.765H16.5A4.427,4.427,0,0,0,13.06,7.853V6.883a.883.883,0,0,0-1.765,0v.971A4.427,4.427,0,0,0,7.853,11.3H6.883a.883.883,0,0,0,0,1.765Zm5.3-3.53A2.648,2.648,0,1,1,9.53,12.178,2.648,2.648,0,0,1,12.178,9.53Z" transform="translate(-0.47 -0.47)"/>
      <circle id="Elipse_11553" data-name="Elipse 11553" cx="1" cy="1" r="1" transform="translate(10.51 10.476)"/>
      <path id="Trazado_985720" data-name="Trazado 985720" d="M6.883,25.765h8.825a.883.883,0,1,0,0-1.765H6.883a.883.883,0,0,0,0,1.765Z" transform="translate(-0.47 -2.585)"/>
      <path id="Trazado_985721" data-name="Trazado 985721" d="M6.883,29.765h10.59a.883.883,0,0,0,0-1.765H6.883a.883.883,0,0,0,0,1.765Z" transform="translate(-0.47 -3.054)"/>
      <path id="Trazado_985722" data-name="Trazado 985722" d="M6.883,33.765h10.59a.883.883,0,0,0,0-1.765H6.883a.883.883,0,0,0,0,1.765Z" transform="translate(-0.47 -3.524)"/>
      <path id="Trazado_985723" data-name="Trazado 985723" d="M6.883,37.765H19.238a.883.883,0,0,0,0-1.765H6.883a.883.883,0,0,0,0,1.765Z" transform="translate(-0.47 -3.994)"/>
      <path id="Trazado_985724" data-name="Trazado 985724" d="M23.65,40.883A.883.883,0,0,0,22.768,40H6.883a.883.883,0,0,0,0,1.765H22.768A.883.883,0,0,0,23.65,40.883Z" transform="translate(-0.47 -4.464)"/>
    </g>
  </g>
</svg>
