<svg xmlns="http://www.w3.org/2000/svg" xmlns:xlink="http://www.w3.org/1999/xlink" width="110" height="110" viewBox="0 0 110 110">
  <defs>
    <filter id="Trazado_982547" x="0" y="0" width="110" height="110" filterUnits="userSpaceOnUse">
      <feOffset dy="3" input="SourceAlpha"/>
      <feGaussianBlur stdDeviation="3" result="blur"/>
      <feFlood flood-opacity="0.161"/>
      <feComposite operator="in" in2="blur"/>
      <feComposite in="SourceGraphic"/>
    </filter>
  </defs>
  <g id="Grupo_1150009" data-name="Grupo 1150009" transform="translate(-903 -4859)">
    <g id="Grupo_1149675" data-name="Grupo 1149675" transform="translate(912 4865)">
      <g id="Grupo_1148534" data-name="Grupo 1148534" transform="translate(0)">
        <g id="Grupo_1147066" data-name="Grupo 1147066" transform="translate(0 0)">
          <g transform="matrix(1, 0, 0, 1, -9, -6)" filter="url(#Trazado_982547)">
            <g id="Trazado_982547-2" data-name="Trazado 982547" transform="translate(9 6)" fill="#f6f9fc">
              <path d="M 46.00000381469727 90.5 C 39.99188232421875 90.5 34.16427230834961 89.32364654541016 28.67905807495117 87.00359344482422 C 23.38020324707031 84.76236724853516 18.62103080749512 81.55355072021484 14.53375053405762 77.46625518798828 C 10.44645690917969 73.37897491455078 7.237643718719482 68.61980438232422 4.996417045593262 63.32094955444336 C 2.676363706588745 57.83573532104492 1.500003814697266 52.00812530517578 1.500003814697266 46.00000381469727 C 1.500003814697266 39.99188232421875 2.676363706588745 34.16427230834961 4.996417045593262 28.67905807495117 C 7.237643718719482 23.38020324707031 10.44645690917969 18.62104415893555 14.53375053405762 14.53375053405762 C 18.62103080749512 10.44647026062012 23.38020324707031 7.237643718719482 28.67905807495117 4.996417045593262 C 34.16427230834961 2.676363706588745 39.99188232421875 1.500003814697266 46.00000381469727 1.500003814697266 C 52.00812530517578 1.500003814697266 57.83573532104492 2.676363706588745 63.32094955444336 4.996417045593262 C 68.61980438232422 7.237643718719482 73.37897491455078 10.44647026062012 77.46625518798828 14.53375053405762 C 81.55355072021484 18.62104415893555 84.76236724853516 23.38020324707031 87.00359344482422 28.67905807495117 C 89.32364654541016 34.16427230834961 90.5 39.99188232421875 90.5 46.00000381469727 C 90.5 52.00812530517578 89.32364654541016 57.83573532104492 87.00359344482422 63.32094955444336 C 84.76236724853516 68.61980438232422 81.55355072021484 73.37897491455078 77.46625518798828 77.46625518798828 C 73.37897491455078 81.55355072021484 68.61980438232422 84.76236724853516 63.32094955444336 87.00359344482422 C 57.83573532104492 89.32364654541016 52.00812530517578 90.5 46.00000381469727 90.5 Z" stroke="none"/>
              <path d="M 46.00000381469727 3.000007629394531 C 40.19371795654297 3.000007629394531 34.56270217895508 4.136505126953125 29.26338958740234 6.377914428710938 C 24.14333343505859 8.54351806640625 19.54441833496094 11.64440155029297 15.59442138671875 15.59442138671875 C 11.64440155029297 19.54441833496094 8.54351806640625 24.14333343505859 6.377914428710938 29.26338958740234 C 4.136505126953125 34.56270217895508 3.000007629394531 40.19371795654297 3.000007629394531 46.00000381469727 C 3.000007629394531 51.80628967285156 4.136505126953125 57.43730545043945 6.377914428710938 62.73661804199219 C 8.54351806640625 67.85667419433594 11.64440155029297 72.45558929443359 15.59442138671875 76.40558624267578 C 19.54441833496094 80.35560607910156 24.14333343505859 83.45648956298828 29.26338958740234 85.62208557128906 C 34.56270217895508 87.86350250244141 40.19371795654297 89 46.00000381469727 89 C 51.80628967285156 89 57.43730545043945 87.86350250244141 62.73661804199219 85.62208557128906 C 67.85667419433594 83.45648956298828 72.45558929443359 80.35560607910156 76.40558624267578 76.40558624267578 C 80.35560607910156 72.45558929443359 83.45648956298828 67.85667419433594 85.62208557128906 62.73661804199219 C 87.86350250244141 57.43730545043945 89 51.80628967285156 89 46.00000381469727 C 89 40.19371795654297 87.86350250244141 34.56270217895508 85.62208557128906 29.26338958740234 C 83.45648956298828 24.14333343505859 80.35560607910156 19.54441833496094 76.40558624267578 15.59442138671875 C 72.45558929443359 11.64440155029297 67.85667419433594 8.54351806640625 62.73661804199219 6.377914428710938 C 57.43730545043945 4.136505126953125 51.80628967285156 3.000007629394531 46.00000381469727 3.000007629394531 M 46.00000381469727 7.62939453125e-06 C 71.40510559082031 7.62939453125e-06 92 20.59490203857422 92 46.00000381469727 C 92 71.40510559082031 71.40510559082031 92 46.00000381469727 92 C 20.59490203857422 92 7.62939453125e-06 71.40510559082031 7.62939453125e-06 46.00000381469727 C 7.62939453125e-06 20.59490203857422 20.59490203857422 7.62939453125e-06 46.00000381469727 7.62939453125e-06 Z" stroke="none" fill="#a530fe"/>
            </g>
          </g>
        </g>
      </g>
    </g>
    <g id="vision_13320556" transform="translate(916.319 4869.32)">
      <g id="Grupo_1150139" data-name="Grupo 1150139" transform="translate(30.758 14.888)">
        <path id="Trazado_985794" data-name="Trazado 985794" d="M250.13,30.571a.786.786,0,1,0-.786-.786A.786.786,0,0,0,250.13,30.571Z" transform="translate(-239.206 -29)" fill="#6cf5c2"/>
        <path id="Trazado_985795" data-name="Trazado 985795" d="M164.24,29a.786.786,0,1,0,.786.785A.788.788,0,0,0,164.24,29Z" transform="translate(-163.451 -29)" fill="#6cf5c2"/>
        <path id="Trazado_985796" data-name="Trazado 985796" d="M336.023,29a.786.786,0,1,0,.785.785A.786.786,0,0,0,336.023,29Z" transform="translate(-314.962 -29)" fill="#6cf5c2"/>
      </g>
      <path id="Trazado_985797" data-name="Trazado 985797" d="M151.408,475.185h24.687a2.248,2.248,0,0,0-1.7-1.046H153.11A2.21,2.21,0,0,0,151.408,475.185Z" transform="translate(-122.072 -406.712)" fill="#eceff1"/>
      <path id="Trazado_985798" data-name="Trazado 985798" d="M29,372.686a3.029,3.029,0,0,0,3.024,3.027H79.561a3.029,3.029,0,0,0,3.024-3.027v-.853H29Zm12.516.143h.749a.944.944,0,1,1,0,1.888h-.749a.944.944,0,1,1,0-1.888Zm-8.361,0H38.8a.944.944,0,1,1,0,1.888H33.155a.944.944,0,1,1,0-1.888Z" transform="translate(-14.112 -316.481)" fill="#eceff1"/>
      <path id="Trazado_985799" data-name="Trazado 985799" d="M326.566,156.985a21.641,21.641,0,0,0,7.734-6.88,21.642,21.642,0,0,0-7.734-6.88,10.787,10.787,0,0,1,0,13.76Z" transform="translate(-276.556 -114.856)" fill="#8ac9fe"/>
      <path id="Trazado_985800" data-name="Trazado 985800" d="M189.351,125.948a8.919,8.919,0,1,0,8.919,8.919,8.929,8.929,0,0,0-8.919-8.919Zm7.415,6.4a.944.944,0,0,1-.944.944H194.9v.628h.926a.944.944,0,1,1,0,1.888H194.9v.631h.926a.944.944,0,1,1,0,1.888H194.9v1.137a.944.944,0,0,1-.944.944h-1.137v.926a.944.944,0,1,1-1.888,0v-.926H190.3v.926a.944.944,0,1,1-1.888,0v-.926h-.628v.926a.944.944,0,0,1-1.888,0v-.926h-1.14a.944.944,0,0,1-.944-.944v-1.137h-.923a.944.944,0,1,1,0-1.888h.923v-.631h-.923a.944.944,0,1,1,0-1.888h.923V133.3h-.923a.944.944,0,1,1,0-1.888h.923v-1.14a.944.944,0,0,1,.944-.944h1.14V128.4a.944.944,0,0,1,1.888,0v.923h.628V128.4a.944.944,0,1,1,1.888,0v.923h.631V128.4a.944.944,0,1,1,1.888,0v.923h1.137a.944.944,0,0,1,.944.944v1.14h.926A.944.944,0,0,1,196.766,132.351Z" transform="translate(-147.67 -99.618)" fill="#d8ecfe"/>
      <path id="Trazado_985801" data-name="Trazado 985801" d="M249.089,194.6h1.631v1.631h-1.631Z" transform="translate(-208.224 -160.171)" fill="#03db8d"/>
      <path id="Trazado_985802" data-name="Trazado 985802" d="M225.022,177.851h7.313v-7.312h-7.313Zm.952-5.416a.944.944,0,0,1,.944-.944h3.52a.944.944,0,0,1,.944.944v3.52a.944.944,0,0,1-.944.944h-3.52a.944.944,0,0,1-.944-.944Z" transform="translate(-186.997 -138.946)" fill="#6cf5c2"/>
      <path id="Trazado_985803" data-name="Trazado 985803" d="M127.663,143.225a21.622,21.622,0,0,0-7.731,6.88,21.622,21.622,0,0,0,7.731,6.88,10.787,10.787,0,0,1,0-13.76Z" transform="translate(-94.311 -114.856)" fill="#8ac9fe"/>
      <path id="Trazado_985804" data-name="Trazado 985804" d="M79.561,82.012h-9.89a.944.944,0,0,1-.944-.944h-3.06l-2.087,2.087V84.3h1.912a.944.944,0,0,1,.944-.944H79.561a1.679,1.679,0,0,1,1.677,1.677v25.438a1.679,1.679,0,0,1-1.677,1.677H32.024a1.679,1.679,0,0,1-1.677-1.677V85.036a1.7,1.7,0,0,1,1.677-1.677H45.15a.944.944,0,0,1,.944.944h1.916V83.155l-2.087-2.087H42.858a.944.944,0,0,1-.944.944h-9.89A3.027,3.027,0,0,0,29,85.036V113.5H82.585V85.036A3.027,3.027,0,0,0,79.561,82.012Z" transform="translate(-14.112 -60.035)" fill="#837683"/>
      <path id="Trazado_985805" data-name="Trazado 985805" d="M69.326,109.424H56.412v25.015h47.114V109.424H90.612a.944.944,0,0,1-.944-.944H87.756v1.761a23.289,23.289,0,0,1,10.207,8.7.944.944,0,0,1,0,1.048c-4.291,6.434-10.714,10.164-17.665,10.278-.109,0-.218.005-.328.005s-.219,0-.328-.005c-6.952-.114-13.375-3.844-17.662-10.279a.944.944,0,0,1,0-1.047,23.269,23.269,0,0,1,10.207-8.7v-1.76H70.27a.944.944,0,0,1-.944.944Z" transform="translate(-38.288 -84.211)" fill="#d8ecfe"/>
      <path id="Trazado_985806" data-name="Trazado 985806" d="M206.058,109.548a19.841,19.841,0,0,1,4.95-.87v-.2h-4.95Z" transform="translate(-170.272 -84.211)" fill="#d8ecfe"/>
      <path id="Trazado_985807" data-name="Trazado 985807" d="M264,108.677a19.848,19.848,0,0,1,4.954.871v-1.07H264v.2Z" transform="translate(-221.375 -84.211)" fill="#d8ecfe"/>
      <g id="Grupo_1150140" data-name="Grupo 1150140" transform="translate(34.481 21.033)">
        <path id="Trazado_985808" data-name="Trazado 985808" d="M268.955,84.3V82.764a.944.944,0,0,1,.277-.668l1.029-1.029H264V84.3h4.954Z" transform="translate(-255.857 -81.068)" fill="#837683"/>
        <path id="Trazado_985809" data-name="Trazado 985809" d="M196.3,82.764V84.3h4.95V81.068H195l1.029,1.029a.944.944,0,0,1,.277.668Z" transform="translate(-194.999 -81.068)" fill="#837683"/>
      </g>
      <g id="Grupo_1150141" data-name="Grupo 1150141" transform="translate(13 12.999)">
        <path id="Trazado_985810" data-name="Trazado 985810" d="M57.145,382.157h5.641a.944.944,0,1,0,0-1.888H57.145a.944.944,0,1,0,0,1.888Z" transform="translate(-51.102 -336.921)"/>
        <path id="Trazado_985811" data-name="Trazado 985811" d="M65.45,73.068h-9.89a.944.944,0,1,0,0,1.888h9.89a3.027,3.027,0,0,1,3.024,3.024v28.462H14.888V77.98a3.027,3.027,0,0,1,3.024-3.024H27.8a.944.944,0,1,0,0-1.888h-9.89A4.918,4.918,0,0,0,13,77.98v31.2a4.92,4.92,0,0,0,4.912,4.916H35.125l-.886,4.418h-3.2a4.114,4.114,0,0,0-3.709,2.81l-.244.79a.944.944,0,0,0,.9,1.223H55.375a.944.944,0,0,0,.9-1.223l-.244-.79a4.114,4.114,0,0,0-3.709-2.81h-3.2l-.889-4.418H65.45a4.92,4.92,0,0,0,4.912-4.916V77.98a4.918,4.918,0,0,0-4.912-4.912ZM52.324,120.406a2.248,2.248,0,0,1,1.7,1.046H29.336a2.21,2.21,0,0,1,1.7-1.046ZM46.31,114.1l.889,4.418H36.165l.886-4.418H46.31Zm22.163-4.916a3.029,3.029,0,0,1-3.024,3.027H17.912a3.029,3.029,0,0,1-3.024-3.027v-.853H68.474Z" transform="translate(-13 -65.978)"/>
        <path id="Trazado_985812" data-name="Trazado 985812" d="M127.986,382.157h.749a.944.944,0,1,0,0-1.888h-.749a.944.944,0,1,0,0,1.888Z" transform="translate(-113.582 -336.921)"/>
        <path id="Trazado_985813" data-name="Trazado 985813" d="M194.149,145.188a.944.944,0,1,0,0,1.888h.923v.631h-.923a.944.944,0,0,0,0,1.888h.923v1.137a.944.944,0,0,0,.944.944h1.14v.926a.944.944,0,1,0,1.888,0v-.926h.628v.926a.944.944,0,1,0,1.888,0v-.926h.631v.926a.944.944,0,1,0,1.888,0v-.926h1.137a.944.944,0,0,0,.944-.944V149.6h.926a.944.944,0,0,0,0-1.888h-.926v-.631h.926a.944.944,0,0,0,0-1.888h-.926v-.628h.926a.944.944,0,0,0,0-1.888h-.926v-1.14a.944.944,0,0,0-.944-.944H204.08v-.923a.944.944,0,0,0-1.888,0v.923h-.631v-.923a.944.944,0,1,0-1.888,0v.923h-.628v-.923a.944.944,0,0,0-1.888,0v.923h-1.14a.944.944,0,0,0-.944.944v1.14h-.923a.944.944,0,1,0,0,1.888h.923v.628Zm2.811-2.712h7.313v7.312H196.96Z" transform="translate(-171.936 -123.882)"/>
        <path id="Trazado_985814" data-name="Trazado 985814" d="M55.215,102.368a.944.944,0,0,0,0-1.888H42.089a1.7,1.7,0,0,0-1.677,1.677V127.6a1.679,1.679,0,0,0,1.677,1.677H89.626A1.679,1.679,0,0,0,91.3,127.6V102.157a1.679,1.679,0,0,0-1.677-1.677H76.5a.944.944,0,1,0,0,1.888H89.415v25.015H42.3V102.368Z" transform="translate(-37.177 -90.155)"/>
        <path id="Trazado_985815" data-name="Trazado 985815" d="M237.553,178.6h-3.52a.944.944,0,0,0-.944.944v3.52a.944.944,0,0,0,.944.944h3.52a.944.944,0,0,0,.944-.944v-3.52A.944.944,0,0,0,237.553,178.6Zm-.944,3.52h-1.631v-1.631h1.631Z" transform="translate(-207.112 -159.059)"/>
        <path id="Trazado_985816" data-name="Trazado 985816" d="M109.306,18.175v1.259a.944.944,0,0,0,.277.668l3.019,3.019v2.908a23.269,23.269,0,0,0-10.207,8.7.944.944,0,0,0,0,1.047c4.287,6.434,10.71,10.165,17.662,10.279.109,0,.218.005.328.005s.219,0,.328-.005c6.951-.114,13.374-3.844,17.665-10.278a.944.944,0,0,0,0-1.048,23.289,23.289,0,0,0-10.207-8.7V23.12L131.19,20.1a.944.944,0,0,0,.277-.668V18.174a2.674,2.674,0,1,0-1.888,0v.868l-3.019,3.019a.944.944,0,0,0-.277.668v2.609a19.837,19.837,0,0,0-4.954-.871V18.174a2.674,2.674,0,1,0-1.888,0v6.292a19.84,19.84,0,0,0-4.95.87V22.729a.944.944,0,0,0-.277-.668l-3.019-3.019v-.868a2.677,2.677,0,1,0-1.888,0Zm21.216-3.287a.786.786,0,1,1-.785.785A.786.786,0,0,1,130.523,14.888Zm-26.2,20.362a21.623,21.623,0,0,1,7.731-6.88,10.787,10.787,0,0,0,0,13.76,21.621,21.621,0,0,1-7.731-6.88Zm32.123,0a21.64,21.64,0,0,1-7.734,6.88,10.787,10.787,0,0,0,0-13.76,21.64,21.64,0,0,1,7.734,6.88ZM120.385,14.888a.786.786,0,1,1-.786.785A.786.786,0,0,1,120.385,14.888Zm0,11.443a8.919,8.919,0,1,1-8.919,8.919A8.929,8.929,0,0,1,120.385,26.33ZM110.25,14.888a.786.786,0,1,1-.789.785A.786.786,0,0,1,110.25,14.888Z" transform="translate(-91.704 -12.999)"/>
      </g>
      <path id="Trazado_985817" data-name="Trazado 985817" d="M219.412,420.7h-9.259l-.886,4.418H220.3Z" transform="translate(-173.102 -359.585)" fill="#d2d2d7"/>
    </g>
  </g>
</svg>
