<svg xmlns="http://www.w3.org/2000/svg" xmlns:xlink="http://www.w3.org/1999/xlink" width="108" height="108" viewBox="0 0 108 108">
  <defs>
    <filter id="Trazado_982547" x="0" y="0" width="108" height="108" filterUnits="userSpaceOnUse">
      <feOffset dy="3" input="SourceAlpha"/>
      <feGaussianBlur stdDeviation="3" result="blur"/>
      <feFlood flood-opacity="0.161"/>
      <feComposite operator="in" in2="blur"/>
      <feComposite in="SourceGraphic"/>
    </filter>
  </defs>
  <g id="Grupo_1150028" data-name="Grupo 1150028" transform="translate(9 6)">
    <g id="Grupo_1149750" data-name="Grupo 1149750">
      <g id="Grupo_1149261" data-name="Grupo 1149261">
        <g id="Grupo_1147065" data-name="Grupo 1147065">
          <g transform="matrix(1, 0, 0, 1, -9, -6)" filter="url(#Trazado_982547)">
            <g id="Trazado_982547-2" data-name="Trazado 982547" transform="translate(9 6)" fill="#eff4fa">
              <path d="M 45 88.5 C 39.12687683105469 88.5 33.43022537231445 87.35007476806641 28.06830024719238 85.08217620849609 C 22.88852500915527 82.89131164550781 18.23629951477051 79.75458526611328 14.2408504486084 75.75914764404297 C 10.24541282653809 71.76370239257812 7.108687400817871 67.11147308349609 4.917825222015381 61.93170166015625 C 2.649924993515015 56.56977462768555 1.5 50.87312316894531 1.5 45 C 1.5 39.12687683105469 2.649924993515015 33.43022537231445 4.917825222015381 28.06830024719238 C 7.108687400817871 22.88852500915527 10.24541282653809 18.23629951477051 14.2408504486084 14.2408504486084 C 18.23629951477051 10.24541282653809 22.88852500915527 7.108687400817871 28.06830024719238 4.917825222015381 C 33.43022537231445 2.649924993515015 39.12687683105469 1.5 45 1.5 C 50.87312316894531 1.5 56.56977462768555 2.649924993515015 61.93170166015625 4.917825222015381 C 67.11147308349609 7.108687400817871 71.76370239257812 10.24541282653809 75.75914764404297 14.2408504486084 C 79.75458526611328 18.23629951477051 82.89131164550781 22.88852500915527 85.08217620849609 28.06830024719238 C 87.35007476806641 33.43022537231445 88.5 39.12687683105469 88.5 45 C 88.5 50.87312316894531 87.35007476806641 56.56977462768555 85.08217620849609 61.93170166015625 C 82.89131164550781 67.11147308349609 79.75458526611328 71.76370239257812 75.75914764404297 75.75914764404297 C 71.76370239257812 79.75458526611328 67.11147308349609 82.89131164550781 61.93170166015625 85.08217620849609 C 56.56977462768555 87.35007476806641 50.87312316894531 88.5 45 88.5 Z" stroke="none"/>
              <path d="M 45 3 C 39.32871246337891 3 33.82865524291992 4.110054016113281 28.65262985229492 6.299339294433594 C 23.65165710449219 8.414573669433594 19.15968322753906 11.44334411621094 15.301513671875 15.301513671875 C 11.44334411621094 19.15968322753906 8.414573669433594 23.65165710449219 6.299339294433594 28.65262985229492 C 4.110054016113281 33.82865524291992 3 39.32871246337891 3 45 C 3 50.67128753662109 4.110054016113281 56.17134475708008 6.299339294433594 61.34737396240234 C 8.414573669433594 66.34834289550781 11.44334411621094 70.84031677246094 15.301513671875 74.698486328125 C 19.15968322753906 78.55665588378906 23.65165710449219 81.58542633056641 28.65262985229492 83.70066070556641 C 33.82865524291992 85.88994598388672 39.32871246337891 87 45 87 C 50.67128753662109 87 56.17134475708008 85.88994598388672 61.34737396240234 83.70066070556641 C 66.34834289550781 81.58542633056641 70.84031677246094 78.55665588378906 74.698486328125 74.698486328125 C 78.55665588378906 70.84031677246094 81.58542633056641 66.34834289550781 83.70066070556641 61.34737396240234 C 85.88994598388672 56.17134475708008 87 50.67128753662109 87 45 C 87 39.32871246337891 85.88994598388672 33.82865524291992 83.70066070556641 28.65262985229492 C 81.58542633056641 23.65165710449219 78.55665588378906 19.15968322753906 74.698486328125 15.301513671875 C 70.84031677246094 11.44334411621094 66.34834289550781 8.414573669433594 61.34737396240234 6.299339294433594 C 56.17134475708008 4.110054016113281 50.67128753662109 3 45 3 M 45 0 C 69.85281372070312 0 90 20.14718627929688 90 45 C 90 69.85281372070312 69.85281372070312 90 45 90 C 20.14718627929688 90 0 69.85281372070312 0 45 C 0 20.14718627929688 20.14718627929688 0 45 0 Z" stroke="none" fill="#3ad1e9"/>
            </g>
          </g>
        </g>
      </g>
    </g>
    <g id="idea-creativa" transform="translate(19.58 19.577)">
      <g id="Grupo_1149984" data-name="Grupo 1149984" transform="translate(10.681 8.041)">
        <g id="Grupo_1149983" data-name="Grupo 1149983">
          <path id="Trazado_985583" data-name="Trazado 985583" d="M43.372,35.036a14.719,14.719,0,0,1-12.885,5.52,9.464,9.464,0,0,0-7.6,2.635l-.047.047-8.391-8.391.049-.049a9.4,9.4,0,0,0,2.637-7.563,14.75,14.75,0,1,1,26.241,7.8Z" transform="translate(-14.446 -11.119)" fill="#ffd542"/>
        </g>
      </g>
      <g id="Grupo_1149985" data-name="Grupo 1149985" transform="translate(6.892 30.109)">
        <path id="Trazado_985584" data-name="Trazado 985584" d="M21.358,52.232l1.783-1.783a1.275,1.275,0,0,0,0-1.8l-9.372-9.372a1.275,1.275,0,0,0-1.8,0l-1.783,1.783a1.728,1.728,0,0,0,0,2.444l8.731,8.731a1.728,1.728,0,0,0,2.444,0Z" transform="translate(-9.676 -38.899)" fill="#0e4a77"/>
      </g>
      <g id="Grupo_1149986" data-name="Grupo 1149986" transform="translate(0.77 35.07)">
        <path id="Trazado_985585" data-name="Trazado 985585" d="M16.976,53.156l-5.17,5.17-8.59,1.8A1.033,1.033,0,0,1,1.992,58.9l1.8-8.59,5.17-5.17Z" transform="translate(-1.97 -45.144)" fill="#f34c6e"/>
      </g>
      <g id="Grupo_1149987" data-name="Grupo 1149987" transform="translate(5.325 37.802)">
        <path id="Trazado_985586" data-name="Trazado 985586" d="M0,0H7.309V3.586H0Z" transform="translate(0 5.168) rotate(-45)" fill="#f34c6e"/>
      </g>
      <g id="Grupo_1149989" data-name="Grupo 1149989" transform="translate(0.767 40.32)">
        <g id="Grupo_1149988" data-name="Grupo 1149988">
          <path id="Trazado_985587" data-name="Trazado 985587" d="M11.725,59.7l-5.6,1.181-2.906.609a1.044,1.044,0,0,1-1.228-1.228L2.6,57.357l1.181-5.6Z" transform="translate(-1.966 -51.754)" fill="#ffd542"/>
        </g>
      </g>
      <g id="Grupo_1149991" data-name="Grupo 1149991" transform="translate(0.767 45.923)">
        <g id="Grupo_1149990" data-name="Grupo 1149990">
          <path id="Trazado_985588" data-name="Trazado 985588" d="M6.122,62.332l-2.906.609a1.044,1.044,0,0,1-1.228-1.228L2.6,58.807a3.856,3.856,0,0,1,3.525,3.525Z" transform="translate(-1.966 -58.807)" fill="#073d6f"/>
        </g>
      </g>
      <g id="Grupo_1149992" data-name="Grupo 1149992">
        <path id="Trazado_985589" data-name="Trazado 985589" d="M54.092,48.742A.77.77,0,0,0,53,49.832l2.017,2.017a.77.77,0,1,0,1.089-1.089Z" transform="translate(-11.646 -10.767)" fill="#003"/>
        <path id="Trazado_985590" data-name="Trazado 985590" d="M55.02,8.967,53,10.984a.77.77,0,1,0,1.089,1.089l2.017-2.017A.77.77,0,0,0,55.02,8.967Z" transform="translate(-11.646 -2.589)" fill="#003"/>
        <path id="Trazado_985591" data-name="Trazado 985591" d="M41.545,5.267a.768.768,0,0,0,.943-.545l.738-2.756a.77.77,0,1,0-1.488-.4L41,4.324a.77.77,0,0,0,.545.943Z" transform="translate(-9.219 -0.996)" fill="#003"/>
        <path id="Trazado_985592" data-name="Trazado 985592" d="M27.18,4.722a.77.77,0,1,0,1.488-.4l-.739-2.756a.77.77,0,1,0-1.488.4Z" transform="translate(-6.226 -0.996)" fill="#003"/>
        <path id="Trazado_985593" data-name="Trazado 985593" d="M15.244,12.073a.77.77,0,1,0,1.089-1.089L14.317,8.967a.77.77,0,1,0-1.089,1.089Z" transform="translate(-3.468 -2.589)" fill="#003"/>
        <path id="Trazado_985594" data-name="Trazado 985594" d="M5.829,23.669l2.755.738a.77.77,0,1,0,.4-1.488l-2.755-.738a.77.77,0,0,0-.4,1.488Z" transform="translate(-1.875 -5.347)" fill="#003"/>
        <path id="Trazado_985595" data-name="Trazado 985595" d="M42.489,55.9A.77.77,0,0,0,41,56.3l.738,2.756a.77.77,0,1,0,1.488-.4Z" transform="translate(-9.219 -12.169)" fill="#003"/>
        <path id="Trazado_985596" data-name="Trazado 985596" d="M63.317,37.478l-2.755-.738a.77.77,0,1,0-.4,1.488l2.755.738a.77.77,0,1,0,.4-1.488Z" transform="translate(-13.048 -8.34)" fill="#003"/>
        <path id="Trazado_985597" data-name="Trazado 985597" d="M60.362,24.434a.768.768,0,0,0,.2-.027l2.755-.738a.77.77,0,0,0-.4-1.488l-2.755.738a.771.771,0,0,0,.2,1.515Z" transform="translate(-13.048 -5.347)" fill="#003"/>
        <path id="Trazado_985598" data-name="Trazado 985598" d="M43.745,27.136a.774.774,0,0,0-.878.647,13.956,13.956,0,0,1-15.077,11.8,10.36,10.36,0,0,0-6.78,1.71l-1.98-1.98L27.9,30.441l1.41,1.41a3.534,3.534,0,0,0,4.992,0,3.536,3.536,0,0,0-5-5l-1.4,1.41L26.456,26.82l1.41-1.41a3.536,3.536,0,1,0-5-.008l1.41,1.418-8.868,8.868-1.972-1.965a10.23,10.23,0,0,0,1.695-6.757A13.979,13.979,0,0,1,42.89,23.708a.77.77,0,1,0,1.525-.208A15.518,15.518,0,0,0,13.6,27.105a8.739,8.739,0,0,1-1.31,5.509,2.059,2.059,0,0,0-2.65.2L7.85,34.6a2.492,2.492,0,0,0-.162,3.328L3.051,42.576a.729.729,0,0,0-.208.385l-.316,1.5L1.032,51.551a1.812,1.812,0,0,0,.108,1.032,1.815,1.815,0,0,0,.978,1.009,1.911,1.911,0,0,0,.693.131,1.971,1.971,0,0,0,.362-.031l7.219-1.526,1.371-.285a.758.758,0,0,0,.385-.208l4.638-4.638a2.508,2.508,0,0,0,1.564.562,2.476,2.476,0,0,0,1.764-.732L21.9,45.08a2.051,2.051,0,0,0,.185-2.666,8.907,8.907,0,0,1,5.563-1.294A15.5,15.5,0,0,0,44.392,28.014a.783.783,0,0,0-.647-.878ZM30.4,27.945a1.994,1.994,0,1,1,0,2.82l-1.41-1.418Zm-6.449-3.629a1.988,1.988,0,0,1,1.41-3.4,1.992,1.992,0,0,1,1.41,3.4l-1.4,1.41Zm1.418,3.59,1.441,1.441-8.875,8.876-1.441-1.441ZM8.76,39.039l1.649,1.649L6.279,44.81,4.638,43.169Zm2.735,2.735,1.448,1.448L8.867,47.3,7.419,45.85Zm-8.637,10.4a.256.256,0,0,1-.154-.008.489.489,0,0,1-.085-.062.476.476,0,0,1-.062-.092.227.227,0,0,1-.008-.146l1.487-7.119,5.94,5.94Zm8.7-2.088L9.908,48.439l4.122-4.13,1.656,1.656Zm9.253-6.094-1.78,1.78a.982.982,0,0,1-1.356,0L8.945,37.044a.953.953,0,0,1,0-1.356l1.78-1.78a.512.512,0,0,1,.717,0l9.369,9.369a.5.5,0,0,1,0,.717Z" transform="translate(-1 -2.878)" fill="#003"/>
      </g>
    </g>
  </g>
</svg>
