<svg xmlns="http://www.w3.org/2000/svg" xmlns:xlink="http://www.w3.org/1999/xlink" width="110" height="110" viewBox="0 0 110 110">
  <defs>
    <filter id="Trazado_982547" x="0" y="0" width="110" height="110" filterUnits="userSpaceOnUse">
      <feOffset dy="3" input="SourceAlpha"/>
      <feGaussianBlur stdDeviation="3" result="blur"/>
      <feFlood flood-opacity="0.161"/>
      <feComposite operator="in" in2="blur"/>
      <feComposite in="SourceGraphic"/>
    </filter>
  </defs>
  <g id="Grupo_1150354" data-name="Grupo 1150354" transform="translate(-1218 -5987)">
    <g id="Grupo_1150034" data-name="Grupo 1150034" transform="translate(0 1128)">
      <g id="Grupo_1149676" data-name="Grupo 1149676" transform="translate(1227 4865)">
        <g id="Grupo_1148534" data-name="Grupo 1148534" transform="translate(0)">
          <g id="Grupo_1147066" data-name="Grupo 1147066" transform="translate(0 0)">
            <g transform="matrix(1, 0, 0, 1, -9, -6)" filter="url(#Trazado_982547)">
              <g id="Trazado_982547-2" data-name="Trazado 982547" transform="translate(9 6)" fill="#f6f9fc">
                <path d="M 46.00000381469727 90.5 C 39.99188232421875 90.5 34.16427230834961 89.32364654541016 28.67905807495117 87.00359344482422 C 23.38020324707031 84.76236724853516 18.62103080749512 81.55355072021484 14.53375053405762 77.46625518798828 C 10.44645690917969 73.37897491455078 7.237643718719482 68.61980438232422 4.996417045593262 63.32094955444336 C 2.676363706588745 57.83573532104492 1.500003814697266 52.00812530517578 1.500003814697266 46.00000381469727 C 1.500003814697266 39.99188232421875 2.676363706588745 34.16427230834961 4.996417045593262 28.67905807495117 C 7.237643718719482 23.38020324707031 10.44645690917969 18.62104415893555 14.53375053405762 14.53375053405762 C 18.62103080749512 10.44647026062012 23.38020324707031 7.237643718719482 28.67905807495117 4.996417045593262 C 34.16427230834961 2.676363706588745 39.99188232421875 1.500003814697266 46.00000381469727 1.500003814697266 C 52.00812530517578 1.500003814697266 57.83573532104492 2.676363706588745 63.32094955444336 4.996417045593262 C 68.61980438232422 7.237643718719482 73.37897491455078 10.44647026062012 77.46625518798828 14.53375053405762 C 81.55355072021484 18.62104415893555 84.76236724853516 23.38020324707031 87.00359344482422 28.67905807495117 C 89.32364654541016 34.16427230834961 90.5 39.99188232421875 90.5 46.00000381469727 C 90.5 52.00812530517578 89.32364654541016 57.83573532104492 87.00359344482422 63.32094955444336 C 84.76236724853516 68.61980438232422 81.55355072021484 73.37897491455078 77.46625518798828 77.46625518798828 C 73.37897491455078 81.55355072021484 68.61980438232422 84.76236724853516 63.32094955444336 87.00359344482422 C 57.83573532104492 89.32364654541016 52.00812530517578 90.5 46.00000381469727 90.5 Z" stroke="none"/>
                <path d="M 46.00000381469727 3.000007629394531 C 40.19371795654297 3.000007629394531 34.56270217895508 4.136505126953125 29.26338958740234 6.377914428710938 C 24.14333343505859 8.54351806640625 19.54441833496094 11.64440155029297 15.59442138671875 15.59442138671875 C 11.64440155029297 19.54441833496094 8.54351806640625 24.14333343505859 6.377914428710938 29.26338958740234 C 4.136505126953125 34.56270217895508 3.000007629394531 40.19371795654297 3.000007629394531 46.00000381469727 C 3.000007629394531 51.80628967285156 4.136505126953125 57.43730545043945 6.377914428710938 62.73661804199219 C 8.54351806640625 67.85667419433594 11.64440155029297 72.45558929443359 15.59442138671875 76.40558624267578 C 19.54441833496094 80.35560607910156 24.14333343505859 83.45648956298828 29.26338958740234 85.62208557128906 C 34.56270217895508 87.86350250244141 40.19371795654297 89 46.00000381469727 89 C 51.80628967285156 89 57.43730545043945 87.86350250244141 62.73661804199219 85.62208557128906 C 67.85667419433594 83.45648956298828 72.45558929443359 80.35560607910156 76.40558624267578 76.40558624267578 C 80.35560607910156 72.45558929443359 83.45648956298828 67.85667419433594 85.62208557128906 62.73661804199219 C 87.86350250244141 57.43730545043945 89 51.80628967285156 89 46.00000381469727 C 89 40.19371795654297 87.86350250244141 34.56270217895508 85.62208557128906 29.26338958740234 C 83.45648956298828 24.14333343505859 80.35560607910156 19.54441833496094 76.40558624267578 15.59442138671875 C 72.45558929443359 11.64440155029297 67.85667419433594 8.54351806640625 62.73661804199219 6.377914428710938 C 57.43730545043945 4.136505126953125 51.80628967285156 3.000007629394531 46.00000381469727 3.000007629394531 M 46.00000381469727 7.62939453125e-06 C 71.40510559082031 7.62939453125e-06 92 20.59490203857422 92 46.00000381469727 C 92 71.40510559082031 71.40510559082031 92 46.00000381469727 92 C 20.59490203857422 92 7.62939453125e-06 71.40510559082031 7.62939453125e-06 46.00000381469727 C 7.62939453125e-06 20.59490203857422 20.59490203857422 7.62939453125e-06 46.00000381469727 7.62939453125e-06 Z" stroke="none" fill="#a530fe"/>
              </g>
            </g>
          </g>
        </g>
      </g>
    </g>
    <g id="Layer_17" data-name="Layer 17" transform="translate(1246.659 6010.659)">
      <path id="Trazado_986177" data-name="Trazado 986177" d="M37.278,54.917H2V2H29.341l7.938,7.938Z" transform="translate(-0.118 -0.118)" fill="#e2e7f6"/>
      <path id="Trazado_986178" data-name="Trazado 986178" d="M2,52.271H34.632V7.292L29.341,2H2Z" transform="translate(-0.118 -0.118)" fill="#f2f2f2"/>
      <path id="Trazado_986179" data-name="Trazado 986179" d="M33,2V9.938h7.938" transform="translate(-3.777 -0.118)" fill="#c8cded"/>
      <path id="Trazado_986180" data-name="Trazado 986180" d="M22,26H57.278V57.75H22Z" transform="translate(-2.479 -2.951)" fill="#474747"/>
      <path id="Trazado_986181" data-name="Trazado 986181" d="M52.868,51.577V26H22V53.341H51.1A1.764,1.764,0,0,0,52.868,51.577Z" transform="translate(-2.479 -2.951)" fill="#686868"/>
      <g id="Grupo_1150353" data-name="Grupo 1150353" transform="translate(4.528 6.292)">
        <path id="Trazado_986182" data-name="Trazado 986182" d="M9,7H22.229V8.764H9Z" transform="translate(-5.472 -7)" fill="#c8cded"/>
        <path id="Trazado_986183" data-name="Trazado 986183" d="M26,7h3.528V8.764H26Z" transform="translate(-7.479 -7)" fill="#c8cded"/>
        <path id="Trazado_986184" data-name="Trazado 986184" d="M5,11H27.049v1.764H5Z" transform="translate(-5 -7.472)" fill="#c8cded"/>
        <path id="Trazado_986185" data-name="Trazado 986185" d="M5,15H34.986v1.764H5Z" transform="translate(-5 -7.944)" fill="#c8cded"/>
        <path id="Trazado_986186" data-name="Trazado 986186" d="M5,49H17.347v1.764H5Z" transform="translate(-5 -11.958)" fill="#c8cded"/>
        <path id="Trazado_986187" data-name="Trazado 986187" d="M5,45H17.347v1.764H5Z" transform="translate(-5 -11.486)" fill="#c8cded"/>
        <path id="Trazado_986188" data-name="Trazado 986188" d="M5,53H17.347v1.764H5Z" transform="translate(-5 -12.43)" fill="#c8cded"/>
      </g>
      <circle id="Elipse_11562" data-name="Elipse 11562" cx="11.5" cy="11.5" r="11.5" transform="translate(25.341 27.34)" fill="#f0ae42"/>
      <circle id="Elipse_11563" data-name="Elipse 11563" cx="7" cy="7" r="7" transform="translate(30.341 32.34)" fill="#f9d266"/>
      <circle id="Elipse_11564" data-name="Elipse 11564" cx="3.5" cy="3.5" r="3.5" transform="translate(33.341 35.34)" fill="#b52f28"/>
      <path id="Trazado_986189" data-name="Trazado 986189" d="M41.528,40a3.523,3.523,0,0,0-2.894,5.539,3.523,3.523,0,0,0,4.905-4.9A3.508,3.508,0,0,0,41.528,40Z" transform="translate(-4.368 -4.604)" fill="#d23f34"/>
      <path id="Trazado_986190" data-name="Trazado 986190" d="M0,0H17.462V1.764H0Z" transform="translate(36.53 38.3) rotate(-45)" fill="#f2f2f2"/>
      <path id="Trazado_986191" data-name="Trazado 986191" d="M6,21h7.056v7.056H6Z" transform="translate(-0.59 -2.361)" fill="#4d8c28"/>
      <path id="Trazado_986192" data-name="Trazado 986192" d="M6,21h5.292v5.292H6Z" transform="translate(-0.59 -2.361)" fill="#559b2d"/>
      <path id="Trazado_986193" data-name="Trazado 986193" d="M9.68,25.972a.882.882,0,0,1-.623-.258L7.293,23.95,8.54,22.7l1.14,1.14,5.55-5.55,1.247,1.247L10.3,25.714a.882.882,0,0,1-.624.258Z" transform="translate(-0.743 -2.041)" fill="#474747"/>
      <path id="Trazado_986194" data-name="Trazado 986194" d="M6,33h7.056v7.056H6Z" transform="translate(-0.59 -3.777)" fill="#4d8c28"/>
      <path id="Trazado_986195" data-name="Trazado 986195" d="M6,33h5.292v5.292H6Z" transform="translate(-0.59 -3.777)" fill="#559b2d"/>
      <path id="Trazado_986196" data-name="Trazado 986196" d="M9.68,37.972a.882.882,0,0,1-.623-.258L7.293,35.95,8.54,34.7l1.14,1.14,5.55-5.55,1.247,1.247L10.3,37.714a.882.882,0,0,1-.624.258Z" transform="translate(-0.743 -3.458)" fill="#474747"/>
      <path id="Trazado_986197" data-name="Trazado 986197" d="M54.8,22.167H38.042V9.82a.882.882,0,0,0-.258-.623L29.969,1.381A.882.882,0,0,0,29.243,1H1.882A.882.882,0,0,0,1,1.882V54.8a.882.882,0,0,0,.882.882H54.8a.882.882,0,0,0,.882-.882V23.049A.882.882,0,0,0,54.8,22.167ZM30.1,4.011l4.927,4.927H30.1ZM18.639,23.049V53.917H2.764V2.764H28.341V9.82a.882.882,0,0,0,.882.882h7.056V22.167H19.521A.882.882,0,0,0,18.639,23.049ZM53.917,53.917H20.4V23.931H53.917Z"/>
      <path id="Trazado_986198" data-name="Trazado 986198" d="M9,7H22.229V8.764H9Z" transform="translate(-0.944 -0.708)"/>
      <path id="Trazado_986199" data-name="Trazado 986199" d="M26,7h3.528V8.764H26Z" transform="translate(-2.951 -0.708)"/>
      <path id="Trazado_986200" data-name="Trazado 986200" d="M5,11H27.049v1.764H5Z" transform="translate(-0.472 -1.18)"/>
      <path id="Trazado_986201" data-name="Trazado 986201" d="M5,15H34.986v1.764H5Z" transform="translate(-0.472 -1.653)"/>
      <path id="Trazado_986202" data-name="Trazado 986202" d="M5,49H17.347v1.764H5Z" transform="translate(-0.472 -5.666)"/>
      <path id="Trazado_986203" data-name="Trazado 986203" d="M5,45H17.347v1.764H5Z" transform="translate(-0.472 -5.194)"/>
      <path id="Trazado_986204" data-name="Trazado 986204" d="M5,53H17.347v1.764H5Z" transform="translate(-0.472 -6.138)"/>
      <path id="Trazado_986205" data-name="Trazado 986205" d="M40.347,54.611a12.329,12.329,0,0,0,9.32-20.421l3.65-3.65-1.247-1.247-3.65,3.65a12.34,12.34,0,1,0-8.073,21.668Zm0-22.931a10.534,10.534,0,0,1,6.827,2.509L45.3,36.068a7.958,7.958,0,1,0,1.247,1.247l1.879-1.879a10.575,10.575,0,1,1-8.074-3.756Zm6.174,10.583a6.2,6.2,0,1,1-2.484-4.939l-1.262,1.262a4.423,4.423,0,1,0,1.247,1.247l1.264-1.26a6.132,6.132,0,0,1,1.235,3.69Zm-3.528,0a2.646,2.646,0,1,1-2.646-2.646,2.6,2.6,0,0,1,1.133.265l-1.757,1.757,1.247,1.247,1.758-1.756a2.6,2.6,0,0,1,.265,1.133Z" transform="translate(-3.187 -3.34)"/>
      <path id="Trazado_986206" data-name="Trazado 986206" d="M5.882,28.618h7.056a.882.882,0,0,0,.882-.882V21.928l2.387-2.387L14.96,18.293,13.343,19.91a.859.859,0,0,0-.406-.111H5.882A.882.882,0,0,0,5,20.68v7.056a.882.882,0,0,0,.882.882Zm.882-7.056h4.927L9.41,23.843,8.269,22.7,7.022,23.95l1.764,1.764a.882.882,0,0,0,1.247,0l2.022-2.022v3.163H6.764Z" transform="translate(-0.472 -2.041)"/>
      <path id="Trazado_986207" data-name="Trazado 986207" d="M5.882,40.618h7.056a.882.882,0,0,0,.882-.882V33.928l2.387-2.387L14.96,30.293,13.343,31.91a.859.859,0,0,0-.406-.111H5.882A.882.882,0,0,0,5,32.68v7.056a.882.882,0,0,0,.882.882Zm.882-7.056h4.927L9.41,35.843,8.269,34.7,7.022,35.95l1.764,1.764a.882.882,0,0,0,1.247,0l2.022-2.022v3.163H6.764Z" transform="translate(-0.472 -3.458)"/>
    </g>
  </g>
</svg>
