<svg xmlns="http://www.w3.org/2000/svg" width="34.645" height="26.822" viewBox="0 0 34.645 26.822">
  <g id="caja" transform="translate(-8 -64)">
    <path id="Trazado_985632" data-name="Trazado 985632" d="M42.086,64H8.559A.559.559,0,0,0,8,64.559v4.47a.559.559,0,0,0,.559.559h2.235V90.263a.559.559,0,0,0,.559.559H39.292a.559.559,0,0,0,.559-.559V69.588h2.235a.559.559,0,0,0,.559-.559v-4.47A.559.559,0,0,0,42.086,64ZM38.733,89.7H11.911V69.588H38.733ZM41.527,68.47H9.118V65.118H41.527Z"/>
    <path id="Trazado_985633" data-name="Trazado 985633" d="M168.559,179.353h11.176a.559.559,0,0,0,.559-.559v-2.235a.559.559,0,0,0-.559-.559H168.559a.559.559,0,0,0-.559.559v2.235A.559.559,0,0,0,168.559,179.353Zm.559-2.235h10.058v1.118H169.118Z" transform="translate(-148.824 -104.177)"/>
  </g>
</svg>
