<svg xmlns="http://www.w3.org/2000/svg" width="32.035" height="28.168" viewBox="0 0 32.035 28.168">
  <g id="book-tick-7" transform="translate(0 0)">
    <path id="Trazado_985637" data-name="Trazado 985637" d="M.613,23.746c.024,0,2.493-.273,5.462-.273,3.888,0,6.86.457,8.59,1.322a.554.554,0,0,0,.247.059.561.561,0,0,0,.247-.059A8.836,8.836,0,0,1,16.7,24.22a8.277,8.277,0,1,0,13.125-9.956V4.418a.552.552,0,0,0-.433-.539c-.07-.015-.741-.162-1.777-.339V.552A.553.553,0,0,0,27.063,0c-.316,0-7.642.03-12.151,2.156C10.4.03,3.077,0,2.762,0a.553.553,0,0,0-.552.552V3.54C1.172,3.717.5,3.864.433,3.879A.553.553,0,0,0,0,4.418V23.2a.55.55,0,0,0,.184.412.573.573,0,0,0,.429.137ZM1.1,4.868c.261-.052.65-.125,1.1-.2V19.331a.553.553,0,0,0,.552.552c.073,0,7.3.031,11.6,2.014V23.46a24.569,24.569,0,0,0-8.285-1.091c-2.146,0-4.038.138-4.971.221ZM14.36,3.116v11.8h1.1V3.116c3.6-1.662,9.267-1.953,11.046-2V12.079a8.266,8.266,0,0,0-11.046,7.8c0,.265.015.527.04.785-.2.084-.4.173-.592.264-3.854-1.816-9.764-2.1-11.6-2.146V1.115c1.78.05,7.443.339,11.046,2Zm14.36,10.15a8.232,8.232,0,0,0-1.1-.708V4.665c.455.08.844.152,1.1.2ZM15.465,21.9c.075-.035.152-.07.23-.1a8.163,8.163,0,0,0,.477,1.429c-.246.074-.484.152-.707.236Zm15.465-2.014a7.18,7.18,0,1,1-7.18-7.18A7.18,7.18,0,0,1,30.929,19.883Z" transform="translate(0 0)"/>
    <path id="Trazado_985638" data-name="Trazado 985638" d="M26.63,15.6l-.781-.781-5.467,5.468-2.343-2.344-.781.782,3.124,3.124Z" transform="translate(1.806 1.55)"/>
  </g>
</svg>
