<svg xmlns="http://www.w3.org/2000/svg" xmlns:xlink="http://www.w3.org/1999/xlink" width="110" height="110" viewBox="0 0 110 110">
  <defs>
    <filter id="Trazado_982547" x="0" y="0" width="110" height="110" filterUnits="userSpaceOnUse">
      <feOffset dy="3" input="SourceAlpha"/>
      <feGaussianBlur stdDeviation="3" result="blur"/>
      <feFlood flood-opacity="0.161"/>
      <feComposite operator="in" in2="blur"/>
      <feComposite in="SourceGraphic"/>
    </filter>
    <clipPath id="clip-path">
      <path id="path1889" d="M0-682.665H68.2v68.2H0Z" transform="translate(0 682.665)"/>
    </clipPath>
  </defs>
  <g id="Grupo_1150374" data-name="Grupo 1150374" transform="translate(-747.02 -2296.5)">
    <g id="Grupo_1150074" data-name="Grupo 1150074" transform="translate(756.02 2302.5)">
      <g id="Grupo_1149673" data-name="Grupo 1149673" transform="translate(0)">
        <g id="Grupo_1148532" data-name="Grupo 1148532" transform="translate(0 0)">
          <g id="Grupo_1147065" data-name="Grupo 1147065">
            <g transform="matrix(1, 0, 0, 1, -9, -6)" filter="url(#Trazado_982547)">
              <g id="Trazado_982547-2" data-name="Trazado 982547" transform="translate(9 6)" fill="#f6f9fc">
                <path d="M 46.00000381469727 90.5 C 39.99188232421875 90.5 34.16427230834961 89.32364654541016 28.67905807495117 87.00359344482422 C 23.38020324707031 84.76236724853516 18.62103080749512 81.55355072021484 14.53375053405762 77.46625518798828 C 10.44645690917969 73.37897491455078 7.237643718719482 68.61980438232422 4.996417045593262 63.32094955444336 C 2.676363706588745 57.83573532104492 1.500003814697266 52.00812530517578 1.500003814697266 46.00000381469727 C 1.500003814697266 39.99188232421875 2.676363706588745 34.16427230834961 4.996417045593262 28.67905807495117 C 7.237643718719482 23.38020324707031 10.44645690917969 18.62104415893555 14.53375053405762 14.53375053405762 C 18.62103080749512 10.44647026062012 23.38020324707031 7.237643718719482 28.67905807495117 4.996417045593262 C 34.16427230834961 2.676363706588745 39.99188232421875 1.500003814697266 46.00000381469727 1.500003814697266 C 52.00812530517578 1.500003814697266 57.83573532104492 2.676363706588745 63.32094955444336 4.996417045593262 C 68.61980438232422 7.237643718719482 73.37897491455078 10.44647026062012 77.46625518798828 14.53375053405762 C 81.55355072021484 18.62104415893555 84.76236724853516 23.38020324707031 87.00359344482422 28.67905807495117 C 89.32364654541016 34.16427230834961 90.5 39.99188232421875 90.5 46.00000381469727 C 90.5 52.00812530517578 89.32364654541016 57.83573532104492 87.00359344482422 63.32094955444336 C 84.76236724853516 68.61980438232422 81.55355072021484 73.37897491455078 77.46625518798828 77.46625518798828 C 73.37897491455078 81.55355072021484 68.61980438232422 84.76236724853516 63.32094955444336 87.00359344482422 C 57.83573532104492 89.32364654541016 52.00812530517578 90.5 46.00000381469727 90.5 Z" stroke="none"/>
                <path d="M 46.00000381469727 3.000007629394531 C 40.19371795654297 3.000007629394531 34.56270217895508 4.136505126953125 29.26338958740234 6.377914428710938 C 24.14333343505859 8.54351806640625 19.54441833496094 11.64440155029297 15.59442138671875 15.59442138671875 C 11.64440155029297 19.54441833496094 8.54351806640625 24.14333343505859 6.377914428710938 29.26338958740234 C 4.136505126953125 34.56270217895508 3.000007629394531 40.19371795654297 3.000007629394531 46.00000381469727 C 3.000007629394531 51.80628967285156 4.136505126953125 57.43730545043945 6.377914428710938 62.73661804199219 C 8.54351806640625 67.85667419433594 11.64440155029297 72.45558929443359 15.59442138671875 76.40558624267578 C 19.54441833496094 80.35560607910156 24.14333343505859 83.45648956298828 29.26338958740234 85.62208557128906 C 34.56270217895508 87.86350250244141 40.19371795654297 89 46.00000381469727 89 C 51.80628967285156 89 57.43730545043945 87.86350250244141 62.73661804199219 85.62208557128906 C 67.85667419433594 83.45648956298828 72.45558929443359 80.35560607910156 76.40558624267578 76.40558624267578 C 80.35560607910156 72.45558929443359 83.45648956298828 67.85667419433594 85.62208557128906 62.73661804199219 C 87.86350250244141 57.43730545043945 89 51.80628967285156 89 46.00000381469727 C 89 40.19371795654297 87.86350250244141 34.56270217895508 85.62208557128906 29.26338958740234 C 83.45648956298828 24.14333343505859 80.35560607910156 19.54441833496094 76.40558624267578 15.59442138671875 C 72.45558929443359 11.64440155029297 67.85667419433594 8.54351806640625 62.73661804199219 6.377914428710938 C 57.43730545043945 4.136505126953125 51.80628967285156 3.000007629394531 46.00000381469727 3.000007629394531 M 46.00000381469727 7.62939453125e-06 C 71.40510559082031 7.62939453125e-06 92 20.59490203857422 92 46.00000381469727 C 92 71.40510559082031 71.40510559082031 92 46.00000381469727 92 C 20.59490203857422 92 7.62939453125e-06 71.40510559082031 7.62939453125e-06 46.00000381469727 C 7.62939453125e-06 20.59490203857422 20.59490203857422 7.62939453125e-06 46.00000381469727 7.62939453125e-06 Z" stroke="none" fill="#a530fe"/>
              </g>
            </g>
          </g>
        </g>
      </g>
    </g>
    <g id="g1881" transform="translate(769.226 2992.064)">
      <path id="path1883" d="M78.871-218.441H13.333v-13.516H78.871Z" transform="translate(-12.001 -405.68)" fill="#ffce69"/>
      <g id="g1885" transform="translate(0 -682.665)">
        <g id="g1887" clip-path="url(#clip-path)">
          <g id="g1893" transform="translate(5.921 16.848)">
            <path id="path1895" d="M-253.886,0a28.18,28.18,0,0,0-28.18,28.18h12.791a15.389,15.389,0,0,1,15.389-15.389A15.389,15.389,0,0,1-238.5,28.18h12.791A28.18,28.18,0,0,0-253.886,0" transform="translate(282.066 0)" fill="#ffd88e"/>
          </g>
          <g id="g1897" transform="translate(5.921 18.403)">
            <path id="path1899" d="M-204-94.614l-3.716-10.5h0a28.193,28.193,0,0,0-18.927,26.625h28.348Z" transform="translate(226.642 105.116)" fill="none" stroke="#000" stroke-linecap="round" stroke-linejoin="round" stroke-miterlimit="10" stroke-width="1.5"/>
          </g>
          <g id="g1901" transform="translate(3.036 14.227)">
            <path id="path1903" d="M0-121.443a29.3,29.3,0,0,1,13.332-13.479" transform="translate(0 134.922)" fill="none" stroke="#000" stroke-linecap="round" stroke-linejoin="round" stroke-miterlimit="10" stroke-width="1.5"/>
          </g>
          <g id="g1905" transform="translate(11.434 12.92)">
            <path id="path1907" d="M0,0,4.933,1.307,3.408,6.213" fill="none" stroke="#000" stroke-linecap="round" stroke-linejoin="round" stroke-miterlimit="10" stroke-width="1.5"/>
          </g>
          <g id="g1909" transform="translate(11.632 54.664)">
            <path id="path1911" d="M0,0V3.88" fill="none" stroke="#000" stroke-linecap="round" stroke-linejoin="round" stroke-miterlimit="10" stroke-width="1.5"/>
          </g>
          <g id="g1913" transform="translate(22.709 54.664)">
            <path id="path1915" d="M0,0V3.88" fill="none" stroke="#000" stroke-linecap="round" stroke-linejoin="round" stroke-miterlimit="10" stroke-width="1.5"/>
          </g>
          <g id="g1917" transform="translate(22.709 51.786)">
            <path id="path1919" d="M0,0V6.758" fill="none" stroke="#000" stroke-linecap="round" stroke-linejoin="round" stroke-miterlimit="10" stroke-width="1.5"/>
          </g>
          <g id="g1921" transform="translate(33.787 54.664)">
            <path id="path1923" d="M0,0V3.88" transform="translate(0)" fill="none" stroke="#000" stroke-linecap="round" stroke-linejoin="round" stroke-miterlimit="10" stroke-width="1.5"/>
          </g>
          <g id="g1925" transform="translate(44.864 54.664)">
            <path id="path1927" d="M0,0V3.88" fill="none" stroke="#000" stroke-linecap="round" stroke-linejoin="round" stroke-miterlimit="10" stroke-width="1.5"/>
          </g>
          <g id="g1929" transform="translate(44.864 51.786)">
            <path id="path1931" d="M0,0V6.758" fill="none" stroke="#000" stroke-linecap="round" stroke-linejoin="round" stroke-miterlimit="10" stroke-width="1.5"/>
          </g>
          <g id="g1933" transform="translate(55.941 54.664)">
            <path id="path1935" d="M0,0V3.88" fill="none" stroke="#000" stroke-linecap="round" stroke-linejoin="round" stroke-miterlimit="10" stroke-width="1.5"/>
          </g>
          <g id="g1937" transform="translate(18.712 30.465)">
            <path id="path1939" d="M0-131.2H15.556L10.4-145.765A15.4,15.4,0,0,0,0-131.2" transform="translate(0 145.765)" fill="#d0ace4"/>
          </g>
          <g id="g1941" transform="translate(5.921 18.404)">
            <path id="path1943" d="M-170.529,0l-.268.094-.218.078q-.279.1-.556.211l-.2.082c-.125.05-.251.1-.375.153l-.243.1-.336.147-.241.108q-.183.084-.364.17l-.2.094q-.264.128-.525.261l-.216.112c-.111.058-.222.116-.333.176l-.238.13-.311.174-.232.132c-.119.069-.237.139-.354.209l-.213.128q-.229.14-.454.283l-.218.142q-.149.1-.3.2l-.23.155q-.144.1-.287.2l-.219.154q-.177.127-.353.257l-.261.2q-.168.127-.335.257l-.214.17q-.134.107-.267.215l-.218.18q-.133.111-.264.223c-.068.058-.136.115-.2.174q-.2.171-.391.347l-.2.187c-.094.086-.187.173-.28.261l-.2.192q-.122.118-.242.237l-.2.2c-.083.084-.165.168-.247.253l-.18.186q-.2.207-.389.418c-.055.061-.11.122-.164.184-.081.091-.163.182-.243.274l-.181.21q-.111.13-.221.261l-.176.213c-.079.1-.157.194-.235.291-.049.062-.1.123-.148.186q-.178.227-.35.457c-.05.066-.1.134-.148.2q-.108.147-.215.3l-.158.223q-.1.144-.2.29l-.149.22c-.077.115-.153.231-.228.347-.039.059-.078.118-.116.178q-.153.24-.3.483c-.043.07-.084.14-.126.21q-.1.161-.191.323l-.131.228q-.093.163-.183.327c-.04.072-.08.144-.119.216q-.119.221-.235.445l-.094.184q-.113.224-.224.451c-.035.072-.069.144-.1.216q-.083.176-.165.353l-.1.228q-.083.185-.162.371c-.029.068-.059.135-.087.2q-.118.28-.229.562c-.017.044-.034.088-.051.132q-.088.226-.173.455c-.026.072-.052.143-.078.215q-.07.193-.136.388-.038.111-.076.222-.071.211-.138.424c-.019.059-.038.118-.057.178q-.092.3-.177.6c-.014.049-.027.1-.041.149q-.065.233-.126.467c-.018.071-.036.142-.054.213q-.053.21-.1.422c-.017.07-.033.141-.049.212q-.056.245-.107.492c-.009.045-.02.09-.029.135q-.064.313-.121.629c-.01.053-.018.107-.027.161q-.042.239-.08.48c-.011.07-.022.141-.032.212q-.034.226-.064.454c-.009.067-.018.133-.026.2q-.036.288-.066.579c0,.023-.005.046-.008.068q-.033.327-.058.656c0,.058-.008.115-.012.173q-.018.245-.031.49c0,.07-.007.141-.011.212q-.011.241-.018.483c0,.063,0,.125-.006.188-.005.222-.008.445-.008.669h12.791a15.4,15.4,0,0,1,10.4-14.563l-.552-1.561Z" transform="translate(189.457)" fill="#ff7a7a"/>
          </g>
          <g id="g1945" transform="translate(21.754 9.658)">
            <path id="path1947" d="M-112.747-318.669l-12.514-35.37" transform="translate(125.261 354.039)" fill="none" stroke="#000" stroke-linecap="round" stroke-linejoin="round" stroke-miterlimit="10" stroke-width="1.5"/>
          </g>
          <g id="g1949" transform="translate(5.921 16.848)">
            <path id="path1951" d="M-377.17-190.409a15.321,15.321,0,0,1,1.7,7.045h12.791a28.18,28.18,0,0,0-28.18-28.18,28.18,28.18,0,0,0-28.18,28.18h12.791a15.389,15.389,0,0,1,15.389-15.389,15.376,15.376,0,0,1,4.729.742" transform="translate(419.034 211.543)" fill="none" stroke="#000" stroke-linecap="round" stroke-linejoin="round" stroke-miterlimit="10" stroke-width="1.5"/>
          </g>
          <path id="path1953" d="M78.871-218.441H13.333v-13.516H78.871Z" transform="translate(-12.001 276.985)" fill="none" stroke="#000" stroke-linecap="round" stroke-linejoin="round" stroke-miterlimit="10" stroke-width="1.5"/>
          <g id="g1955" transform="translate(44.103 33.301)">
            <path id="path1957" d="M0,0H0" fill="none" stroke="#000" stroke-linecap="round" stroke-linejoin="round" stroke-miterlimit="10" stroke-width="1.5"/>
          </g>
        </g>
      </g>
    </g>
  </g>
</svg>
