<svg xmlns="http://www.w3.org/2000/svg" xmlns:xlink="http://www.w3.org/1999/xlink" width="110" height="110" viewBox="0 0 110 110">
  <defs>
    <filter id="Trazado_982547" x="0" y="0" width="110" height="110" filterUnits="userSpaceOnUse">
      <feOffset dy="3" input="SourceAlpha"/>
      <feGaussianBlur stdDeviation="3" result="blur"/>
      <feFlood flood-opacity="0.161"/>
      <feComposite operator="in" in2="blur"/>
      <feComposite in="SourceGraphic"/>
    </filter>
  </defs>
  <g id="Grupo_1150382" data-name="Grupo 1150382" transform="translate(-1167.02 -2296.5)">
    <g id="Grupo_1150075" data-name="Grupo 1150075" transform="translate(1176.02 2302.5)">
      <g id="Grupo_1149673" data-name="Grupo 1149673" transform="translate(0)">
        <g id="Grupo_1148532" data-name="Grupo 1148532" transform="translate(0 0)">
          <g id="Grupo_1147065" data-name="Grupo 1147065">
            <g transform="matrix(1, 0, 0, 1, -9, -6)" filter="url(#Trazado_982547)">
              <g id="Trazado_982547-2" data-name="Trazado 982547" transform="translate(9 6)" fill="#f6f9fc">
                <path d="M 46.00000381469727 90.5 C 39.99188232421875 90.5 34.16427230834961 89.32364654541016 28.67905807495117 87.00359344482422 C 23.38020324707031 84.76236724853516 18.62103080749512 81.55355072021484 14.53375053405762 77.46625518798828 C 10.44645690917969 73.37897491455078 7.237643718719482 68.61980438232422 4.996417045593262 63.32094955444336 C 2.676363706588745 57.83573532104492 1.500003814697266 52.00812530517578 1.500003814697266 46.00000381469727 C 1.500003814697266 39.99188232421875 2.676363706588745 34.16427230834961 4.996417045593262 28.67905807495117 C 7.237643718719482 23.38020324707031 10.44645690917969 18.62104415893555 14.53375053405762 14.53375053405762 C 18.62103080749512 10.44647026062012 23.38020324707031 7.237643718719482 28.67905807495117 4.996417045593262 C 34.16427230834961 2.676363706588745 39.99188232421875 1.500003814697266 46.00000381469727 1.500003814697266 C 52.00812530517578 1.500003814697266 57.83573532104492 2.676363706588745 63.32094955444336 4.996417045593262 C 68.61980438232422 7.237643718719482 73.37897491455078 10.44647026062012 77.46625518798828 14.53375053405762 C 81.55355072021484 18.62104415893555 84.76236724853516 23.38020324707031 87.00359344482422 28.67905807495117 C 89.32364654541016 34.16427230834961 90.5 39.99188232421875 90.5 46.00000381469727 C 90.5 52.00812530517578 89.32364654541016 57.83573532104492 87.00359344482422 63.32094955444336 C 84.76236724853516 68.61980438232422 81.55355072021484 73.37897491455078 77.46625518798828 77.46625518798828 C 73.37897491455078 81.55355072021484 68.61980438232422 84.76236724853516 63.32094955444336 87.00359344482422 C 57.83573532104492 89.32364654541016 52.00812530517578 90.5 46.00000381469727 90.5 Z" stroke="none"/>
                <path d="M 46.00000381469727 3.000007629394531 C 40.19371795654297 3.000007629394531 34.56270217895508 4.136505126953125 29.26338958740234 6.377914428710938 C 24.14333343505859 8.54351806640625 19.54441833496094 11.64440155029297 15.59442138671875 15.59442138671875 C 11.64440155029297 19.54441833496094 8.54351806640625 24.14333343505859 6.377914428710938 29.26338958740234 C 4.136505126953125 34.56270217895508 3.000007629394531 40.19371795654297 3.000007629394531 46.00000381469727 C 3.000007629394531 51.80628967285156 4.136505126953125 57.43730545043945 6.377914428710938 62.73661804199219 C 8.54351806640625 67.85667419433594 11.64440155029297 72.45558929443359 15.59442138671875 76.40558624267578 C 19.54441833496094 80.35560607910156 24.14333343505859 83.45648956298828 29.26338958740234 85.62208557128906 C 34.56270217895508 87.86350250244141 40.19371795654297 89 46.00000381469727 89 C 51.80628967285156 89 57.43730545043945 87.86350250244141 62.73661804199219 85.62208557128906 C 67.85667419433594 83.45648956298828 72.45558929443359 80.35560607910156 76.40558624267578 76.40558624267578 C 80.35560607910156 72.45558929443359 83.45648956298828 67.85667419433594 85.62208557128906 62.73661804199219 C 87.86350250244141 57.43730545043945 89 51.80628967285156 89 46.00000381469727 C 89 40.19371795654297 87.86350250244141 34.56270217895508 85.62208557128906 29.26338958740234 C 83.45648956298828 24.14333343505859 80.35560607910156 19.54441833496094 76.40558624267578 15.59442138671875 C 72.45558929443359 11.64440155029297 67.85667419433594 8.54351806640625 62.73661804199219 6.377914428710938 C 57.43730545043945 4.136505126953125 51.80628967285156 3.000007629394531 46.00000381469727 3.000007629394531 M 46.00000381469727 7.62939453125e-06 C 71.40510559082031 7.62939453125e-06 92 20.59490203857422 92 46.00000381469727 C 92 71.40510559082031 71.40510559082031 92 46.00000381469727 92 C 20.59490203857422 92 7.62939453125e-06 71.40510559082031 7.62939453125e-06 46.00000381469727 C 7.62939453125e-06 20.59490203857422 20.59490203857422 7.62939453125e-06 46.00000381469727 7.62939453125e-06 Z" stroke="none" fill="#a530fe"/>
              </g>
            </g>
          </g>
        </g>
      </g>
    </g>
    <g id="knowledge_11532597" transform="translate(1159.815 2310.365)">
      <g id="Grupo_1150381" data-name="Grupo 1150381" transform="translate(37.601 15.014)">
        <g id="Grupo_1150377" data-name="Grupo 1150377" transform="translate(0 8.941)">
          <g id="Grupo_1150376" data-name="Grupo 1150376">
            <path id="Trazado_986249" data-name="Trazado 986249" d="M72.883,204.4v.835a1.829,1.829,0,0,1-1.824,1.824H67.511a1.829,1.829,0,0,1-1.824-1.824V204.4h-20a1.027,1.027,0,0,1-1.025-1.025V170.026A1.027,1.027,0,0,1,45.687,169H92.845a1.027,1.027,0,0,1,1.025,1.025v33.348a1.027,1.027,0,0,1-1.025,1.025Z" transform="translate(-44.662 -166.121)" fill="#8d9ca8" fill-rule="evenodd"/>
            <path id="Trazado_986250" data-name="Trazado 986250" d="M72.047,169h42.832v30.346a2.463,2.463,0,0,1-2.434,2.46c-5.633.06-12.78.632-17.819,3.335a2.433,2.433,0,0,1-2.326,0c-5.038-2.7-12.186-3.275-17.819-3.335a2.462,2.462,0,0,1-2.434-2.46V169Z" transform="translate(-68.859 -166.121)" fill="#8192a5" fill-rule="evenodd"/>
            <g id="Grupo_1150375" data-name="Grupo 1150375" transform="translate(4.623)">
              <path id="Trazado_986251" data-name="Trazado 986251" d="M85.407,144.263c9.306.063,11.927,1,18.948,2.88,7.022-1.881,9.643-2.817,18.948-2.88a1.025,1.025,0,0,1,1.032,1.025v32.2a1.027,1.027,0,0,1-1.014,1.025c-6.815.073-13.63.9-18.482,3.505a1,1,0,0,1-.969,0c-4.852-2.6-11.667-3.433-18.482-3.505a1.027,1.027,0,0,1-1.014-1.025v-32.2a1.025,1.025,0,0,1,1.032-1.025Z" transform="translate(-84.375 -144.263)" fill="#d1d1d6" fill-rule="evenodd"/>
              <path id="Trazado_986252" data-name="Trazado 986252" d="M124.336,412.054v2.05a1.027,1.027,0,0,1-1.014,1.025c-6.815.073-13.63.9-18.482,3.505a1,1,0,0,1-.969,0c-4.852-2.6-11.667-3.433-18.482-3.505a1.027,1.027,0,0,1-1.014-1.025v-2.05a1.027,1.027,0,0,0,1.014,1.025c6.815.073,13.63.9,18.482,3.505a1,1,0,0,0,.969,0c4.852-2.6,11.667-3.433,18.482-3.505A1.026,1.026,0,0,0,124.336,412.054Z" transform="translate(-84.374 -380.878)" fill="#b1b1b5" fill-rule="evenodd"/>
              <path id="Trazado_986253" data-name="Trazado 986253" d="M256.006,147.143c7.022-1.881,9.642-2.817,18.948-2.88a1.025,1.025,0,0,1,1.032,1.025v32.2a1.027,1.027,0,0,1-1.014,1.025c-6.815.073-13.63.9-18.482,3.505a1.02,1.02,0,0,1-.485.126Z" transform="translate(-236.025 -144.263)" fill="#eceff1" fill-rule="evenodd"/>
              <path id="Trazado_986254" data-name="Trazado 986254" d="M275.986,412.054v2.05a1.027,1.027,0,0,1-1.014,1.025c-6.815.073-13.63.9-18.482,3.505a1.02,1.02,0,0,1-.485.125v-2.05a1.02,1.02,0,0,0,.485-.125c4.852-2.6,11.667-3.433,18.482-3.505A1.026,1.026,0,0,0,275.986,412.054Z" transform="translate(-236.024 -380.878)" fill="#d1d1d6" fill-rule="evenodd"/>
            </g>
          </g>
        </g>
        <path id="Trazado_986255" data-name="Trazado 986255" d="M264.352,148.55a2.52,2.52,0,0,0,4.617.371.931.931,0,0,1,1.259-.386l.026.015a.931.931,0,0,1,.359,1.244,4.339,4.339,0,0,1-.287.466h4.262a2.755,2.755,0,0,0,2.752-2.752V147.5a2.5,2.5,0,0,0-.543-1.561q-.032-.041-.066-.08-.311.022-.611.046l-.021.044a4.421,4.421,0,0,1-1.138,1.458.93.93,0,0,1-1.367-1.234,69.236,69.236,0,0,0-9.315,2.121A2.5,2.5,0,0,0,264.352,148.55Z" transform="translate(-238.712 -136.729)" fill="#7789a4" stroke="#332c2b" stroke-miterlimit="22.926" stroke-width="0.567" fill-rule="evenodd"/>
        <g id="Grupo_1150379" data-name="Grupo 1150379" transform="translate(12.817 0.759)">
          <g id="Grupo_1150378" data-name="Grupo 1150378">
            <path id="Trazado_986256" data-name="Trazado 986256" d="M229.587,368.3h5.056v2.9a1.921,1.921,0,0,1-1.915,1.915h-2.486a1.921,1.921,0,0,1-1.915-1.915v-2.9Z" transform="translate(-219.761 -334.034)" fill="#a79ba7" fill-rule="evenodd"/>
            <path id="Trazado_986257" data-name="Trazado 986257" d="M221.74,336.232l-.042,2.806a1.931,1.931,0,0,1-1.915,1.915h-6.414a1.911,1.911,0,0,1-1.915-1.915l.042-2.807C214.84,336.337,218.373,336.232,221.74,336.232Z" transform="translate(-204.852 -305.7)" fill="#b1b1b5" fill-rule="evenodd"/>
            <path id="Trazado_986258" data-name="Trazado 986258" d="M159.507,101.569c-.567-9.649-4.749-9.258-4.749-15.8a11.787,11.787,0,0,1,23.574,0c0,6.546-4.182,6.155-4.749,15.8-.253,1.906-1.342,2.336-1.972,2.336C162.231,103.9,160.57,104.831,159.507,101.569Z" transform="translate(-154.758 -73.978)" fill="#ffe177" fill-rule="evenodd"/>
            <path id="Trazado_986259" data-name="Trazado 986259" d="M159.507,101.569c-.567-9.649-4.749-9.258-4.749-15.8a11.787,11.787,0,0,1,11.787-11.787c.22,0,.438.007.655.018a11.787,11.787,0,0,0-11.132,11.768c0,6.546,4.182,6.155,4.749,15.8.631,1.937,1.473,2.4,4.015,2.451C161.246,104.073,160.235,103.805,159.507,101.569Z" transform="translate(-154.758 -73.978)" fill="#ffd064" fill-rule="evenodd"/>
            <path id="Trazado_986260" data-name="Trazado 986260" d="M214.676,340.953h-1.31a1.911,1.911,0,0,1-1.915-1.915l.042-2.807q.65.021,1.309.031l-.042,2.775A1.911,1.911,0,0,0,214.676,340.953Z" transform="translate(-204.851 -305.7)" fill="#a79ba7" fill-rule="evenodd"/>
            <path id="Trazado_986261" data-name="Trazado 986261" d="M209.625,310.978v1.916a1.921,1.921,0,0,1-1.915,1.915H197.464a1.921,1.921,0,0,1-1.915-1.915v-1.916Z" transform="translate(-190.8 -283.387)" fill="#d1d1d6" fill-rule="evenodd"/>
            <path id="Trazado_986262" data-name="Trazado 986262" d="M198.774,314.81h-1.31a1.921,1.921,0,0,1-1.915-1.915v-1.916h1.31v1.916A1.921,1.921,0,0,0,198.774,314.81Z" transform="translate(-190.8 -283.388)" fill="#b1b1b5" fill-rule="evenodd"/>
          </g>
        </g>
        <g id="Grupo_1150380" data-name="Grupo 1150380" transform="translate(23.644)">
          <path id="Trazado_986263" data-name="Trazado 986263" d="M270.949,84.464a3.269,3.269,0,0,1,.548.506q.043.05.084.1a3.2,3.2,0,0,1,.695,1.995v.012a3.43,3.43,0,0,1-.258,1.308,3.463,3.463,0,0,1-3.192,2.142h-5.611l.778-1.1a3.622,3.622,0,0,0,.241-.39.232.232,0,0,0-.089-.31l-.007,0a.232.232,0,0,0-.225,0,.228.228,0,0,0-.089.093,3.22,3.22,0,0,1-6.065-1.511V80.684A3.2,3.2,0,0,1,258,79.456a3.222,3.222,0,1,1,5.4,3.355.232.232,0,1,0,.348.307,3.707,3.707,0,0,0,.878-1.889l.119-.79.767.224a.224.224,0,0,0,.117,0,3.292,3.292,0,0,1,.764-.089,3.23,3.23,0,0,1,3.221,3.106v.049a3.194,3.194,0,0,1-.32,1.283,3.25,3.25,0,0,1-.838,1.071.231.231,0,1,0,.3.355,3.722,3.722,0,0,0,.958-1.228l.017-.036a3.636,3.636,0,0,0,.151-.372l.307-.9ZM269.7,96.307a3.723,3.723,0,0,0-.955-1.221.231.231,0,0,0-.3.355,3.274,3.274,0,0,1,.314.3,3.23,3.23,0,0,1,.524.77,3.193,3.193,0,0,1,.32,1.283v.049q0,.12-.017.24a3.232,3.232,0,0,1-3.2,2.865,3.291,3.291,0,0,1-.765-.089.225.225,0,0,0-.117,0l-.767.224-.119-.79a3.7,3.7,0,0,0-.878-1.889.232.232,0,0,0-.353.3l0,.005a3.221,3.221,0,1,1-5.64,2.126V94.215a3.22,3.22,0,0,1,3.22-3.22,3.257,3.257,0,0,1,.888.123,3.184,3.184,0,0,1,.772.334,3.233,3.233,0,0,1,1.185,1.253.232.232,0,0,0,.315.1.232.232,0,0,0,.1-.314,3.612,3.612,0,0,0-.241-.39l-.778-1.1h5.611a3.431,3.431,0,0,1,1.887.565,3.483,3.483,0,0,1,.55.448,3.442,3.442,0,0,1,1.013,2.438v.012a3.2,3.2,0,0,1-.624,1.9c-.023.031-.047.063-.071.093a3.271,3.271,0,0,1-.632.608l-.766.56-.307-.9a3.62,3.62,0,0,0-.168-.408Z" transform="translate(-256.593 -76.3)" fill="#fe646f" fill-rule="evenodd"/>
          <path id="Trazado_986264" data-name="Trazado 986264" d="M256.519,93.148a.931.931,0,0,1-.132-.043,4.386,4.386,0,0,1-8.629-1.1V85.377a4.37,4.37,0,0,1,1.284-3.1,4.429,4.429,0,0,1,.4-.353,4.428,4.428,0,0,1-.4-.353,4.371,4.371,0,0,1-1.284-3.1V71.846a4.35,4.35,0,0,1,.335-1.673,4.384,4.384,0,0,1,8.294.57.948.948,0,0,1,.132-.043,4.389,4.389,0,0,1,5.345,3.466,4.416,4.416,0,0,1,1.79,1.344,4.362,4.362,0,0,1,.951,2.717v.012a4.6,4.6,0,0,1-1.354,3.261,4.658,4.658,0,0,1-.485.422,4.658,4.658,0,0,1,.485.422,4.6,4.6,0,0,1,1.354,3.261v.012a4.362,4.362,0,0,1-.951,2.717,4.415,4.415,0,0,1-1.79,1.344,4.36,4.36,0,0,1-5.345,3.466Zm-4.377-12.155a2.5,2.5,0,0,0,2.228-1.339.931.931,0,1,1,1.644.873,4.338,4.338,0,0,1-.287.466h4.262a2.759,2.759,0,0,0,2.752-2.752v-.012a2.5,2.5,0,0,0-.543-1.561,2.57,2.57,0,0,0-.5-.478,4.325,4.325,0,0,1-.2.487,4.422,4.422,0,0,1-1.138,1.458.93.93,0,0,1-1.193-1.426,2.55,2.55,0,0,0,.658-.84,2.452,2.452,0,0,0-2.273-3.434,2.55,2.55,0,0,0-.3.017,2.522,2.522,0,0,0-.3.052.924.924,0,0,1-.477-.011,4.405,4.405,0,0,1-1.044,2.247.931.931,0,0,1-1.4-1.23,2.523,2.523,0,1,0-4.417-1.665v6.624a2.521,2.521,0,0,0,2.522,2.522Zm7.028,6.146a.93.93,0,1,1,1.193-1.426,4.422,4.422,0,0,1,1.138,1.458,4.32,4.32,0,0,1,.2.487,2.571,2.571,0,0,0,.5-.478,2.5,2.5,0,0,0,.543-1.561v-.012a2.759,2.759,0,0,0-2.752-2.752h-4.262a4.329,4.329,0,0,1,.287.466.931.931,0,0,1-1.644.873,2.522,2.522,0,0,0-4.75,1.183V92a2.494,2.494,0,0,0,.19.96,2.543,2.543,0,0,0,.552.82,2.52,2.52,0,0,0,3.675-3.445.931.931,0,1,1,1.4-1.23,4.406,4.406,0,0,1,1.044,2.247.924.924,0,0,1,.477-.011,2.533,2.533,0,0,0,3.123-2.362,2.493,2.493,0,0,0-.251-1A2.555,2.555,0,0,0,259.17,87.139Z" transform="translate(-247.758 -67.462)" fill="#fd4755" fill-rule="evenodd"/>
        </g>
      </g>
      <path id="Trazado_986265" data-name="Trazado 986265" d="M76.8,21.143a.931.931,0,0,1,.341-1.272l2.4-1.388a.931.931,0,0,1,.931,1.613l-2.4,1.388a.931.931,0,0,1-1.272-.341ZM62.418,8.1h-.427a.932.932,0,0,0-.718.907v2.776a.931.931,0,1,0,1.862,0V9.011A.931.931,0,0,0,62.418,8.1Zm7.871,5.6,1.388-2.4a.931.931,0,0,1,1.613.931l-1.389,2.4a.931.931,0,1,1-1.612-.932ZM43.6,18.824a.931.931,0,0,1,1.272-.341l2.406,1.388a.931.931,0,1,1-.932,1.613l-2.4-1.388A.932.932,0,0,1,43.6,18.824Zm7.525-6.593a.931.931,0,1,1,1.613-.931l1.389,2.4a.932.932,0,0,1-1.614.932ZM85.876,61.3H65.923c4.051-1.456,9.415-2.169,16.261-2.169a.931.931,0,0,0,.931-.931V27.769h2.76ZM64.89,63.068A.893.893,0,0,1,64,63.96H60.45a.893.893,0,0,1-.893-.892v-.835a.926.926,0,0,0-.228-.61,19.075,19.075,0,0,1,2.409,1.164.934.934,0,0,0,.932,0,19.312,19.312,0,0,1,2.47-1.189.928.928,0,0,0-.251.635ZM38.533,61.3V27.769h2.76V58.2a.932.932,0,0,0,.931.931c6.848,0,12.211.713,16.261,2.169Zm4.624-36.413V57.274c7.844.076,13.8,1.115,18.117,3.168V55.787h-.312a2.829,2.829,0,0,1-1.291-.311.928.928,0,0,1-.933.186,44,44,0,0,0-13.387-2.18.931.931,0,1,1,.064-1.861,48.086,48.086,0,0,1,12.76,1.891,2.8,2.8,0,0,1-.058-.571V51.816a2.851,2.851,0,0,1-1.963-2.67,48.159,48.159,0,0,0-10.8-1.368.931.931,0,0,1,.061-1.861,54.828,54.828,0,0,1,9.326.993,2.882,2.882,0,0,1-.5-1.629V43.363A.924.924,0,0,1,54.313,43a51.723,51.723,0,0,0-8.961-.923.931.931,0,0,1,.058-1.862A55.331,55.331,0,0,1,54,41.038a16.4,16.4,0,0,0-1.077-4.026,55.469,55.469,0,0,0-7.566-.644.931.931,0,0,1,.054-1.862,62.068,62.068,0,0,1,6.488.47c-.119-.206-.237-.408-.355-.61A14.6,14.6,0,0,1,49.918,30.9c-1.586-.143-3.123-.2-4.562-.239a.931.931,0,1,1,.051-1.862c1.311.036,2.7.087,4.15.2a14.193,14.193,0,0,1-.071-1.443,12.737,12.737,0,0,1,.231-2.409c-1.84-.161-3.968-.246-6.56-.262ZM61.273,42.432,61.244,19.4a4.339,4.339,0,0,1,.932-2.695A10.868,10.868,0,0,0,51.349,27.559a10.009,10.009,0,0,0,1.8,5.866A18.506,18.506,0,0,1,56,42.115a.934.934,0,0,1-.023.316ZM65.63,16.876A2.532,2.532,0,0,0,63.107,19.4v6.625A2.523,2.523,0,0,0,67.858,27.2a.931.931,0,0,1,1.644.875,4.281,4.281,0,0,1-.288.464h4.263a2.755,2.755,0,0,0,2.752-2.752V25.78a2.541,2.541,0,0,0-1.042-2.033,4.4,4.4,0,0,1-1.336,1.941.931.931,0,1,1-1.2-1.428,2.4,2.4,0,0,0-1.614-4.273,2.481,2.481,0,0,0-.6.072.932.932,0,0,1-.482-.011,4.368,4.368,0,0,1-1.042,2.245.931.931,0,0,1-1.4-1.23,2.522,2.522,0,0,0-1.894-4.187ZM59.978,52.94v-.984h4.454v.984a.985.985,0,0,1-.984.984H60.961a.985.985,0,0,1-.984-.984Zm-1.964-4.786v.955a.985.985,0,0,0,.984.984h6.415a.985.985,0,0,0,.983-.984v-.955Zm10.3-3.86H56.1v.984a1.012,1.012,0,0,0,.984,1.013H67.327a1.013,1.013,0,0,0,.985-1.013Zm-.454-12.548a2.523,2.523,0,0,0-4.722.8v7.365a2.521,2.521,0,1,0,4.388-2.025.931.931,0,1,1,1.4-1.23A4.364,4.364,0,0,1,69.964,38.9a.92.92,0,0,1,.482-.011,2.5,2.5,0,0,0,.6.072,2.4,2.4,0,0,0,1.614-4.273.931.931,0,1,1,1.2-1.428A4.4,4.4,0,0,1,75.187,35.2a2.542,2.542,0,0,0,1.042-2.034v-.012a2.754,2.754,0,0,0-1.437-2.417l-.024-.013a2.734,2.734,0,0,0-1.291-.322H69.214a4.258,4.258,0,0,1,.288.464.931.931,0,1,1-1.644.875Zm13.395-6.858c-1.18.007-2.253.029-3.244.064a4.362,4.362,0,0,1,.084.827v.013a4.593,4.593,0,0,1-1.185,3.083c.627-.029,1.313-.053,2.095-.074a.931.931,0,0,1,.051,1.862c-.608.016-1.156.034-1.662.055a4.587,4.587,0,0,1,.7,2.441v.012a4.3,4.3,0,0,1-.229,1.374c.362-.015.739-.027,1.137-.039a.931.931,0,1,1,.054,1.862c-.92.027-1.735.06-2.479.1a4.386,4.386,0,0,1-1.222.762A4.382,4.382,0,0,1,70,40.7a.932.932,0,0,1-.131-.043,4.058,4.058,0,0,1-.171.518,53.623,53.623,0,0,1,9.3-.965.931.931,0,1,1,.058,1.862,51.145,51.145,0,0,0-8.96.922.932.932,0,0,1,.069.253h.008v2.031a2.88,2.88,0,0,1-.5,1.629A54.836,54.836,0,0,1,79,45.916a.931.931,0,1,1,.061,1.861,48.133,48.133,0,0,0-10.8,1.368,2.853,2.853,0,0,1-1.964,2.67v1.125a2.918,2.918,0,0,1-.056.571A48.062,48.062,0,0,1,79,51.62a.931.931,0,1,1,.064,1.861,44.016,44.016,0,0,0-13.388,2.18.928.928,0,0,1-.933-.186,2.827,2.827,0,0,1-1.291.311h-.312v4.655c4.317-2.053,10.273-3.093,18.117-3.168Zm5.554,1.018H83.115V23.955a.931.931,0,0,0-.931-.932c-1.9,0-3.539.033-5.006.1a4.427,4.427,0,0,0-1.824-1.4A4.382,4.382,0,0,0,70,18.25a.931.931,0,0,0-.13.043,4.391,4.391,0,0,0-4.242-3.279,4.344,4.344,0,0,0-2.5.783c0-.008,0-.016,0-.025a.931.931,0,0,0-.931-.931,12.738,12.738,0,0,0-11.992,8.484c-2.186-.205-4.75-.3-7.988-.3a.932.932,0,0,0-.931.932v1.952H37.6a.932.932,0,0,0-.931.931V62.233a.932.932,0,0,0,.931.931H57.7a2.758,2.758,0,0,0,2.753,2.659H64a2.759,2.759,0,0,0,2.753-2.659H86.807a.931.931,0,0,0,.931-.931V26.838a.931.931,0,0,0-.931-.931Z" fill="#242222" fill-rule="evenodd"/>
    </g>
  </g>
</svg>
