<svg xmlns="http://www.w3.org/2000/svg" xmlns:xlink="http://www.w3.org/1999/xlink" width="1240" height="567" viewBox="0 0 1240 567">
  <defs>
    <clipPath id="clip-path">
      <rect id="Rectángulo_408496" data-name="Rectángulo 408496" width="178.119" height="244.931" fill="none"/>
    </clipPath>
    <clipPath id="clip-path-2">
      <rect id="Rectángulo_408497" data-name="Rectángulo 408497" width="87.285" height="89.453" fill="none"/>
    </clipPath>
    <clipPath id="clip-path-3">
      <rect id="Rectángulo_408498" data-name="Rectángulo 408498" width="38.222" height="46.741" fill="none"/>
    </clipPath>
    <clipPath id="clip-path-4">
      <rect id="Rectángulo_408499" data-name="Rectángulo 408499" width="63.842" height="62.681" fill="none"/>
    </clipPath>
    <clipPath id="clip-path-5">
      <rect id="Rectángulo_408500" data-name="Rectángulo 408500" width="32.517" height="34.98" fill="none"/>
    </clipPath>
    <clipPath id="clip-path-6">
      <rect id="Rectángulo_408501" data-name="Rectángulo 408501" width="39.018" height="47.726" fill="none"/>
    </clipPath>
    <clipPath id="clip-path-7">
      <rect id="Rectángulo_408502" data-name="Rectángulo 408502" width="63.713" height="62.681" fill="none"/>
    </clipPath>
    <clipPath id="clip-path-8">
      <rect id="Rectángulo_408503" data-name="Rectángulo 408503" width="31.738" height="34.138" fill="none"/>
    </clipPath>
    <clipPath id="clip-path-9">
      <rect id="Rectángulo_408504" data-name="Rectángulo 408504" width="71.852" height="91.257" fill="none"/>
    </clipPath>
    <clipPath id="clip-path-10">
      <rect id="Rectángulo_408505" data-name="Rectángulo 408505" width="13.93" height="51.771" fill="none"/>
    </clipPath>
  </defs>
  <g id="Grupo_1150701" data-name="Grupo 1150701" transform="translate(-180 -4286)">
    <path id="Trazado_986962" data-name="Trazado 986962" d="M8,0H1232a8,8,0,0,1,8,8V559a8,8,0,0,1-8,8H8a8,8,0,0,1-8-8V8A8,8,0,0,1,8,0Z" transform="translate(180 4286)" fill="#edf3fc"/>
    <path id="Trazado_986882" data-name="Trazado 986882" d="M46.865,172.235a32.226,32.226,0,0,0-8.928.5v19.207c0,5.57,8.928,5.324,8.928,5.324h64.654V158.379H46.865Z" transform="translate(598.685 4515.831)" fill="#842dad"/>
    <path id="Trazado_986883" data-name="Trazado 986883" d="M53.357,165.834a66.594,66.594,0,0,1,6.493,5.681c1.621,1.893,1.621,2.975,1.621,6.763s-23.534-.542-23.534,11.9V160.424Z" transform="translate(598.686 4517.592)" fill="#28000b"/>
    <path id="Trazado_986884" data-name="Trazado 986884" d="M32.92,141.738,1.438,168.1a4.013,4.013,0,0,0,0,6.156l31.483,26.36a4.016,4.016,0,0,0,6.594-3.079v-7.092H85.771c8.386,0,8.386,4.749,8.386,4.749v-36.52c0-7.033-8.386-6.763-8.386-6.763H39.514v-7.091a4.016,4.016,0,0,0-6.594-3.079" transform="translate(566 4500.68)" fill="#4f0a66"/>
    <path id="Trazado_986885" data-name="Trazado 986885" d="M69.676,79.678A32.248,32.248,0,0,0,63.01,73.72L49.428,87.3C45.491,91.24,51.975,97.38,51.975,97.38L97.693,143.1l27.5-27.5L79.474,69.881Z" transform="translate(607.492 4439.585)" fill="#e05878"/>
    <path id="Trazado_986886" data-name="Trazado 986886" d="M76.96,82.665a66.434,66.434,0,0,1,.573,8.608c-.192,2.487-.957,3.252-3.634,5.929S57.641,80.178,48.841,88.977L69.882,67.936Z" transform="translate(608.079 4437.909)" fill="#af0b32"/>
    <path id="Trazado_986887" data-name="Trazado 986887" d="M80.3,41.776,39.4,38.153a4.015,4.015,0,0,0-4.354,4.354l3.624,40.9A4.014,4.014,0,0,0,45.5,85.891l5.015-5.013,32.709,32.709c5.929,5.929,2.573,9.287,2.573,9.287l25.823-25.823c4.974-4.974-1.149-10.711-1.149-10.711L77.767,53.629l5.015-5.013A4.015,4.015,0,0,0,80.3,41.776" transform="translate(596.177 4412.236)" fill="#e21a40"/>
    <path id="Trazado_986888" data-name="Trazado 986888" d="M154.66,46.872v64.652H115.77V41.771a3.985,3.985,0,0,1,1.78-3.355,4.036,4.036,0,0,1,2.018-.477h20.725a31.956,31.956,0,0,1,.508,8.932Z" transform="translate(665.742 4412.066)" fill="#ffb64d"/>
    <path id="Trazado_986889" data-name="Trazado 986889" d="M125.309,55.644c-.635,7.009-3.909,5.832-5.292,5.832s-1.716-1.065-1.716-2.733V43.168c0-3.4-.318-5.134-1.573-4.753a4.036,4.036,0,0,1,2.018-.477h5.387l.017.017s1.8,10.7,1.16,17.688" transform="translate(666.566 4412.065)" fill="#a03c04"/>
    <path id="Trazado_986890" data-name="Trazado 986890" d="M173.685,32.921,147.327,1.439a4.015,4.015,0,0,0-6.158,0L114.81,32.921a4.016,4.016,0,0,0,3.079,6.594h7.092V85.772c0,9.338-2.5,8.386-2.5,8.386h34.271c7.033,0,6.763-8.386,6.763-8.386V39.515h7.091a4.016,4.016,0,0,0,3.079-6.594" transform="translate(664.101 4379.379)" fill="#ffa20a"/>
    <path id="Trazado_986891" data-name="Trazado 986891" d="M235.8,85.554a32.269,32.269,0,0,1,6.666-5.957l13.582,13.582c3.937,3.939-2.547,10.078-2.547,10.078l-45.718,45.716-27.5-27.5L226,75.759Z" transform="translate(721.324 4444.649)" fill="#86eaef"/>
    <path id="Trazado_986892" data-name="Trazado 986892" d="M205.365,87.75a66.432,66.432,0,0,0-.573,8.608c.192,2.487.957,3.252,3.634,5.929s16.259-17.024,25.058-8.224L212.442,73.021Z" transform="translate(742.411 4442.29)" fill="#2193ad"/>
    <path id="Trazado_986893" data-name="Trazado 986893" d="M225.087,46.862l40.9-3.623a4.015,4.015,0,0,1,4.354,4.354l-3.624,40.9a4.015,4.015,0,0,1-6.839,2.485l-5.013-5.013-32.709,32.709c-5.931,5.929-2.573,9.287-2.573,9.287s-20.849-20.851-25.823-25.823,1.147-10.711,1.147-10.711l32.711-32.711L222.6,53.7a4.015,4.015,0,0,1,2.485-6.839" transform="translate(731.254 4416.618)" fill="#3dd0e0"/>
    <path id="Trazado_986894" data-name="Trazado 986894" d="M238.662,173.5a32.226,32.226,0,0,1,8.928.5v19.207c0,5.57-8.928,5.324-8.928,5.324H174.008v-38.89h64.654Z" transform="translate(715.917 4516.923)" fill="#31c979"/>
    <path id="Trazado_986895" data-name="Trazado 986895" d="M209.007,165.982a66.325,66.325,0,0,0-6.493,5.681c-1.621,1.893-1.621,2.975-1.621,6.763s23.534-.542,23.534,11.9V160.572Z" transform="translate(739.079 4517.72)" fill="#005604"/>
    <path id="Trazado_986896" data-name="Trazado 986896" d="M262.13,141.886l31.481,26.358a4.015,4.015,0,0,1,0,6.158L262.13,200.76a4.016,4.016,0,0,1-6.6-3.077V190.59H209.277c-8.386,0-8.386,4.749-8.386,4.749v-36.52c0-7.033,8.386-6.763,8.386-6.763h46.258v-7.091a4.017,4.017,0,0,1,6.6-3.079" transform="translate(739.078 4500.807)" fill="#089e3a"/>
    <path id="Trazado_986897" data-name="Trazado 986897" d="M192.618,70.8c-50.21,0-135.662,23.657-135.662,108.143s55.037,108.627,66.625,114.9,14.483,33.311,14.483,33.311H247.173s2.9-27.035,14.483-33.311,66.625-30.416,66.625-114.9S248.621,70.8,192.618,70.8" transform="translate(615.07 4440.379)" fill="#ffbc00"/>
    <g id="Grupo_1150651" data-name="Grupo 1150651" transform="translate(757.814 4515.233)" opacity="0.27" style="mix-blend-mode: multiply;isolation: isolate">
      <g id="Grupo_1150650" data-name="Grupo 1150650">
        <g id="Grupo_1150649" data-name="Grupo 1150649" clip-path="url(#clip-path)">
          <path id="Trazado_986898" data-name="Trazado 986898" d="M178.031,73.1a4.735,4.735,0,0,0-3.831,8.424c18.085,13.39,42.484,38.588,51.362,80.86C240.348,232.8,175.568,275.4,170.638,289.127s-19.489,17.957-41.079,17.957-26.616.264-26.518,6.337,16.421,4.226,26.518,4.226h65.724c8.8,0,11.692-13.379,15.7-23.238s63.512-21.123,69.5-91.186-29.128-100.459-58.8-115.478c-14.163-7.171-30.475-11.782-43.659-14.645" transform="translate(-103.04 -72.978)" fill="#8e2500"/>
        </g>
      </g>
    </g>
    <path id="Trazado_986899" data-name="Trazado 986899" d="M177.681,144.324s3.247-57.349-15.419-61.407-26.782,8.115-27.052,17.312,10.821,16.231,10.821,16.231,1.351-4.868,5.14-6.491,4.328.549,3.247,3.25-3.412,7.569-1.841,11.357-.324,4.328-3.84,2.435-3.247-6.763-3.247-6.763A76.561,76.561,0,0,1,135.2,115.92a12.992,12.992,0,0,1-7.027-8.116s-10.479-5.14-17.549,2.435-4.905,15.419-4.905,15.419a59.563,59.563,0,0,0,4.905,4.87c4.565,4.328,4.834,8.656,4.834,8.656s8.656.812,14.878,5.14,9.74,8.116,8.386,10.279-5.049-2.7-13.615-5.951-16.5-.27-19.7-1.082-2.122-5.411,2.476-5.681c0,0-2.977-12.984-19.207-8.926s-15.147,25.429-8.656,31.38,8.928,8.656,15.961,8.115,9.2.27,10.01,1.623-.136,1.082-6.763,2.029-10.551,8.52-10.551,8.52.542-1.893-.406-2.7-2.839.948-2.839.948,3.516-12.309-8.116-13.256-12.173,12.039-7.98,17.854,9.2,4.734,9.2,4.734-.406,4.87,4.6,8.928,26.646-5.546,26.646-5.546S117.491,206,129.8,206.542s17.854-6.085,17.854-6.085a28.536,28.536,0,0,0,22.733.134c12.027-5.274,13.921-36.926,3.371-48.287s-17.042-8.386-20.019-10.549-1.757-5.951,5.681-5.276,18.26,7.845,18.26,7.845" transform="translate(623.679 4450.124)" fill="#e05878"/>
    <path id="Trazado_986900" data-name="Trazado 986900" d="M133.461,144.324s-3.247-57.349,15.419-61.407,26.782,8.115,27.052,17.312-10.821,16.231-10.821,16.231-1.352-4.868-5.14-6.491-4.328.549-3.247,3.25,3.412,7.569,1.841,11.357.324,4.328,3.84,2.435,3.247-6.763,3.247-6.763a76.563,76.563,0,0,0,10.285-4.328,12.992,12.992,0,0,0,7.027-8.116s10.479-5.14,17.549,2.435,4.905,15.419,4.905,15.419a59.568,59.568,0,0,1-4.905,4.87c-4.563,4.328-4.834,8.656-4.834,8.656s-8.656.812-14.877,5.14-9.74,8.116-8.386,10.279,5.049-2.7,13.615-5.951,16.5-.27,19.7-1.082,2.122-5.411-2.476-5.681c0,0,2.977-12.984,19.207-8.926s15.147,25.429,8.656,31.38-8.928,8.656-15.961,8.115-9.2.27-10.01,1.623.136,1.082,6.763,2.029,10.551,8.52,10.551,8.52-.542-1.893.406-2.7,2.841.948,2.841.948-3.518-12.309,8.114-13.256S246,181.655,241.8,187.471s-9.2,4.734-9.2,4.734.406,4.87-4.6,8.928-26.646-5.546-26.646-5.546S193.65,206,181.342,206.542s-17.854-6.085-17.854-6.085a28.536,28.536,0,0,1-22.733.134c-12.027-5.274-13.921-36.926-3.371-48.287s17.043-8.386,20.019-10.549,1.757-5.951-5.681-5.276-18.26,7.845-18.26,7.845" transform="translate(678.422 4450.124)" fill="#e05878"/>
    <path id="Trazado_986901" data-name="Trazado 986901" d="M208.526,224.269v.127a9.1,9.1,0,0,1-9.075,9.06H110.88a9.1,9.1,0,0,1-9.058-9.06v-.127a9.084,9.084,0,0,1,9.058-9.058h88.571a9.088,9.088,0,0,1,9.075,9.058" transform="translate(653.725 4564.794)" fill="#86eaef"/>
    <path id="Trazado_986902" data-name="Trazado 986902" d="M187.859,242.584v2.7a7.793,7.793,0,0,1-7.772,7.772h-62.9a7.793,7.793,0,0,1-7.772-7.772v-2.7a7.793,7.793,0,0,1,7.772-7.772h62.9a7.793,7.793,0,0,1,7.772,7.772" transform="translate(660.263 4581.681)" fill="#86eaef"/>
    <path id="Trazado_986903" data-name="Trazado 986903" d="M218.407,214.524a9.172,9.172,0,0,1-9.122,9.138H107.316a9.13,9.13,0,0,1,0-18.26h101.97a9.163,9.163,0,0,1,9.122,9.122" transform="translate(650.599 4556.343)" fill="#3dd0e0"/>
    <path id="Trazado_986904" data-name="Trazado 986904" d="M197.228,233.387v1.495a8.412,8.412,0,0,1-8.392,8.375h-74.49a8.4,8.4,0,0,1-8.375-8.375v-1.495a8.4,8.4,0,0,1,8.375-8.375h74.49a8.41,8.41,0,0,1,8.392,8.375" transform="translate(657.299 4573.238)" fill="#3dd0e0"/>
    <path id="Trazado_986905" data-name="Trazado 986905" d="M158.38,250.033v7.422a5.447,5.447,0,0,1-5.419,5.419H125.656a5.436,5.436,0,0,1-5.419-5.419v-7.422a5.436,5.436,0,0,1,5.419-5.419h27.305a5.447,5.447,0,0,1,5.419,5.419" transform="translate(669.59 4590.126)" fill="#3dd0e0"/>
    <path id="Trazado_986906" data-name="Trazado 986906" d="M144.094,217.64H87.028a15.1,15.1,0,0,1-15.06-15.06V149.1a15.1,15.1,0,0,1,15.06-15.06h57.066a15.105,15.105,0,0,1,15.06,15.06V202.58a15.105,15.105,0,0,1-15.06,15.06" transform="translate(628.004 4494.864)" fill="#181863"/>
    <path id="Trazado_986907" data-name="Trazado 986907" d="M143.206,150.947v40.1a11.334,11.334,0,0,1-11.3,11.3H89.123A11.311,11.311,0,0,1,79,196.019a10.969,10.969,0,0,1-1.177-4.974v-40.1a11.321,11.321,0,0,1,11.3-11.285h42.784a11.3,11.3,0,0,1,10.935,8.5,10.677,10.677,0,0,1,.365,2.781" transform="translate(633.048 4499.705)" fill="#529acc"/>
    <path id="Trazado_986908" data-name="Trazado 986908" d="M209.737,217.64H152.671a15.1,15.1,0,0,1-15.06-15.06V149.1a15.1,15.1,0,0,1,15.06-15.06h57.066A15.105,15.105,0,0,1,224.8,149.1V202.58a15.105,15.105,0,0,1-15.06,15.06" transform="translate(684.559 4494.864)" fill="#181863"/>
    <path id="Trazado_986909" data-name="Trazado 986909" d="M208.85,150.947v40.1a11.334,11.334,0,0,1-11.3,11.3H154.767a11.318,11.318,0,0,1-9.838-5.769,11.1,11.1,0,0,1-1.461-5.531v-40.1a11.321,11.321,0,0,1,11.3-11.285h42.784a11.323,11.323,0,0,1,11.093,9.187,10.193,10.193,0,0,1,.207,2.1" transform="translate(689.604 4499.705)" fill="#529acc"/>
    <path id="Trazado_986910" data-name="Trazado 986910" d="M117.286,168.485s3.978-7.191,19.583-7.191,23.56,6.426,23.56,6.426V150.585s-5.966-2.141-20.807-2.141-22.337,3.824-22.337,3.824Z" transform="translate(667.048 4507.271)" fill="#181863"/>
    <path id="Trazado_986911" data-name="Trazado 986911" d="M104.113,159.588a5.966,5.966,0,1,1-5.966-5.966,5.966,5.966,0,0,1,5.966,5.966" transform="translate(645.418 4511.732)" fill="#701050"/>
    <path id="Trazado_986912" data-name="Trazado 986912" d="M169.757,159.588a5.966,5.966,0,1,1-5.966-5.966,5.966,5.966,0,0,1,5.966,5.966" transform="translate(701.973 4511.732)" fill="#701050"/>
    <path id="Trazado_986913" data-name="Trazado 986913" d="M147.487,182.734a13.2,13.2,0,0,1-10.585,5.324c-6.056,0-10.41-2.75-12.651-6.374a10.985,10.985,0,0,1-1.541-7.93,3.9,3.9,0,0,1,.938-1.955c2.383-2.574,8.343-.525,13.7-.778,5.689-.27,9.52-.54,11.73,1.8a6.41,6.41,0,0,1,.715.936c1.08,1.78.253,5.691-2.3,8.98" transform="translate(671.552 4526.261)" fill="#3f032e"/>
    <path id="Trazado_986914" data-name="Trazado 986914" d="M148.552,172.816c-1.716.875-5.626,2.161-13.684,2.161-5.689,0-9.392-1.558-11.745-3.178,2.385-2.575,8.343-.525,13.7-.78,5.691-.27,9.52-.54,11.73,1.8" transform="translate(672.077 4526.262)" fill="#fff"/>
    <path id="Trazado_986915" data-name="Trazado 986915" d="M148.552,172.816c-1.716.875-5.626,2.161-13.684,2.161-5.689,0-9.392-1.558-11.745-3.178,2.385-2.575,8.343-.525,13.7-.78C142.513,170.75,146.342,170.48,148.552,172.816Z" transform="translate(672.077 4526.262)" fill="none" stroke="#000" stroke-miterlimit="10" stroke-width="0.342"/>
    <path id="Trazado_986916" data-name="Trazado 986916" d="M146.683,179.389a13.2,13.2,0,0,1-10.585,5.324c-6.056,0-10.41-2.75-12.651-6.374,1.876-1.748,5.436-3.973,11.443-3.973a16.464,16.464,0,0,1,11.793,5.022" transform="translate(672.356 4529.605)" fill="#701050"/>
    <g id="Grupo_1150654" data-name="Grupo 1150654" transform="translate(686.147 4525.917)" opacity="0.48">
      <g id="Grupo_1150653" data-name="Grupo 1150653">
        <g id="Grupo_1150652" data-name="Grupo 1150652" clip-path="url(#clip-path-2)">
          <path id="Trazado_986917" data-name="Trazado 986917" d="M140.083,79.63C123.3,85.18,84.214,102.514,69.02,132.441s11.916,38.024,27.054,35.207,11.2-26.2,21.829-41.9,20.419-26.406,28.869-32.391,6.365-18.046-6.689-13.731" transform="translate(-64.542 -78.718)" fill="#ffe094"/>
        </g>
      </g>
    </g>
    <g id="Grupo_1150657" data-name="Grupo 1150657" transform="translate(710.872 4639.369)" opacity="0.35">
      <g id="Grupo_1150656" data-name="Grupo 1150656">
        <g id="Grupo_1150655" data-name="Grupo 1150655" clip-path="url(#clip-path-3)">
          <path id="Trazado_986918" data-name="Trazado 986918" d="M116.045,139.663,77.823,186.4V161.2L95.48,139.663Z" transform="translate(-77.823 -139.663)" fill="#98d7f9"/>
        </g>
      </g>
    </g>
    <g id="Grupo_1150660" data-name="Grupo 1150660" transform="translate(712.048 4639.369)" opacity="0.35">
      <g id="Grupo_1150659" data-name="Grupo 1150659">
        <g id="Grupo_1150658" data-name="Grupo 1150658" clip-path="url(#clip-path-4)">
          <path id="Trazado_986919" data-name="Trazado 986919" d="M142.3,148.166,92,202.344H88.578a11.313,11.313,0,0,1-10.123-6.326L128.9,139.662h2.463a11.3,11.3,0,0,1,10.935,8.5" transform="translate(-78.455 -139.664)" fill="#98d7f9"/>
        </g>
      </g>
    </g>
    <g id="Grupo_1150663" data-name="Grupo 1150663" transform="translate(743.738 4667.069)" opacity="0.35">
      <g id="Grupo_1150662" data-name="Grupo 1150662">
        <g id="Grupo_1150661" data-name="Grupo 1150661" clip-path="url(#clip-path-5)">
          <path id="Trazado_986920" data-name="Trazado 986920" d="M128,154.544v17.022l-14.447,17.958H95.478Z" transform="translate(-95.479 -154.544)" fill="#98d7f9"/>
        </g>
      </g>
    </g>
    <g id="Grupo_1150666" data-name="Grupo 1150666" transform="translate(833.071 4639.369)" opacity="0.35">
      <g id="Grupo_1150665" data-name="Grupo 1150665">
        <g id="Grupo_1150664" data-name="Grupo 1150664" clip-path="url(#clip-path-6)">
          <path id="Trazado_986921" data-name="Trazado 986921" d="M182.484,139.663l-39.016,47.726V162.135L161.9,139.663Z" transform="translate(-143.466 -139.663)" fill="#98d7f9"/>
        </g>
      </g>
    </g>
    <g id="Grupo_1150669" data-name="Grupo 1150669" transform="translate(834.534 4639.369)" opacity="0.35">
      <g id="Grupo_1150668" data-name="Grupo 1150668">
        <g id="Grupo_1150667" data-name="Grupo 1150667" clip-path="url(#clip-path-7)">
          <path id="Trazado_986922" data-name="Trazado 986922" d="M207.967,148.849l-49.681,53.5h-4.2a11.318,11.318,0,0,1-9.838-5.769l50.938-56.913h1.685a11.323,11.323,0,0,1,11.093,9.187" transform="translate(-144.254 -139.664)" fill="#98d7f9"/>
        </g>
      </g>
    </g>
    <g id="Grupo_1150672" data-name="Grupo 1150672" transform="translate(866.717 4667.912)" opacity="0.35">
      <g id="Grupo_1150671" data-name="Grupo 1150671">
        <g id="Grupo_1150670" data-name="Grupo 1150670" clip-path="url(#clip-path-8)">
          <path id="Trazado_986923" data-name="Trazado 986923" d="M193.279,155V172.16l-13.668,16.974h-18.07Z" transform="translate(-161.541 -154.996)" fill="#98d7f9"/>
        </g>
      </g>
    </g>
    <g id="Grupo_1150675" data-name="Grupo 1150675" transform="translate(797.154 4761.743)" opacity="0.34">
      <g id="Grupo_1150674" data-name="Grupo 1150674">
        <g id="Grupo_1150673" data-name="Grupo 1150673" clip-path="url(#clip-path-9)">
          <path id="Trazado_986924" data-name="Trazado 986924" d="M186.9,223.663h-6.707a9.089,9.089,0,0,1,9.075,9.058v.128a9.1,9.1,0,0,1-9.075,9.058h-7.04a8.41,8.41,0,0,1,8.392,8.375v1.495a8.41,8.41,0,0,1-8.392,8.375H167.37a7.793,7.793,0,0,1,7.77,7.772v2.7a7.793,7.793,0,0,1-7.77,7.772h-17.8a5.447,5.447,0,0,1,5.419,5.419v7.422a5.446,5.446,0,0,1-5.419,5.419H127.382c-.175-.158-.27-.253-.27-.253s6.819-1.176,13.159-2.718c6.342-1.558,8.343-6.357,5.881-10.68-1.716-3.019-10.171-4.181-15.162-4.609-2.193-.192-3.718-.238-3.718-.238s9.742-1.033,17.64-2.115,10.981-4.641,8.343-10.68c-1.51-3.479-7.024-4.751-11.426-5.212a44.754,44.754,0,0,0-4.689-.255c3.369-.078,12.794-.491,17.849-2.733,6.2-2.749.9-10.68-1.415-13.3-.97-1.113-6.326-1.668-12.206-1.955-8.105-.382-17.2-.238-17.2-.238s34.042-2.448,34.042-9.138c0-5.467-12.746-8.09-17.372-8.868-1.031-.175-1.651-.255-1.651-.255s17.482-.666,17.482-10.346c0-4.736-4.434-6.977-6.151-7.66H186.9a9.131,9.131,0,0,1,0,18.262" transform="translate(-124.173 -205.401)" fill="#2193ad"/>
        </g>
      </g>
    </g>
    <g id="Grupo_1150678" data-name="Grupo 1150678" transform="translate(768.09 4762.596)" opacity="0.35">
      <g id="Grupo_1150677" data-name="Grupo 1150677">
        <g id="Grupo_1150676" data-name="Grupo 1150676" clip-path="url(#clip-path-10)">
          <path id="Trazado_986925" data-name="Trazado 986925" d="M116.95,209.288a22.51,22.51,0,0,0,0,13.159s-2.733,2.99-2.4,9.36,5.89,9.358,5.89,9.358-1.9,2.567-.635,7.964,3.492,6.35,2.381,7.461-3.492,3.293-6.666-6.067-.318-9.358-.318-9.358-5.276-5.687-6.447-11.084a8.019,8.019,0,0,1,3.273-8.254,13.3,13.3,0,0,1-3.273-8.746c.1-5.222,3.273-7.763,5.812-7.128s3.334.477,2.381,3.334" transform="translate(-108.56 -205.86)" fill="#d7f3ff"/>
        </g>
      </g>
    </g>
    <path id="Trazado_986979" data-name="Trazado 986979" d="M0,0H468.128V473.621H0Z" transform="translate(566 4379.379)" fill="none"/>
    <path id="Trazado_986963" data-name="Trazado 986963" d="M0,0H468.128V473.621H0Z" transform="translate(566 4379.379)" fill="none"/>
    <g id="Trazado_986964" data-name="Trazado 986964" transform="translate(423 4656.379)" fill="#fff">
      <path d="M 117 29.5 L 15 29.5 C 11.12691688537598 29.5 7.485650062561035 27.99173355102539 4.746950149536133 25.25304985046387 C 2.008266687393188 22.51435089111328 0.5 18.87308311462402 0.5 15 C 0.5 11.12691688537598 2.008266687393188 7.485650062561035 4.746950149536133 4.746950149536133 C 7.485650062561035 2.008266687393188 11.12691688537598 0.5 15 0.5 L 117 0.5 C 120.8730850219727 0.5 124.5143508911133 2.008266687393188 127.2530517578125 4.746950149536133 C 129.9917297363281 7.485650062561035 131.5 11.12691688537598 131.5 15 C 131.5 18.87308311462402 129.9917297363281 22.51435089111328 127.2530517578125 25.25304985046387 C 124.5143508911133 27.99173355102539 120.8730850219727 29.5 117 29.5 Z" stroke="none"/>
      <path d="M 15 1 C 11.26047515869141 1 7.744766235351562 2.456254959106445 5.100509643554688 5.100509643554688 C 2.456253051757812 7.74476432800293 1 11.26047325134277 1 15 C 1 18.73952865600586 2.456253051757812 22.25523567199707 5.100509643554688 24.89949035644531 C 7.744766235351562 27.54374504089355 11.26047515869141 29 15 29 L 117 29 C 120.7395248413086 29 124.2552337646484 27.54374504089355 126.8994903564453 24.89949035644531 C 129.5437469482422 22.25523567199707 131 18.73952865600586 131 15 C 131 11.26047325134277 129.5437469482422 7.74476432800293 126.8994903564453 5.100509643554688 C 124.2552337646484 2.456254959106445 120.7395248413086 1 117 1 L 15 1 M 15 0 L 117 0 C 125.2842712402344 0 132 6.715726852416992 132 15 C 132 23.28427314758301 125.2842712402344 30 117 30 L 15 30 C 6.715728759765625 30 0 23.28427314758301 0 15 C 0 6.715726852416992 6.715728759765625 0 15 0 Z" stroke="none" fill="#a530fe"/>
    </g>
    <g id="Trazado_986965" data-name="Trazado 986965" transform="translate(1067 4656.379)" fill="#fff">
      <path d="M 117 29.5 L 15 29.5 C 11.12691688537598 29.5 7.485650062561035 27.99173355102539 4.746950149536133 25.25304985046387 C 2.008266687393188 22.51435089111328 0.5 18.87308311462402 0.5 15 C 0.5 11.12691688537598 2.008266687393188 7.485650062561035 4.746950149536133 4.746950149536133 C 7.485650062561035 2.008266687393188 11.12691688537598 0.5 15 0.5 L 117 0.5 C 120.8730850219727 0.5 124.5143508911133 2.008266687393188 127.2530517578125 4.746950149536133 C 129.9917297363281 7.485650062561035 131.5 11.12691688537598 131.5 15 C 131.5 18.87308311462402 129.9917297363281 22.51435089111328 127.2530517578125 25.25304985046387 C 124.5143508911133 27.99173355102539 120.8730850219727 29.5 117 29.5 Z" stroke="none"/>
      <path d="M 15 1 C 11.26047515869141 1 7.744766235351562 2.456254959106445 5.100509643554688 5.100509643554688 C 2.456253051757812 7.74476432800293 1 11.26047325134277 1 15 C 1 18.73952865600586 2.456253051757812 22.25523567199707 5.100509643554688 24.89949035644531 C 7.744766235351562 27.54374504089355 11.26047515869141 29 15 29 L 117 29 C 120.7395248413086 29 124.2552337646484 27.54374504089355 126.8994903564453 24.89949035644531 C 129.5437469482422 22.25523567199707 131 18.73952865600586 131 15 C 131 11.26047325134277 129.5437469482422 7.74476432800293 126.8994903564453 5.100509643554688 C 124.2552337646484 2.456254959106445 120.7395248413086 1 117 1 L 15 1 M 15 0 L 117 0 C 125.2842712402344 0 132 6.715726852416992 132 15 C 132 23.28427314758301 125.2842712402344 30 117 30 L 15 30 C 6.715728759765625 30 0 23.28427314758301 0 15 C 0 6.715726852416992 6.715728759765625 0 15 0 Z" stroke="none" fill="#a530fe"/>
    </g>
    <g id="Trazado_986966" data-name="Trazado 986966" transform="translate(512 4446.379)" fill="#fff">
      <path d="M 94 29.5 L 15 29.5 C 11.12691402435303 29.5 7.485642910003662 27.99174308776855 4.746957302093506 25.25304222106934 C 2.008257150650024 22.51435661315918 0.5 18.87308502197266 0.5 15 C 0.5 11.12691402435303 2.008257150650024 7.485642910003662 4.746957302093506 4.746957302093506 C 7.485642910003662 2.008257150650024 11.12691402435303 0.5 15 0.5 L 94 0.5 C 97.87308502197266 0.5 101.5143585205078 2.008257150650024 104.253044128418 4.746957302093506 C 106.9917449951172 7.485642910003662 108.5 11.12691402435303 108.5 15 C 108.5 18.87308502197266 106.9917449951172 22.51435661315918 104.253044128418 25.25304222106934 C 101.5143585205078 27.99174308776855 97.87308502197266 29.5 94 29.5 Z" stroke="none"/>
      <path d="M 15 1 C 11.26047515869141 1 7.744758605957031 2.456256866455078 5.100502014160156 5.100500106811523 C 2.456260681152344 7.744756698608398 1 11.26047134399414 1 15 C 1 18.73952865600586 2.456260681152344 22.2552433013916 5.100502014160156 24.89949989318848 C 7.744758605957031 27.54374313354492 11.26047515869141 29 15 29 L 94 29 C 97.73953247070312 29 101.255241394043 27.54374313354492 103.8994979858398 24.89949989318848 C 106.5437393188477 22.2552433013916 108 18.73952865600586 108 15 C 108 11.26047134399414 106.5437393188477 7.744756698608398 103.8994979858398 5.100500106811523 C 101.255241394043 2.456256866455078 97.73953247070312 1 94 1 L 15 1 M 15 0 L 94 0 C 102.2842712402344 0 109 6.715728759765625 109 15 C 109 23.28427124023438 102.2842712402344 30 94 30 L 15 30 C 6.715728759765625 30 0 23.28427124023438 0 15 C 0 6.715728759765625 6.715728759765625 0 15 0 Z" stroke="none" fill="#a530fe"/>
    </g>
    <g id="Trazado_986967" data-name="Trazado 986967" transform="translate(765.5 4341.379)" fill="#fff">
      <path d="M 83 29.5 L 15 29.5 C 11.12691211700439 29.5 7.485637664794922 27.99173736572266 4.746950149536133 25.25304985046387 C 2.008262395858765 22.51436233520508 0.5 18.87308692932129 0.5 15 C 0.5 11.12691211700439 2.008262395858765 7.485637664794922 4.746950149536133 4.746950149536133 C 7.485637664794922 2.008262395858765 11.12691211700439 0.5 15 0.5 L 83 0.5 C 86.87308502197266 0.5 90.51436614990234 2.008262395858765 93.2530517578125 4.746950149536133 C 95.99173736572266 7.485637664794922 97.5 11.12691211700439 97.5 15 C 97.5 18.87308692932129 95.99173736572266 22.51436233520508 93.2530517578125 25.25304985046387 C 90.51436614990234 27.99173736572266 86.87308502197266 29.5 83 29.5 Z" stroke="none"/>
      <path d="M 15 1 C 11.26046752929688 1 7.744758605957031 2.456253051757812 5.100509643554688 5.100505828857422 C 2.456253051757812 7.744760513305664 1 11.26046752929688 1 15 C 1 18.73953247070312 2.456253051757812 22.25523948669434 5.100509643554688 24.89949417114258 C 7.744758605957031 27.54374694824219 11.26046752929688 29 15 29 L 83 29 C 86.73953247070312 29 90.25524139404297 27.54374694824219 92.89949035644531 24.89949417114258 C 95.54374694824219 22.25523948669434 97 18.73953247070312 97 15 C 97 11.26046752929688 95.54374694824219 7.744760513305664 92.89949035644531 5.100505828857422 C 90.25524139404297 2.456253051757812 86.73953247070312 1 83 1 L 15 1 M 15 0 L 83 0 C 91.28426361083984 0 98 6.715732574462891 98 15 C 98 23.28426742553711 91.28426361083984 30 83 30 L 15 30 C 6.715736389160156 30 0 23.28426742553711 0 15 C 0 6.715732574462891 6.715736389160156 0 15 0 Z" stroke="none" fill="#a530fe"/>
    </g>
    <g id="Trazado_986968" data-name="Trazado 986968" transform="translate(1031 4446.379)" fill="#fff">
      <path d="M 117 29.5 L 15 29.5 C 11.12691688537598 29.5 7.485650062561035 27.99173355102539 4.746950149536133 25.25304985046387 C 2.008266687393188 22.51435089111328 0.5 18.87308311462402 0.5 15 C 0.5 11.12691688537598 2.008266687393188 7.485650062561035 4.746950149536133 4.746950149536133 C 7.485650062561035 2.008266687393188 11.12691688537598 0.5 15 0.5 L 117 0.5 C 120.8730850219727 0.5 124.5143508911133 2.008266687393188 127.2530517578125 4.746950149536133 C 129.9917297363281 7.485650062561035 131.5 11.12691688537598 131.5 15 C 131.5 18.87308311462402 129.9917297363281 22.51435089111328 127.2530517578125 25.25304985046387 C 124.5143508911133 27.99173355102539 120.8730850219727 29.5 117 29.5 Z" stroke="none"/>
      <path d="M 15 1 C 11.26047515869141 1 7.744766235351562 2.456254959106445 5.100509643554688 5.100509643554688 C 2.456253051757812 7.74476432800293 1 11.26047325134277 1 15 C 1 18.73952865600586 2.456253051757812 22.25523567199707 5.100509643554688 24.89949035644531 C 7.744766235351562 27.54374504089355 11.26047515869141 29 15 29 L 117 29 C 120.7395248413086 29 124.2552337646484 27.54374504089355 126.8994903564453 24.89949035644531 C 129.5437469482422 22.25523567199707 131 18.73952865600586 131 15 C 131 11.26047325134277 129.5437469482422 7.74476432800293 126.8994903564453 5.100509643554688 C 124.2552337646484 2.456254959106445 120.7395248413086 1 117 1 L 15 1 M 15 0 L 117 0 C 125.2842712402344 0 132 6.715726852416992 132 15 C 132 23.28427314758301 125.2842712402344 30 117 30 L 15 30 C 6.715728759765625 30 0 23.28427314758301 0 15 C 0 6.715726852416992 6.715728759765625 0 15 0 Z" stroke="none" fill="#a530fe"/>
    </g>
    <g id="Trazado_986969" data-name="Trazado 986969" transform="translate(400 4648.379)" fill="#fff">
      <path d="M 23 45.5 C 19.96229934692383 45.5 17.0157299041748 44.90517044067383 14.24213981628418 43.73204040527344 C 11.56291007995605 42.59883117675781 9.156620025634766 40.97642135620117 7.090099811553955 38.9099006652832 C 5.023580074310303 36.84337997436523 3.401170015335083 34.43709182739258 2.267960071563721 31.75786018371582 C 1.09483003616333 28.9842700958252 0.5 26.03770065307617 0.5 23 C 0.5 19.96229934692383 1.09483003616333 17.0157299041748 2.267960071563721 14.24213981628418 C 3.401170015335083 11.56291007995605 5.023580074310303 9.156620025634766 7.090099811553955 7.090099811553955 C 9.156620025634766 5.023580074310303 11.56291007995605 3.401170015335083 14.24213981628418 2.267960071563721 C 17.0157299041748 1.09483003616333 19.96229934692383 0.5 23 0.5 C 26.03770065307617 0.5 28.9842700958252 1.09483003616333 31.75786018371582 2.267960071563721 C 34.43709182739258 3.401170015335083 36.84337997436523 5.023580074310303 38.9099006652832 7.090099811553955 C 40.97642135620117 9.156620025634766 42.59883117675781 11.56291007995605 43.73204040527344 14.24213981628418 C 44.90517044067383 17.0157299041748 45.5 19.96229934692383 45.5 23 C 45.5 26.03770065307617 44.90517044067383 28.9842700958252 43.73204040527344 31.75786018371582 C 42.59883117675781 34.43709182739258 40.97642135620117 36.84337997436523 38.9099006652832 38.9099006652832 C 36.84337997436523 40.97642135620117 34.43709182739258 42.59883117675781 31.75786018371582 43.73204040527344 C 28.9842700958252 44.90517044067383 26.03770065307617 45.5 23 45.5 Z" stroke="none"/>
      <path d="M 23 1 C 20.02957916259766 1 17.14854049682617 1.581539154052734 14.43691062927246 2.728458404541016 C 11.81729125976562 3.836471557617188 9.464408874511719 5.422889709472656 7.443649291992188 7.443649291992188 C 5.422889709472656 9.464408874511719 3.836471557617188 11.81729125976562 2.728458404541016 14.43691062927246 C 1.581539154052734 17.14854049682617 1 20.02957916259766 1 23 C 1 25.97042083740234 1.581539154052734 28.85145950317383 2.728458404541016 31.56309127807617 C 3.836471557617188 34.18270874023438 5.422889709472656 36.53559112548828 7.443649291992188 38.55635070800781 C 9.464408874511719 40.57711029052734 11.81729125976562 42.16352844238281 14.43691062927246 43.27154159545898 C 17.14854049682617 44.41846084594727 20.02957916259766 45 23 45 C 25.97042083740234 45 28.85145950317383 44.41846084594727 31.56309127807617 43.27154159545898 C 34.18270874023438 42.16352844238281 36.53559112548828 40.57711029052734 38.55635070800781 38.55635070800781 C 40.57711029052734 36.53559112548828 42.16352844238281 34.18270874023438 43.27154159545898 31.56309127807617 C 44.41846084594727 28.85145950317383 45 25.97042083740234 45 23 C 45 20.02957916259766 44.41846084594727 17.14854049682617 43.27154159545898 14.43691062927246 C 42.16352844238281 11.81729125976562 40.57711029052734 9.464408874511719 38.55635070800781 7.443649291992188 C 36.53559112548828 5.422889709472656 34.18270874023438 3.836471557617188 31.56309127807617 2.728458404541016 C 28.85145950317383 1.581539154052734 25.97042083740234 1 23 1 M 23 0 C 35.70254898071289 0 46 10.29745101928711 46 23 C 46 35.70254898071289 35.70254898071289 46 23 46 C 10.29745101928711 46 0 35.70254898071289 0 23 C 0 10.29745101928711 10.29745101928711 0 23 0 Z" stroke="none" fill="#a530fe"/>
    </g>
    <g id="Trazado_986970" data-name="Trazado 986970" transform="translate(1044 4648.379)" fill="#fff">
      <path d="M 23 45.5 C 19.96229934692383 45.5 17.0157299041748 44.90517044067383 14.24213981628418 43.73204040527344 C 11.56291007995605 42.59883117675781 9.156620025634766 40.97642135620117 7.090099811553955 38.9099006652832 C 5.023580074310303 36.84337997436523 3.401170015335083 34.43709182739258 2.267960071563721 31.75786018371582 C 1.09483003616333 28.9842700958252 0.5 26.03770065307617 0.5 23 C 0.5 19.96229934692383 1.09483003616333 17.0157299041748 2.267960071563721 14.24213981628418 C 3.401170015335083 11.56291007995605 5.023580074310303 9.156620025634766 7.090099811553955 7.090099811553955 C 9.156620025634766 5.023580074310303 11.56291007995605 3.401170015335083 14.24213981628418 2.267960071563721 C 17.0157299041748 1.09483003616333 19.96229934692383 0.5 23 0.5 C 26.03770065307617 0.5 28.9842700958252 1.09483003616333 31.75786018371582 2.267960071563721 C 34.43709182739258 3.401170015335083 36.84337997436523 5.023580074310303 38.9099006652832 7.090099811553955 C 40.97642135620117 9.156620025634766 42.59883117675781 11.56291007995605 43.73204040527344 14.24213981628418 C 44.90517044067383 17.0157299041748 45.5 19.96229934692383 45.5 23 C 45.5 26.03770065307617 44.90517044067383 28.9842700958252 43.73204040527344 31.75786018371582 C 42.59883117675781 34.43709182739258 40.97642135620117 36.84337997436523 38.9099006652832 38.9099006652832 C 36.84337997436523 40.97642135620117 34.43709182739258 42.59883117675781 31.75786018371582 43.73204040527344 C 28.9842700958252 44.90517044067383 26.03770065307617 45.5 23 45.5 Z" stroke="none"/>
      <path d="M 23 1 C 20.02957916259766 1 17.14854049682617 1.581539154052734 14.43691062927246 2.728458404541016 C 11.81729125976562 3.836471557617188 9.464408874511719 5.422889709472656 7.443649291992188 7.443649291992188 C 5.422889709472656 9.464408874511719 3.836471557617188 11.81729125976562 2.728458404541016 14.43691062927246 C 1.581539154052734 17.14854049682617 1 20.02957916259766 1 23 C 1 25.97042083740234 1.581539154052734 28.85145950317383 2.728458404541016 31.56309127807617 C 3.836471557617188 34.18270874023438 5.422889709472656 36.53559112548828 7.443649291992188 38.55635070800781 C 9.464408874511719 40.57711029052734 11.81729125976562 42.16352844238281 14.43691062927246 43.27154159545898 C 17.14854049682617 44.41846084594727 20.02957916259766 45 23 45 C 25.97042083740234 45 28.85145950317383 44.41846084594727 31.56309127807617 43.27154159545898 C 34.18270874023438 42.16352844238281 36.53559112548828 40.57711029052734 38.55635070800781 38.55635070800781 C 40.57711029052734 36.53559112548828 42.16352844238281 34.18270874023438 43.27154159545898 31.56309127807617 C 44.41846084594727 28.85145950317383 45 25.97042083740234 45 23 C 45 20.02957916259766 44.41846084594727 17.14854049682617 43.27154159545898 14.43691062927246 C 42.16352844238281 11.81729125976562 40.57711029052734 9.464408874511719 38.55635070800781 7.443649291992188 C 36.53559112548828 5.422889709472656 34.18270874023438 3.836471557617188 31.56309127807617 2.728458404541016 C 28.85145950317383 1.581539154052734 25.97042083740234 1 23 1 M 23 0 C 35.70254898071289 0 46 10.29745101928711 46 23 C 46 35.70254898071289 35.70254898071289 46 23 46 C 10.29745101928711 46 0 35.70254898071289 0 23 C 0 10.29745101928711 10.29745101928711 0 23 0 Z" stroke="none" fill="#a530fe"/>
    </g>
    <g id="Trazado_986971" data-name="Trazado 986971" transform="translate(489 4438.379)" fill="#fff">
      <path d="M 23 45.5 C 19.96229934692383 45.5 17.0157299041748 44.90517044067383 14.24213981628418 43.73204040527344 C 11.56291007995605 42.59883117675781 9.156620025634766 40.97642135620117 7.090099811553955 38.9099006652832 C 5.023580074310303 36.84337997436523 3.401170015335083 34.43709182739258 2.267960071563721 31.75786018371582 C 1.09483003616333 28.9842700958252 0.5 26.03770065307617 0.5 23 C 0.5 19.96229934692383 1.09483003616333 17.0157299041748 2.267960071563721 14.24213981628418 C 3.401170015335083 11.56291007995605 5.023580074310303 9.156620025634766 7.090099811553955 7.090099811553955 C 9.156620025634766 5.023580074310303 11.56291007995605 3.401170015335083 14.24213981628418 2.267960071563721 C 17.0157299041748 1.09483003616333 19.96229934692383 0.5 23 0.5 C 26.03770065307617 0.5 28.9842700958252 1.09483003616333 31.75786018371582 2.267960071563721 C 34.43709182739258 3.401170015335083 36.84337997436523 5.023580074310303 38.9099006652832 7.090099811553955 C 40.97642135620117 9.156620025634766 42.59883117675781 11.56291007995605 43.73204040527344 14.24213981628418 C 44.90517044067383 17.0157299041748 45.5 19.96229934692383 45.5 23 C 45.5 26.03770065307617 44.90517044067383 28.9842700958252 43.73204040527344 31.75786018371582 C 42.59883117675781 34.43709182739258 40.97642135620117 36.84337997436523 38.9099006652832 38.9099006652832 C 36.84337997436523 40.97642135620117 34.43709182739258 42.59883117675781 31.75786018371582 43.73204040527344 C 28.9842700958252 44.90517044067383 26.03770065307617 45.5 23 45.5 Z" stroke="none"/>
      <path d="M 23 1 C 20.02957916259766 1 17.14854049682617 1.581539154052734 14.43691062927246 2.728458404541016 C 11.81729125976562 3.836471557617188 9.464408874511719 5.422889709472656 7.443649291992188 7.443649291992188 C 5.422889709472656 9.464408874511719 3.836471557617188 11.81729125976562 2.728458404541016 14.43691062927246 C 1.581539154052734 17.14854049682617 1 20.02957916259766 1 23 C 1 25.97042083740234 1.581539154052734 28.85145950317383 2.728458404541016 31.56309127807617 C 3.836471557617188 34.18270874023438 5.422889709472656 36.53559112548828 7.443649291992188 38.55635070800781 C 9.464408874511719 40.57711029052734 11.81729125976562 42.16352844238281 14.43691062927246 43.27154159545898 C 17.14854049682617 44.41846084594727 20.02957916259766 45 23 45 C 25.97042083740234 45 28.85145950317383 44.41846084594727 31.56309127807617 43.27154159545898 C 34.18270874023438 42.16352844238281 36.53559112548828 40.57711029052734 38.55635070800781 38.55635070800781 C 40.57711029052734 36.53559112548828 42.16352844238281 34.18270874023438 43.27154159545898 31.56309127807617 C 44.41846084594727 28.85145950317383 45 25.97042083740234 45 23 C 45 20.02957916259766 44.41846084594727 17.14854049682617 43.27154159545898 14.43691062927246 C 42.16352844238281 11.81729125976562 40.57711029052734 9.464408874511719 38.55635070800781 7.443649291992188 C 36.53559112548828 5.422889709472656 34.18270874023438 3.836471557617188 31.56309127807617 2.728458404541016 C 28.85145950317383 1.581539154052734 25.97042083740234 1 23 1 M 23 0 C 35.70254898071289 0 46 10.29745101928711 46 23 C 46 35.70254898071289 35.70254898071289 46 23 46 C 10.29745101928711 46 0 35.70254898071289 0 23 C 0 10.29745101928711 10.29745101928711 0 23 0 Z" stroke="none" fill="#a530fe"/>
    </g>
    <g id="Trazado_986972" data-name="Trazado 986972" transform="translate(742.5 4333.379)" fill="#fff">
      <path d="M 23 45.5 C 19.96229934692383 45.5 17.0157299041748 44.90517044067383 14.24213981628418 43.73204040527344 C 11.56291007995605 42.59883117675781 9.156620025634766 40.97642135620117 7.090099811553955 38.9099006652832 C 5.023580074310303 36.84337997436523 3.401170015335083 34.43709182739258 2.267960071563721 31.75786018371582 C 1.09483003616333 28.9842700958252 0.5 26.03770065307617 0.5 23 C 0.5 19.96229934692383 1.09483003616333 17.0157299041748 2.267960071563721 14.24213981628418 C 3.401170015335083 11.56291007995605 5.023580074310303 9.156620025634766 7.090099811553955 7.090099811553955 C 9.156620025634766 5.023580074310303 11.56291007995605 3.401170015335083 14.24213981628418 2.267960071563721 C 17.0157299041748 1.09483003616333 19.96229934692383 0.5 23 0.5 C 26.03770065307617 0.5 28.9842700958252 1.09483003616333 31.75786018371582 2.267960071563721 C 34.43709182739258 3.401170015335083 36.84337997436523 5.023580074310303 38.9099006652832 7.090099811553955 C 40.97642135620117 9.156620025634766 42.59883117675781 11.56291007995605 43.73204040527344 14.24213981628418 C 44.90517044067383 17.0157299041748 45.5 19.96229934692383 45.5 23 C 45.5 26.03770065307617 44.90517044067383 28.9842700958252 43.73204040527344 31.75786018371582 C 42.59883117675781 34.43709182739258 40.97642135620117 36.84337997436523 38.9099006652832 38.9099006652832 C 36.84337997436523 40.97642135620117 34.43709182739258 42.59883117675781 31.75786018371582 43.73204040527344 C 28.9842700958252 44.90517044067383 26.03770065307617 45.5 23 45.5 Z" stroke="none"/>
      <path d="M 23 1 C 20.02957916259766 1 17.14854049682617 1.581539154052734 14.43691062927246 2.728458404541016 C 11.81729125976562 3.836471557617188 9.464408874511719 5.422889709472656 7.443649291992188 7.443649291992188 C 5.422889709472656 9.464408874511719 3.836471557617188 11.81729125976562 2.728458404541016 14.43691062927246 C 1.581539154052734 17.14854049682617 1 20.02957916259766 1 23 C 1 25.97042083740234 1.581539154052734 28.85145950317383 2.728458404541016 31.56309127807617 C 3.836471557617188 34.18270874023438 5.422889709472656 36.53559112548828 7.443649291992188 38.55635070800781 C 9.464408874511719 40.57711029052734 11.81729125976562 42.16352844238281 14.43691062927246 43.27154159545898 C 17.14854049682617 44.41846084594727 20.02957916259766 45 23 45 C 25.97042083740234 45 28.85145950317383 44.41846084594727 31.56309127807617 43.27154159545898 C 34.18270874023438 42.16352844238281 36.53559112548828 40.57711029052734 38.55635070800781 38.55635070800781 C 40.57711029052734 36.53559112548828 42.16352844238281 34.18270874023438 43.27154159545898 31.56309127807617 C 44.41846084594727 28.85145950317383 45 25.97042083740234 45 23 C 45 20.02957916259766 44.41846084594727 17.14854049682617 43.27154159545898 14.43691062927246 C 42.16352844238281 11.81729125976562 40.57711029052734 9.464408874511719 38.55635070800781 7.443649291992188 C 36.53559112548828 5.422889709472656 34.18270874023438 3.836471557617188 31.56309127807617 2.728458404541016 C 28.85145950317383 1.581539154052734 25.97042083740234 1 23 1 M 23 0 C 35.70254898071289 0 46 10.29745101928711 46 23 C 46 35.70254898071289 35.70254898071289 46 23 46 C 10.29745101928711 46 0 35.70254898071289 0 23 C 0 10.29745101928711 10.29745101928711 0 23 0 Z" stroke="none" fill="#a530fe"/>
    </g>
    <g id="Trazado_986973" data-name="Trazado 986973" transform="translate(1008 4438.379)" fill="#fff">
      <path d="M 23 45.5 C 19.96229934692383 45.5 17.0157299041748 44.90517044067383 14.24213981628418 43.73204040527344 C 11.56291007995605 42.59883117675781 9.156620025634766 40.97642135620117 7.090099811553955 38.9099006652832 C 5.023580074310303 36.84337997436523 3.401170015335083 34.43709182739258 2.267960071563721 31.75786018371582 C 1.09483003616333 28.9842700958252 0.5 26.03770065307617 0.5 23 C 0.5 19.96229934692383 1.09483003616333 17.0157299041748 2.267960071563721 14.24213981628418 C 3.401170015335083 11.56291007995605 5.023580074310303 9.156620025634766 7.090099811553955 7.090099811553955 C 9.156620025634766 5.023580074310303 11.56291007995605 3.401170015335083 14.24213981628418 2.267960071563721 C 17.0157299041748 1.09483003616333 19.96229934692383 0.5 23 0.5 C 26.03770065307617 0.5 28.9842700958252 1.09483003616333 31.75786018371582 2.267960071563721 C 34.43709182739258 3.401170015335083 36.84337997436523 5.023580074310303 38.9099006652832 7.090099811553955 C 40.97642135620117 9.156620025634766 42.59883117675781 11.56291007995605 43.73204040527344 14.24213981628418 C 44.90517044067383 17.0157299041748 45.5 19.96229934692383 45.5 23 C 45.5 26.03770065307617 44.90517044067383 28.9842700958252 43.73204040527344 31.75786018371582 C 42.59883117675781 34.43709182739258 40.97642135620117 36.84337997436523 38.9099006652832 38.9099006652832 C 36.84337997436523 40.97642135620117 34.43709182739258 42.59883117675781 31.75786018371582 43.73204040527344 C 28.9842700958252 44.90517044067383 26.03770065307617 45.5 23 45.5 Z" stroke="none"/>
      <path d="M 23 1 C 20.02957916259766 1 17.14854049682617 1.581539154052734 14.43691062927246 2.728458404541016 C 11.81729125976562 3.836471557617188 9.464408874511719 5.422889709472656 7.443649291992188 7.443649291992188 C 5.422889709472656 9.464408874511719 3.836471557617188 11.81729125976562 2.728458404541016 14.43691062927246 C 1.581539154052734 17.14854049682617 1 20.02957916259766 1 23 C 1 25.97042083740234 1.581539154052734 28.85145950317383 2.728458404541016 31.56309127807617 C 3.836471557617188 34.18270874023438 5.422889709472656 36.53559112548828 7.443649291992188 38.55635070800781 C 9.464408874511719 40.57711029052734 11.81729125976562 42.16352844238281 14.43691062927246 43.27154159545898 C 17.14854049682617 44.41846084594727 20.02957916259766 45 23 45 C 25.97042083740234 45 28.85145950317383 44.41846084594727 31.56309127807617 43.27154159545898 C 34.18270874023438 42.16352844238281 36.53559112548828 40.57711029052734 38.55635070800781 38.55635070800781 C 40.57711029052734 36.53559112548828 42.16352844238281 34.18270874023438 43.27154159545898 31.56309127807617 C 44.41846084594727 28.85145950317383 45 25.97042083740234 45 23 C 45 20.02957916259766 44.41846084594727 17.14854049682617 43.27154159545898 14.43691062927246 C 42.16352844238281 11.81729125976562 40.57711029052734 9.464408874511719 38.55635070800781 7.443649291992188 C 36.53559112548828 5.422889709472656 34.18270874023438 3.836471557617188 31.56309127807617 2.728458404541016 C 28.85145950317383 1.581539154052734 25.97042083740234 1 23 1 M 23 0 C 35.70254898071289 0 46 10.29745101928711 46 23 C 46 35.70254898071289 35.70254898071289 46 23 46 C 10.29745101928711 46 0 35.70254898071289 0 23 C 0 10.29745101928711 10.29745101928711 0 23 0 Z" stroke="none" fill="#a530fe"/>
    </g>
    <path id="Trazado_986974" data-name="Trazado 986974" d="M10.389-5.66H4.1v3.331h7.172V0H1.45V-12.955h9.5v2.294H4.1V-7.91h6.293Zm8.167-1.283a1.227,1.227,0,0,0-1.239-.694,1.479,1.479,0,0,0-1.441.694,2.675,2.675,0,0,0-.2,1.178V0h-2.54V-9.562h2.435v1.4a4.031,4.031,0,0,1,.879-1.063,3.007,3.007,0,0,1,1.89-.562,2.989,2.989,0,0,1,1.775.483,2.812,2.812,0,0,1,.826,1.151A3.185,3.185,0,0,1,22.159-9.4a3.728,3.728,0,0,1,1.723-.4,3.335,3.335,0,0,1,1.248.246,2.784,2.784,0,0,1,1.116.861,2.752,2.752,0,0,1,.545,1.23,8.5,8.5,0,0,1,.088,1.415L26.861,0H24.295V-6.1a2,2,0,0,0-.176-.9,1.249,1.249,0,0,0-1.23-.668,1.44,1.44,0,0,0-1.433.861,2.7,2.7,0,0,0-.2,1.1V0H18.731V-5.7A3.2,3.2,0,0,0,18.556-6.943ZM37.208-8.552a5.14,5.14,0,0,1,1.16,3.639A5.771,5.771,0,0,1,37.23-1.055,3.685,3.685,0,0,1,34.3.272,3.059,3.059,0,0,1,32.4-.3a3.683,3.683,0,0,1-.809-.923V3.771H29.113V-9.58h2.4v1.415a4.021,4.021,0,0,1,.861-.984,3.165,3.165,0,0,1,1.986-.642A3.767,3.767,0,0,1,37.208-8.552ZM35.784-4.79a3.77,3.77,0,0,0-.505-1.96A1.759,1.759,0,0,0,33.639-7.6a1.865,1.865,0,0,0-1.872,1.292A4.9,4.9,0,0,0,31.5-4.57a2.776,2.776,0,0,0,.888,2.347,2.021,2.021,0,0,0,1.248.4,1.809,1.809,0,0,0,1.6-.809A3.771,3.771,0,0,0,35.784-4.79Zm4.757-3.753a4.09,4.09,0,0,1,3.41-1.266,6.059,6.059,0,0,1,2.795.624,2.4,2.4,0,0,1,1.222,2.355v4.395q0,.457.018,1.107a1.392,1.392,0,0,0,.149.668.9.9,0,0,0,.369.29V0H45.779a2.79,2.79,0,0,1-.158-.545q-.044-.255-.07-.58a5.146,5.146,0,0,1-1.2.958A3.6,3.6,0,0,1,42.527.3a3.143,3.143,0,0,1-2.149-.743,2.649,2.649,0,0,1-.848-2.1,2.732,2.732,0,0,1,1.362-2.558,6.049,6.049,0,0,1,2.2-.615l.853-.105a3.91,3.91,0,0,0,.993-.22.753.753,0,0,0,.536-.712.845.845,0,0,0-.409-.813,2.553,2.553,0,0,0-1.2-.224,1.563,1.563,0,0,0-1.257.439,1.827,1.827,0,0,0-.352.879H39.837A3.676,3.676,0,0,1,40.541-8.543ZM42.4-1.811a1.309,1.309,0,0,0,.861.29A2.551,2.551,0,0,0,44.755-2a2.024,2.024,0,0,0,.708-1.731v-.932a2.722,2.722,0,0,1-.479.242,4.006,4.006,0,0,1-.664.171l-.562.105a3.632,3.632,0,0,0-1.134.343,1.149,1.149,0,0,0-.58,1.063A1.1,1.1,0,0,0,42.4-1.811Zm12.175.026V.088L53.392.132a3.184,3.184,0,0,1-2.426-.615,1.832,1.832,0,0,1-.422-1.327v-5.9H49.208V-9.492h1.336v-2.672h2.479v2.672h1.556v1.784H53.023v5.063a1.14,1.14,0,0,0,.149.734,1.645,1.645,0,0,0,.914.145q.114,0,.242,0T54.578-1.784Zm4.185-7.8V0h-2.54V-9.58Zm0-3.454v2.312h-2.54v-2.312ZM68.583,0H60.313V-1.951l4.913-5.59H60.647V-9.58h7.77V-7.5l-4.86,5.44h5.027Zm1.971-8.543a4.09,4.09,0,0,1,3.41-1.266,6.059,6.059,0,0,1,2.795.624A2.4,2.4,0,0,1,77.98-6.829v4.395q0,.457.018,1.107a1.392,1.392,0,0,0,.149.668.9.9,0,0,0,.369.29V0H75.792a2.79,2.79,0,0,1-.158-.545q-.044-.255-.07-.58a5.146,5.146,0,0,1-1.2.958A3.6,3.6,0,0,1,72.54.3a3.143,3.143,0,0,1-2.149-.743,2.649,2.649,0,0,1-.848-2.1,2.732,2.732,0,0,1,1.362-2.558,6.049,6.049,0,0,1,2.2-.615l.853-.105a3.91,3.91,0,0,0,.993-.22.753.753,0,0,0,.536-.712.845.845,0,0,0-.409-.813,2.553,2.553,0,0,0-1.2-.224,1.563,1.563,0,0,0-1.257.439,1.827,1.827,0,0,0-.352.879H69.85A3.676,3.676,0,0,1,70.554-8.543Zm1.863,6.732a1.309,1.309,0,0,0,.861.29A2.551,2.551,0,0,0,74.768-2a2.024,2.024,0,0,0,.708-1.731v-.932A2.722,2.722,0,0,1,75-4.417a4.006,4.006,0,0,1-.664.171l-.562.105a3.632,3.632,0,0,0-1.134.343,1.149,1.149,0,0,0-.58,1.063A1.1,1.1,0,0,0,72.417-1.811ZM85.022-7.269a2.078,2.078,0,0,0-2.03.984,3.829,3.829,0,0,0-.29,1.705V0H80.179V-9.58H82.57v1.67a5.3,5.3,0,0,1,1.011-1.31,2.752,2.752,0,0,1,1.828-.589q.07,0,.119,0l.215.013v2.566q-.237-.026-.422-.035T85.022-7.269Z" transform="translate(456 4678.379)" fill="#212429"/>
    <path id="Trazado_986975" data-name="Trazado 986975" d="M10.784-12.955v2.294H6.908V0H4.184V-10.661H.29v-2.294ZM19.039-2.812a3.178,3.178,0,0,1-.888,1.731,4.349,4.349,0,0,1-3.445,1.4A4.858,4.858,0,0,1,11.48-.861a4.75,4.75,0,0,1-1.4-3.832,5.326,5.326,0,0,1,1.261-3.814,4.312,4.312,0,0,1,3.274-1.327,5.021,5.021,0,0,1,2.153.448,3.772,3.772,0,0,1,1.582,1.415,4.828,4.828,0,0,1,.729,1.978,12.771,12.771,0,0,1,.079,1.9H12.605a2.381,2.381,0,0,0,.905,2.021,2.132,2.132,0,0,0,1.248.36,1.8,1.8,0,0,0,1.257-.439,2.087,2.087,0,0,0,.466-.659ZM16.56-5.748a2.181,2.181,0,0,0-.6-1.507,1.87,1.87,0,0,0-1.34-.514,1.7,1.7,0,0,0-1.349.545,2.72,2.72,0,0,0-.6,1.477ZM27.452-9.141a3.086,3.086,0,0,1,1.292,2.479h-2.5a1.482,1.482,0,0,0-.272-.765,1.714,1.714,0,0,0-1.406-.51,2.021,2.021,0,0,0-1.165.255.734.734,0,0,0-.347.6.654.654,0,0,0,.369.624,15.98,15.98,0,0,0,2.61.694A4.8,4.8,0,0,1,28.269-4.7a2.415,2.415,0,0,1,.738,1.8A2.911,2.911,0,0,1,27.948-.576a4.976,4.976,0,0,1-3.274.9,4.929,4.929,0,0,1-3.335-.954,3.1,3.1,0,0,1-1.077-2.43H22.8a1.673,1.673,0,0,0,.343.949,2.317,2.317,0,0,0,1.723.5,2.626,2.626,0,0,0,1.173-.22.7.7,0,0,0,.435-.659.711.711,0,0,0-.352-.642,14.3,14.3,0,0,0-2.61-.756A5.437,5.437,0,0,1,21.22-4.9a2.191,2.191,0,0,1-.668-1.723A2.988,2.988,0,0,1,21.594-8.9a4.183,4.183,0,0,1,2.931-.954A5.427,5.427,0,0,1,27.452-9.141Zm7.8,7.356V.088L34.063.132a3.184,3.184,0,0,1-2.426-.615,1.832,1.832,0,0,1-.422-1.327v-5.9H29.879V-9.492h1.336v-2.672h2.479v2.672H35.25v1.784H33.694v5.063a1.14,1.14,0,0,0,.149.734,1.645,1.645,0,0,0,.914.145q.114,0,.242,0T35.25-1.784Zm9.81-1.028a3.178,3.178,0,0,1-.888,1.731,4.349,4.349,0,0,1-3.445,1.4A4.858,4.858,0,0,1,37.5-.861a4.75,4.75,0,0,1-1.4-3.832,5.326,5.326,0,0,1,1.261-3.814,4.312,4.312,0,0,1,3.274-1.327,5.021,5.021,0,0,1,2.153.448,3.772,3.772,0,0,1,1.582,1.415A4.828,4.828,0,0,1,45.1-5.994a12.771,12.771,0,0,1,.079,1.9H38.626a2.381,2.381,0,0,0,.905,2.021,2.132,2.132,0,0,0,1.248.36,1.8,1.8,0,0,0,1.257-.439,2.087,2.087,0,0,0,.466-.659ZM42.581-5.748a2.181,2.181,0,0,0-.6-1.507,1.87,1.87,0,0,0-1.34-.514,1.7,1.7,0,0,0-1.349.545,2.72,2.72,0,0,0-.6,1.477Zm4.651-2.795a4.09,4.09,0,0,1,3.41-1.266,6.059,6.059,0,0,1,2.795.624,2.4,2.4,0,0,1,1.222,2.355v4.395q0,.457.018,1.107a1.392,1.392,0,0,0,.149.668.9.9,0,0,0,.369.29V0H52.471a2.79,2.79,0,0,1-.158-.545q-.044-.255-.07-.58a5.146,5.146,0,0,1-1.2.958A3.6,3.6,0,0,1,49.219.3,3.143,3.143,0,0,1,47.07-.444a2.649,2.649,0,0,1-.848-2.1,2.732,2.732,0,0,1,1.362-2.558,6.049,6.049,0,0,1,2.2-.615l.853-.105a3.91,3.91,0,0,0,.993-.22.753.753,0,0,0,.536-.712.845.845,0,0,0-.409-.813,2.553,2.553,0,0,0-1.2-.224,1.563,1.563,0,0,0-1.257.439,1.827,1.827,0,0,0-.352.879H46.53A3.676,3.676,0,0,1,47.233-8.543ZM49.1-1.811a1.309,1.309,0,0,0,.861.29A2.551,2.551,0,0,0,51.447-2a2.024,2.024,0,0,0,.708-1.731v-.932a2.722,2.722,0,0,1-.479.242,4.006,4.006,0,0,1-.664.171l-.562.105a3.632,3.632,0,0,0-1.134.343,1.149,1.149,0,0,0-.58,1.063A1.1,1.1,0,0,0,49.1-1.811ZM61.7-7.269a2.078,2.078,0,0,0-2.03.984,3.829,3.829,0,0,0-.29,1.705V0H56.858V-9.58h2.391v1.67A5.3,5.3,0,0,1,60.26-9.22a2.752,2.752,0,0,1,1.828-.589q.07,0,.119,0l.215.013v2.566Q62.185-7.251,62-7.26T61.7-7.269Z" transform="translate(1100 4678.379)" fill="#212429"/>
    <path id="Trazado_986976" data-name="Trazado 986976" d="M6.952,0H1.371V-12.955H6.952a6.809,6.809,0,0,1,2,.281,4.277,4.277,0,0,1,2.206,1.644,5.765,5.765,0,0,1,.923,2.092,10.042,10.042,0,0,1,.246,2.145,8.611,8.611,0,0,1-1.037,4.377A4.68,4.68,0,0,1,6.952,0ZM8.965-9.65A2.631,2.631,0,0,0,6.5-10.705H4V-2.25H6.5A2.7,2.7,0,0,0,9.167-4.14a6.665,6.665,0,0,0,.413-2.47A6.143,6.143,0,0,0,8.965-9.65ZM22.37-2.812a3.178,3.178,0,0,1-.888,1.731,4.349,4.349,0,0,1-3.445,1.4A4.858,4.858,0,0,1,14.811-.861a4.75,4.75,0,0,1-1.4-3.832,5.326,5.326,0,0,1,1.261-3.814,4.312,4.312,0,0,1,3.274-1.327,5.021,5.021,0,0,1,2.153.448,3.772,3.772,0,0,1,1.582,1.415,4.828,4.828,0,0,1,.729,1.978,12.771,12.771,0,0,1,.079,1.9H15.936a2.381,2.381,0,0,0,.905,2.021,2.132,2.132,0,0,0,1.248.36,1.8,1.8,0,0,0,1.257-.439,2.087,2.087,0,0,0,.466-.659ZM19.891-5.748a2.181,2.181,0,0,0-.6-1.507,1.87,1.87,0,0,0-1.34-.514,1.7,1.7,0,0,0-1.349.545A2.72,2.72,0,0,0,16-5.748Zm8.782-7.286V-11q-.211-.026-.708-.04a.814.814,0,0,0-.686.22.8.8,0,0,0-.189.514v.809h1.644v1.767H27.091V0H24.6V-7.726H23.2V-9.492h1.371v-.615a3.237,3.237,0,0,1,.519-2.118q.545-.861,2.628-.861.237,0,.431.013Zm4.08,3.454V0h-2.54V-9.58Zm0-3.454v2.312h-2.54v-2.312ZM39.69-7.726a1.744,1.744,0,0,0-1.749,1.081,3.713,3.713,0,0,0-.246,1.459V0H35.2V-9.562h2.417v1.4a4.252,4.252,0,0,1,.914-1.063,3.177,3.177,0,0,1,1.96-.58,3.7,3.7,0,0,1,2.43.778,3.163,3.163,0,0,1,.945,2.58V0H41.3V-5.827a2.659,2.659,0,0,0-.2-1.16A1.422,1.422,0,0,0,39.69-7.726ZM48.753-9.58V0h-2.54V-9.58Zm0-3.454v2.312h-2.54v-2.312ZM56-7.269a2.078,2.078,0,0,0-2.03.984,3.829,3.829,0,0,0-.29,1.705V0H51.154V-9.58h2.391v1.67a5.3,5.3,0,0,1,1.011-1.31,2.752,2.752,0,0,1,1.828-.589q.07,0,.119,0l.215.013v2.566q-.237-.026-.422-.035T56-7.269Z" transform="translate(545 4468.379)" fill="#212429"/>
    <path id="Trazado_986977" data-name="Trazado 986977" d="M1.16-12.955H3.85V0H1.16Zm13.73.018V0H12.456V-1.327A3.533,3.533,0,0,1,11.234-.088,3.43,3.43,0,0,1,9.529.3,3.56,3.56,0,0,1,6.7-1.059,5.215,5.215,0,0,1,5.556-4.544,6,6,0,0,1,6.686-8.4,3.674,3.674,0,0,1,9.7-9.809a3.09,3.09,0,0,1,1.547.382,3.043,3.043,0,0,1,1.1,1.059v-4.57ZM8.14-4.729A3.767,3.767,0,0,0,8.668-2.61a1.756,1.756,0,0,0,1.582.8A1.849,1.849,0,0,0,11.867-2.6a3.5,3.5,0,0,0,.554-2.048,3.141,3.141,0,0,0-.888-2.514,1.91,1.91,0,0,0-1.266-.457,1.759,1.759,0,0,0-1.613.831A3.848,3.848,0,0,0,8.14-4.729ZM25.369-2.812a3.178,3.178,0,0,1-.888,1.731,4.349,4.349,0,0,1-3.445,1.4A4.858,4.858,0,0,1,17.81-.861a4.75,4.75,0,0,1-1.4-3.832,5.326,5.326,0,0,1,1.261-3.814,4.312,4.312,0,0,1,3.274-1.327,5.021,5.021,0,0,1,2.153.448,3.772,3.772,0,0,1,1.582,1.415,4.828,4.828,0,0,1,.729,1.978,12.771,12.771,0,0,1,.079,1.9H18.935a2.381,2.381,0,0,0,.905,2.021,2.132,2.132,0,0,0,1.248.36,1.8,1.8,0,0,0,1.257-.439,2.087,2.087,0,0,0,.466-.659ZM22.89-5.748a2.181,2.181,0,0,0-.6-1.507,1.87,1.87,0,0,0-1.34-.514,1.7,1.7,0,0,0-1.349.545A2.72,2.72,0,0,0,19-5.748Zm4.651-2.795a4.09,4.09,0,0,1,3.41-1.266,6.059,6.059,0,0,1,2.795.624,2.4,2.4,0,0,1,1.222,2.355v4.395q0,.457.018,1.107a1.392,1.392,0,0,0,.149.668.9.9,0,0,0,.369.29V0H32.78a2.79,2.79,0,0,1-.158-.545q-.044-.255-.07-.58a5.146,5.146,0,0,1-1.2.958A3.6,3.6,0,0,1,29.528.3a3.143,3.143,0,0,1-2.149-.743,2.649,2.649,0,0,1-.848-2.1,2.732,2.732,0,0,1,1.362-2.558,6.049,6.049,0,0,1,2.2-.615l.853-.105a3.91,3.91,0,0,0,.993-.22.753.753,0,0,0,.536-.712.845.845,0,0,0-.409-.813,2.553,2.553,0,0,0-1.2-.224,1.563,1.563,0,0,0-1.257.439,1.827,1.827,0,0,0-.352.879H26.838A3.676,3.676,0,0,1,27.542-8.543ZM29.4-1.811a1.309,1.309,0,0,0,.861.29A2.551,2.551,0,0,0,31.756-2a2.024,2.024,0,0,0,.708-1.731v-.932a2.722,2.722,0,0,1-.479.242,4.006,4.006,0,0,1-.664.171l-.562.105a3.632,3.632,0,0,0-1.134.343,1.149,1.149,0,0,0-.58,1.063A1.1,1.1,0,0,0,29.4-1.811ZM42.01-7.269a2.078,2.078,0,0,0-2.03.984,3.829,3.829,0,0,0-.29,1.705V0H37.167V-9.58h2.391v1.67a5.3,5.3,0,0,1,1.011-1.31A2.752,2.752,0,0,1,42.4-9.809q.07,0,.119,0l.215.013v2.566q-.237-.026-.422-.035T42.01-7.269Z" transform="translate(798.5 4363.379)" fill="#212429"/>
    <path id="Trazado_986978" data-name="Trazado 986978" d="M6.873-4.658H4.122V0H1.433V-12.955H7.075a4.6,4.6,0,0,1,3.111,1,3.882,3.882,0,0,1,1.16,3.1,3.976,3.976,0,0,1-1.16,3.243A5.109,5.109,0,0,1,6.873-4.658Zm1.266-2.7a1.874,1.874,0,0,0,.527-1.477,1.753,1.753,0,0,0-.532-1.441,2.308,2.308,0,0,0-1.49-.431H4.122v3.814H6.645A2.2,2.2,0,0,0,8.139-7.356Zm9.854.088a2.078,2.078,0,0,0-2.03.984,3.829,3.829,0,0,0-.29,1.705V0H13.15V-9.58h2.391v1.67a5.3,5.3,0,0,1,1.011-1.31,2.752,2.752,0,0,1,1.828-.589q.07,0,.119,0l.215.013v2.566q-.237-.026-.422-.035T17.993-7.269Zm10.18-1.1a5.59,5.59,0,0,1,1.213,3.595,5.553,5.553,0,0,1-1.213,3.608A4.456,4.456,0,0,1,24.49.334a4.456,4.456,0,0,1-3.683-1.5,5.553,5.553,0,0,1-1.213-3.608,5.59,5.59,0,0,1,1.213-3.595A4.426,4.426,0,0,1,24.49-9.888,4.426,4.426,0,0,1,28.173-8.367Zm-3.691.6a2,2,0,0,0-1.692.778A3.6,3.6,0,0,0,22.2-4.772a3.619,3.619,0,0,0,.593,2.224,2,2,0,0,0,1.692.782,1.985,1.985,0,0,0,1.688-.782,3.639,3.639,0,0,0,.589-2.224,3.619,3.619,0,0,0-.589-2.219A1.99,1.99,0,0,0,24.481-7.77ZM35.566-1.784V.088L34.379.132a3.184,3.184,0,0,1-2.426-.615,1.832,1.832,0,0,1-.422-1.327v-5.9H30.2V-9.492h1.336v-2.672H34.01v2.672h1.556v1.784H34.01v5.063a1.14,1.14,0,0,0,.149.734,1.645,1.645,0,0,0,.914.145q.114,0,.242,0T35.566-1.784Zm9.6-6.583a5.59,5.59,0,0,1,1.213,3.595,5.553,5.553,0,0,1-1.213,3.608,4.456,4.456,0,0,1-3.683,1.5,4.456,4.456,0,0,1-3.683-1.5,5.553,5.553,0,0,1-1.213-3.608A5.59,5.59,0,0,1,37.8-8.367a4.426,4.426,0,0,1,3.683-1.521A4.426,4.426,0,0,1,45.165-8.367Zm-3.691.6a2,2,0,0,0-1.692.778,3.6,3.6,0,0,0-.593,2.219,3.619,3.619,0,0,0,.593,2.224,2,2,0,0,0,1.692.782,1.985,1.985,0,0,0,1.688-.782,3.639,3.639,0,0,0,.589-2.224,3.619,3.619,0,0,0-.589-2.219A1.99,1.99,0,0,0,41.474-7.77ZM52.559-1.784V.088L51.372.132a3.184,3.184,0,0,1-2.426-.615,1.832,1.832,0,0,1-.422-1.327v-5.9H47.189V-9.492h1.336v-2.672H51v2.672h1.556v1.784H51v5.063a1.14,1.14,0,0,0,.149.734,1.645,1.645,0,0,0,.914.145q.114,0,.242,0T52.559-1.784Zm4.185-7.8V0H54.2V-9.58Zm0-3.454v2.312H54.2v-2.312ZM67.2-8.552a5.14,5.14,0,0,1,1.16,3.639,5.771,5.771,0,0,1-1.138,3.858A3.685,3.685,0,0,1,64.287.272a3.059,3.059,0,0,1-1.9-.571,3.683,3.683,0,0,1-.809-.923V3.771H59.1V-9.58h2.4v1.415a4.021,4.021,0,0,1,.861-.984,3.165,3.165,0,0,1,1.986-.642A3.767,3.767,0,0,1,67.2-8.552ZM65.772-4.79a3.77,3.77,0,0,0-.505-1.96A1.759,1.759,0,0,0,63.628-7.6a1.865,1.865,0,0,0-1.872,1.292,4.9,4.9,0,0,0-.264,1.74,2.776,2.776,0,0,0,.888,2.347,2.021,2.021,0,0,0,1.248.4,1.809,1.809,0,0,0,1.6-.809A3.771,3.771,0,0,0,65.772-4.79Zm4.757-3.753a4.09,4.09,0,0,1,3.41-1.266,6.059,6.059,0,0,1,2.795.624,2.4,2.4,0,0,1,1.222,2.355v4.395q0,.457.018,1.107a1.392,1.392,0,0,0,.149.668.9.9,0,0,0,.369.29V0H75.767a2.79,2.79,0,0,1-.158-.545q-.044-.255-.07-.58a5.146,5.146,0,0,1-1.2.958A3.6,3.6,0,0,1,72.515.3a3.143,3.143,0,0,1-2.149-.743,2.649,2.649,0,0,1-.848-2.1,2.732,2.732,0,0,1,1.362-2.558,6.049,6.049,0,0,1,2.2-.615l.853-.105a3.91,3.91,0,0,0,.993-.22.753.753,0,0,0,.536-.712.845.845,0,0,0-.409-.813,2.553,2.553,0,0,0-1.2-.224,1.563,1.563,0,0,0-1.257.439,1.827,1.827,0,0,0-.352.879H69.826A3.676,3.676,0,0,1,70.529-8.543Zm1.863,6.732a1.309,1.309,0,0,0,.861.29A2.551,2.551,0,0,0,74.743-2a2.024,2.024,0,0,0,.708-1.731v-.932a2.722,2.722,0,0,1-.479.242,4.006,4.006,0,0,1-.664.171l-.562.105a3.632,3.632,0,0,0-1.134.343,1.149,1.149,0,0,0-.58,1.063A1.1,1.1,0,0,0,72.392-1.811ZM85-7.269a2.078,2.078,0,0,0-2.03.984,3.829,3.829,0,0,0-.29,1.705V0H80.155V-9.58h2.391v1.67a5.3,5.3,0,0,1,1.011-1.31,2.752,2.752,0,0,1,1.828-.589q.07,0,.119,0l.215.013v2.566q-.237-.026-.422-.035T85-7.269Z" transform="translate(1064 4468.379)" fill="#212429"/>
  </g>
</svg>
