<svg xmlns="http://www.w3.org/2000/svg" xmlns:xlink="http://www.w3.org/1999/xlink" width="109.117" height="109.117" viewBox="0 0 109.117 109.117">
  <defs>
    <filter id="Trazado_982548" x="0" y="0" width="109.117" height="109.117" filterUnits="userSpaceOnUse">
      <feOffset dy="3" input="SourceAlpha"/>
      <feGaussianBlur stdDeviation="3" result="blur"/>
      <feFlood flood-opacity="0.161"/>
      <feComposite operator="in" in2="blur"/>
      <feComposite in="SourceGraphic"/>
    </filter>
  </defs>
  <g id="Grupo_1150627" data-name="Grupo 1150627" transform="translate(-720.441 -5802.86)">
    <g id="Grupo_1150091" data-name="Grupo 1150091" transform="translate(519.441 5240.86)">
      <g id="Grupo_1149552" data-name="Grupo 1149552" transform="translate(210 568)">
        <g id="Grupo_1149263" data-name="Grupo 1149263">
          <g transform="matrix(1, 0, 0, 1, -9, -6)" filter="url(#Trazado_982548)">
            <g id="Trazado_982548-2" data-name="Trazado 982548" transform="translate(9 6)" fill="#f6f9fc">
              <path d="M 45.55858993530273 89.61717987060547 C 39.61005401611328 89.61717987060547 33.84025192260742 88.45249176025391 28.40946578979492 86.15544891357422 C 23.16317749023438 83.93646240234375 18.45121574401855 80.75946807861328 14.40446472167969 76.71271514892578 C 10.35771465301514 72.66597747802734 7.180715084075928 67.95401763916016 4.961727619171143 62.70772933959961 C 2.664690017700195 57.27692794799805 1.500002384185791 51.50712585449219 1.500002384185791 45.55858993530273 C 1.500002384185791 39.61005401611328 2.664690017700195 33.84025192260742 4.961727619171143 28.40946578979492 C 7.180715084075928 23.16317749023438 10.35771465301514 18.45121574401855 14.40446472167969 14.40446472167969 C 18.45121574401855 10.35771465301514 23.16317749023438 7.180715084075928 28.40946578979492 4.961727619171143 C 33.84025192260742 2.664690017700195 39.61005401611328 1.500002384185791 45.55858993530273 1.500002384185791 C 51.50712585449219 1.500002384185791 57.27692794799805 2.664690017700195 62.70772933959961 4.961727619171143 C 67.95401763916016 7.180715084075928 72.66597747802734 10.35771465301514 76.71271514892578 14.40446472167969 C 80.75946807861328 18.45121574401855 83.93646240234375 23.16317749023438 86.15544891357422 28.40946578979492 C 88.45249176025391 33.84025192260742 89.61717987060547 39.61005401611328 89.61717987060547 45.55858993530273 C 89.61717987060547 51.50712585449219 88.45249176025391 57.27692794799805 86.15544891357422 62.70772933959961 C 83.93646240234375 67.95401763916016 80.75946807861328 72.66597747802734 76.71271514892578 76.71271514892578 C 72.66597747802734 80.75946807861328 67.95401763916016 83.93646240234375 62.70772933959961 86.15544891357422 C 57.27692794799805 88.45249176025391 51.50712585449219 89.61717987060547 45.55858993530273 89.61717987060547 Z" stroke="none"/>
              <path d="M 45.55858993530273 3.000007629394531 C 39.8118896484375 3.000007629394531 34.23868942260742 4.124832153320312 28.99378967285156 6.343231201171875 C 23.92630767822266 8.486602783203125 19.37460327148438 11.55564880371094 15.46511840820312 15.46511840820312 C 11.55564880371094 19.37460327148438 8.486602783203125 23.92630767822266 6.343231201171875 28.99378967285156 C 4.124832153320312 34.23868942260742 3.000007629394531 39.8118896484375 3.000007629394531 45.55858993530273 C 3.000007629394531 51.30529022216797 4.124832153320312 56.87849044799805 6.343231201171875 62.12339019775391 C 8.486602783203125 67.19087219238281 11.55564880371094 71.74257659912109 15.46511840820312 75.65206146240234 C 19.37460327148438 79.56153106689453 23.92630767822266 82.63057708740234 28.99378967285156 84.77394866943359 C 34.23868942260742 86.99234771728516 39.8118896484375 88.11717224121094 45.55858993530273 88.11717224121094 C 51.30529022216797 88.11717224121094 56.87849044799805 86.99234771728516 62.12339019775391 84.77394866943359 C 67.19087219238281 82.63057708740234 71.74257659912109 79.56153106689453 75.65206146240234 75.65206146240234 C 79.56153106689453 71.74257659912109 82.63057708740234 67.19087219238281 84.77394866943359 62.12339019775391 C 86.99234771728516 56.87849044799805 88.11717224121094 51.30529022216797 88.11717224121094 45.55858993530273 C 88.11717224121094 39.8118896484375 86.99234771728516 34.23868942260742 84.77394866943359 28.99378967285156 C 82.63057708740234 23.92630767822266 79.56153106689453 19.37460327148438 75.65206146240234 15.46511840820312 C 71.74257659912109 11.55564880371094 67.19087219238281 8.486602783203125 62.12339019775391 6.343231201171875 C 56.87849044799805 4.124832153320312 51.30529022216797 3.000007629394531 45.55858993530273 3.000007629394531 M 45.55858993530273 7.62939453125e-06 C 70.71990203857422 7.62939453125e-06 91.11717224121094 20.39727783203125 91.11717224121094 45.55858993530273 C 91.11717224121094 70.71990203857422 70.71990203857422 91.11717224121094 45.55858993530273 91.11717224121094 C 20.39727783203125 91.11717224121094 7.62939453125e-06 70.71990203857422 7.62939453125e-06 45.55858993530273 C 7.62939453125e-06 20.39727783203125 20.39727783203125 7.62939453125e-06 45.55858993530273 7.62939453125e-06 Z" stroke="none" fill="#a530fe"/>
            </g>
          </g>
        </g>
      </g>
    </g>
    <g id="Page-1" transform="translate(749.118 5822.067)">
      <g id="_004---Binoculars" data-name="004---Binoculars" transform="translate(-0.004 0)">
        <g id="Icons_copy" transform="translate(1.092 1.077)">
          <path id="Shape" d="M39.2,55.3c0,2.383-6.762,4.314-15.1,4.314S9,57.682,9,55.3c0-1.941,4.486-3.58,10.665-4.109l2.211,3a2.781,2.781,0,0,0,4.443,0l2.2-3h.011C34.709,51.718,39.2,53.358,39.2,55.3Z" transform="translate(0.696 2.937)" fill="#607d8b"/>
          <path id="Shape-2" data-name="Shape" d="M27.55,51.19h-.011l-.264.36c4.6.729,7.705,2.131,7.705,3.749,0,2.227-5.9,4.057-13.48,4.288.532.016,1.071.026,1.618.026,8.336,0,15.1-1.93,15.1-4.314C38.215,53.358,33.729,51.718,27.55,51.19Z" transform="translate(1.676 2.937)" fill="#37474f"/>
          <path id="Shape-3" data-name="Shape" d="M49.606,25.8A24.809,24.809,0,0,1,33.8,48.9l-4.562,6.222h-.011l-2.2,3a2.781,2.781,0,0,1-4.443,0l-2.211-3L15.809,48.9a24.8,24.8,0,1,1,33.8-23.1Z" transform="translate(-0.008 -0.998)" fill="#f44335"/>
          <path id="Shape-4" data-name="Shape" d="M23.118,1c-.539,0-1.078.024-1.618.058A24.79,24.79,0,0,1,28.876,48.9l-4.562,6.222H24.3l-2.2,3a2.733,2.733,0,0,1-.6.574,2.773,2.773,0,0,0,3.839-.574l2.2-3h.011L32.111,48.9A24.793,24.793,0,0,0,23.118,1Z" transform="translate(1.676 -0.998)" fill="#c81e1e"/>
          <circle id="Oval" cx="20.49" cy="20.49" r="20.49" transform="translate(4.304 4.315)" fill="#ffdc00"/>
          <path id="Shape-5" data-name="Shape" d="M23.118,5c-.546,0-1.078.04-1.618.082a20.47,20.47,0,0,1,0,40.815c.539.042,1.072.082,1.618.082A20.49,20.49,0,1,0,23.118,5Z" transform="translate(1.676 -0.685)" fill="#fec108"/>
          <path id="Shape-6" data-name="Shape" d="M21.941,28.471A6.47,6.47,0,1,1,9,28.471a6.31,6.31,0,0,1,.226-1.7l.075-.259a6.47,6.47,0,0,1,12.639,1.963Z" transform="translate(0.696 0.647)" fill="#00bcd4"/>
          <path id="Shape-7" data-name="Shape" d="M15.118,22a6.421,6.421,0,0,0-1.593.216A6.462,6.462,0,0,1,13.5,34.725,6.47,6.47,0,1,0,15.118,22Z" transform="translate(1.049 0.648)" fill="#00838f"/>
          <path id="Shape-8" data-name="Shape" d="M37.939,28.47a6.46,6.46,0,1,1-.3-1.963l.075.259a6.31,6.31,0,0,1,.226,1.7Z" transform="translate(1.952 0.648)" fill="#00bcd4"/>
          <path id="Shape-9" data-name="Shape" d="M37.363,26.767l-.075-.259a6.443,6.443,0,0,0-7.811-4.292,6.47,6.47,0,0,1,4.576,4.292l.075.259a6.31,6.31,0,0,1,.226,1.7A6.47,6.47,0,0,1,29.5,34.725a6.447,6.447,0,0,0,8.088-6.255A6.31,6.31,0,0,0,37.363,26.767Z" transform="translate(2.302 0.648)" fill="#00838f"/>
          <path id="Shape-10" data-name="Shape" d="M37.639,26.978A6.47,6.47,0,0,0,25,28.941V19.2a2.141,2.141,0,0,1,.96-1.8,1.136,1.136,0,0,1,.119-.075A7.95,7.95,0,0,1,30.392,16a6.779,6.779,0,0,1,1.844.259,3.808,3.808,0,0,1,2.912,2.3Z" transform="translate(1.951 0.178)" fill="#02a9f4"/>
          <path id="Shape-11" data-name="Shape" d="M34.878,18.556a3.808,3.808,0,0,0-2.912-2.3A6.779,6.779,0,0,0,30.122,16a7.359,7.359,0,0,0-1.677.2c.1.023.19.031.286.059a3.808,3.808,0,0,1,2.912,2.3l1.228,4.153a6.477,6.477,0,0,1,4.5,4.269Z" transform="translate(2.221 0.178)" fill="#0377bc"/>
          <path id="Shape-12" data-name="Shape" d="M25.314,25.157v3.235H21V25.157a2.157,2.157,0,0,1,4.314,0Z" transform="translate(1.637 0.726)" fill="#545c60"/>
          <path id="Shape-13" data-name="Shape" d="M20.448,14.922V17.64a7.95,7.95,0,0,0-4.314-1.326,6.779,6.779,0,0,0-1.844.259l.356-2.135a2.921,2.921,0,0,1,5.8.485Z" transform="translate(1.111 -0.136)" fill="#7f8e94"/>
          <path id="Shape-14" data-name="Shape" d="M32.158,16.572a6.779,6.779,0,0,0-1.844-.259A7.95,7.95,0,0,0,26,17.64V14.922a2.921,2.921,0,0,1,5.8-.485Z" transform="translate(2.029 -0.136)" fill="#7f8e94"/>
          <path id="Shape-15" data-name="Shape" d="M21.919,19.2v9.738A6.47,6.47,0,0,0,9.28,26.978l2.491-8.422a3.808,3.808,0,0,1,2.912-2.3A6.779,6.779,0,0,1,16.527,16a7.95,7.95,0,0,1,4.314,1.326,1.136,1.136,0,0,1,.119.075,2.141,2.141,0,0,1,.96,1.8Z" transform="translate(0.718 0.178)" fill="#02a9f4"/>
          <path id="Shape-16" data-name="Shape" d="M20.545,17.4a1.136,1.136,0,0,0-.119-.075A7.95,7.95,0,0,0,16.113,16a6.86,6.86,0,0,0-1.558.2,8.264,8.264,0,0,1,2.637,1.127,1.136,1.136,0,0,1,.119.075,2.141,2.141,0,0,1,.96,1.8v4.142a6.471,6.471,0,0,1,3.235,5.6V19.2a2.141,2.141,0,0,0-.96-1.8Z" transform="translate(1.132 0.178)" fill="#0377bc"/>
          <path id="Shape-17" data-name="Shape" d="M25.314,20.157v5.392a2.157,2.157,0,0,0-4.314,0V20.157a2.157,2.157,0,0,1,4.314,0Z" transform="translate(1.637 0.334)" fill="#7f8e94"/>
        </g>
        <g id="Icons" transform="translate(0)">
          <path id="Shape-18" data-name="Shape" d="M15.078,29.313a1.078,1.078,0,0,1-.762-1.841l2.157-2.157A1.078,1.078,0,0,1,18,26.84L15.841,29a1.078,1.078,0,0,1-.762.316Z" transform="translate(0.024 1.961)" fill="#fff"/>
          <path id="Shape-19" data-name="Shape" d="M31.078,29.313a1.078,1.078,0,0,1-.762-1.841l2.157-2.157A1.078,1.078,0,0,1,34,26.84L31.841,29a1.078,1.078,0,0,1-.762.316Z" transform="translate(1.278 1.961)" fill="#fff"/>
          <g id="Grupo_1150626" data-name="Grupo 1150626">
            <path id="Shape-20" data-name="Shape" d="M26.568,4A21.568,21.568,0,1,0,48.136,25.568,21.568,21.568,0,0,0,26.568,4Zm0,40.979A19.411,19.411,0,1,1,45.979,25.568,19.411,19.411,0,0,1,26.568,44.979Z" transform="translate(-0.682 0.314)"/>
            <path id="Shape-21" data-name="Shape" d="M26.882,0A25.872,25.872,0,0,0,17.2,49.869l3.279,4.465c-3.653.478-9.776,1.757-9.776,4.978,0,3.705,8.385,5.392,16.176,5.392s16.176-1.687,16.176-5.392c0-3.206-6.068-4.489-9.779-4.974l3.283-4.469A25.872,25.872,0,0,0,26.882,0ZM40.9,59.312c0,.971-4.77,3.235-14.019,3.235s-14.019-2.265-14.019-3.235c0-.723,2.761-2.351,9.09-2.975L23.8,58.848a3.86,3.86,0,0,0,6.174-.009l1.833-2.5C38.14,56.961,40.9,58.589,40.9,59.312ZM35.486,47.975a23.412,23.412,0,0,1-4.474,1.249,1.078,1.078,0,1,0,.367,2.124c.562-.1,1.124-.221,1.683-.359l-4.82,6.564a1.76,1.76,0,0,1-2.712.01L20.7,50.985c.56.138,1.122.262,1.683.359a1.078,1.078,0,1,0,.367-2.124,23.411,23.411,0,0,1-4.474-1.249,23.725,23.725,0,1,1,17.209,0Z" transform="translate(-0.996 0)"/>
            <path id="Shape-22" data-name="Shape" d="M42.033,27.176c-.013-.041-.025-.084-.038-.125l-2.48-8.405a4.571,4.571,0,0,0-2.994-2.825l-.247-1.483A4,4,0,0,0,28.332,15v2.209a3.187,3.187,0,0,0-.58.689,3.117,3.117,0,0,0-3.153,0,3.156,3.156,0,0,0-.58-.689V15a4,4,0,0,0-7.943-.663l-.247,1.48a4.571,4.571,0,0,0-2.994,2.825l-2.48,8.405c-.013.041-.025.084-.038.125l-.045.156a7.541,7.541,0,1,0,14.74,3.082H27.34A7.542,7.542,0,1,0,42.073,27.33h.005Zm-4.585-7.919,1.03,3.491a7.52,7.52,0,0,0-9.067,1.311v-4.47a1.085,1.085,0,0,1,.483-.9,6.975,6.975,0,0,1,3.83-1.218c1.328,0,3.36.553,3.724,1.784ZM25.1,26.1a1.078,1.078,0,1,1,2.157,0v2.157H25.1Zm7.236-12.941a1.866,1.866,0,0,1,1.816,1.536l.108.647c-.178-.009-.359-.026-.533-.026a8.642,8.642,0,0,0-3.235.647V15A1.846,1.846,0,0,1,32.333,13.156Zm-6.158,6.47a1.078,1.078,0,0,1,1.078,1.078V23.06a3.029,3.029,0,0,0-2.157,0V20.705A1.078,1.078,0,0,1,26.175,19.627ZM18.2,14.7a1.843,1.843,0,0,1,3.66.3v.96a8.642,8.642,0,0,0-3.235-.647c-.174,0-.355.017-.533.029Zm.425,2.774a6.969,6.969,0,0,1,3.829,1.218,1.078,1.078,0,0,1,.484.9v4.47a7.52,7.52,0,0,0-9.067-1.315l1.03-3.491c.363-1.23,2.4-1.784,3.724-1.784ZM17.548,34.724a5.392,5.392,0,1,1,5.392-5.392A5.392,5.392,0,0,1,17.548,34.724Zm17.254,0a5.392,5.392,0,1,1,5.392-5.392A5.392,5.392,0,0,1,34.8,34.724Z" transform="translate(-0.289 0.863)"/>
          </g>
        </g>
      </g>
    </g>
  </g>
</svg>
