<svg xmlns="http://www.w3.org/2000/svg" xmlns:xlink="http://www.w3.org/1999/xlink" width="108" height="108" viewBox="0 0 108 108">
  <defs>
    <filter id="Trazado_982419" x="0" y="0" width="108" height="108" filterUnits="userSpaceOnUse">
      <feOffset dy="3" input="SourceAlpha"/>
      <feGaussianBlur stdDeviation="3" result="blur"/>
      <feFlood flood-opacity="0.161"/>
      <feComposite operator="in" in2="blur"/>
      <feComposite in="SourceGraphic"/>
    </filter>
  </defs>
  <g id="Grupo_1150130" data-name="Grupo 1150130" transform="translate(-192 -1957)">
    <g id="Grupo_1150006" data-name="Grupo 1150006" transform="translate(-425 -4013)">
      <g id="Grupo_1149446" data-name="Grupo 1149446" transform="translate(626 5976)">
        <g id="Grupo_1148767" data-name="Grupo 1148767">
          <g transform="matrix(1, 0, 0, 1, -9, -6)" filter="url(#Trazado_982419)">
            <g id="Trazado_982419-2" data-name="Trazado 982419" transform="translate(9 6)" fill="#e6fbf1">
              <path d="M 45 88.5 C 39.12687683105469 88.5 33.43022537231445 87.35007476806641 28.06830024719238 85.08217620849609 C 22.88852500915527 82.89131164550781 18.23629951477051 79.75458526611328 14.2408504486084 75.75914764404297 C 10.24541282653809 71.76370239257812 7.108687400817871 67.11147308349609 4.917825222015381 61.93170166015625 C 2.649924993515015 56.56977462768555 1.5 50.87312316894531 1.5 45 C 1.5 39.12687683105469 2.649924993515015 33.43022537231445 4.917825222015381 28.06830024719238 C 7.108687400817871 22.88852500915527 10.24541282653809 18.23629951477051 14.2408504486084 14.2408504486084 C 18.23629951477051 10.24541282653809 22.88852500915527 7.108687400817871 28.06830024719238 4.917825222015381 C 33.43022537231445 2.649924993515015 39.12687683105469 1.5 45 1.5 C 50.87312316894531 1.5 56.56977462768555 2.649924993515015 61.93170166015625 4.917825222015381 C 67.11147308349609 7.108687400817871 71.76370239257812 10.24541282653809 75.75914764404297 14.2408504486084 C 79.75458526611328 18.23629951477051 82.89131164550781 22.88852500915527 85.08217620849609 28.06830024719238 C 87.35007476806641 33.43022537231445 88.5 39.12687683105469 88.5 45 C 88.5 50.87312316894531 87.35007476806641 56.56977462768555 85.08217620849609 61.93170166015625 C 82.89131164550781 67.11147308349609 79.75458526611328 71.76370239257812 75.75914764404297 75.75914764404297 C 71.76370239257812 79.75458526611328 67.11147308349609 82.89131164550781 61.93170166015625 85.08217620849609 C 56.56977462768555 87.35007476806641 50.87312316894531 88.5 45 88.5 Z" stroke="none"/>
              <path d="M 45 3 C 39.32871246337891 3 33.82865524291992 4.110054016113281 28.65262985229492 6.299339294433594 C 23.65165710449219 8.414573669433594 19.15968322753906 11.44334411621094 15.301513671875 15.301513671875 C 11.44334411621094 19.15968322753906 8.414573669433594 23.65165710449219 6.299339294433594 28.65262985229492 C 4.110054016113281 33.82865524291992 3 39.32871246337891 3 45 C 3 50.67128753662109 4.110054016113281 56.17134475708008 6.299339294433594 61.34737396240234 C 8.414573669433594 66.34834289550781 11.44334411621094 70.84031677246094 15.301513671875 74.698486328125 C 19.15968322753906 78.55665588378906 23.65165710449219 81.58542633056641 28.65262985229492 83.70066070556641 C 33.82865524291992 85.88994598388672 39.32871246337891 87 45 87 C 50.67128753662109 87 56.17134475708008 85.88994598388672 61.34737396240234 83.70066070556641 C 66.34834289550781 81.58542633056641 70.84031677246094 78.55665588378906 74.698486328125 74.698486328125 C 78.55665588378906 70.84031677246094 81.58542633056641 66.34834289550781 83.70066070556641 61.34737396240234 C 85.88994598388672 56.17134475708008 87 50.67128753662109 87 45 C 87 39.32871246337891 85.88994598388672 33.82865524291992 83.70066070556641 28.65262985229492 C 81.58542633056641 23.65165710449219 78.55665588378906 19.15968322753906 74.698486328125 15.301513671875 C 70.84031677246094 11.44334411621094 66.34834289550781 8.414573669433594 61.34737396240234 6.299339294433594 C 56.17134475708008 4.110054016113281 50.67128753662109 3 45 3 M 45 0 C 69.85281372070312 0 90 20.14718627929688 90 45 C 90 69.85281372070312 69.85281372070312 90 45 90 C 20.14718627929688 90 0 69.85281372070312 0 45 C 0 20.14718627929688 20.14718627929688 0 45 0 Z" stroke="none" fill="#15da7e"/>
            </g>
          </g>
        </g>
      </g>
    </g>
    <g id="estrella_1_" data-name="estrella (1)" transform="translate(219.865 1981.924)">
      <path id="Trazado_985741" data-name="Trazado 985741" d="M387.621,162.632a3.055,3.055,0,0,1,3.055,3.055v12.22h-6.11v-12.22A3.055,3.055,0,0,1,387.621,162.632Z" transform="translate(-345.345 -146.07)" fill="#ff876c"/>
      <path id="Trazado_985742" data-name="Trazado 985742" d="M417.621,97.632a3.055,3.055,0,0,0-3.055,3.055v12.22h6.11v-12.22A3.055,3.055,0,0,0,417.621,97.632Z" transform="translate(-372.29 -87.69)" fill="#ff9e90"/>
      <path id="Trazado_985743" data-name="Trazado 985743" d="M402.713,67.632a3.036,3.036,0,0,0-1.286.284l-1.339,25.553-5.521,13.063,10.375-14.6a5.7,5.7,0,0,0,.826-2.812V70.687A3.055,3.055,0,0,0,402.713,67.632Z" transform="translate(-354.327 -60.745)" fill="#ff9e90"/>
      <path id="Trazado_985744" data-name="Trazado 985744" d="M291.869,73.193V93.152a8.143,8.143,0,0,1-.589,2.823l-7.558,13.063v5.6H271.155v-3.055l3.3-11.565,14.358-11.551V73.193a3.052,3.052,0,0,1,1.769-2.771A3.273,3.273,0,0,1,291.869,73.193Z" transform="translate(-243.483 -63.25)" fill="#ffb4b3"/>
      <path id="Trazado_985745" data-name="Trazado 985745" d="M283.6,218.524a3.055,3.055,0,1,1,4.32,4.32L277.265,233.5v4.191a6.128,6.128,0,0,1-6.11,6.11V233.506a6.1,6.1,0,0,1,1.785-4.324Z" transform="translate(-243.483 -195.467)" fill="#ffcad6"/>
      <path id="Trazado_985746" data-name="Trazado 985746" d="M70.621,162.632a3.055,3.055,0,0,0-3.055,3.055v12.22h6.11v-12.22A3.055,3.055,0,0,0,70.621,162.632Z" transform="translate(-60.626 -146.07)" fill="#ff876c"/>
      <path id="Trazado_985747" data-name="Trazado 985747" d="M40.621,97.632a3.055,3.055,0,0,0-3.055,3.055v12.22h6.11v-12.22A3.055,3.055,0,0,0,40.621,97.632Z" transform="translate(-33.681 -87.69)" fill="#ff9e90"/>
      <path id="Trazado_985748" data-name="Trazado 985748" d="M160.143,393.556v3.055h-3.055l-6.11-12.247Z" transform="translate(-135.544 -345.223)" fill="#ff9e90"/>
      <path id="Trazado_985749" data-name="Trazado 985749" d="M108.564,229.184,97.906,218.526a3.045,3.045,0,0,0-2.367-.888l11.755,25.34a6.06,6.06,0,0,0,3.055.824V233.508A6.1,6.1,0,0,0,108.564,229.184Z" transform="translate(-85.751 -195.469)" fill="#ffb4b3"/>
      <path id="Trazado_985750" data-name="Trazado 985750" d="M27.525,98.029,13.676,85.962V70.687a3.055,3.055,0,0,0-6.11,0V89.119a5.7,5.7,0,0,0,.826,2.812l10.375,14.6v5.6H28.28v-3.879Z" transform="translate(-6.736 -60.745)" fill="#ffb4b3"/>
      <path id="Trazado_985751" data-name="Trazado 985751" d="M82.167,233.569v9.47a6.124,6.124,0,0,1-3.055-5.286v-4.191L68.458,222.907a3.055,3.055,0,0,1,1.953-5.208,2.346,2.346,0,0,1,1.614.888l8.668,10.658A6.8,6.8,0,0,1,82.167,233.569Z" transform="translate(-60.624 -195.53)" fill="#ffcad6"/>
      <path id="Trazado_985752" data-name="Trazado 985752" d="M252.444,15.8l1.424-8.3-3.358,1.765-5.195,9.594,10.5,3.213,2.659-.386Z" transform="translate(-220.275 -6.736)" fill="#ff9441"/>
      <path id="Trazado_985753" data-name="Trazado 985753" d="M153.733,9.265l-4.1,2.156L142.175,7.5l1.424,8.3-6.034,5.881L145.9,22.9l3.729,7.556,3.729-7.556,5.68-.825-6.43-6.268Z" transform="translate(-123.498 -6.736)" fill="#ffb739"/>
      <path id="Trazado_985754" data-name="Trazado 985754" d="M13.813,77.644V73.625a3.825,3.825,0,0,0-3.055-3.742V67.006a3.824,3.824,0,0,0-3.12-3.754,3.818,3.818,0,0,0-7.572.7V82.383a6.485,6.485,0,0,0,.968,3.254l10.234,14.4V105.4a.764.764,0,0,0,.764.764H24.6a.764.764,0,0,0,.764-.764V92.048a6.832,6.832,0,0,0-2.009-4.864Zm-1.527-4.019v2.546a3.794,3.794,0,0,0-1.527-.685v-4.02A2.3,2.3,0,0,1,12.286,73.625ZM9.231,67.006v8.48A3.793,3.793,0,0,0,7.7,76.17V64.846A2.3,2.3,0,0,1,9.231,67.006Zm14.6,37.627H12.8V99.8a.763.763,0,0,0-.141-.442L2.279,84.752a4.949,4.949,0,0,1-.685-2.37V63.951a2.291,2.291,0,0,1,4.582,0V79.277c0,.014,0,.028,0,.041a3.792,3.792,0,0,0,1.117,2.608L17.949,92.58a.764.764,0,0,0,1.08-1.08L8.375,80.846a2.288,2.288,0,0,1,1.562-3.908l.058,0,.058,0a2.281,2.281,0,0,1,1.562.667L22.273,88.264a5.314,5.314,0,0,1,1.562,3.784Z" transform="translate(0 -54.008)"/>
      <path id="Trazado_985755" data-name="Trazado 985755" d="M285.133,60.132a3.824,3.824,0,0,0-3.754,3.12,3.824,3.824,0,0,0-3.12,3.754v2.877a3.825,3.825,0,0,0-3.055,3.742v4.019l-9.54,9.54a6.831,6.831,0,0,0-2.009,4.864V105.4a.764.764,0,0,0,.764.764h12.567a.764.764,0,0,0,.764-.764V100.04l10.234-14.4a6.486,6.486,0,0,0,.967-3.254V63.951A3.823,3.823,0,0,0,285.133,60.132Zm-5.346,6.874a2.3,2.3,0,0,1,1.527-2.16V76.17a3.8,3.8,0,0,0-1.527-.685Zm-1.527,4.459v4.02a3.8,3.8,0,0,0-1.527.685V73.625A2.3,2.3,0,0,1,278.259,71.465Zm9.165,10.918a4.949,4.949,0,0,1-.685,2.37l-10.375,14.6a.763.763,0,0,0-.141.442v4.837h-11.04V92.048a5.314,5.314,0,0,1,1.562-3.784L277.4,77.606a2.291,2.291,0,1,1,3.24,3.24L269.989,91.5a.764.764,0,0,0,1.08,1.08l10.654-10.654a3.792,3.792,0,0,0,1.117-2.608c0-.014,0-.027,0-.041V63.951a2.291,2.291,0,1,1,4.582,0V82.383Z" transform="translate(-236.747 -54.008)"/>
      <path id="Trazado_985756" data-name="Trazado 985756" d="M155.077,15.706a.764.764,0,0,0,.423-1.3l-5.746-5.6L151.11.893A.764.764,0,0,0,150,.088l-7.1,3.734L135.8.088a.764.764,0,0,0-1.108.805l.9,5.25a.764.764,0,0,0,1.506-.258l-.639-3.724,6.088,3.2a.764.764,0,0,0,.711,0l6.088-3.2L148.181,8.94a.764.764,0,0,0,.22.676l4.925,4.8-6.807.989a.763.763,0,0,0-.575.418L142.9,21.992l-3.044-6.168a.764.764,0,0,0-.575-.418l-6.807-.989,4.925-4.8a.764.764,0,0,0-1.066-1.094L130.3,14.4a.764.764,0,0,0,.423,1.3l7.941,1.154,3.551,7.2a.764.764,0,0,0,1.37,0l3.551-7.2Z" transform="translate(-116.764 0)"/>
    </g>
  </g>
</svg>
