<svg xmlns="http://www.w3.org/2000/svg" width="34.433" height="24.841" viewBox="0 0 34.433 24.841">
  <g id="creciente_1_" data-name="creciente (1)" transform="translate(0 -25.767)">
    <path id="Trazado_985655" data-name="Trazado 985655" d="M6.545,306.689a.5.5,0,0,0,.5-.5V293.363A1.37,1.37,0,0,0,5.681,292H1.368A1.37,1.37,0,0,0,0,293.363v12.821a.5.5,0,0,0,.5.5ZM1.009,293.363A.36.36,0,0,1,1.368,293H5.681a.359.359,0,0,1,.359.359V305.68H1.009Zm0,0" transform="translate(0 -256.081)"/>
    <path id="Trazado_985656" data-name="Trazado 985656" d="M137.1,241.7a1.37,1.37,0,0,0-1.368,1.368v16.2a.5.5,0,0,0,.5.5h6.04a.5.5,0,0,0,.5-.5v-16.2a1.37,1.37,0,0,0-1.368-1.368Zm4.672,1.368v15.7h-5.032v-15.7a.36.36,0,0,1,.359-.359h4.313A.36.36,0,0,1,141.77,243.067Zm0,0" transform="translate(-126.602 -209.167)"/>
    <path id="Trazado_985657" data-name="Trazado 985657" d="M278.506,212.36V192.774a1.37,1.37,0,0,0-1.368-1.368h-4.313a1.37,1.37,0,0,0-1.368,1.368V212.36a.5.5,0,0,0,.5.5H278a.5.5,0,0,0,.5-.5Zm-1.009-.5h-5.032V192.774a.36.36,0,0,1,.359-.359h4.313a.36.36,0,0,1,.359.359v19.081Zm0,0" transform="translate(-253.2 -162.257)"/>
    <path id="Trazado_985658" data-name="Trazado 985658" d="M407.692,165.954h6.04a.5.5,0,0,0,.5-.5V142.481a1.37,1.37,0,0,0-1.368-1.368h-4.313a1.37,1.37,0,0,0-1.368,1.368V165.45A.5.5,0,0,0,407.692,165.954Zm.5-23.473a.359.359,0,0,1,.359-.359h4.313a.36.36,0,0,1,.359.359v22.464H408.2Zm0,0" transform="translate(-379.804 -115.346)"/>
  </g>
</svg>
