<svg xmlns="http://www.w3.org/2000/svg" width="25.335" height="25.336" viewBox="0 0 25.335 25.336">
  <g id="online-marketing_3514512" transform="translate(0.001 0.006)">
    <path id="Trazado_985659" data-name="Trazado 985659" d="M162.463,57.741H159.53a.5.5,0,0,1-.495-.495V47.269a.5.5,0,0,1,.495-.495h2.933a.5.5,0,0,1,.495.495v9.977A.5.5,0,0,1,162.463,57.741Zm-2.438-.99h1.944V47.764h-1.944Z" transform="translate(-143.297 -42.151)"/>
    <path id="Trazado_985660" data-name="Trazado 985660" d="M218.141,31.568h-2.933a.5.5,0,0,1-.495-.495V18.222a.5.5,0,0,1,.495-.495h2.933a.5.5,0,0,1,.495.495V31.073A.5.5,0,0,1,218.141,31.568Zm-2.438-.99h1.944V18.717H215.7Z" transform="translate(-193.464 -15.978)"/>
    <path id="Trazado_985661" data-name="Trazado 985661" d="M106.785,85.832h-2.934a.5.5,0,0,1-.495-.495V78.446a.5.5,0,0,1,.495-.495h2.934a.5.5,0,0,1,.495.495v6.892A.5.5,0,0,1,106.785,85.832Zm-2.438-.99h1.944v-5.9h-1.944Z" transform="translate(-93.129 -70.242)"/>
    <path id="Trazado_985662" data-name="Trazado 985662" d="M51.108,110.9H48.175a.5.5,0,0,1-.495-.495v-4.138a.5.5,0,0,1,.495-.495h2.933a.5.5,0,0,1,.495.495V110.4A.5.5,0,0,1,51.108,110.9Zm-2.438-.99h1.943v-3.149H48.67Z" transform="translate(-42.962 -95.309)"/>
    <path id="Trazado_985663" data-name="Trazado 985663" d="M11.169,22.332A11.169,11.169,0,1,1,18.217,2.5a.495.495,0,1,1-.625.767A10.179,10.179,0,1,0,20.071,16.1a.495.495,0,1,1,.865.481,11.186,11.186,0,0,1-9.767,5.747Z" transform="translate(0)"/>
    <path id="Trazado_985664" data-name="Trazado 985664" d="M79.32,27.415a.492.492,0,0,1-.229-.057,7.673,7.673,0,0,0-3.547-.869,7.579,7.579,0,0,0-3.385.787.495.495,0,1,1-.438-.887,8.559,8.559,0,0,1,3.823-.889,8.665,8.665,0,0,1,4,.981.495.495,0,0,1-.228.934Z" transform="translate(-64.375 -22.982)"/>
    <path id="Trazado_985665" data-name="Trazado 985665" d="M178.733,180.754a2,2,0,0,1-1.425-.59l-4.68-4.68a.495.495,0,1,1,.7-.7l4.68,4.68a1.026,1.026,0,0,0,1.451-1.451l-4.68-4.68a.495.495,0,1,1,.7-.7l4.68,4.68a2.016,2.016,0,0,1-1.425,3.441Z" transform="translate(-155.414 -155.424)"/>
  </g>
</svg>
