<svg xmlns="http://www.w3.org/2000/svg" xmlns:xlink="http://www.w3.org/1999/xlink" width="110" height="110" viewBox="0 0 110 110">
  <defs>
    <filter id="Trazado_982547" x="0" y="0" width="110" height="110" filterUnits="userSpaceOnUse">
      <feOffset dy="3" input="SourceAlpha"/>
      <feGaussianBlur stdDeviation="3" result="blur"/>
      <feFlood flood-opacity="0.161"/>
      <feComposite operator="in" in2="blur"/>
      <feComposite in="SourceGraphic"/>
    </filter>
  </defs>
  <g id="Grupo_1150125" data-name="Grupo 1150125" transform="translate(-274 -4859)">
    <g id="Grupo_1149673" data-name="Grupo 1149673" transform="translate(283 4865)">
      <g id="Grupo_1148532" data-name="Grupo 1148532" transform="translate(0)">
        <g id="Grupo_1147065" data-name="Grupo 1147065" transform="translate(0 0)">
          <g transform="matrix(1, 0, 0, 1, -9, -6)" filter="url(#Trazado_982547)">
            <g id="Trazado_982547-2" data-name="Trazado 982547" transform="translate(9 6)" fill="#f6f9fc">
              <path d="M 46.00000381469727 90.5 C 39.99188232421875 90.5 34.16427230834961 89.32364654541016 28.67905807495117 87.00359344482422 C 23.38020324707031 84.76236724853516 18.62103080749512 81.55355072021484 14.53375053405762 77.46625518798828 C 10.44645690917969 73.37897491455078 7.237643718719482 68.61980438232422 4.996417045593262 63.32094955444336 C 2.676363706588745 57.83573532104492 1.500003814697266 52.00812530517578 1.500003814697266 46.00000381469727 C 1.500003814697266 39.99188232421875 2.676363706588745 34.16427230834961 4.996417045593262 28.67905807495117 C 7.237643718719482 23.38020324707031 10.44645690917969 18.62104415893555 14.53375053405762 14.53375053405762 C 18.62103080749512 10.44647026062012 23.38020324707031 7.237643718719482 28.67905807495117 4.996417045593262 C 34.16427230834961 2.676363706588745 39.99188232421875 1.500003814697266 46.00000381469727 1.500003814697266 C 52.00812530517578 1.500003814697266 57.83573532104492 2.676363706588745 63.32094955444336 4.996417045593262 C 68.61980438232422 7.237643718719482 73.37897491455078 10.44647026062012 77.46625518798828 14.53375053405762 C 81.55355072021484 18.62104415893555 84.76236724853516 23.38020324707031 87.00359344482422 28.67905807495117 C 89.32364654541016 34.16427230834961 90.5 39.99188232421875 90.5 46.00000381469727 C 90.5 52.00812530517578 89.32364654541016 57.83573532104492 87.00359344482422 63.32094955444336 C 84.76236724853516 68.61980438232422 81.55355072021484 73.37897491455078 77.46625518798828 77.46625518798828 C 73.37897491455078 81.55355072021484 68.61980438232422 84.76236724853516 63.32094955444336 87.00359344482422 C 57.83573532104492 89.32364654541016 52.00812530517578 90.5 46.00000381469727 90.5 Z" stroke="none"/>
              <path d="M 46.00000381469727 3.000007629394531 C 40.19371795654297 3.000007629394531 34.56270217895508 4.136505126953125 29.26338958740234 6.377914428710938 C 24.14333343505859 8.54351806640625 19.54441833496094 11.64440155029297 15.59442138671875 15.59442138671875 C 11.64440155029297 19.54441833496094 8.54351806640625 24.14333343505859 6.377914428710938 29.26338958740234 C 4.136505126953125 34.56270217895508 3.000007629394531 40.19371795654297 3.000007629394531 46.00000381469727 C 3.000007629394531 51.80628967285156 4.136505126953125 57.43730545043945 6.377914428710938 62.73661804199219 C 8.54351806640625 67.85667419433594 11.64440155029297 72.45558929443359 15.59442138671875 76.40558624267578 C 19.54441833496094 80.35560607910156 24.14333343505859 83.45648956298828 29.26338958740234 85.62208557128906 C 34.56270217895508 87.86350250244141 40.19371795654297 89 46.00000381469727 89 C 51.80628967285156 89 57.43730545043945 87.86350250244141 62.73661804199219 85.62208557128906 C 67.85667419433594 83.45648956298828 72.45558929443359 80.35560607910156 76.40558624267578 76.40558624267578 C 80.35560607910156 72.45558929443359 83.45648956298828 67.85667419433594 85.62208557128906 62.73661804199219 C 87.86350250244141 57.43730545043945 89 51.80628967285156 89 46.00000381469727 C 89 40.19371795654297 87.86350250244141 34.56270217895508 85.62208557128906 29.26338958740234 C 83.45648956298828 24.14333343505859 80.35560607910156 19.54441833496094 76.40558624267578 15.59442138671875 C 72.45558929443359 11.64440155029297 67.85667419433594 8.54351806640625 62.73661804199219 6.377914428710938 C 57.43730545043945 4.136505126953125 51.80628967285156 3.000007629394531 46.00000381469727 3.000007629394531 M 46.00000381469727 7.62939453125e-06 C 71.40510559082031 7.62939453125e-06 92 20.59490203857422 92 46.00000381469727 C 92 71.40510559082031 71.40510559082031 92 46.00000381469727 92 C 20.59490203857422 92 7.62939453125e-06 71.40510559082031 7.62939453125e-06 46.00000381469727 C 7.62939453125e-06 20.59490203857422 20.59490203857422 7.62939453125e-06 46.00000381469727 7.62939453125e-06 Z" stroke="none" fill="#a530fe"/>
            </g>
          </g>
        </g>
      </g>
    </g>
    <g id="codigo" transform="translate(300.74 4867.498)">
      <g id="Grupo_1150639" data-name="Grupo 1150639" transform="translate(1.222 20.165)">
        <g id="Grupo_1150631" data-name="Grupo 1150631" transform="translate(20.404 42.127)">
          <path id="Trazado_986860" data-name="Trazado 986860" d="M194.937,410.536h13.269v7.733H194.937Z" transform="translate(-194.937 -410.536)" fill="#375d78" fill-rule="evenodd"/>
        </g>
        <g id="Grupo_1150632" data-name="Grupo 1150632" transform="translate(30.719 42.127)">
          <path id="Trazado_986861" data-name="Trazado 986861" d="M289.877,410.536h2.954v7.733h-2.954Z" transform="translate(-289.877 -410.536)" fill="#2f4f66" fill-rule="evenodd"/>
        </g>
        <g id="Grupo_1150633" data-name="Grupo 1150633" transform="translate(0 6.898)">
          <path id="Trazado_986862" data-name="Trazado 986862" d="M7.144,86.3H61.221v35.229H7.144Z" transform="translate(-7.144 -86.296)" fill="#77e4f2" fill-rule="evenodd"/>
        </g>
        <g id="Grupo_1150634" data-name="Grupo 1150634" transform="translate(0 37.758)">
          <path id="Trazado_986863" data-name="Trazado 986863" d="M61.221,370.331H7.144V374.7H61.221Z" transform="translate(-7.144 -370.331)" fill="#407093" fill-rule="evenodd"/>
        </g>
        <g id="Grupo_1150635" data-name="Grupo 1150635" transform="translate(3.016 7.398)">
          <path id="Trazado_986864" data-name="Trazado 986864" d="M34.9,90.9H82.946v26.979H34.9Z" transform="translate(-34.905 -90.898)" fill="#f1f1f9" fill-rule="evenodd"/>
        </g>
        <g id="Grupo_1150636" data-name="Grupo 1150636" transform="translate(3.016 0)">
          <path id="Trazado_986865" data-name="Trazado 986865" d="M34.9,22.811H82.946v7.4H34.9Z" transform="translate(-34.905 -22.811)" fill="#31a7fb" fill-rule="evenodd"/>
        </g>
        <g id="Grupo_1150637" data-name="Grupo 1150637" transform="translate(27.512 10.7)">
          <path id="Trazado_986866" data-name="Trazado 986866" d="M272.158,121.445v1.645a8.4,8.4,0,0,1,2.855,1.181l1.161-1.161a10.141,10.141,0,0,1,2.474,2.47l-1.164,1.164a8.347,8.347,0,0,1,1.184,2.852h1.645a10.174,10.174,0,0,1,0,3.5h-1.645a8.391,8.391,0,0,1-1.184,2.855l1.164,1.161a10.084,10.084,0,0,1-2.474,2.47l-1.161-1.161a8.4,8.4,0,0,1-2.855,1.184v1.641a9.943,9.943,0,0,1-3.493,0V139.6a8.428,8.428,0,0,1-2.855-1.184l-1.161,1.161a10.084,10.084,0,0,1-2.474-2.47l1.164-1.164a8.347,8.347,0,0,1-1.184-2.852H260.51a10.174,10.174,0,0,1,0-3.5h1.645a8.348,8.348,0,0,1,1.184-2.852l-1.164-1.164a10.141,10.141,0,0,1,2.474-2.47l1.161,1.161a8.422,8.422,0,0,1,2.855-1.181v-1.645a10.159,10.159,0,0,1,3.493,0Z" transform="translate(-260.359 -121.294)" fill="#fd4755" fill-rule="evenodd"/>
        </g>
        <g id="Grupo_1150638" data-name="Grupo 1150638" transform="translate(32.542 15.726)">
          <path id="Trazado_986867" data-name="Trazado 986867" d="M311.672,167.553a5.024,5.024,0,1,1-5.023,5.026A5.026,5.026,0,0,1,311.672,167.553Z" transform="translate(-306.649 -167.553)" fill="#fff" fill-rule="evenodd"/>
        </g>
      </g>
      <path id="Trazado_986868" data-name="Trazado 986868" d="M55.211,26.718h-2.2V20.653a.81.81,0,0,0-.81-.81H4.316a.81.81,0,0,0-.81.81v6.066H1.31a.81.81,0,0,0-.81.81V62.643a.81.81,0,0,0,.81.81H20.837v6.088H16.313a.81.81,0,1,0,0,1.62H40.208a.81.81,0,1,0,0-1.62H35.683V63.452H55.211a.81.81,0,0,0,.81-.81V27.528a.81.81,0,0,0-.81-.81ZM5.126,28.836H51.391V54.108H5.126Zm0-7.374H51.391v5.754H5.126Zm-1.62,6.875v26.58a.81.81,0,0,0,.81.81H52.2a.81.81,0,0,0,.81-.81V28.338H54.4V57.479H2.12V28.338Zm30.557,41.2H22.457V63.452H34.064ZM2.12,61.833V59.1H54.4v2.734H2.12Zm8.206-37.491a.81.81,0,0,1-.81.81H9.477a.81.81,0,1,1,0-1.62h.039a.81.81,0,0,1,.81.81Zm37.527,0a.81.81,0,0,1-.81.81H22.762a.81.81,0,1,1,0-1.62H47.044a.81.81,0,0,1,.81.81Zm-34.763,0a.81.81,0,0,1-.81.81h-.039a.81.81,0,1,1,0-1.62h.039a.81.81,0,0,1,.81.81Zm2.764,0a.81.81,0,0,1-.81.81H15a.81.81,0,1,1,0-1.62h.039a.81.81,0,0,1,.81.81ZM7.177,37.153a.81.81,0,0,1,0-1.146l3.236-3.236a.81.81,0,0,1,1.145,1.145L8.895,36.58l2.663,2.66a.81.81,0,1,1-1.145,1.146Zm11.34-3.236a.81.81,0,0,1,1.145-1.145L22.9,36.008a.81.81,0,0,1,0,1.146l-3.236,3.233a.81.81,0,0,1-1.145-1.146l2.663-2.66Zm-5.79,5.858,3.141-7.052a.81.81,0,1,1,1.48.659l-3.141,7.052a.81.81,0,0,1-1.48-.659Zm35.893-.992H47.614a9.077,9.077,0,0,0-.793-1.908l.713-.713a.81.81,0,0,0,.09-1.038,10.885,10.885,0,0,0-2.663-2.66.81.81,0,0,0-1.038.09l-.71.71a9.127,9.127,0,0,0-1.91-.791V31.469a.81.81,0,0,0-.671-.8,10.985,10.985,0,0,0-3.76,0,.81.81,0,0,0-.671.8v1.006a9.13,9.13,0,0,0-1.911.791l-.71-.71a.81.81,0,0,0-1.038-.09,10.882,10.882,0,0,0-2.663,2.66.81.81,0,0,0,.09,1.038l.713.713a9.072,9.072,0,0,0-.793,1.908H28.883a.81.81,0,0,0-.8.671,10.95,10.95,0,0,0,0,3.762.81.81,0,0,0,.8.671H29.89a9.069,9.069,0,0,0,.793,1.908l-.713.713a.81.81,0,0,0-.09,1.038,10.816,10.816,0,0,0,2.665,2.661.81.81,0,0,0,1.036-.091l.709-.709A9.148,9.148,0,0,0,36.2,50.2v1a.81.81,0,0,0,.666.8,10.725,10.725,0,0,0,3.769,0,.81.81,0,0,0,.666-.8v-1a9.139,9.139,0,0,0,1.911-.792l.71.71a.81.81,0,0,0,1.036.091,10.815,10.815,0,0,0,2.665-2.661.81.81,0,0,0-.09-1.038l-.713-.713a9.084,9.084,0,0,0,.793-1.908h1.006a.81.81,0,0,0,.8-.671,10.943,10.943,0,0,0,0-3.762.81.81,0,0,0-.8-.672Zm-.706,3.485h-.933a.81.81,0,0,0-.793.643,7.48,7.48,0,0,1-1.066,2.566.81.81,0,0,0,.105,1.016l.662.662a9.184,9.184,0,0,1-1.319,1.318l-.66-.66a.81.81,0,0,0-1.016-.105,7.549,7.549,0,0,1-2.571,1.066.81.81,0,0,0-.641.792V50.5a9.2,9.2,0,0,1-1.862,0v-.933a.81.81,0,0,0-.641-.792,7.546,7.546,0,0,1-2.571-1.066.81.81,0,0,0-1.016.105l-.66.66a9.184,9.184,0,0,1-1.319-1.318l.662-.662a.81.81,0,0,0,.105-1.016,7.484,7.484,0,0,1-1.066-2.566.81.81,0,0,0-.793-.643h-.933a9.307,9.307,0,0,1-.047-.931c0-.31.016-.623.047-.934h.933a.81.81,0,0,0,.793-.643,7.484,7.484,0,0,1,1.066-2.566.81.81,0,0,0-.105-1.016l-.662-.662a9.246,9.246,0,0,1,1.32-1.317l.659.659a.81.81,0,0,0,1.014.106A7.534,7.534,0,0,1,37.177,33.9a.81.81,0,0,0,.644-.793v-.934a9.323,9.323,0,0,1,1.862,0v.934a.81.81,0,0,0,.644.793A7.534,7.534,0,0,1,42.9,34.965a.81.81,0,0,0,1.014-.106l.659-.659a9.252,9.252,0,0,1,1.32,1.317l-.662.662a.81.81,0,0,0-.105,1.016,7.486,7.486,0,0,1,1.066,2.566.81.81,0,0,0,.793.643h.933a9.33,9.33,0,0,1,.047.934c0,.309-.016.62-.047.931Zm-9.163-6.751a5.818,5.818,0,1,0,5.82,5.82A5.826,5.826,0,0,0,38.752,35.518Zm0,10.016a4.2,4.2,0,1,1,4.2-4.2A4.2,4.2,0,0,1,38.752,45.535ZM25.178,43.984a.81.81,0,0,1-.81.81H7.749a.81.81,0,1,1,0-1.62H24.369A.81.81,0,0,1,25.178,43.984Zm0,3.239a.81.81,0,0,1-.81.81H7.749a.81.81,0,1,1,0-1.62H24.369A.81.81,0,0,1,25.178,47.223Zm-8.311,3.243a.81.81,0,0,1-.81.81H7.749a.81.81,0,1,1,0-1.62h8.308A.81.81,0,0,1,16.867,50.466Z"/>
    </g>
  </g>
</svg>
