<svg xmlns="http://www.w3.org/2000/svg" xmlns:xlink="http://www.w3.org/1999/xlink" width="110" height="110" viewBox="0 0 110 110">
  <defs>
    <filter id="Trazado_982547" x="0" y="0" width="110" height="110" filterUnits="userSpaceOnUse">
      <feOffset dy="3" input="SourceAlpha"/>
      <feGaussianBlur stdDeviation="3" result="blur"/>
      <feFlood flood-opacity="0.161"/>
      <feComposite operator="in" in2="blur"/>
      <feComposite in="SourceGraphic"/>
    </filter>
  </defs>
  <g id="Grupo_1150641" data-name="Grupo 1150641" transform="translate(-588 -2840.5)">
    <g id="Grupo_1150126" data-name="Grupo 1150126" transform="translate(0 -2018.5)">
      <g id="Grupo_1149674" data-name="Grupo 1149674" transform="translate(597 4865)">
        <g id="Grupo_1148534" data-name="Grupo 1148534">
          <g id="Grupo_1147066" data-name="Grupo 1147066" transform="translate(0 0)">
            <g transform="matrix(1, 0, 0, 1, -9, -6)" filter="url(#Trazado_982547)">
              <g id="Trazado_982547-2" data-name="Trazado 982547" transform="translate(9 6)" fill="#f6f9fc">
                <path d="M 46.00000381469727 90.5 C 39.99188232421875 90.5 34.16427230834961 89.32364654541016 28.67905807495117 87.00359344482422 C 23.38020324707031 84.76236724853516 18.62103080749512 81.55355072021484 14.53375053405762 77.46625518798828 C 10.44645690917969 73.37897491455078 7.237643718719482 68.61980438232422 4.996417045593262 63.32094955444336 C 2.676363706588745 57.83573532104492 1.500003814697266 52.00812530517578 1.500003814697266 46.00000381469727 C 1.500003814697266 39.99188232421875 2.676363706588745 34.16427230834961 4.996417045593262 28.67905807495117 C 7.237643718719482 23.38020324707031 10.44645690917969 18.62104415893555 14.53375053405762 14.53375053405762 C 18.62103080749512 10.44647026062012 23.38020324707031 7.237643718719482 28.67905807495117 4.996417045593262 C 34.16427230834961 2.676363706588745 39.99188232421875 1.500003814697266 46.00000381469727 1.500003814697266 C 52.00812530517578 1.500003814697266 57.83573532104492 2.676363706588745 63.32094955444336 4.996417045593262 C 68.61980438232422 7.237643718719482 73.37897491455078 10.44647026062012 77.46625518798828 14.53375053405762 C 81.55355072021484 18.62104415893555 84.76236724853516 23.38020324707031 87.00359344482422 28.67905807495117 C 89.32364654541016 34.16427230834961 90.5 39.99188232421875 90.5 46.00000381469727 C 90.5 52.00812530517578 89.32364654541016 57.83573532104492 87.00359344482422 63.32094955444336 C 84.76236724853516 68.61980438232422 81.55355072021484 73.37897491455078 77.46625518798828 77.46625518798828 C 73.37897491455078 81.55355072021484 68.61980438232422 84.76236724853516 63.32094955444336 87.00359344482422 C 57.83573532104492 89.32364654541016 52.00812530517578 90.5 46.00000381469727 90.5 Z" stroke="none"/>
                <path d="M 46.00000381469727 3.000007629394531 C 40.19371795654297 3.000007629394531 34.56270217895508 4.136505126953125 29.26338958740234 6.377914428710938 C 24.14333343505859 8.54351806640625 19.54441833496094 11.64440155029297 15.59442138671875 15.59442138671875 C 11.64440155029297 19.54441833496094 8.54351806640625 24.14333343505859 6.377914428710938 29.26338958740234 C 4.136505126953125 34.56270217895508 3.000007629394531 40.19371795654297 3.000007629394531 46.00000381469727 C 3.000007629394531 51.80628967285156 4.136505126953125 57.43730545043945 6.377914428710938 62.73661804199219 C 8.54351806640625 67.85667419433594 11.64440155029297 72.45558929443359 15.59442138671875 76.40558624267578 C 19.54441833496094 80.35560607910156 24.14333343505859 83.45648956298828 29.26338958740234 85.62208557128906 C 34.56270217895508 87.86350250244141 40.19371795654297 89 46.00000381469727 89 C 51.80628967285156 89 57.43730545043945 87.86350250244141 62.73661804199219 85.62208557128906 C 67.85667419433594 83.45648956298828 72.45558929443359 80.35560607910156 76.40558624267578 76.40558624267578 C 80.35560607910156 72.45558929443359 83.45648956298828 67.85667419433594 85.62208557128906 62.73661804199219 C 87.86350250244141 57.43730545043945 89 51.80628967285156 89 46.00000381469727 C 89 40.19371795654297 87.86350250244141 34.56270217895508 85.62208557128906 29.26338958740234 C 83.45648956298828 24.14333343505859 80.35560607910156 19.54441833496094 76.40558624267578 15.59442138671875 C 72.45558929443359 11.64440155029297 67.85667419433594 8.54351806640625 62.73661804199219 6.377914428710938 C 57.43730545043945 4.136505126953125 51.80628967285156 3.000007629394531 46.00000381469727 3.000007629394531 M 46.00000381469727 7.62939453125e-06 C 71.40510559082031 7.62939453125e-06 92 20.59490203857422 92 46.00000381469727 C 92 71.40510559082031 71.40510559082031 92 46.00000381469727 92 C 20.59490203857422 92 7.62939453125e-06 71.40510559082031 7.62939453125e-06 46.00000381469727 C 7.62939453125e-06 20.59490203857422 20.59490203857422 7.62939453125e-06 46.00000381469727 7.62939453125e-06 Z" stroke="none" fill="#a530fe"/>
              </g>
            </g>
          </g>
        </g>
      </g>
    </g>
    <g id="metodologia-agil" transform="translate(608.009 2857.941)">
      <path id="Trazado_986869" data-name="Trazado 986869" d="M41.488,12.236A29.3,29.3,0,0,1,67.895,28.887L64.978,31.8a25.424,25.424,0,0,0-23.49-15.722v3.979l-6.03-6.03L41.488,8Zm0,50.674,6.03,6.033-6.03,6.03V70.737A29.271,29.271,0,0,1,15.081,54.082l2.913-2.913A25.447,25.447,0,0,0,41.488,66.888ZM20.063,41.485l-6.033,6.03L8,41.485h4.236A29.29,29.29,0,0,1,28.891,15.078L31.8,17.995a25.431,25.431,0,0,0-15.718,23.49Zm42.851,0,6.03-6.029,6.029,6.029H70.737A29.28,29.28,0,0,1,54.086,67.892L51.169,64.98A25.44,25.44,0,0,0,66.892,41.485Z" transform="translate(-6.928 -6.928)" fill="#70da40"/>
      <g id="Grupo_1150640" data-name="Grupo 1150640" transform="translate(1.072 1.072)">
        <path id="Trazado_986870" data-name="Trazado 986870" d="M143.073,153.833a15.033,15.033,0,0,0,3.763-1.561.9.9,0,0,1,.888-.022l2.189,1.114a.912.912,0,0,0,1.078-.171l2.225-2.221a.915.915,0,0,0,.171-1.078L152.27,147.7a.9.9,0,0,1,.026-.888,15.186,15.186,0,0,0,1.561-3.763.9.9,0,0,1,.609-.647l2.337-.758a.918.918,0,0,0,.643-.884V137.62a.911.911,0,0,0-.643-.88l-2.337-.762a.9.9,0,0,1-.609-.647,15.135,15.135,0,0,0-1.561-3.763.9.9,0,0,1-.026-.888l1.118-2.191a.907.907,0,0,0-.171-1.073l-2.225-2.225a.914.914,0,0,0-1.078-.171l-2.189,1.118a.9.9,0,0,1-.888-.026,15.033,15.033,0,0,0-3.763-1.561.9.9,0,0,1-.647-.609l-.762-2.337a.913.913,0,0,0-.88-.643h-3.143a.918.918,0,0,0-.884.643L136,123.94a.905.905,0,0,1-.647.609,14.909,14.909,0,0,0-3.763,1.561.9.9,0,0,1-.888.026l-2.191-1.118a.913.913,0,0,0-1.077.171l-2.221,2.225a.909.909,0,0,0-.171,1.073l1.114,2.191a.9.9,0,0,1-.023.888,15.084,15.084,0,0,0-1.561,3.763.906.906,0,0,1-.613.647l-2.337.762a.914.914,0,0,0-.639.88v3.143a.919.919,0,0,0,.639.884l2.337.758a.911.911,0,0,1,.613.647,15.033,15.033,0,0,0,1.561,3.763.9.9,0,0,1,.023.888l-1.114,2.191a.913.913,0,0,0,.171,1.078l2.221,2.221a.915.915,0,0,0,1.077.171l2.191-1.114a.9.9,0,0,1,.888.022,14.93,14.93,0,0,0,3.763,1.561.913.913,0,0,1,.647.613l.758,2.337a.919.919,0,0,0,.884.639h3.143a.913.913,0,0,0,.88-.639l.762-2.337A.906.906,0,0,1,143.073,153.833Z" transform="translate(-105.725 -105.707)" fill="#2f5274" fill-rule="evenodd"/>
        <path id="Trazado_986871" data-name="Trazado 986871" d="M190.852,201.02a10.17,10.17,0,1,0-10.172-10.172A10.192,10.192,0,0,0,190.852,201.02Z" transform="translate(-157.364 -157.364)" fill="#daeafa" fill-rule="evenodd"/>
        <path id="Trazado_986872" data-name="Trazado 986872" d="M182.275,190.849a10.172,10.172,0,0,1,9.378-10.139c-.261-.019-.524-.03-.791-.03a10.17,10.17,0,1,0,0,20.34c.267,0,.531-.011.791-.034A10.169,10.169,0,0,1,182.275,190.849Z" transform="translate(-157.372 -157.364)" fill="#c4d3e1" fill-rule="evenodd"/>
        <path id="Trazado_986873" data-name="Trazado 986873" d="M42,86.827A29.292,29.292,0,0,1,56.925,61.319l-.9-.9A29.29,29.29,0,0,0,39.37,86.827Z" transform="translate(-35.134 -53.342)" fill="#65c43a" fill-rule="evenodd"/>
        <path id="Trazado_986874" data-name="Trazado 986874" d="M15.345,260.7,10.63,255.99H8l6.03,6.029Z" transform="translate(-8 -222.505)" fill="#65c43a" fill-rule="evenodd"/>
        <path id="Trazado_986875" data-name="Trazado 986875" d="M63.353,327.72l-2.913,2.913a29.271,29.271,0,0,0,26.407,16.655v4.234l2.63-2.63v-1.605A29.271,29.271,0,0,1,63.07,330.631l1.111-1.111C63.885,328.934,63.606,328.333,63.353,327.72Z" transform="translate(-53.359 -284.549)" fill="#65c43a" fill-rule="evenodd"/>
        <path id="Trazado_986876" data-name="Trazado 986876" d="M256.01,414.66v3.846a25.6,25.6,0,0,0,2.63.134V417.29Z" transform="translate(-222.522 -359.75)" fill="#65c43a" fill-rule="evenodd"/>
        <path id="Trazado_986877" data-name="Trazado 986877" d="M327.72,279.485l2.917,2.913c.587-.282,1.163-.579,1.727-.9l-2.013-2.013a25.44,25.44,0,0,0,15.722-23.495h-2.63a25.44,25.44,0,0,1-15.722,23.495Z" transform="translate(-284.549 -222.505)" fill="#65c43a" fill-rule="evenodd"/>
        <path id="Trazado_986878" data-name="Trazado 986878" d="M417.32,217.36l4.714-4.715-1.315-1.315-6.029,6.03Z" transform="translate(-359.776 -183.875)" fill="#65c43a" fill-rule="evenodd"/>
        <path id="Trazado_986879" data-name="Trazado 986879" d="M296.352,83.571l1.8-1.8A25.425,25.425,0,0,0,275.49,67.85v.134a25.443,25.443,0,0,1,20.862,15.587Z" transform="translate(-239.372 -59.769)" fill="#65c43a" fill-rule="evenodd"/>
        <path id="Trazado_986880" data-name="Trazado 986880" d="M217.389,17.429l-3.4-3.4,3.4-3.4V8l-6.029,6.03,6.029,6.029Z" transform="translate(-183.901 -8)" fill="#65c43a" fill-rule="evenodd"/>
      </g>
      <path id="Trazado_986881" data-name="Trazado 986881" d="M33.795,13.9a1.081,1.081,0,0,0,1.846-.764V10.261A24.344,24.344,0,0,1,57.053,25.288a1.079,1.079,0,0,0,.787.648,1.129,1.129,0,0,0,.212.022,1.078,1.078,0,0,0,.764-.317l2.913-2.913a1.081,1.081,0,0,0,.212-1.23,30.357,30.357,0,0,0-26.3-17.251V1.072A1.081,1.081,0,0,0,33.795.308L27.766,6.34a1.081,1.081,0,0,0,0,1.528ZM33.477,3.684V5.31a1.081,1.081,0,0,0,1.082,1.082A28.195,28.195,0,0,1,59.652,21.746L58.4,23A26.509,26.509,0,0,0,34.559,8.075a1.081,1.081,0,0,0-1.082,1.082v1.366L30.06,7.105Zm1.846,51.537a1.082,1.082,0,0,0-1.846.766v2.872A24.359,24.359,0,0,1,12.065,43.83a1.083,1.083,0,0,0-1.765-.351L7.388,46.391a1.081,1.081,0,0,0-.211,1.231,30.434,30.434,0,0,0,5.933,8.385,30.121,30.121,0,0,0,20.367,8.864v3.173a1.08,1.08,0,0,0,1.844.764l6.032-6.032a1.079,1.079,0,0,0,0-1.528Zm.317,10.215V63.808a1.081,1.081,0,0,0-1.082-1.082A28.195,28.195,0,0,1,9.466,47.372l1.256-1.256A26.525,26.525,0,0,0,34.559,61.043a1.082,1.082,0,0,0,1.082-1.082V58.594l3.422,3.419ZM68.811,33.795l-6.029-6.032a1.079,1.079,0,0,0-1.528,0l-6.032,6.032a1.081,1.081,0,0,0,.764,1.846h2.876A24.352,24.352,0,0,1,43.83,57.053a1.082,1.082,0,0,0-.352,1.765l2.917,2.913a1.083,1.083,0,0,0,1.23.211,30.376,30.376,0,0,0,17.248-26.3h3.173a1.082,1.082,0,0,0,.766-1.846Zm-5-.317a1.081,1.081,0,0,0-1.082,1.082A28.212,28.212,0,0,1,47.374,59.652L46.117,58.4a26.518,26.518,0,0,0,14.93-23.838,1.081,1.081,0,0,0-1.082-1.082H58.595l3.422-3.422,3.419,3.422ZM7.868,41.352,13.9,35.323a1.081,1.081,0,0,0-.764-1.846H10.261A24.361,24.361,0,0,1,25.288,12.065,1.081,1.081,0,0,0,25.64,10.3L22.728,7.389a1.081,1.081,0,0,0-1.23-.212,30.357,30.357,0,0,0-17.251,26.3H1.072a1.081,1.081,0,0,0-.764,1.846L6.34,41.352a1.082,1.082,0,0,0,1.528,0ZM3.684,35.641H5.31a1.082,1.082,0,0,0,1.082-1.082A28.195,28.195,0,0,1,21.746,9.466L23,10.721A26.525,26.525,0,0,0,8.075,34.559a1.081,1.081,0,0,0,1.082,1.082h1.366L7.105,39.058ZM47.1,49.324,49.328,47.1A2,2,0,0,0,49.7,44.77l-1.078-2.119a16.111,16.111,0,0,0,1.61-3.879l2.259-.732a2,2,0,0,0,1.384-1.908V32.986a2,2,0,0,0-1.385-1.908l-2.258-.736a16.307,16.307,0,0,0-1.608-3.878l1.075-2.112a2.007,2.007,0,0,0-.366-2.34l-2.223-2.22a1.994,1.994,0,0,0-2.336-.371L42.658,20.5a16.124,16.124,0,0,0-3.881-1.611l-.736-2.259a2,2,0,0,0-1.908-1.384H32.991a2.008,2.008,0,0,0-1.913,1.387l-.73,2.256A16.061,16.061,0,0,0,26.467,20.5l-2.12-1.08a2,2,0,0,0-2.326.373L19.8,22.014a2.014,2.014,0,0,0-.371,2.336L20.5,26.463A16.3,16.3,0,0,0,18.9,30.342l-2.256.736a2,2,0,0,0-1.391,1.909v3.146a2,2,0,0,0,1.391,1.909l2.258.733a16.286,16.286,0,0,0,1.607,3.881l-1.082,2.119A2,2,0,0,0,19.8,47.1l2.218,2.218a2,2,0,0,0,2.336.377l2.117-1.079a16.062,16.062,0,0,0,3.879,1.607l.732,2.256a2.006,2.006,0,0,0,1.913,1.391h3.142a2,2,0,0,0,1.908-1.389l.737-2.259a16.094,16.094,0,0,0,3.879-1.607L44.78,49.7a1.985,1.985,0,0,0,2.324-.377ZM41.64,46.707a13.927,13.927,0,0,1-3.492,1.446l-.008,0a1.975,1.975,0,0,0-1.395,1.322l-.728,2.232H33.1l-.726-2.239a2,2,0,0,0-1.4-1.317,13.927,13.927,0,0,1-3.492-1.446,1.98,1.98,0,0,0-1.923-.055l-2.092,1.065L21.4,45.651l1.064-2.085a1.98,1.98,0,0,0-.054-1.93,14.043,14.043,0,0,1-1.447-3.5,1.992,1.992,0,0,0-1.323-1.395l-2.231-.724V33.1l2.227-.726a1.976,1.976,0,0,0,1.327-1.4,14.189,14.189,0,0,1,1.445-3.49,1.967,1.967,0,0,0,.058-1.928L21.4,23.467,23.468,21.4l2.094,1.067a1.981,1.981,0,0,0,1.923-.058,13.9,13.9,0,0,1,3.484-1.447,1.979,1.979,0,0,0,1.407-1.323l.722-2.229h2.921l.725,2.227a1.984,1.984,0,0,0,1.4,1.325,13.975,13.975,0,0,1,3.489,1.447,1.983,1.983,0,0,0,1.928.058l2.09-1.067,2.067,2.063-1.063,2.09a1.963,1.963,0,0,0,.051,1.927,14.085,14.085,0,0,1,1.447,3.482,1.958,1.958,0,0,0,1.322,1.41l2.232.726V36.02l-2.239.725a1.974,1.974,0,0,0-1.312,1.4,13.956,13.956,0,0,1-1.452,3.494,1.975,1.975,0,0,0-.051,1.925l1.064,2.09-2.066,2.066-2.1-1.071a1.974,1.974,0,0,0-1.915.059Zm-7.081-23.4a11.25,11.25,0,1,0,11.25,11.25,11.263,11.263,0,0,0-11.25-11.25Zm0,20.339a9.089,9.089,0,1,1,9.089-9.089A9.1,9.1,0,0,1,34.559,43.648Zm8.228-8.324-3.269,3.269a1.081,1.081,0,0,1-1.528-1.53l2.5-2.5-2.5-2.5a1.081,1.081,0,0,1,1.528-1.528l3.269,3.269A1.08,1.08,0,0,1,42.787,35.323ZM31.129,32.054l-2.5,2.5,2.5,2.5A1.081,1.081,0,0,1,29.6,38.591l-3.265-3.269a1.082,1.082,0,0,1,0-1.528L29.6,30.524a1.082,1.082,0,1,1,1.531,1.53Zm5.77-.871-2.637,7.471a1.081,1.081,0,0,1-1.019.721,1.1,1.1,0,0,1-.361-.062,1.082,1.082,0,0,1-.66-1.38l2.637-7.471a1.082,1.082,0,1,1,2.04.721Z"/>
    </g>
  </g>
</svg>
