<svg xmlns="http://www.w3.org/2000/svg" xmlns:xlink="http://www.w3.org/1999/xlink" width="110" height="110" viewBox="0 0 110 110">
  <defs>
    <filter id="Trazado_982547" x="0" y="0" width="110" height="110" filterUnits="userSpaceOnUse">
      <feOffset dy="3" input="SourceAlpha"/>
      <feGaussianBlur stdDeviation="3" result="blur"/>
      <feFlood flood-opacity="0.161"/>
      <feComposite operator="in" in2="blur"/>
      <feComposite in="SourceGraphic"/>
    </filter>
  </defs>
  <g id="Grupo_1150648" data-name="Grupo 1150648" transform="translate(-1218 -2840.5)">
    <g id="Grupo_1150128" data-name="Grupo 1150128" transform="translate(0 -2018.5)">
      <g id="Grupo_1149676" data-name="Grupo 1149676" transform="translate(1227 4865)">
        <g id="Grupo_1148534" data-name="Grupo 1148534" transform="translate(0)">
          <g id="Grupo_1147066" data-name="Grupo 1147066" transform="translate(0 0)">
            <g transform="matrix(1, 0, 0, 1, -9, -6)" filter="url(#Trazado_982547)">
              <g id="Trazado_982547-2" data-name="Trazado 982547" transform="translate(9 6)" fill="#f6f9fc">
                <path d="M 46.00000381469727 90.5 C 39.99188232421875 90.5 34.16427230834961 89.32364654541016 28.67905807495117 87.00359344482422 C 23.38020324707031 84.76236724853516 18.62103080749512 81.55355072021484 14.53375053405762 77.46625518798828 C 10.44645690917969 73.37897491455078 7.237643718719482 68.61980438232422 4.996417045593262 63.32094955444336 C 2.676363706588745 57.83573532104492 1.500003814697266 52.00812530517578 1.500003814697266 46.00000381469727 C 1.500003814697266 39.99188232421875 2.676363706588745 34.16427230834961 4.996417045593262 28.67905807495117 C 7.237643718719482 23.38020324707031 10.44645690917969 18.62104415893555 14.53375053405762 14.53375053405762 C 18.62103080749512 10.44647026062012 23.38020324707031 7.237643718719482 28.67905807495117 4.996417045593262 C 34.16427230834961 2.676363706588745 39.99188232421875 1.500003814697266 46.00000381469727 1.500003814697266 C 52.00812530517578 1.500003814697266 57.83573532104492 2.676363706588745 63.32094955444336 4.996417045593262 C 68.61980438232422 7.237643718719482 73.37897491455078 10.44647026062012 77.46625518798828 14.53375053405762 C 81.55355072021484 18.62104415893555 84.76236724853516 23.38020324707031 87.00359344482422 28.67905807495117 C 89.32364654541016 34.16427230834961 90.5 39.99188232421875 90.5 46.00000381469727 C 90.5 52.00812530517578 89.32364654541016 57.83573532104492 87.00359344482422 63.32094955444336 C 84.76236724853516 68.61980438232422 81.55355072021484 73.37897491455078 77.46625518798828 77.46625518798828 C 73.37897491455078 81.55355072021484 68.61980438232422 84.76236724853516 63.32094955444336 87.00359344482422 C 57.83573532104492 89.32364654541016 52.00812530517578 90.5 46.00000381469727 90.5 Z" stroke="none"/>
                <path d="M 46.00000381469727 3.000007629394531 C 40.19371795654297 3.000007629394531 34.56270217895508 4.136505126953125 29.26338958740234 6.377914428710938 C 24.14333343505859 8.54351806640625 19.54441833496094 11.64440155029297 15.59442138671875 15.59442138671875 C 11.64440155029297 19.54441833496094 8.54351806640625 24.14333343505859 6.377914428710938 29.26338958740234 C 4.136505126953125 34.56270217895508 3.000007629394531 40.19371795654297 3.000007629394531 46.00000381469727 C 3.000007629394531 51.80628967285156 4.136505126953125 57.43730545043945 6.377914428710938 62.73661804199219 C 8.54351806640625 67.85667419433594 11.64440155029297 72.45558929443359 15.59442138671875 76.40558624267578 C 19.54441833496094 80.35560607910156 24.14333343505859 83.45648956298828 29.26338958740234 85.62208557128906 C 34.56270217895508 87.86350250244141 40.19371795654297 89 46.00000381469727 89 C 51.80628967285156 89 57.43730545043945 87.86350250244141 62.73661804199219 85.62208557128906 C 67.85667419433594 83.45648956298828 72.45558929443359 80.35560607910156 76.40558624267578 76.40558624267578 C 80.35560607910156 72.45558929443359 83.45648956298828 67.85667419433594 85.62208557128906 62.73661804199219 C 87.86350250244141 57.43730545043945 89 51.80628967285156 89 46.00000381469727 C 89 40.19371795654297 87.86350250244141 34.56270217895508 85.62208557128906 29.26338958740234 C 83.45648956298828 24.14333343505859 80.35560607910156 19.54441833496094 76.40558624267578 15.59442138671875 C 72.45558929443359 11.64440155029297 67.85667419433594 8.54351806640625 62.73661804199219 6.377914428710938 C 57.43730545043945 4.136505126953125 51.80628967285156 3.000007629394531 46.00000381469727 3.000007629394531 M 46.00000381469727 7.62939453125e-06 C 71.40510559082031 7.62939453125e-06 92 20.59490203857422 92 46.00000381469727 C 92 71.40510559082031 71.40510559082031 92 46.00000381469727 92 C 20.59490203857422 92 7.62939453125e-06 71.40510559082031 7.62939453125e-06 46.00000381469727 C 7.62939453125e-06 20.59490203857422 20.59490203857422 7.62939453125e-06 46.00000381469727 7.62939453125e-06 Z" stroke="none" fill="#a530fe"/>
              </g>
            </g>
          </g>
        </g>
      </g>
    </g>
    <g id="idea-creativa" transform="translate(1247.304 2865.312)">
      <g id="Grupo_1149984" data-name="Grupo 1149984" transform="translate(11.422 8.6)">
        <g id="Grupo_1149983" data-name="Grupo 1149983">
          <path id="Trazado_985583" data-name="Trazado 985583" d="M45.38,36.7A15.741,15.741,0,0,1,31.6,42.6a10.121,10.121,0,0,0-8.13,2.818l-.051.051-8.974-8.974.052-.052a10.052,10.052,0,0,0,2.82-8.088A15.774,15.774,0,1,1,45.38,36.7Z" transform="translate(-14.445 -11.119)" fill="#ffd542"/>
        </g>
      </g>
      <g id="Grupo_1149985" data-name="Grupo 1149985" transform="translate(7.371 32.2)">
        <path id="Trazado_985584" data-name="Trazado 985584" d="M22.169,53.157l1.907-1.907a1.364,1.364,0,0,0,0-1.929L14.053,39.3a1.364,1.364,0,0,0-1.928,0l-1.907,1.907a1.848,1.848,0,0,0,0,2.614l9.337,9.337a1.848,1.848,0,0,0,2.614,0Z" transform="translate(-9.676 -38.899)" fill="#0e4a77"/>
      </g>
      <g id="Grupo_1149986" data-name="Grupo 1149986" transform="translate(0.824 37.504)">
        <path id="Trazado_985585" data-name="Trazado 985585" d="M18.018,53.712l-5.529,5.529L3.3,61.168a1.105,1.105,0,0,1-1.308-1.308L3.92,50.673l5.529-5.529Z" transform="translate(-1.97 -45.144)" fill="#f34c6e"/>
      </g>
      <g id="Grupo_1149987" data-name="Grupo 1149987" transform="translate(5.695 40.426)">
        <path id="Trazado_985586" data-name="Trazado 985586" d="M0,0H7.816V3.835H0Z" transform="translate(0 5.526) rotate(-45)" fill="#f34c6e"/>
      </g>
      <g id="Grupo_1149989" data-name="Grupo 1149989" transform="translate(0.82 43.119)">
        <g id="Grupo_1149988" data-name="Grupo 1149988">
          <path id="Trazado_985587" data-name="Trazado 985587" d="M12.4,60.253,6.41,61.515,3.3,62.167a1.117,1.117,0,0,1-1.314-1.314l.651-3.107L3.9,51.754Z" transform="translate(-1.966 -51.754)" fill="#ffd542"/>
        </g>
      </g>
      <g id="Grupo_1149991" data-name="Grupo 1149991" transform="translate(0.82 49.111)">
        <g id="Grupo_1149990" data-name="Grupo 1149990">
          <path id="Trazado_985588" data-name="Trazado 985588" d="M6.41,62.577,3.3,63.228a1.117,1.117,0,0,1-1.314-1.314l.651-3.107a4.124,4.124,0,0,1,3.77,3.77Z" transform="translate(-1.966 -58.807)" fill="#073d6f"/>
        </g>
      </g>
      <g id="Grupo_1149992" data-name="Grupo 1149992">
        <path id="Trazado_985589" data-name="Trazado 985589" d="M54.184,48.758a.824.824,0,0,0-1.165,1.165l2.157,2.157a.824.824,0,1,0,1.165-1.165Z" transform="translate(-8.791 -8.147)" fill="#003"/>
        <path id="Trazado_985590" data-name="Trazado 985590" d="M55.176,8.983,53.019,11.14A.824.824,0,1,0,54.184,12.3l2.157-2.157a.824.824,0,0,0-1.165-1.165Z" transform="translate(-8.791 -2.162)" fill="#003"/>
        <path id="Trazado_985591" data-name="Trazado 985591" d="M41.585,5.563a.822.822,0,0,0,1.009-.583l.789-2.947a.824.824,0,1,0-1.591-.426L41,4.555a.824.824,0,0,0,.583,1.009Z" transform="translate(-7.015 -0.996)" fill="#003"/>
        <path id="Trazado_985592" data-name="Trazado 985592" d="M27.233,4.981a.824.824,0,0,0,1.592-.426l-.79-2.947a.824.824,0,1,0-1.592.426Z" transform="translate(-4.824 -0.996)" fill="#003"/>
        <path id="Trazado_985593" data-name="Trazado 985593" d="M15.4,12.3a.824.824,0,1,0,1.165-1.165L14.408,8.983a.824.824,0,0,0-1.165,1.165Z" transform="translate(-2.806 -2.162)" fill="#003"/>
        <path id="Trazado_985594" data-name="Trazado 985594" d="M5.868,23.774l2.946.789a.824.824,0,1,0,.426-1.592l-2.946-.789a.824.824,0,1,0-.426,1.592Z" transform="translate(-1.641 -4.18)" fill="#003"/>
        <path id="Trazado_985595" data-name="Trazado 985595" d="M42.594,55.942A.824.824,0,0,0,41,56.368l.789,2.947a.824.824,0,1,0,1.591-.426Z" transform="translate(-7.015 -9.172)" fill="#003"/>
        <path id="Trazado_985596" data-name="Trazado 985596" d="M63.575,37.531l-2.946-.79a.824.824,0,1,0-.426,1.591l2.946.79a.824.824,0,1,0,.426-1.591Z" transform="translate(-9.817 -6.371)" fill="#003"/>
        <path id="Trazado_985597" data-name="Trazado 985597" d="M60.415,24.592a.821.821,0,0,0,.214-.029l2.946-.789a.824.824,0,0,0-.426-1.592l-2.946.789a.824.824,0,0,0,.212,1.62Z" transform="translate(-9.817 -4.18)" fill="#003"/>
        <path id="Trazado_985598" data-name="Trazado 985598" d="M46.713,28.315a.828.828,0,0,0-.939.692A14.924,14.924,0,0,1,29.649,41.63,11.079,11.079,0,0,0,22.4,43.459l-2.118-2.118,9.492-9.492,1.508,1.508a3.779,3.779,0,0,0,5.339,0,3.781,3.781,0,0,0-5.347-5.347l-1.5,1.508-1.549-1.541,1.508-1.508a3.781,3.781,0,1,0-5.347-.008l1.508,1.516-9.483,9.483L14.3,35.36a10.94,10.94,0,0,0,1.813-7.226A14.949,14.949,0,0,1,45.8,24.649a.823.823,0,1,0,1.631-.222,16.6,16.6,0,0,0-32.957,3.856,9.345,9.345,0,0,1-1.4,5.891,2.2,2.2,0,0,0-2.834.214L8.326,36.3a2.665,2.665,0,0,0-.173,3.559l-4.96,4.968a.78.78,0,0,0-.222.412l-.338,1.607-1.6,7.58a1.937,1.937,0,0,0,.115,1.1A1.941,1.941,0,0,0,2.2,56.609a2.044,2.044,0,0,0,.741.14,2.107,2.107,0,0,0,.387-.033l7.72-1.631,1.467-.3a.811.811,0,0,0,.412-.222l4.96-4.96a2.682,2.682,0,0,0,1.673.6,2.648,2.648,0,0,0,1.887-.783L23.354,47.5a2.193,2.193,0,0,0,.2-2.851A9.525,9.525,0,0,1,29.5,43.27,16.578,16.578,0,0,0,47.4,29.255a.837.837,0,0,0-.692-.939Zm-14.27.865a2.132,2.132,0,1,1,0,3.016L30.935,30.68Zm-6.9-3.881a2.126,2.126,0,0,1,1.508-3.634A2.13,2.13,0,0,1,28.562,25.3l-1.5,1.508Zm1.516,3.839L28.6,30.68l-9.492,9.492-1.541-1.541ZM9.3,41.045l1.763,1.763L6.645,47.216,4.89,45.461Zm2.925,2.925,1.549,1.549L9.414,49.878,7.865,48.329ZM2.987,55.093a.274.274,0,0,1-.165-.008.523.523,0,0,1-.091-.066.509.509,0,0,1-.066-.1.243.243,0,0,1-.008-.157l1.59-7.613L10.6,53.5Zm9.3-2.233L10.526,51.1l4.408-4.416,1.771,1.771Zm9.9-6.517-1.9,1.9a1.05,1.05,0,0,1-1.45,0L9.5,38.911a1.02,1.02,0,0,1,0-1.45l1.9-1.9a.547.547,0,0,1,.766,0L22.184,45.577a.537.537,0,0,1,0,.766Z" transform="translate(-1 -2.373)" fill="#003"/>
      </g>
    </g>
  </g>
</svg>
