<svg xmlns="http://www.w3.org/2000/svg" xmlns:xlink="http://www.w3.org/1999/xlink" width="110" height="110" viewBox="0 0 110 110">
  <defs>
    <filter id="Trazado_982547" x="0" y="0" width="110" height="110" filterUnits="userSpaceOnUse">
      <feOffset dy="3" input="SourceAlpha"/>
      <feGaussianBlur stdDeviation="3" result="blur"/>
      <feFlood flood-opacity="0.161"/>
      <feComposite operator="in" in2="blur"/>
      <feComposite in="SourceGraphic"/>
    </filter>
  </defs>
  <g id="Grupo_1150008" data-name="Grupo 1150008" transform="translate(-588 -4859)">
    <g id="Grupo_1149674" data-name="Grupo 1149674" transform="translate(597 4865)">
      <g id="Grupo_1148534" data-name="Grupo 1148534">
        <g id="Grupo_1147066" data-name="Grupo 1147066" transform="translate(0 0)">
          <g transform="matrix(1, 0, 0, 1, -9, -6)" filter="url(#Trazado_982547)">
            <g id="Trazado_982547-2" data-name="Trazado 982547" transform="translate(9 6)" fill="#f6f9fc">
              <path d="M 46.00000381469727 90.5 C 39.99188232421875 90.5 34.16427230834961 89.32364654541016 28.67905807495117 87.00359344482422 C 23.38020324707031 84.76236724853516 18.62103080749512 81.55355072021484 14.53375053405762 77.46625518798828 C 10.44645690917969 73.37897491455078 7.237643718719482 68.61980438232422 4.996417045593262 63.32094955444336 C 2.676363706588745 57.83573532104492 1.500003814697266 52.00812530517578 1.500003814697266 46.00000381469727 C 1.500003814697266 39.99188232421875 2.676363706588745 34.16427230834961 4.996417045593262 28.67905807495117 C 7.237643718719482 23.38020324707031 10.44645690917969 18.62104415893555 14.53375053405762 14.53375053405762 C 18.62103080749512 10.44647026062012 23.38020324707031 7.237643718719482 28.67905807495117 4.996417045593262 C 34.16427230834961 2.676363706588745 39.99188232421875 1.500003814697266 46.00000381469727 1.500003814697266 C 52.00812530517578 1.500003814697266 57.83573532104492 2.676363706588745 63.32094955444336 4.996417045593262 C 68.61980438232422 7.237643718719482 73.37897491455078 10.44647026062012 77.46625518798828 14.53375053405762 C 81.55355072021484 18.62104415893555 84.76236724853516 23.38020324707031 87.00359344482422 28.67905807495117 C 89.32364654541016 34.16427230834961 90.5 39.99188232421875 90.5 46.00000381469727 C 90.5 52.00812530517578 89.32364654541016 57.83573532104492 87.00359344482422 63.32094955444336 C 84.76236724853516 68.61980438232422 81.55355072021484 73.37897491455078 77.46625518798828 77.46625518798828 C 73.37897491455078 81.55355072021484 68.61980438232422 84.76236724853516 63.32094955444336 87.00359344482422 C 57.83573532104492 89.32364654541016 52.00812530517578 90.5 46.00000381469727 90.5 Z" stroke="none"/>
              <path d="M 46.00000381469727 3.000007629394531 C 40.19371795654297 3.000007629394531 34.56270217895508 4.136505126953125 29.26338958740234 6.377914428710938 C 24.14333343505859 8.54351806640625 19.54441833496094 11.64440155029297 15.59442138671875 15.59442138671875 C 11.64440155029297 19.54441833496094 8.54351806640625 24.14333343505859 6.377914428710938 29.26338958740234 C 4.136505126953125 34.56270217895508 3.000007629394531 40.19371795654297 3.000007629394531 46.00000381469727 C 3.000007629394531 51.80628967285156 4.136505126953125 57.43730545043945 6.377914428710938 62.73661804199219 C 8.54351806640625 67.85667419433594 11.64440155029297 72.45558929443359 15.59442138671875 76.40558624267578 C 19.54441833496094 80.35560607910156 24.14333343505859 83.45648956298828 29.26338958740234 85.62208557128906 C 34.56270217895508 87.86350250244141 40.19371795654297 89 46.00000381469727 89 C 51.80628967285156 89 57.43730545043945 87.86350250244141 62.73661804199219 85.62208557128906 C 67.85667419433594 83.45648956298828 72.45558929443359 80.35560607910156 76.40558624267578 76.40558624267578 C 80.35560607910156 72.45558929443359 83.45648956298828 67.85667419433594 85.62208557128906 62.73661804199219 C 87.86350250244141 57.43730545043945 89 51.80628967285156 89 46.00000381469727 C 89 40.19371795654297 87.86350250244141 34.56270217895508 85.62208557128906 29.26338958740234 C 83.45648956298828 24.14333343505859 80.35560607910156 19.54441833496094 76.40558624267578 15.59442138671875 C 72.45558929443359 11.64440155029297 67.85667419433594 8.54351806640625 62.73661804199219 6.377914428710938 C 57.43730545043945 4.136505126953125 51.80628967285156 3.000007629394531 46.00000381469727 3.000007629394531 M 46.00000381469727 7.62939453125e-06 C 71.40510559082031 7.62939453125e-06 92 20.59490203857422 92 46.00000381469727 C 92 71.40510559082031 71.40510559082031 92 46.00000381469727 92 C 20.59490203857422 92 7.62939453125e-06 71.40510559082031 7.62939453125e-06 46.00000381469727 C 7.62939453125e-06 20.59490203857422 20.59490203857422 7.62939453125e-06 46.00000381469727 7.62939453125e-06 Z" stroke="none" fill="#a530fe"/>
            </g>
          </g>
        </g>
      </g>
    </g>
    <g id="entrevista-de-trabajo" transform="translate(612.238 4880.244)">
      <g id="Grupo_1150137" data-name="Grupo 1150137" transform="translate(0)">
        <path id="Trazado_985778" data-name="Trazado 985778" d="M212.7,7.6a18.651,18.651,0,0,1,10.621,33.983v6.771a1.2,1.2,0,0,1-2.051.85l-4.7-4.7A18.652,18.652,0,1,1,212.7,7.6Z" transform="translate(-170.734 -6.689)" fill="#ffe177"/>
        <path id="Trazado_985779" data-name="Trazado 985779" d="M331.333,7.6a18.837,18.837,0,0,0-2.4.154,18.655,18.655,0,0,1,16.249,18.5,19.105,19.105,0,0,1-16.3,18.491A18.791,18.791,0,0,0,335.2,44.5l4.7,4.7a1.2,1.2,0,0,0,2.051-.85V41.586A18.651,18.651,0,0,0,331.333,7.6Z" transform="translate(-289.363 -6.689)" fill="#ffd15b"/>
        <path id="Trazado_985780" data-name="Trazado 985780" d="M26.152,155.427A18.651,18.651,0,0,0,15.531,189.41v6.771a1.2,1.2,0,0,0,2.051.85l4.7-4.7a18.652,18.652,0,1,0,3.866-36.9Z" transform="translate(-6.599 -136.75)" fill="#f9f7f8"/>
        <g id="Grupo_1150135" data-name="Grupo 1150135">
          <g id="Grupo_1150132" data-name="Grupo 1150132">
            <path id="Trazado_985781" data-name="Trazado 985781" fill="#fff"/>
          </g>
          <g id="Grupo_1150133" data-name="Grupo 1150133">
            <path id="Trazado_985782" data-name="Trazado 985782" fill="#fff"/>
          </g>
          <g id="Grupo_1150134" data-name="Grupo 1150134">
            <path id="Trazado_985783" data-name="Trazado 985783" fill="#fff"/>
          </g>
        </g>
        <g id="Grupo_1150136" data-name="Grupo 1150136" transform="translate(8.291 30.413)">
          <path id="Trazado_985784" data-name="Trazado 985784" d="M89.067,297.787H71.4a2.4,2.4,0,0,1-2.4-2.4v-9.112H91.47v9.112A2.4,2.4,0,0,1,89.067,297.787Z" transform="translate(-69 -282.286)" fill="#bc7c63"/>
          <path id="Trazado_985785" data-name="Trazado 985785" d="M198.4,283.925v8.231a2.4,2.4,0,0,1-2.4,2.4h4.807a2.4,2.4,0,0,0,2.4-2.4V282.6Z" transform="translate(-180.739 -279.058)" fill="#aa6a51"/>
          <path id="Trazado_985786" data-name="Trazado 985786" d="M149.422,301.673a1.817,1.817,0,0,1-1.817-1.817V295.1h3.634v4.753A1.817,1.817,0,0,1,149.422,301.673Z" transform="translate(-138.16 -290.056)" fill="#e5eef9"/>
          <path id="Trazado_985787" data-name="Trazado 985787" d="M69,255.505v2.088a1.2,1.2,0,0,0,.932,1.171l9.765,2.248A2.4,2.4,0,0,0,80.825,261l9.738-2.462a1.2,1.2,0,0,0,.907-1.165v-1.868a2.4,2.4,0,0,0-2.4-2.4H71.4A2.4,2.4,0,0,0,69,255.505Z" transform="translate(-69 -253.102)" fill="#d1a08f"/>
          <path id="Trazado_985788" data-name="Trazado 985788" d="M200.807,253.1H196a2.4,2.4,0,0,1,2.4,2.4v4.019l3.9-.986a1.2,1.2,0,0,0,.907-1.165v-1.868A2.4,2.4,0,0,0,200.807,253.1Z" transform="translate(-180.739 -253.103)" fill="#c68d7a"/>
        </g>
      </g>
      <g id="Grupo_1150138" data-name="Grupo 1150138" transform="translate(0 0.012)">
        <path id="Trazado_985789" data-name="Trazado 985789" d="M55.482,5.522a.9.9,0,1,0-1.246,1.3,17.75,17.75,0,0,1-2.159,27.422.9.9,0,0,0-.387.74v6.771q-.114.449-.513.212l-4.7-4.7a.9.9,0,0,0-.823-.245,18.01,18.01,0,0,1-6.546.151A19.587,19.587,0,0,0,24.261,18.44,17.755,17.755,0,0,1,51.329,4.57a.9.9,0,0,0,.952-1.531,19.556,19.556,0,0,0-29.8,15.046A19.553,19.553,0,0,0,8.031,53.215v6.306a2.127,2.127,0,0,0,3.59,1.487l4.364-4.364A19.566,19.566,0,0,0,39.044,38.989a19.824,19.824,0,0,0,6.5-.107L49.9,43.245a2.127,2.127,0,0,0,3.59-1.487V35.452a19.551,19.551,0,0,0,1.989-29.93ZM19.553,55.168a17.873,17.873,0,0,1-3.68-.383.9.9,0,0,0-.823.245l-4.7,4.7q-.4.236-.513-.212V52.75a.9.9,0,0,0-.387-.74A17.75,17.75,0,0,1,19.553,19.668a17.75,17.75,0,1,1,0,35.5Z" transform="translate(0 -0.103)"/>
        <path id="Trazado_985790" data-name="Trazado 985790" d="M287.77,157.021a.9.9,0,1,0-.261,1.256A.912.912,0,0,0,287.77,157.021Z" transform="translate(-251.741 -137.814)"/>
        <path id="Trazado_985791" data-name="Trazado 985791" d="M343.452,157.031a.9.9,0,1,0-.249,1.25A.909.909,0,0,0,343.452,157.031Z" transform="translate(-300.733 -137.824)"/>
        <path id="Trazado_985792" data-name="Trazado 985792" d="M399.134,157.029a.9.9,0,1,0-.283,1.271A.908.908,0,0,0,399.134,157.029Z" transform="translate(-349.724 -137.823)"/>
        <path id="Trazado_985793" data-name="Trazado 985793" d="M82.468,222.14h-4.1v-1.1a2.105,2.105,0,0,0-2.1-2.1H71.01a2.105,2.105,0,0,0-2.1,2.1v1.1H64.8a3.308,3.308,0,0,0-3.3,3.3v10.695a3.308,3.308,0,0,0,3.3,3.3h2.523a.9.9,0,1,0,0-1.8H64.8a1.5,1.5,0,0,1-1.5-1.5v-6.518l7.643,1.76v1.461a2.718,2.718,0,1,0,5.436,0v-1.517l7.589-1.918v6.733a1.5,1.5,0,0,1-1.5,1.5H70.933a.9.9,0,1,0,0,1.8H82.468a3.308,3.308,0,0,0,3.3-3.3V225.445A3.308,3.308,0,0,0,82.468,222.14Zm-11.759-1.1a.3.3,0,0,1,.3-.3h5.253a.3.3,0,0,1,.3.3v1.1H70.709Zm3.87,11.8a.916.916,0,0,1-1.831,0V231.8a3.448,3.448,0,0,0,1.831-.016Zm9.165-5.237-9.738,2.462a1.509,1.509,0,0,1-.705.007l-9.765-2.248a.3.3,0,0,1-.233-.293v-2.088a1.5,1.5,0,0,1,1.5-1.5H82.469a1.5,1.5,0,0,1,1.5,1.5v1.868A.3.3,0,0,1,83.744,227.6Z" transform="translate(-54.11 -192.64)"/>
      </g>
    </g>
  </g>
</svg>
