<svg xmlns="http://www.w3.org/2000/svg" xmlns:xlink="http://www.w3.org/1999/xlink" width="420" height="172.163" viewBox="0 0 420 172.163">
  <defs>
    <clipPath id="clip-path">
      <rect id="Rectángulo_408338" data-name="Rectángulo 408338" width="236.882" height="172.163" fill="none"/>
    </clipPath>
  </defs>
  <g id="Grupo_1150311" data-name="Grupo 1150311" transform="translate(-285 -5524.294)">
    <rect id="representation-collective-mind-process-concept-digital-art-style" width="420" height="146" transform="translate(285 5549)" fill="#3ad1e9"/>
    <g id="Grupo_1150310" data-name="Grupo 1150310" transform="translate(376.559 5524.294)">
      <g id="Grupo_1150307" data-name="Grupo 1150307">
        <g id="Grupo_1150306" data-name="Grupo 1150306" clip-path="url(#clip-path)">
          <path id="Trazado_986043" data-name="Trazado 986043" d="M27.383,168.693s-30.4-15.884-23.078-51.6S41.467,72.9,53.737,75.521c23,4.915-14.576,19.415-23.551-5.474C18.924,38.819,59.078,15.176,96.3,21.295c23.922,3.933,35.469,15.384,56.734,22.58,21.189,7.17,30.076-2.433,21.634-8-8.013-5.282-37.109,3.337-27.119,15.151,13.679,16.176,46.644-8.886,72.194,19.021s3.37,62.992-16.272,65.918-11.03-25.269,19.642-2.926S215.04,179.6,215.04,179.6" transform="translate(-1.507 -9.675)" fill="none" stroke="#6a3fdc" stroke-miterlimit="10" stroke-width="1"/>
        </g>
      </g>
      <g id="Grupo_1150309" data-name="Grupo 1150309">
        <g id="Grupo_1150308" data-name="Grupo 1150308" clip-path="url(#clip-path)">
          <path id="Trazado_986044" data-name="Trazado 986044" d="M234.648,324.5H2.234a2.234,2.234,0,1,1,0-4.468H236.882v2.234a2.234,2.234,0,0,1-2.234,2.234" transform="translate(0 -152.338)" fill="#6876eb"/>
          <path id="Trazado_986045" data-name="Trazado 986045" d="M85.755,324.5H2.234A2.234,2.234,0,0,1,0,322.266v-2.234H87.989v2.234a2.234,2.234,0,0,1-2.234,2.234" transform="translate(0 -152.338)" fill="#1c145e"/>
          <path id="Trazado_986046" data-name="Trazado 986046" d="M210.719,157.509c-9.953,19.126-21.136,26.917-21.136,26.917l9.658,15.419,16.865-17.525Z" transform="translate(-90.243 -74.975)" fill="#1c145e"/>
          <path id="Trazado_986047" data-name="Trazado 986047" d="M252.644,148.8l-24.677,4.565c-1.563,46.69-2.149,85.156-2.149,85.156h44.3s1.285-71.5-5.84-87.094Z" transform="translate(-107.491 -70.828)" fill="#1c145e"/>
          <line id="Línea_625" data-name="Línea 625" y1="1.018" x2="12.022" transform="translate(142.288 100.744)" fill="none" stroke="#6876eb" stroke-miterlimit="10" stroke-width="4"/>
          <path id="Trazado_986048" data-name="Trazado 986048" d="M261.014,175.053s7.631,52.073.991,73.143" transform="translate(-124.245 -83.327)" fill="none" stroke="#6876eb" stroke-miterlimit="10" stroke-width="1"/>
          <path id="Trazado_986049" data-name="Trazado 986049" d="M245.766,224.832a54.944,54.944,0,0,0,16.926,3.281c9.555.313,3.61,5.4-10.555,4.434" transform="translate(-116.986 -107.022)" fill="none" stroke="#6876eb" stroke-miterlimit="10" stroke-width="1"/>
          <path id="Trazado_986050" data-name="Trazado 986050" d="M249.391,138.695l6.09,16.181,8.384-14.282-5.526-9.03Z" transform="translate(-118.712 -62.625)" fill="#e9a394"/>
          <path id="Trazado_986051" data-name="Trazado 986051" d="M261.014,163.079l11.369-3.139L269.4,148.8Z" transform="translate(-124.245 -70.828)" fill="#6876eb"/>
          <path id="Trazado_986052" data-name="Trazado 986052" d="M246.369,152.035l-6.17,6.892,10.907,5.694Z" transform="translate(-114.336 -72.37)" fill="#6876eb"/>
          <path id="Trazado_986053" data-name="Trazado 986053" d="M192.709,209.4s3.6-7.515-4.134-17.193c-4.291-5.367-6.267-14.629-6.267-14.629l-6.447.98,5.9,30.842Z" transform="translate(-83.711 -84.527)" fill="#e9a394"/>
          <path id="Trazado_986054" data-name="Trazado 986054" d="M163.9,159.119l-2.639,2.4,3.528,3.114-11.048-.188-.237,3.792,11.714,1.534,6.447-.98Z" transform="translate(-73.07 -75.742)" fill="#e9a394"/>
          <path id="Trazado_986055" data-name="Trazado 986055" d="M166.781,166.415l-10.6-4.373-.684,1.883,8.848,3.719Z" transform="translate(-74.017 -77.133)" fill="#e9a394"/>
          <path id="Trazado_986056" data-name="Trazado 986056" d="M299.207,153.808s14.241,8.108,18.737,38.48l-16.521,3.986Z" transform="translate(-142.425 -73.214)" fill="#1c145e"/>
          <path id="Trazado_986057" data-name="Trazado 986057" d="M235.3,106.288l-5.378,13.763,4.113,1.265,1.265,7.751,13.13-3.006,1.9-21.039Z" transform="translate(-109.443 -49.991)" fill="#e9a394"/>
          <path id="Trazado_986058" data-name="Trazado 986058" d="M247.785,110.48H237.744l1.1-2.967,8.946-.553Z" transform="translate(-113.168 -50.914)" fill="#e37a82"/>
          <path id="Trazado_986059" data-name="Trazado 986059" d="M248.344,104.12s-6.406-1.325-6.406-7.952c0,0-9.505,1.294-12.786-3.865-3.886-6.112,2.053-13.135,6.958-11.708,0,0-3.09,3.063,1.6,3.424,3.348.257,9.466-4.2,11.65.111,0,0,16.851,3.849,4.271,19.549Z" transform="translate(-108.481 -38.275)" fill="#16005c"/>
          <path id="Trazado_986060" data-name="Trazado 986060" d="M240.48,95.844s-12.705,2.455-15.362-6.656c-1.554-5.326,3.785-8.36,3.785-8.36" transform="translate(-107.023 -38.475)" fill="none" stroke="#16005c" stroke-miterlimit="10" stroke-width="2"/>
          <path id="Trazado_986061" data-name="Trazado 986061" d="M244.854,119.768a4.8,4.8,0,1,1-4.364-5.193A4.8,4.8,0,0,1,244.854,119.768Z" transform="translate(-111.995 -54.53)" fill="none" stroke="#16005c" stroke-miterlimit="10" stroke-width="0.5"/>
          <line id="Línea_626" data-name="Línea 626" x2="6.831" y2="0.374" transform="translate(132.619 63.272)" fill="none" stroke="#16005c" stroke-miterlimit="10" stroke-width="0.5"/>
          <path id="Trazado_986062" data-name="Trazado 986062" d="M272.939,123.08c0,2.971-3.98,5.378-6.95,5.378s-3.807-2.408-3.807-5.378a5.379,5.379,0,0,1,10.757,0" transform="translate(-124.801 -56.027)" fill="#e9a394"/>
          <path id="Trazado_986063" data-name="Trazado 986063" d="M319.034,228.152v24.8H306.668l-1.029-21.569Z" transform="translate(-145.486 -108.602)" fill="#e9a394"/>
          <path id="Trazado_986064" data-name="Trazado 986064" d="M221.275,201.752l.519-17.281-8.011,25.067Z" transform="translate(-101.762 -87.81)" fill="#1c145c"/>
          <path id="Trazado_986065" data-name="Trazado 986065" d="M250.607,146.82l7.668-1.646-6.287,5.361Z" transform="translate(-119.291 -69.104)" fill="#e37a82"/>
          <path id="Trazado_986066" data-name="Trazado 986066" d="M242.036,122.572c0,1.057-.411,1.915-.918,1.915s-.919-.857-.919-1.915.411-1.915.919-1.915.918.857.918,1.915" transform="translate(-114.336 -57.434)" fill="#16005c"/>
          <path id="Trazado_986067" data-name="Trazado 986067" d="M244.854,114.147c0-2.565-2.043-.838-2.043-.838Z" transform="translate(-115.58 -53.665)" fill="#16005c"/>
          <path id="Trazado_986068" data-name="Trazado 986068" d="M242.811,136.394l2.921-.778s1.251,10.835-2.921.778" transform="translate(-115.58 -64.554)" fill="#fff"/>
          <path id="Trazado_986069" data-name="Trazado 986069" d="M122.672,229.721s19.709-3.05,20.1,31.319c.062,5.577,3.614,15.97,3.614,15.97H128.521Z" transform="translate(-58.393 -109.316)" fill="#5321d7"/>
          <path id="Trazado_986070" data-name="Trazado 986070" d="M72.522,223.964,60.61,226.776,64.244,274.3h46.349s-1.555-37.6-19.033-48.884Z" transform="translate(-28.851 -106.608)" fill="#6a3fdc"/>
          <path id="Trazado_986071" data-name="Trazado 986071" d="M51.621,229.228c-12.278,2.8-9.4,12.224-7.033,31.575-6.128,4.977-.249,7.217-.249,7.217-6.73,7.134,1.666,8.735,1.666,8.735H68.418s-4.511-50.329-16.8-47.527" transform="translate(-19.862 -109.061)" fill="#6a3fdc"/>
          <line id="Línea_627" data-name="Línea 627" x1="5.379" y1="24.691" transform="translate(41.845 132.027)" fill="none" stroke="#5321d7" stroke-miterlimit="10" stroke-width="1"/>
          <path id="Trazado_986072" data-name="Trazado 986072" d="M49.891,305.307s3.784-8.688,15.744-13.056c9.917-3.621,24.422,5.78,33.708-3.153l1.72,10.057L72.3,305.307Z" transform="translate(-23.748 -137.613)" fill="#e9a394"/>
          <path id="Trazado_986073" data-name="Trazado 986073" d="M111.592,175.656l8.867,13.5-5.69,2.031-.984,10.969-17.1-5.941L98.3,173.9Z" transform="translate(-46.023 -82.778)" fill="#e9a394"/>
          <path id="Trazado_986074" data-name="Trazado 986074" d="M92.084,204.308l-8.741,10.3,11.209,13.737L99.608,212.3Z" transform="translate(-39.672 -97.252)" fill="#e37a82"/>
          <path id="Trazado_986075" data-name="Trazado 986075" d="M103.675,185.051l12.508-4.34-2.274-3.46-12.356,1.285Z" transform="translate(-48.34 -84.373)" fill="#e37a82"/>
          <path id="Trazado_986076" data-name="Trazado 986076" d="M90.555,179.941s3.787,7.582,1.152-7.033c0,0,3.594.4,6.407-4.339,0,0-.875,7.729,7.381,0s-2.24-13.775-15.063-11.5c-11.115,1.972-22.239,8.252-5.982,29.544Z" transform="translate(-36.3 -74.535)" fill="#16005c"/>
          <path id="Trazado_986077" data-name="Trazado 986077" d="M90.242,199.879a6.234,6.234,0,0,1-3.842,2.4,5.94,5.94,0,0,1-6.468-5.01c-.444-3.047,1.1-4.629,4.143-5.073a7.561,7.561,0,0,1,5.184,1.292c.449.56.984,6.387.984,6.387" transform="translate(-38.012 -91.459)" fill="#e9a394"/>
          <path id="Trazado_986078" data-name="Trazado 986078" d="M121.673,193.316c.282,1.042.142,1.986-.314,2.11s-1.056-.62-1.338-1.662-.142-1.986.314-2.11,1.056.62,1.338,1.662" transform="translate(-57.061 -91.223)" fill="#16005c"/>
          <path id="Trazado_986079" data-name="Trazado 986079" d="M116.052,188.738s-.444-2.506,1.882-1.3Z" transform="translate(-55.226 -89.066)" fill="#16005c"/>
          <path id="Trazado_986080" data-name="Trazado 986080" d="M80.672,219.591,82.7,217.26l-.745-1.728,4.594-1.641,13.178,6.627.486,5.06-2.231-.7-3.641,13.57Z" transform="translate(-38.4 -101.814)" fill="#6a3fdc"/>
          <path id="Trazado_986081" data-name="Trazado 986081" d="M103.383,228.925l7.642,2.674-.485-5.06" transform="translate(-49.211 -107.834)" fill="none" stroke="#5321d7" stroke-miterlimit="10" stroke-width="1"/>
          <path id="Trazado_986082" data-name="Trazado 986082" d="M102.617,187.737s1.537,8.948,3.786,10.787c.738.6,2.136-.933,8.569-1.062,3.934-.079,3.931,13.652-1.289,13.258s-13.153-3.648-14.342-13.656c-1.043-8.779,3.275-9.328,3.275-9.328" transform="translate(-47.21 -89.364)" fill="#16005c"/>
          <path id="Trazado_986083" data-name="Trazado 986083" d="M117.968,211.5a2.607,2.607,0,0,0,3.941.8" transform="translate(-56.154 -100.676)" fill="none" stroke="#c4c6c5" stroke-miterlimit="10" stroke-width="1"/>
          <path id="Trazado_986084" data-name="Trazado 986084" d="M134.931,309.249h-44v3.26a2.391,2.391,0,0,0,2.39,2.391h41.608a2.391,2.391,0,0,0,2.39-2.391v-.869a2.391,2.391,0,0,0-2.39-2.39" transform="translate(-43.284 -147.205)" fill="#1c145e"/>
          <path id="Trazado_986085" data-name="Trazado 986085" d="M190.108,246.883H138.926a3.022,3.022,0,0,0-3,2.639l-4.123,32.285a3.022,3.022,0,0,0,3,3.4h51.182a3.022,3.022,0,0,0,3-2.639l4.123-32.285a3.023,3.023,0,0,0-3-3.405" transform="translate(-62.728 -117.518)" fill="#1c145e"/>
          <path id="Trazado_986086" data-name="Trazado 986086" d="M194.835,246.883H143.653a3.022,3.022,0,0,0-3,2.639l-4.123,32.285a3.022,3.022,0,0,0,3,3.4h51.182a3.022,3.022,0,0,0,3-2.639l4.123-32.285a3.023,3.023,0,0,0-3-3.405" transform="translate(-64.979 -117.518)" fill="#6876eb"/>
          <path id="Trazado_986087" data-name="Trazado 986087" d="M195.485,278.872a5.745,5.745,0,0,1-5.578,5.048,4.461,4.461,0,0,1-4.517-5.048,5.745,5.745,0,0,1,5.578-5.048,4.461,4.461,0,0,1,4.517,5.048" transform="translate(-88.233 -130.342)" fill="#fff"/>
          <line id="Línea_628" data-name="Línea 628" x1="63.707" transform="translate(65.033 167.421)" fill="none" stroke="#1c145e" stroke-miterlimit="10" stroke-width="1"/>
          <path id="Trazado_986088" data-name="Trazado 986088" d="M299.407,213.918l21.149.4-4.795-25.871-11.246,1.273s-5.065,7.476-1.065,13.289c4.514,6.559-4.508,6.8-4.043,10.907" transform="translate(-142.512 -89.703)" fill="#16005c"/>
          <path id="Trazado_986089" data-name="Trazado 986089" d="M304.516,190.878s-5.065,7.476-1.065,13.29c4.513,6.559-4.508,6.8-4.043,10.907" transform="translate(-142.512 -90.859)" fill="none" stroke="#7079f1" stroke-miterlimit="10" stroke-width="2"/>
          <path id="Trazado_986090" data-name="Trazado 986090" d="M303.873,231.093s-9.623,9.442-14.7,45.026h10.711Z" transform="translate(-137.65 -110.002)" fill="#7079f1"/>
          <path id="Trazado_986091" data-name="Trazado 986091" d="M333.693,225.069l-4.188,47.657H298.395l3.872-18.2s-11.844-6.179,5.994-26.825l4.434-2.281,19.261-1.455Z" transform="translate(-142.038 -106.608)" fill="#c3c8ff"/>
          <path id="Trazado_986092" data-name="Trazado 986092" d="M314.76,271.8s-1.865,3.194-.072,5.759l-2.64,17.939" transform="translate(-148.537 -129.377)" fill="none" stroke="#7079f1" stroke-miterlimit="10" stroke-width="1"/>
          <line id="Línea_629" data-name="Línea 629" x2="18.02" y2="0.532" transform="translate(161.875 147.998)" fill="none" stroke="#7079f1" stroke-miterlimit="10" stroke-width="1"/>
          <line id="Línea_630" data-name="Línea 630" x1="1.906" y1="22.922" transform="translate(181.541 134.046)" fill="none" stroke="#7079f1" stroke-miterlimit="10" stroke-width="1"/>
          <path id="Trazado_986093" data-name="Trazado 986093" d="M361.955,226.073a30.745,30.745,0,0,1,3.707,7.173c2.82,7.107,6.184,19.946,5.964,40.483H357.767Z" transform="translate(-170.3 -107.612)" fill="#c3c8ff"/>
          <path id="Trazado_986094" data-name="Trazado 986094" d="M337.1,309.013s-6.925-15.835-24.34-11.3c-19.016,4.948-26.078,4.023-26.078,4.023l-1.441,7.28Z" transform="translate(-135.778 -141.324)" fill="#e9a394"/>
          <path id="Trazado_986095" data-name="Trazado 986095" d="M344.005,292.1l-6.179,1.382,14.036,13.25h13.23s-5.7-13.826-21.087-14.631" transform="translate(-160.808 -139.041)" fill="#7079f1"/>
          <line id="Línea_631" data-name="Línea 631" y1="0.899" x2="2.943" transform="translate(183.58 156.268)" fill="none" stroke="#c3c8ff" stroke-miterlimit="10" stroke-width="1"/>
          <path id="Trazado_986096" data-name="Trazado 986096" d="M273.9,304.43l-9.036-1.869-6.478,9.149h14.072Z" transform="translate(-122.995 -144.022)" fill="#e9a394"/>
          <path id="Trazado_986097" data-name="Trazado 986097" d="M317.224,246.91l16.791-16.791-3.119-1.473,11.76-5.7-5.4-3.436H324.687l-7.463,9.328,2.062.518-2.062,1.446Z" transform="translate(-151.001 -104.49)" fill="#7079f1"/>
          <path id="Trazado_986098" data-name="Trazado 986098" d="M328.963,214.937l5.485-3.791-5.921-13.24-9.177,5.764,2.585,10.982-4.711,21.972Z" transform="translate(-151.001 -94.205)" fill="#e9a394"/>
          <path id="Trazado_986099" data-name="Trazado 986099" d="M322.69,211.842l6.441-3.359-5.75,6.291Z" transform="translate(-153.603 -99.24)" fill="#e37a82"/>
          <path id="Trazado_986100" data-name="Trazado 986100" d="M297.68,175.6l-2.812,15.587h4.219l4.737,6.513,12.064-6.291-8.437-18.8Z" transform="translate(-140.359 -82.162)" fill="#e9a394"/>
          <path id="Trazado_986101" data-name="Trazado 986101" d="M298.676,183.766l-.282,1.712,11.126-1.518-.17-2.132Z" transform="translate(-142.038 -86.552)" fill="#e37a82"/>
          <path id="Trazado_986102" data-name="Trazado 986102" d="M327.324,163.977c-2.785-7.55-6.19-10.46-6.19-10.46-6.825-6.783-18.492.743-18.492.743-14.951-3.619-8.882,14.943-8.882,14.943l12.176-1.493c1.7,10.214,7.79,5.042,7.79,5.042l2.84,5.122s-2.865,2.532.122,6.872c2.459,3.574-3.43,4.792-1.908,8.6l23.535-4.878c0-15.484-5.957-10.841-10.99-24.486" transform="translate(-139.252 -71.726)" fill="#16005c"/>
          <path id="Trazado_986103" data-name="Trazado 986103" d="M292.516,172.418s-2.153-10.6,1.8-14.046c2.062-1.8,8.557-1.017,8.557-1.017" transform="translate(-138.961 -74.822)" fill="none" stroke="#7079f1" stroke-miterlimit="10" stroke-width="2"/>
          <path id="Trazado_986104" data-name="Trazado 986104" d="M375.24,208.272s1.88-7.048-8.361-15.039" transform="translate(-174.637 -91.98)" fill="none" stroke="#16005c" stroke-miterlimit="10" stroke-width="2"/>
          <path id="Trazado_986105" data-name="Trazado 986105" d="M334.1,189.542a5.07,5.07,0,1,1-5.07-5.07,5.07,5.07,0,0,1,5.07,5.07" transform="translate(-154.209 -87.81)" fill="#e9a394"/>
          <path id="Trazado_986106" data-name="Trazado 986106" d="M308.926,206.265l3.143-.772s1.1,8.963-3.143.772" transform="translate(-147.051 -97.816)" fill="#fff"/>
          <path id="Trazado_986107" data-name="Trazado 986107" d="M303.931,194.395s1-6.1,3.189,0" transform="translate(-144.673 -91.243)" fill="none" stroke="#1c145e" stroke-miterlimit="10" stroke-width="0.5"/>
          <path id="Trazado_986108" data-name="Trazado 986108" d="M305.4,187.172a1.447,1.447,0,0,1,2.662,0Z" transform="translate(-145.375 -88.659)" fill="#16005c"/>
          <path id="Trazado_986109" data-name="Trazado 986109" d="M198.583,77.533A9.4,9.4,0,1,0,185.29,88.99a13.5,13.5,0,0,1,4.869,4.4l.355.533,7.041-2.531-.066-.635a14.025,14.025,0,0,1,.991-6.6,9.363,9.363,0,0,0,.1-6.63" transform="translate(-85.845 -33.945)" fill="#c3c8ff"/>
          <path id="Trazado_986110" data-name="Trazado 986110" d="M198.583,77.533A9.4,9.4,0,1,0,185.29,88.99a13.5,13.5,0,0,1,4.869,4.4l.355.533,7.041-2.531-.066-.635a14.025,14.025,0,0,1,.991-6.6,9.363,9.363,0,0,0,.1-6.63" transform="translate(-85.845 -33.945)" fill="#c3c8ff"/>
          <path id="Trazado_986111" data-name="Trazado 986111" d="M197.728,100.021l-5.612-7.915a1.489,1.489,0,0,1,1.864-1.349c1.762.254,2.814,3.034,1.556,2.586s-1.7-3.717.677-4.216,3.173,4.906,1.859,3.864-1.037-4.482,1.51-4.51L201.077,99.9" transform="translate(-91.449 -42.118)" fill="none" stroke="#fff" stroke-miterlimit="10" stroke-width="1"/>
          <path id="Trazado_986112" data-name="Trazado 986112" d="M206.3,113.928l-3.306,1.189a2.419,2.419,0,0,1-3.095-1.458l-.7-1.943a2.419,2.419,0,0,1,1.458-3.095l3.306-1.189a2.418,2.418,0,0,1,3.095,1.458l.7,1.944a2.419,2.419,0,0,1-1.458,3.095" transform="translate(-94.752 -51.07)" fill="#16005c"/>
          <rect id="Rectángulo_408339" data-name="Rectángulo 408339" width="10.581" height="5.165" transform="translate(102.375 58.179) rotate(-19.775)" fill="#6876eb"/>
          <line id="Línea_632" data-name="Línea 632" x1="0.993" y1="5.695" transform="translate(102.662 29.275)" fill="none" stroke="#c3c8ff" stroke-miterlimit="10" stroke-width="1"/>
          <line id="Línea_633" data-name="Línea 633" x1="4.757" y1="4.646" transform="translate(91.723 33.716)" fill="none" stroke="#c3c8ff" stroke-miterlimit="10" stroke-width="1"/>
          <line id="Línea_634" data-name="Línea 634" x1="5.428" y2="0.389" transform="translate(86.095 46.803)" fill="none" stroke="#c3c8ff" stroke-miterlimit="10" stroke-width="1"/>
          <line id="Línea_635" data-name="Línea 635" y1="4.53" x2="2.443" transform="translate(111.479 33.561)" fill="none" stroke="#c3c8ff" stroke-miterlimit="10" stroke-width="1"/>
          <path id="Trazado_986113" data-name="Trazado 986113" d="M356.981,131.261h33.655a2.654,2.654,0,0,0,2.5-2.119l3.478-19.187a1.72,1.72,0,0,0-1.735-2.119H361.227a2.654,2.654,0,0,0-2.5,2.119l-3.478,19.187a1.72,1.72,0,0,0,1.735,2.119" transform="translate(-169.083 -51.331)" fill="#1c145c"/>
          <path id="Trazado_986114" data-name="Trazado 986114" d="M403.28,128.19a1.786,1.786,0,0,0,1.8,2.2,2.757,2.757,0,0,0,2.6-2.2,1.786,1.786,0,0,0-1.8-2.2,2.756,2.756,0,0,0-2.6,2.2" transform="translate(-191.947 -59.972)" fill="#fff"/>
          <path id="Trazado_986115" data-name="Trazado 986115" d="M390.522,128.19a1.786,1.786,0,0,0,1.8,2.2,2.757,2.757,0,0,0,2.6-2.2,1.786,1.786,0,0,0-1.8-2.2,2.756,2.756,0,0,0-2.6,2.2" transform="translate(-185.874 -59.972)" fill="#fff"/>
          <path id="Trazado_986116" data-name="Trazado 986116" d="M377.764,128.19a1.786,1.786,0,0,0,1.8,2.2,2.757,2.757,0,0,0,2.6-2.2,1.786,1.786,0,0,0-1.8-2.2,2.756,2.756,0,0,0-2.6,2.2" transform="translate(-179.801 -59.972)" fill="#fff"/>
          <path id="Trazado_986117" data-name="Trazado 986117" d="M382.533,149.635l-11.694,6.95,2.1-7.5Z" transform="translate(-176.522 -70.967)" fill="#1c145c"/>
          <path id="Trazado_986118" data-name="Trazado 986118" d="M115.64,125.833H81.985a2.654,2.654,0,0,1-2.5-2.119L76,104.527a1.72,1.72,0,0,1,1.735-2.119h33.655a2.654,2.654,0,0,1,2.5,2.119l3.478,19.187a1.72,1.72,0,0,1-1.735,2.119" transform="translate(-36.162 -48.747)" fill="#c3c8ff"/>
          <path id="Trazado_986119" data-name="Trazado 986119" d="M102.924,122.762a1.786,1.786,0,0,1-1.8,2.2,2.757,2.757,0,0,1-2.6-2.2,1.786,1.786,0,0,1,1.8-2.2,2.756,2.756,0,0,1,2.6,2.2" transform="translate(-46.88 -57.388)" fill="#fff"/>
          <path id="Trazado_986120" data-name="Trazado 986120" d="M115.682,122.762a1.786,1.786,0,0,1-1.8,2.2,2.757,2.757,0,0,1-2.6-2.2,1.786,1.786,0,0,1,1.8-2.2,2.756,2.756,0,0,1,2.6,2.2" transform="translate(-52.953 -57.388)" fill="#fff"/>
          <path id="Trazado_986121" data-name="Trazado 986121" d="M128.439,122.762a1.786,1.786,0,0,1-1.8,2.2,2.757,2.757,0,0,1-2.6-2.2,1.786,1.786,0,0,1,1.8-2.2,2.756,2.756,0,0,1,2.6,2.2" transform="translate(-59.025 -57.388)" fill="#fff"/>
          <path id="Trazado_986122" data-name="Trazado 986122" d="M128.766,144.279l1.845,6.709,7.466-7.178Z" transform="translate(-61.294 -68.454)" fill="#c3c8ff"/>
        </g>
      </g>
    </g>
  </g>
</svg>
